<?xml version="1.0" encoding="utf-8"?>
<!-- Generator: Adobe Illustrator 23.1.1, SVG Export Plug-In . SVG Version: 6.00 Build 0)  -->
<svg version="1.1" id="Lager_2" xmlns="http://www.w3.org/2000/svg" xmlns:xlink="http://www.w3.org/1999/xlink" x="0px" y="0px"
	 viewBox="0 0 43.4 43.4" style="enable-background:new 0 0 43.4 43.4;" xml:space="preserve">
<style type="text/css">
	.st0{display:none;fill:#3B544D;}
	.st1{fill:none;stroke:#455B57;stroke-width:2;stroke-linecap:round;stroke-linejoin:round;stroke-miterlimit:10;}
</style>
<rect x="-0.6" y="-0.6" class="st0" width="45" height="45"/>
<g id="Lager_1">
	<g>
		<g>
			<path class="st1" d="M33.8,26.8H9.2c-0.6,0-1-0.4-1-1v-2.6c0-0.6,0.4-1,1-1h24.6c0.6,0,1,0.4,1,1v2.6
				C34.8,26.3,34.4,26.8,33.8,26.8z"/>
			<path class="st1" d="M10.1,26.8l2.8,13.3c0.1,0.4,0.4,0.7,0.9,0.7h15.6c0.4,0,0.8-0.3,0.9-0.7L33,26.8"/>
		</g>
		<line class="st1" x1="21.1" y1="22.4" x2="21.1" y2="12.3"/>
		<path class="st1" d="M21.3,11.9c5.2-3.6,0-9.5,0-9.5S16.1,8.2,21.3,11.9z"/>
		<path class="st1" d="M22.1,18c6.2,1.1,6.7-6.7,6.7-6.7S21,11.8,22.1,18z"/>
		<path class="st1" d="M20.5,21.4c-6.2,1.1-6.7-6.7-6.7-6.7S21.5,15.2,20.5,21.4z"/>
	</g>
</g>
</svg>
