<svg width="50" height="50" viewBox="0 0 50 50" fill="none" xmlns="http://www.w3.org/2000/svg">
<circle cx="24.8201" cy="24.8201" r="24.8201" fill="#E8E8E8"/>
<path d="M22.7098 25.2484L16.6145 19.1531C16.0535 18.5921 16.0535 17.6824 16.6145 17.1214V17.1214C17.1756 16.5603 18.0852 16.5603 18.6463 17.1214L24.7416 23.2166L30.8369 17.1214C31.3979 16.5603 32.3076 16.5603 32.8686 17.1214V17.1214C33.4297 17.6824 33.4297 18.5921 32.8686 19.1531L26.7733 25.2484L32.8686 31.3437C33.4297 31.9047 33.4297 32.8144 32.8686 33.3755V33.3755C32.3076 33.9365 31.3979 33.9365 30.8369 33.3755L24.7416 27.2802L18.6463 33.3755C18.0852 33.9365 17.1756 33.9365 16.6145 33.3755V33.3755C16.0535 32.8144 16.0535 31.9047 16.6145 31.3437L22.7098 25.2484Z" fill="#444444"/>
</svg>
