<svg width="866" height="501" viewBox="0 0 866 501" fill="none" xmlns="http://www.w3.org/2000/svg">
<path d="M469.804 433.833C432.79 396.751 432.79 336.629 469.804 299.547C506.817 262.465 566.828 262.465 603.841 299.547C640.855 336.629 640.855 396.751 603.841 433.833C566.828 470.915 506.817 470.915 469.804 433.833Z" fill="#F99746"/>
<path d="M475.333 428.293C441.374 394.271 441.374 339.109 475.333 305.087C509.293 271.064 564.352 271.064 598.312 305.087C632.272 339.109 632.272 394.271 598.312 428.293C564.352 462.316 509.293 462.316 475.333 428.293Z" fill="#163560"/>
<path d="M524.713 366.108C524.713 366.108 527.528 368.058 527.25 370.496C526.972 372.933 522.141 372.515 524.713 366.108Z" fill="#DDE7FE"/>
<path d="M576.604 308.063C576.604 308.063 579.28 310.187 578.863 312.59C578.446 314.992 573.65 314.261 576.604 308.063Z" fill="#DDE7FE"/>
<path d="M545.289 304.581C545.289 304.581 548.208 302.77 550.293 304.024C552.414 305.243 550.12 309.525 545.289 304.581Z" fill="#DDE7FE"/>
<path d="M468.026 366.108C468.026 366.108 470.841 368.058 470.563 370.496C470.285 372.933 465.454 372.515 468.026 366.108Z" fill="#DDE7FE"/>
<path d="M575.874 366.701C575.874 366.701 575.77 370.113 573.615 371.227C571.425 372.342 569.097 368.059 575.874 366.701Z" fill="#DDE7FE"/>
<path d="M545.254 397.343C545.254 397.343 545.149 400.755 542.994 401.869C540.84 402.983 538.511 398.7 545.254 397.343Z" fill="#DDE7FE"/>
<path d="M490.374 399.501C490.374 399.501 493.12 397.481 495.344 398.491C497.534 399.57 495.587 404.027 490.374 399.501Z" fill="#DDE7FE"/>
<path d="M485.786 339.751C485.786 339.751 488.532 337.731 490.756 338.741C492.946 339.785 491.034 344.242 485.786 339.751Z" fill="#DDE7FE"/>
<path d="M519.708 430.806C519.708 430.806 522.454 428.786 524.678 429.796C526.868 430.84 524.921 435.297 519.708 430.806Z" fill="#DDE7FE"/>
<path d="M545.254 339.751C545.254 339.751 547.999 337.731 550.224 338.741C552.413 339.785 550.502 344.242 545.254 339.751Z" fill="#DDE7FE"/>
<path d="M590.576 343.336C590.576 343.336 593.322 341.317 595.546 342.327C597.736 343.406 595.789 347.863 590.576 343.336Z" fill="#DDE7FE"/>
<path d="M581.818 401.731C581.818 401.731 584.563 399.711 586.788 400.721C588.977 401.766 587.031 406.223 581.818 401.731Z" fill="#DDE7FE"/>
<path d="M517.449 351.416C517.449 351.416 519.847 350.928 520.195 351.764C520.542 352.6 519.256 353.331 518.283 352.983C517.275 352.634 517.032 352.042 517.449 351.416Z" fill="#0B0755"/>
<path d="M634.056 63.8327C634.056 63.8327 653.519 37.6477 642.78 30.0568C632.04 22.4659 634.056 63.8327 634.056 63.8327C634.056 63.8327 632.422 62.7184 634.056 63.8327Z" fill="#85B779"/>
<path d="M623.559 35.2794C612.194 36.6722 634.056 63.8319 634.056 63.8319C634.056 63.8319 634.925 33.8518 623.559 35.2794Z" fill="#85B779"/>
<path d="M647.61 336.338C647.61 336.338 643.023 386.027 663.042 387.35C683.062 388.639 647.61 336.338 647.61 336.338C647.61 336.338 650.634 336.477 647.61 336.338Z" fill="#85B779"/>
<path d="M683.965 365.204C697.694 354.305 647.61 336.303 647.61 336.303C647.61 336.303 670.237 376.103 683.965 365.204Z" fill="#85B779"/>
<path d="M163.805 210.67C163.805 210.67 173.85 181.143 161.859 177.417C149.903 173.656 163.805 210.67 163.805 210.67C163.805 210.67 161.998 210.148 163.805 210.67Z" fill="#85B779"/>
<path d="M145.941 187.793C136 192.425 163.805 210.671 163.805 210.671C163.805 210.671 155.881 183.197 145.941 187.793Z" fill="#85B779"/>
<path d="M465.489 264.886C465.489 264.886 475.533 235.358 463.542 231.632C451.586 227.907 465.489 264.886 465.489 264.886C465.489 264.886 463.681 264.363 465.489 264.886Z" fill="#85B779"/>
<path d="M447.589 242.009C437.649 246.641 465.454 264.887 465.454 264.887C465.454 264.887 457.529 237.413 447.589 242.009Z" fill="#85B779"/>
<path d="M273.635 403.229C273.635 403.229 259.176 379.551 247.185 382.093C235.195 384.635 273.635 403.229 273.635 403.229Z" fill="#E6EFFF"/>
<path d="M143.125 483.42L144.62 484.778C228.382 427.672 304.22 406.431 305.263 406.153L304.741 404.238C303.699 404.551 227.305 425.896 143.125 483.42Z" fill="#85B779"/>
<path d="M326.255 416.146C320.521 415.868 303.977 406.257 304.046 404.621C304.116 402.984 321.529 395.045 327.263 395.324C332.998 395.602 337.447 400.477 337.169 406.257C336.891 412.003 331.99 416.425 326.255 416.146Z" fill="#E6EFFF"/>
<path d="M320.938 385.4C319.478 390.971 306.722 405.213 305.123 404.795C303.525 404.377 299.354 385.713 300.814 380.142C302.273 374.571 307.939 371.228 313.5 372.69C319.061 374.153 322.397 379.828 320.938 385.4Z" fill="#E6EFFF"/>
<path d="M292.472 381.918C297.13 385.295 305.68 402.427 304.706 403.75C303.733 405.074 284.861 402.149 280.203 398.771C275.546 395.393 274.538 388.847 277.91 384.216C281.35 379.55 287.85 378.54 292.472 381.918Z" fill="#E6EFFF"/>
<path d="M280.864 407.441C285.66 404.308 304.672 402.358 305.576 403.716C306.479 405.109 297.06 421.753 292.229 424.887C287.433 428.02 280.968 426.662 277.84 421.857C274.678 417.052 276.033 410.61 280.864 407.441Z" fill="#E6EFFF"/>
<path d="M299.528 428.856C298.451 423.215 303.803 404.83 305.436 404.517C307.035 404.204 318.887 419.246 319.964 424.887C321.042 430.528 317.358 435.994 311.727 437.109C306.097 438.223 300.605 434.497 299.528 428.856Z" fill="#E6EFFF"/>
<path d="M307.974 406.814C309.26 405.421 309.155 403.227 307.73 401.974C306.34 400.685 304.15 400.79 302.899 402.217C301.613 403.61 301.717 405.804 303.142 407.057C304.533 408.346 306.688 408.241 307.974 406.814Z" fill="#163560"/>
<path d="M224.107 419.246C222.195 428.02 203.253 451.072 200.751 450.515C198.249 449.957 190.498 421.126 192.41 412.351C194.321 403.576 202.941 398.005 211.699 399.885C220.458 401.801 226.019 410.436 224.107 419.246Z" fill="#85B779"/>
<path d="M182.747 354.619C199.291 352.042 227.027 338.845 247.95 324.987C260.983 316.351 279.335 309.561 286.529 307.333C292.194 305.592 315.238 300.786 318.748 296.886C322.502 292.708 320.173 285.674 311.901 282.297C302.552 278.432 289.171 278.466 266.266 284.107C244.439 289.505 234.082 287.032 225.185 282.784C224.976 282.68 224.767 282.575 224.559 282.506L182.747 354.619Z" fill="#FFB27D"/>
<path d="M278.396 248.137C278.396 248.137 293.063 270.283 286.738 273.033C280.412 275.784 267.587 268.263 262.269 262.239C256.986 256.25 278.396 248.137 278.396 248.137Z" fill="#E8945B"/>
<path d="M217.955 223.24C217.955 223.24 230.641 226.34 238.531 226.131C264.042 225.469 262.513 230.344 277.18 233.06C304.672 238.144 325.387 243.193 324.587 248.207C323.093 257.991 293.967 261.09 278.361 261.926C251.599 263.389 242.076 272.999 242.076 272.999L217.955 223.24Z" fill="#FFB27D"/>
<path d="M347.387 324.29L305.332 303.119L272.418 297.931L274.26 286.196L308.982 291.663L352.74 313.67L347.387 324.29Z" fill="#6F84DD"/>
<path d="M283.853 292.847C282.393 301.761 274.017 307.785 265.154 306.357L71.5973 274.88C62.6997 273.417 56.6869 265.025 58.1119 256.146C59.5716 247.232 67.9479 241.208 76.8107 242.636L270.368 274.114C279.265 275.541 285.313 283.933 283.853 292.847Z" fill="#2B478B"/>
<path d="M553.109 342.431C521.898 372.621 465.975 374.571 465.975 374.571L307.07 360.642C301.822 360.19 300.015 353.4 304.359 350.405L350.063 318.962L351.349 282.018C351.523 277.874 355.068 274.74 359.204 275.123C384.889 277.665 469.173 286.614 500.384 296.851C537.399 309.073 553.109 342.431 553.109 342.431Z" fill="#8C9DF4"/>
<path d="M553.109 342.432L350.063 318.962L351.349 282.018C351.523 277.874 355.068 274.74 359.204 275.123C384.889 277.665 469.173 286.614 500.384 296.851C537.399 309.073 553.109 342.432 553.109 342.432Z" fill="#6F84DD"/>
<path d="M103.121 406.884C103.121 406.884 121.368 378.784 142.848 368.233C167.907 355.907 198.631 356.324 214.515 347.759C225.949 341.595 235.473 331.95 258.829 318.718L221.014 298.94C221.014 298.94 211.317 291.663 254.032 265.269C289.345 243.471 217.955 201.304 130.127 231.563C119.804 235.114 100.862 254.823 89.9835 276.098C74.2042 306.879 63.5689 317.082 24.3293 356.185L103.121 406.884Z" fill="#FFB27D"/>
<path d="M195.746 250.435C202.489 249.599 209.301 247.092 218.72 243.645C223.204 242.009 228.278 240.128 234.256 238.109C253.163 231.702 276.45 233.199 278.362 233.547L278.431 233.095C276.52 232.712 253.094 231.214 234.082 237.656C228.104 239.676 223.03 241.556 218.546 243.227C209.162 246.674 202.385 249.181 195.677 250.017L195.746 250.435Z" fill="#EA8F7D"/>
<path d="M169.644 233.199C178.264 233.199 197.449 230.831 213.089 228.882C225.046 227.384 235.368 226.096 237.036 226.409L237.106 225.957C235.403 225.678 225.532 226.897 213.055 228.429C196.163 230.518 175.136 233.13 167.802 232.712L167.767 233.164C168.289 233.164 168.914 233.199 169.644 233.199Z" fill="#EA8F7D"/>
<path d="M-0.000419617 393.27C2.78008 401.523 6.53374 409.879 11.4691 418.306C27.9783 446.511 55.6094 470.015 88.6277 484.361C93.2503 468.065 97.2125 453.684 100.375 442.158C105.276 424.156 108.161 413.222 108.161 413.222C108.404 411.621 108.473 410.054 108.404 408.522C108.3 406.432 107.952 404.378 107.327 402.393C107.222 402.045 107.118 401.732 107.014 401.383C101.522 385.366 80.9814 372.9 62.8387 364.717C48.5191 358.241 35.7288 354.445 32.9831 353.644C32.6356 353.54 32.4618 353.505 32.4618 353.505C32.4618 353.505 30.9672 355.351 28.1867 358.728C24.5721 363.116 18.8373 370.149 11.5038 379.168C7.99344 383.451 4.17032 388.186 -0.000419617 393.27Z" fill="#F99746"/>
<path d="M11.4693 379.167C11.4693 379.167 33.0181 412.838 49.423 427.811L66.1754 421.091L62.5608 436.098C62.5608 436.098 89.4968 447.902 99.5761 445.047L109.447 404.133L39.9693 345.321L11.4693 379.167Z" fill="#ED7D2B"/>
<path d="M53.4547 326.762C53.4547 326.762 27.3529 345.495 2.78029 369.73C2.78029 369.73 33.887 404.446 52.273 416.877L86.1255 392.886L73.509 428.612C73.509 428.612 94.9188 442.853 106.354 443.271C106.354 443.271 112.957 409.634 118.24 387.872C118.205 387.837 60.6493 357.996 53.4547 326.762Z" fill="#EEF5FF"/>
<path d="M39.6566 391.912C40.2822 389.475 42.7499 388.012 45.1827 388.604C47.6156 389.231 49.0753 391.703 48.4845 394.141C47.8589 396.578 45.3912 398.041 42.9584 397.449C40.5255 396.822 39.031 394.35 39.6566 391.912Z" fill="#F99746"/>
<path d="M545.045 322.271C545.045 322.271 531.803 322.619 525.2 333.344C525.2 333.344 520.229 329.583 513.07 335.294C505.91 341.039 510.88 348.978 521.62 349.988C521.62 349.988 514.738 352.53 516.928 359.355C516.928 359.355 504.798 376.939 517.206 383.59C529.614 390.206 553.456 368.408 553.804 368.13C554.151 367.851 563.501 356.256 563.779 355.42C564.057 354.585 558.843 342.432 558.843 342.432L545.045 322.271Z" fill="#163560"/>
<path d="M503.025 347.41C503.025 347.41 502.365 342.117 496.178 340.933C489.992 339.784 488.427 342.605 488.427 342.605C488.427 342.605 485.126 339.192 479.704 340.655C474.282 342.082 476.61 347.41 476.61 347.41C476.61 347.41 472.544 347.166 472.544 352.598C472.544 358.03 481.928 359.667 481.928 359.667C481.928 359.667 482.693 362.174 487.767 363.009C487.767 363.009 487.732 368.511 501.531 366.352C515.329 364.228 505.701 356.463 505.701 356.463C505.701 356.463 507.196 350.996 503.025 347.41Z" fill="#163560"/>
<path d="M475.915 328.886C475.915 328.886 475.046 325.683 468.964 325.23C462.881 324.777 459.753 328.886 459.753 328.886C459.753 328.886 457.911 321.713 449.883 323.454C449.883 323.454 440.985 316.316 428.647 320.216C428.647 320.216 411.755 316.769 409.774 322.723C407.828 328.677 429.724 327.18 429.724 327.18C429.724 327.18 431.67 331.707 444.426 332.786C444.426 332.786 444.426 337.766 457.877 336.686C457.946 336.686 479.599 341.248 475.915 328.886Z" fill="#163560"/>
<path d="M435.841 334.632C435.841 334.632 441.159 333.552 441.889 335.398C442.654 337.243 439.838 338.88 437.649 338.114C435.494 337.348 434.972 336.059 435.841 334.632Z" fill="#163560"/>
<path d="M463.368 323.455C463.229 323.768 461.63 325.857 460.24 324.883C458.815 323.908 455.687 320.635 458.398 319.764C461.074 318.894 464.55 320.948 463.368 323.455Z" fill="#163560"/>
<path d="M350.272 81.4512C350.272 81.4512 336.3 62.9614 344.433 42.0691C344.433 42.0691 358.579 53.7688 350.272 81.4512Z" fill="#82B378"/>
<path d="M285.593 186.496C253.221 154.065 253.221 101.483 285.593 69.0516C317.964 36.6202 370.449 36.6202 402.82 69.0516C435.192 101.483 435.192 154.065 402.82 186.496C370.449 218.928 317.964 218.928 285.593 186.496Z" fill="#F99746"/>
<path d="M290.434 181.646C260.736 151.893 260.736 103.655 290.434 73.902C320.132 44.1493 368.281 44.1493 397.979 73.902C427.676 103.655 427.676 151.893 397.979 181.646C368.281 211.399 320.132 211.399 290.434 181.646Z" fill="#163560"/>
<path d="M333.624 127.275C333.624 127.275 336.091 128.981 335.848 131.105C335.57 133.229 331.365 132.881 333.624 127.275Z" fill="#DDE7FE"/>
<path d="M321.112 105.129C321.112 105.129 323.475 106.975 323.093 109.099C322.71 111.188 318.505 110.561 321.112 105.129Z" fill="#DDE7FE"/>
<path d="M335.466 74.2436C335.466 74.2436 338.003 72.6767 339.845 73.7561C341.687 74.8007 339.671 78.5612 335.466 74.2436Z" fill="#DDE7FE"/>
<path d="M281.385 133.368C281.385 133.368 283.853 135.075 283.61 137.199C283.332 139.323 279.126 138.975 281.385 133.368Z" fill="#DDE7FE"/>
<path d="M382.943 119.196C382.943 119.196 382.873 122.191 380.962 123.166C379.05 124.106 377.034 120.38 382.943 119.196Z" fill="#DDE7FE"/>
<path d="M334.91 151.406C334.91 151.406 334.84 154.4 332.929 155.375C331.017 156.315 329.001 152.589 334.91 151.406Z" fill="#DDE7FE"/>
<path d="M303.386 138.104C303.386 138.104 305.784 136.328 307.73 137.233C309.642 138.139 307.939 142.039 303.386 138.104Z" fill="#DDE7FE"/>
<path d="M289.727 104.224C289.727 104.224 292.125 102.448 294.071 103.353C295.983 104.259 294.28 108.159 289.727 104.224Z" fill="#DDE7FE"/>
<path d="M334.354 191.658C334.354 191.658 336.752 189.882 338.698 190.788C340.61 191.728 338.907 195.593 334.354 191.658Z" fill="#DDE7FE"/>
<path d="M356.389 104.224C356.389 104.224 358.787 102.448 360.733 103.353C362.645 104.259 360.942 108.159 356.389 104.224Z" fill="#DDE7FE"/>
<path d="M385.48 125.36C385.48 125.36 387.878 123.584 389.824 124.49C391.736 125.395 390.033 129.295 385.48 125.36Z" fill="#DDE7FE"/>
<path d="M398.965 149.039C398.965 149.039 401.363 147.263 403.31 148.168C405.221 149.074 403.518 152.974 398.965 149.039Z" fill="#DDE7FE"/>
<path d="M343.599 150.813C347.179 153.773 362.298 157.046 363.132 156.036C363.966 155.027 357.884 140.785 354.304 137.825C350.724 134.865 345.406 135.388 342.452 138.974C339.497 142.561 339.984 147.854 343.599 150.813Z" fill="#F3F8FF"/>
<path d="M363.479 135.318C361.325 139.427 361.22 154.922 362.402 155.549C363.584 156.176 376.235 147.262 378.39 143.153C380.544 139.044 378.946 133.926 374.845 131.767C370.709 129.608 365.634 131.21 363.479 135.318Z" fill="#F3F8FF"/>
<path d="M382.387 148.759C377.764 148.272 363.34 153.843 363.201 155.166C363.062 156.489 375.957 165.02 380.579 165.543C385.202 166.03 389.338 162.688 389.859 158.056C390.346 153.425 387.009 149.247 382.387 148.759Z" fill="#F3F8FF"/>
<path d="M375.47 170.347C374.289 165.856 364.001 154.33 362.715 154.643C361.429 154.991 358.023 170.069 359.204 174.596C360.386 179.087 364.974 181.804 369.457 180.62C373.941 179.471 376.652 174.874 375.47 170.347Z" fill="#F3F8FF"/>
<path d="M352.67 172.994C356.389 170.208 363.166 156.28 362.367 155.235C361.568 154.191 346.344 156.698 342.591 159.484C338.872 162.269 338.107 167.562 340.888 171.288C343.703 175.014 348.951 175.78 352.67 172.994Z" fill="#F3F8FF"/>
<path d="M361.711 157.839C360.216 157.484 359.29 155.983 359.643 154.486C359.995 152.989 361.492 152.062 362.986 152.416C364.481 152.77 365.406 154.271 365.054 155.769C364.702 157.266 363.205 158.193 361.711 157.839Z" fill="#F99746"/>
<path d="M349.681 109.238L348.708 108.994C348.847 108.368 369.562 41.7908 404.665 20.8289L405.326 21.4556C370.917 41.9997 349.89 108.576 349.681 109.238Z" fill="#82B378"/>
<path d="M326.812 131.524L326.325 130.653C325.908 130.897 282.324 160.808 277.736 197.056L278.397 197.578C282.915 162.027 326.36 131.802 326.812 131.524Z" fill="#82B378"/>
<path d="M214.167 183.685L213.438 183.302C227.131 157.883 231.476 116.656 234.361 89.3565C235.16 81.7308 235.855 75.1845 236.585 70.6927C238.636 58.2966 251.669 34.0964 270.855 20.8646C282.15 13.0648 293.62 10.2792 304.916 12.5773C340.019 19.7155 340.263 51.228 340.263 51.5414H339.429C339.429 51.228 339.151 20.4119 304.742 13.413C293.69 11.1497 282.429 13.9005 271.341 21.561C252.364 34.6884 239.435 58.61 237.419 70.832C236.689 75.2542 235.994 81.8353 235.195 89.4261C232.275 116.76 227.931 158.092 214.167 183.685Z" fill="#82B378"/>
<path d="M231.719 117.84C231.719 117.84 245.135 122.645 247.95 136.155C247.95 136.155 236.759 134.902 231.719 117.84Z" fill="#82B378"/>
<path d="M229.113 134.065C229.113 134.065 241.416 141.273 241.729 155.062C241.729 155.027 230.955 151.754 229.113 134.065Z" fill="#82B378"/>
<path d="M224.559 154.539C224.559 154.539 233.074 162.931 230.468 174.213C230.468 174.248 222.37 169.303 224.559 154.539Z" fill="#82B378"/>
<path d="M220.424 169.443C220.424 169.443 226.367 179.82 220.841 189.988C220.841 189.988 214.341 183.058 220.424 169.443Z" fill="#82B378"/>
<path d="M215.662 179.784C215.662 179.784 215.766 191.762 205.965 197.891C205.965 197.926 203.706 188.698 215.662 179.784Z" fill="#82B378"/>
<path d="M220.319 169.408C220.319 169.408 214.411 179.819 202.872 180.237C202.906 180.237 205.548 171.114 220.319 169.408Z" fill="#82B378"/>
<path d="M224.559 154.539C224.559 154.539 218.651 164.95 207.112 165.368C207.112 165.403 209.754 156.28 224.559 154.539Z" fill="#82B378"/>
<path d="M228.904 133.647C228.904 133.647 224.803 144.894 213.472 147.192C213.472 147.192 214.584 137.791 228.904 133.647Z" fill="#82B378"/>
<path d="M231.719 117.874C231.719 117.874 226.957 130.932 213.82 133.613C213.785 133.613 215.106 122.644 231.719 117.874Z" fill="#82B378"/>
<path d="M233.84 96.0068C233.84 96.0068 247.881 98.4442 252.99 111.223C252.99 111.223 241.729 111.92 233.84 96.0068Z" fill="#82B378"/>
<path d="M233.839 96.0408C233.839 96.0408 231.371 109.725 218.894 114.635C218.894 114.635 218.303 103.632 233.839 96.0408Z" fill="#82B378"/>
<path d="M237.141 69.8562C237.141 69.8562 250.731 74.1392 254.102 87.4755C254.102 87.4755 242.841 86.6746 237.141 69.8562Z" fill="#82B378"/>
<path d="M237.106 69.8911C237.106 69.8911 232.866 83.1229 219.832 86.3263C219.867 86.3263 220.701 75.3579 237.106 69.8911Z" fill="#82B378"/>
<path d="M247.22 46.8054C247.22 46.8054 258.134 55.9632 256.153 69.6129C256.153 69.6129 246.038 64.5639 247.22 46.8054Z" fill="#82B378"/>
<path d="M247.186 46.8401C247.186 46.8401 238.219 57.4255 224.942 55.4059C224.942 55.4059 229.947 45.5865 247.186 46.8401Z" fill="#82B378"/>
<path d="M262.618 27.4802C262.618 27.4802 273.045 41.687 266.684 57.4607C266.719 57.4955 256.048 48.477 262.618 27.4802Z" fill="#82B378"/>
<path d="M262.583 27.515C262.583 27.515 248.715 37.6128 233.388 31.2756C233.388 31.3104 242.251 20.9688 262.583 27.515Z" fill="#82B378"/>
<path d="M283.715 14.1433C283.715 14.1433 293.064 31.5884 283.506 48.163C283.506 48.163 273.079 36.4285 283.715 14.1433Z" fill="#82B378"/>
<path d="M283.679 14.1782C283.679 14.1782 266.649 23.1967 250.592 13.7255C250.557 13.7255 262.061 3.62748 283.679 14.1782Z" fill="#82B378"/>
<path d="M307.8 13.5862C307.8 13.5862 309.851 33.2946 294.697 44.9942C294.697 44.9942 289.519 30.1955 307.8 13.5862Z" fill="#82B378"/>
<path d="M307.729 13.6211C307.729 13.6211 288.544 15.5014 277.283 0.633209C277.283 0.633209 291.742 -4.34606 307.729 13.6211Z" fill="#82B378"/>
<path d="M336.231 36.8464C336.231 36.8464 321.356 44.3674 308.183 35.0358C308.183 35.0358 318.401 26.3309 336.231 36.8464Z" fill="#82B378"/>
<path d="M336.231 36.8122C336.231 36.8122 329.662 21.2126 338.282 7.38892C338.247 7.38892 345.997 18.0788 336.231 36.8122Z" fill="#82B378"/>
<path d="M343.564 266L344.294 266.418C359.204 241.695 392.466 217.043 414.501 200.712C420.653 196.15 425.936 192.216 429.412 189.325C439.039 181.282 453.22 157.743 454.888 134.448C455.861 120.729 452.455 109.412 444.739 100.847C420.792 74.1741 393.578 89.913 393.3 90.0871L393.717 90.8183C393.995 90.6442 420.653 75.2536 444.114 101.404C451.656 109.83 454.992 120.903 454.054 134.379C452.42 157.43 438.379 180.725 428.856 188.664C425.415 191.554 420.132 195.454 413.98 200.015C391.945 216.381 358.579 241.103 343.564 266Z" fill="#82B378"/>
<path d="M391.319 217.391C391.319 217.391 380.371 208.268 367.337 212.655C367.303 212.655 374.08 221.709 391.319 217.391Z" fill="#82B378"/>
<path d="M378.668 227.872C378.668 227.872 366.225 220.908 354.235 227.628C354.235 227.628 362.541 235.288 378.668 227.872Z" fill="#82B378"/>
<path d="M363.341 242.218C363.341 242.218 351.802 239.154 343.425 247.093C343.425 247.128 351.767 251.62 363.341 242.218Z" fill="#82B378"/>
<path d="M352.67 253.36C352.67 253.36 340.714 253.5 334.771 263.423C334.771 263.423 344.016 265.478 352.67 253.36Z" fill="#82B378"/>
<path d="M346.171 262.728C346.171 262.728 335.814 268.717 335.501 280.278C335.466 280.278 344.537 277.562 346.171 262.728Z" fill="#82B378"/>
<path d="M352.705 253.396C352.705 253.396 346.727 263.773 352.219 273.94C352.253 273.94 358.753 267.046 352.705 253.396Z" fill="#82B378"/>
<path d="M363.34 242.218C363.34 242.218 357.362 252.594 362.854 262.762C362.889 262.762 369.388 255.867 363.34 242.218Z" fill="#82B378"/>
<path d="M379.12 227.872C379.12 227.872 371.543 237.134 375.296 248.068C375.296 248.068 382.838 242.322 379.12 227.872Z" fill="#82B378"/>
<path d="M391.284 217.427C391.284 217.427 382.491 228.151 386.835 240.861C386.835 240.896 395.594 234.21 391.284 217.427Z" fill="#82B378"/>
<path d="M409.01 204.507C409.01 204.507 399.8 193.608 386.21 195.698C386.21 195.698 391.319 205.796 409.01 204.507Z" fill="#82B378"/>
<path d="M408.976 204.543C408.976 204.543 398.444 213.596 400.565 226.863C400.565 226.863 410.331 221.814 408.976 204.543Z" fill="#82B378"/>
<path d="M429.829 188.386C429.829 188.386 419.263 178.81 406.056 182.675C406.056 182.675 412.451 192.007 429.829 188.386Z" fill="#82B378"/>
<path d="M429.829 188.42C429.829 188.42 420.584 198.797 424.442 211.681C424.407 211.681 433.443 205.378 429.829 188.42Z" fill="#82B378"/>
<path d="M444.531 168.016C444.531 168.016 431.115 163.245 420.375 171.881C420.375 171.846 429.864 178.009 444.531 168.016Z" fill="#82B378"/>
<path d="M444.531 168.05C444.531 168.05 439.978 181.178 448.423 191.589C448.423 191.589 454.332 182.292 444.531 168.05Z" fill="#82B378"/>
<path d="M453.324 144.894C453.324 144.894 435.807 143.084 425.45 156.594C425.45 156.594 438.622 161.225 453.324 144.894Z" fill="#82B378"/>
<path d="M453.324 144.966C453.324 144.966 451.691 162.063 464.898 172.092C464.898 172.092 469.277 159.208 453.324 144.966Z" fill="#82B378"/>
<path d="M454.124 119.929C454.124 119.929 434.348 120.695 424.963 137.374C424.963 137.374 440.36 140.403 454.124 119.929Z" fill="#82B378"/>
<path d="M454.124 119.967C454.124 119.967 454.993 139.258 471.293 148.311C471.293 148.311 474.143 133.304 454.124 119.967Z" fill="#82B378"/>
<path d="M442.376 98.8618C442.376 98.8618 424.373 107.079 422.009 126.091C422.009 126.091 437.371 123.062 442.376 98.8618Z" fill="#82B378"/>
<path d="M442.376 98.8987C442.376 98.8987 450.509 116.413 468.999 118.607C468.999 118.607 465.975 103.634 442.376 98.8987Z" fill="#82B378"/>
<path d="M407.967 86.0828C407.967 86.0828 409.045 102.727 423.747 109.378C423.712 109.378 426.041 96.146 407.967 86.0828Z" fill="#82B378"/>
<path d="M408.002 86.0831C408.002 86.0831 424.755 83.8545 432.262 69.4041C432.262 69.4041 419.159 68.1506 408.002 86.0831Z" fill="#82B378"/>
<path d="M445.713 119.823C447.59 121.39 455.549 123.097 455.966 122.574C456.418 122.052 453.22 114.565 451.343 112.998C449.466 111.432 446.686 111.71 445.122 113.59C443.558 115.471 443.836 118.256 445.713 119.823Z" fill="#F3F8FF"/>
<path d="M456.139 111.676C454.992 113.835 454.958 121.983 455.583 122.296C456.209 122.61 462.847 117.944 463.994 115.785C465.141 113.626 464.307 110.945 462.118 109.796C459.963 108.681 457.286 109.517 456.139 111.676Z" fill="#F3F8FF"/>
<path d="M466.08 118.745C463.647 118.466 456.07 121.426 456.001 122.087C455.931 122.784 462.708 127.276 465.107 127.52C467.54 127.798 469.729 126.022 469.972 123.585C470.251 121.182 468.513 118.988 466.08 118.745Z" fill="#F3F8FF"/>
<path d="M462.465 130.096C461.839 127.729 456.417 121.67 455.757 121.844C455.097 122.018 453.289 129.957 453.915 132.325C454.541 134.693 456.939 136.12 459.302 135.494C461.666 134.867 463.056 132.464 462.465 130.096Z" fill="#F3F8FF"/>
<path d="M450.474 131.488C452.42 130.026 455.966 122.714 455.548 122.157C455.131 121.599 447.138 122.923 445.156 124.385C443.21 125.848 442.793 128.633 444.253 130.583C445.747 132.533 448.528 132.951 450.474 131.488Z" fill="#F3F8FF"/>
<path d="M454.124 122.122C454.124 121.321 454.784 120.66 455.583 120.66C456.383 120.66 457.043 121.321 457.043 122.122C457.043 122.923 456.383 123.585 455.583 123.585C454.784 123.585 454.124 122.958 454.124 122.122Z" fill="#F99746"/>
<path d="M264.772 187.584C267.831 190.091 280.656 192.877 281.385 192.006C282.115 191.136 276.937 179.053 273.878 176.511C270.82 174.004 266.336 174.422 263.799 177.486C261.296 180.55 261.713 185.077 264.772 187.584Z" fill="#F3F8FF"/>
<path d="M281.664 174.422C279.822 177.939 279.752 191.101 280.76 191.623C281.768 192.146 292.508 184.59 294.35 181.073C296.192 177.556 294.837 173.238 291.326 171.393C287.816 169.547 283.506 170.905 281.664 174.422Z" fill="#F3F8FF"/>
<path d="M297.756 185.843C293.828 185.426 281.594 190.161 281.455 191.275C281.351 192.39 292.299 199.667 296.226 200.085C300.154 200.503 303.664 197.682 304.116 193.748C304.498 189.778 301.683 186.261 297.756 185.843Z" fill="#F3F8FF"/>
<path d="M291.882 204.194C290.874 200.364 282.116 190.579 281.038 190.858C279.961 191.136 277.041 203.985 278.049 207.815C279.057 211.645 282.95 213.943 286.773 212.934C290.561 211.924 292.855 208.024 291.882 204.194Z" fill="#F3F8FF"/>
<path d="M272.523 206.422C275.686 204.054 281.42 192.215 280.76 191.31C280.1 190.405 267.136 192.564 263.973 194.931C260.81 197.299 260.15 201.791 262.513 204.959C264.876 208.128 269.36 208.79 272.523 206.422Z" fill="#F3F8FF"/>
<path d="M280.76 193.678C279.455 193.678 278.396 192.618 278.396 191.311C278.396 190.003 279.455 188.943 280.76 188.943C282.065 188.943 283.123 190.003 283.123 191.311C283.123 192.618 282.065 193.678 280.76 193.678Z" fill="#F99746"/>
<path d="M373.037 82.9491C375.296 84.7946 384.75 86.849 385.306 86.2222C385.827 85.5955 382.004 76.6464 379.78 74.8009C377.521 72.9554 374.219 73.2688 372.342 75.5322C370.465 77.7607 370.778 81.1036 373.037 82.9491Z" fill="#F3F8FF"/>
<path d="M385.515 73.2342C384.159 75.811 384.09 85.5261 384.854 85.9091C385.584 86.2921 393.543 80.7207 394.864 78.144C396.22 75.5672 395.212 72.3637 392.64 71.0057C390.068 69.6477 386.87 70.6574 385.515 73.2342Z" fill="#F3F8FF"/>
<path d="M397.366 81.6598C394.482 81.3464 385.411 84.8285 385.341 85.6642C385.237 86.4999 393.335 91.8624 396.22 92.1758C399.104 92.4892 401.711 90.3999 402.024 87.475C402.371 84.5848 400.286 81.9732 397.366 81.6598Z" fill="#F3F8FF"/>
<path d="M393.057 95.2408C392.327 92.4204 385.862 85.1778 385.063 85.3868C384.264 85.5957 382.109 95.0667 382.839 97.8872C383.569 100.708 386.453 102.414 389.268 101.683C392.084 100.951 393.787 98.0612 393.057 95.2408Z" fill="#F3F8FF"/>
<path d="M378.737 96.8772C381.066 95.1361 385.306 86.3961 384.82 85.7345C384.333 85.0729 374.775 86.6746 372.412 88.4157C370.083 90.1567 369.597 93.4647 371.334 95.8325C373.107 98.1307 376.409 98.6182 378.737 96.8772Z" fill="#F3F8FF"/>
<path d="M383.082 85.7352C383.082 84.7602 383.846 83.9941 384.819 83.9941C385.793 83.9941 386.557 84.7602 386.557 85.7352C386.557 86.7102 385.793 87.4762 384.819 87.4762C383.881 87.4762 383.082 86.6753 383.082 85.7352Z" fill="#F99746"/>
<path d="M387.496 20.2719C389.755 22.1174 399.209 24.1718 399.765 23.545C400.286 22.9182 396.463 13.9693 394.239 12.1239C391.98 10.2784 388.678 10.5918 386.801 12.8551C384.924 15.0836 385.237 18.3916 387.496 20.2719Z" fill="#F3F8FF"/>
<path d="M399.973 10.557C398.618 13.1337 398.548 22.8486 399.313 23.2316C400.043 23.6147 408.002 18.0434 409.323 15.4667C410.678 12.89 409.67 9.68653 407.098 8.32854C404.492 6.97055 401.329 7.94549 399.973 10.557Z" fill="#F3F8FF"/>
<path d="M411.825 18.9838C408.941 18.6704 399.869 22.1524 399.8 22.9881C399.695 23.8238 407.794 29.1862 410.678 29.4995C413.563 29.8129 416.17 27.7237 416.483 24.7988C416.83 21.9087 414.71 19.2971 411.825 18.9838Z" fill="#F3F8FF"/>
<path d="M407.48 32.5289C406.751 29.7084 400.286 22.4657 399.486 22.6746C398.687 22.8835 396.532 32.3547 397.262 35.1752C397.992 37.9957 400.877 39.7019 403.692 38.9707C406.542 38.2395 408.21 35.3493 407.48 32.5289Z" fill="#F3F8FF"/>
<path d="M393.196 34.1651C395.524 32.424 399.765 23.6842 399.278 23.0226C398.792 22.361 389.234 23.9627 386.87 25.7037C384.542 27.4447 384.055 30.7527 385.793 33.1205C387.565 35.4534 390.867 35.9061 393.196 34.1651Z" fill="#F3F8FF"/>
<path d="M397.541 23.0226C397.541 22.0476 398.305 21.2815 399.278 21.2815C400.252 21.2815 401.016 22.0476 401.016 23.0226C401.016 23.9976 400.252 24.7637 399.278 24.7637C398.305 24.7637 397.541 23.9976 397.541 23.0226Z" fill="#F99746"/>
<path d="M295.636 75.9496C298.521 78.3174 310.616 80.9638 311.311 80.1281C311.972 79.2924 307.106 67.906 304.221 65.5034C301.336 63.1356 297.096 63.5535 294.733 66.4088C292.334 69.2989 292.751 73.547 295.636 75.9496Z" fill="#F3F8FF"/>
<path d="M311.554 63.519C309.817 66.8269 309.747 79.2228 310.685 79.7451C311.624 80.2326 321.773 73.0945 323.51 69.7866C325.248 66.4787 323.962 62.4048 320.66 60.6638C317.359 58.9228 313.292 60.2111 311.554 63.519Z" fill="#F3F8FF"/>
<path d="M326.743 74.2791C323.024 73.8612 311.485 78.353 311.38 79.3976C311.276 80.4423 321.599 87.3019 325.318 87.7198C329.037 88.1376 332.338 85.4565 332.755 81.7307C333.103 78.0049 330.427 74.6969 326.743 74.2791Z" fill="#F3F8FF"/>
<path d="M321.182 91.5845C320.243 87.9632 311.971 78.7359 310.929 79.0145C309.886 79.293 307.175 91.3756 308.113 94.9969C309.052 98.6182 312.736 100.777 316.351 99.8369C319.965 98.8968 322.12 95.2058 321.182 91.5845Z" fill="#F3F8FF"/>
<path d="M302.935 93.7085C305.924 91.48 311.346 80.3026 310.72 79.4669C310.095 78.5964 297.86 80.6508 294.871 82.8793C291.882 85.1078 291.257 89.356 293.516 92.3506C295.705 95.3451 299.946 95.9371 302.935 93.7085Z" fill="#F3F8FF"/>
<path d="M308.461 79.4671C308.461 78.2484 309.469 77.2385 310.686 77.2385C311.902 77.2385 312.91 78.2484 312.91 79.4671C312.91 80.6859 311.902 81.6956 310.686 81.6956C309.469 81.6956 308.461 80.6859 308.461 79.4671Z" fill="#F99746"/>
<path d="M310.198 144.894C310.198 144.894 320.834 165.473 309.329 184.694C309.329 184.729 297.338 170.801 310.198 144.894Z" fill="#82B378"/>
<path d="M298.798 155.724C298.798 155.724 278.083 166.065 259.072 154.226C259.072 154.226 273.148 142.422 298.798 155.724Z" fill="#82B378"/>
<path d="M377.938 49.2083C377.938 49.2083 371.196 40.0506 375.957 29.0474C375.992 29.0822 383.013 34.723 377.938 49.2083Z" fill="#82B378"/>
<path d="M640.729 108.612C640.729 108.612 616.921 127.728 600.273 121.356C594.19 119.023 588.525 114.635 584.007 109.795C580.496 106.07 577.681 102.065 575.804 98.5833C573.441 94.1959 572.642 90.5746 574.032 89.2166C577.89 85.3863 640.729 108.612 640.729 108.612Z" fill="#F6A56E"/>
<path d="M583.972 109.795C580.461 106.07 577.646 102.065 575.769 98.583C581.469 100.08 602.393 105.861 609.969 111.78C615.913 116.411 597.075 113.521 583.972 109.795Z" fill="#F6A56E"/>
<path d="M801.65 387.837C794.421 380.002 799.321 392.294 782.534 371.645C778.328 366.492 764.565 355.872 760.881 350.962L760.846 350.927C760.846 350.893 760.846 350.893 760.811 350.858C760.186 350.022 759.56 349.221 758.969 348.385C756.536 345.077 754.277 341.909 752.296 338.914C748.786 333.656 746.596 326.971 745.31 319.624C743.885 311.406 743.642 302.283 744.094 293.125C744.441 286.057 745.206 278.953 746.179 272.233C749.307 250.644 754.486 233.025 754.486 233.025C754.486 233.025 754.52 233.06 754.555 233.095C755.459 234.349 770.682 255.519 777.633 262.692C786.183 271.467 840.681 306.288 840.681 306.288C840.681 306.288 803.561 389.891 801.65 387.837Z" fill="#FFB27D"/>
<path d="M764.461 253.047C764.461 253.047 771.62 282.296 762.931 290.583C754.208 298.871 714.064 290.235 678.787 266.209C643.509 242.183 657.968 150.222 657.968 150.222C654.84 152.694 631.136 150.605 609.692 148.446C591.236 146.566 574.414 144.685 573.823 145.591C572.989 146.914 553.839 157.848 536.322 166.936C527.285 171.636 518.7 175.85 513.278 178.009C502.851 182.152 494.614 178.183 490.165 174.979C487.837 173.308 486.551 171.811 486.551 171.811C486.551 171.811 496.56 162.409 509.942 150.988C527.493 136.015 550.919 117.63 565.308 112.372C590.75 103.075 657.864 109.168 677.814 112.546C697.833 115.924 764.461 253.047 764.461 253.047Z" fill="#FFB27D"/>
<path d="M656.717 131.733C658.732 133.195 636.071 140.542 609.692 148.446C591.236 146.566 574.414 144.686 573.823 145.591C572.989 146.914 553.838 157.848 536.321 166.936C541.152 159.415 553.734 140.368 580.149 132.255C613.202 122.122 652.059 128.355 656.717 131.733Z" fill="#F6A56E"/>
<path d="M660.957 110.353L730.956 252.385C730.956 252.385 625.228 272.581 654.527 238.562C661.409 230.588 656.3 222.335 653.415 217.251C648.897 209.278 644.448 201.93 640.52 195.732C632.631 183.267 619.389 175.258 604.687 174.004C587.309 172.507 565.69 172.159 556.793 184.694C547.339 198.031 542.682 210.844 528.189 211.785C525.86 211.924 519.708 209.521 519.708 209.521L540.492 170.592C546.192 160.041 551.962 153.321 561.033 149.734L660.957 110.353Z" fill="#FFB27D"/>
<path d="M622.204 168.99C622.204 168.99 665.059 117.281 675.242 115.993C685.426 114.705 708.017 114.287 721.155 129.573C734.328 144.859 736.17 171.74 736.17 171.74C736.17 171.74 722.615 172.506 697.903 156.489C673.192 140.472 674.13 122.713 671.21 123.514C668.291 124.315 626.166 170.348 626.166 170.348L622.204 168.99Z" fill="#A8D29F"/>
<path d="M555.403 146.392C555.403 146.392 579.663 59.3057 558.809 39.3536C537.955 19.4014 512.097 28.3851 503.025 42.4874C493.954 56.5897 483.18 91.9674 473.9 100.881C473.9 100.881 511.575 110.631 523.879 85.8389C536.183 61.0467 556.133 46.2133 558.739 48.9989C561.346 51.7845 570.696 83.6452 550.85 144.825L555.403 146.392Z" fill="#82B378"/>
<path d="M600.655 161.678C600.655 161.678 649.592 63.31 678.231 56.6244C706.87 49.9041 746.805 63.4492 748.23 63.9019C749.655 64.3894 728.836 81.73 699.954 89.0771C671.106 96.4242 651.469 86.779 648.932 89.7039C625.158 117.386 606.286 163.593 606.286 163.593L600.655 161.678Z" fill="#A8D29F"/>
<path d="M590.889 158.37C590.889 158.37 613.828 92.2461 631.693 93.047C649.522 93.8479 667.179 120.103 663.703 144.895C663.703 144.895 662.347 161.678 665.684 168.956C665.684 168.956 652.164 170.14 640.625 163.454C629.086 156.803 623.386 139.254 626.722 126.997C630.059 114.705 630.928 96.9817 628.495 97.2603C626.027 97.5736 620.988 102.553 615.601 111.572C610.179 120.59 595.199 159.833 595.199 159.833L590.889 158.37Z" fill="#82B378"/>
<path d="M581.922 155.341C581.922 155.341 617.373 81.7649 618.033 63.4493C618.694 45.1337 599.439 22.8485 581.991 16.1282C581.991 16.1282 576.604 37.9606 576.639 52.9683C576.708 67.9759 606.772 81.5908 605.347 88.0674C603.957 94.544 578.168 154.017 578.168 154.017L581.922 155.341Z" fill="#A8D29F"/>
<path d="M570.8 151.58C570.8 151.58 584.389 126.648 585.849 120.032C587.344 113.417 583.903 100.428 579.523 95.4143C579.523 95.4143 574.936 110.283 570.417 115.401C565.899 120.52 575.457 138.104 574.553 139.88C573.65 141.656 568.506 150.779 568.506 150.779L570.8 151.58Z" fill="#82B378"/>
<path d="M538.198 242.949L583.486 257.922C610.005 266.696 638.609 252.281 647.367 225.713L663.181 177.765C663.181 177.765 661.617 173.656 644.865 171.706C636.732 170.766 620.57 159.275 612.924 156.385C593.461 149.073 579.489 157.952 561.207 143.989C540.249 127.971 521.863 130.966 521.863 130.966L506.049 178.914C497.256 205.517 511.679 234.174 538.198 242.949Z" fill="#163560"/>
<path d="M663.181 177.8C663.181 177.8 665.962 182.535 663.181 187.271C663.181 187.271 664.05 194.757 658.038 199.458C658.038 199.458 658.663 221.499 650.808 228.15C642.919 234.766 642.467 236.194 642.467 236.194C642.467 236.194 638.991 247.406 633.639 250.714C628.286 254.022 625.228 253.395 625.228 253.395C625.228 253.395 618.694 261.439 609.727 261.926C600.759 262.414 599.022 261.926 599.022 261.926C599.022 261.926 590.263 263.911 580.358 259.872C570.452 255.832 568.958 253.186 568.958 253.186C568.958 253.186 561.694 253.604 556.723 251.48C551.753 249.356 550.363 247.928 550.363 247.928C550.363 247.928 541.744 248.868 533.819 245.665C525.895 242.461 525.234 236.507 525.234 236.507C525.234 236.507 517.136 235.706 514.147 231.005C511.158 226.27 512.409 223.589 512.409 223.589C512.409 223.589 503.616 215.963 503.477 211.471C503.373 206.979 501.6 196.429 501.809 191.832C502.052 187.201 506.883 176.407 506.883 176.407C506.883 176.407 509.351 157.917 512.896 155.445C512.896 155.445 514.947 133.403 521.828 131.036L601.038 179.367L663.181 177.8Z" fill="#163560"/>
<path d="M516.441 205.97C516.476 205.9 521.307 197.299 538.546 193.922C547.826 192.111 553.213 187.933 556.133 184.764C559.296 181.317 560.234 178.287 560.269 178.183L559.365 177.904C559.33 178.009 555.542 189.639 538.372 193.016C520.682 196.498 515.816 205.204 515.642 205.552L516.441 205.97Z" fill="#BDD1F9"/>
<path d="M576.256 270.283L577.125 269.9C569.305 252.316 577.056 231.981 577.125 231.772L576.256 231.424C576.152 231.633 568.262 252.351 576.256 270.283Z" fill="#BDD1F9"/>
<path d="M540.353 239.954C540.701 239.85 549.181 237.517 551.267 224.425C553.248 211.889 559.921 208.721 559.99 208.686L559.608 207.815C559.33 207.954 552.414 211.228 550.363 224.25C549.32 230.762 546.609 234.418 544.524 236.368C542.265 238.457 540.18 239.014 540.18 239.014L540.353 239.954Z" fill="#BDD1F9"/>
<path d="M512.653 237.203C518.457 226.478 532.985 222.648 533.159 222.613L532.916 221.708C532.777 221.743 517.831 225.677 511.819 236.785L512.653 237.203Z" fill="#BDD1F9"/>
<path d="M497.465 190.336C500.384 190.336 503.825 189.395 507.683 187.515C511.332 185.739 513.974 183.789 514.113 183.72L513.557 182.954C513.452 183.023 502.921 190.719 495.344 189.187L495.171 190.127C495.866 190.266 496.63 190.336 497.465 190.336Z" fill="#BDD1F9"/>
<path d="M765.782 277.456L766.303 283.932L824.658 345.843L792.857 382.37C792.857 382.37 732.033 317.882 707.322 326.657C682.61 335.432 631.623 299.392 605.556 265.164C589.012 243.436 576.639 233.408 573.824 226.13C572.225 221.917 573.754 218.679 579.558 214.639C581.678 213.142 584.111 212.585 586.753 212.655C603.957 213.247 631.171 239.327 642.328 241.799C651.503 243.819 662 230.274 673.921 233.373C697.66 239.501 724.526 266.522 746.144 272.232C757.961 275.366 765.782 277.456 765.782 277.456Z" fill="#FFB27D"/>
<path d="M732.763 348.699L760.394 371.889L760.499 371.994L760.533 372.029L843.809 444.107C866.227 415.311 872.935 371.924 855.209 309.596C855.209 309.596 851.733 302.074 847.007 290.096L835.78 285.744L805.403 274.671L732.763 348.699Z" fill="#EF873A"/>
<path d="M760.394 372.097C760.394 372.097 760.464 372.063 760.568 372.028C763.21 370.983 795.985 357.821 821.426 332.193L812.737 320.737L827.717 324.01C827.717 324.01 837.032 305.59 836.684 286.056L835.78 285.743L824.102 281.494L819.758 279.893H819.723L803.701 276.341L800.225 275.575L766.79 310.047L766.338 314.435L760.394 371.854V372.097Z" fill="#E27227"/>
<path d="M837.309 281.356C837.309 281.356 834.112 293.787 819.445 313.774L785.975 302.388L807.871 328.19C794.246 343.824 774.505 362.453 746.109 382.614C746.109 382.614 730.017 356.638 722.718 327.911C722.718 327.911 754.242 300.96 779.857 264.781L837.309 281.356Z" fill="#EEF5FF"/>
<path d="M788.894 330.974C787.295 330.278 786.531 328.398 787.226 326.761C787.921 325.159 789.798 324.393 791.431 325.09C793.03 325.786 793.795 327.666 793.1 329.303C792.37 330.905 790.493 331.671 788.894 330.974Z" fill="#F99746"/>
<path d="M415.544 448.182C412.763 437.178 402.337 429.483 391.006 429.483C379.71 429.518 369.075 439.198 368.345 450.515C367.372 465.244 377.555 472.939 388.886 472.939C392.605 472.939 397.61 470.815 400.634 469.074L406.368 475.342C411.095 473.392 418.915 461.588 415.544 448.182Z" fill="#8C9DF4"/>
<path d="M400.807 469.214C400.911 469.109 410.539 458.245 403.727 445.327C399.834 437.91 393.474 436.9 390.033 436.935C384.298 437.005 378.598 440.138 376.513 444.387C374.601 448.286 374.288 452.326 375.713 455.738C376.965 458.767 379.397 461.031 382.595 462.075C385.932 463.19 389.233 462.807 391.875 460.996C394.308 459.325 395.802 456.574 395.941 453.684C396.046 451.072 394.933 448.704 392.918 447.137C390.763 445.501 387.947 445.013 385.306 445.814C382.908 446.545 381.448 448.669 381.379 451.455C381.309 453.649 382.178 455.564 383.464 456.051C385.549 456.818 387.565 456.678 388.573 455.634C389.164 455.007 389.303 454.206 388.955 453.335L388.538 453.51C388.816 454.206 388.712 454.868 388.26 455.355C387.53 456.086 385.827 456.504 383.638 455.668C382.56 455.251 381.796 453.475 381.83 451.49C381.865 450.515 382.213 447.277 385.445 446.267C387.913 445.501 390.624 445.954 392.639 447.52C394.586 448.983 395.594 451.177 395.489 453.684C395.385 456.434 393.96 459.046 391.632 460.648C389.094 462.389 385.966 462.772 382.734 461.692C379.675 460.683 377.347 458.489 376.13 455.599C374.775 452.291 375.053 448.391 376.93 444.63C378.946 440.521 384.472 437.492 390.068 437.422C390.137 437.422 390.172 437.422 390.241 437.422C393.613 437.422 399.625 438.502 403.344 445.57C410.018 458.21 400.564 468.831 400.494 468.935L400.807 469.214Z" fill="#163560"/>
<path d="M345.997 454.519C345.997 454.519 357.258 463.503 353.226 473.635C349.194 483.768 333.589 468.726 332.72 464.094C331.816 459.429 340.783 448.634 345.997 454.519Z" fill="#163560"/>
<path d="M344.12 429.517C344.12 429.517 358.578 426.487 363.931 436.342C369.249 446.196 347.144 448.668 342.938 446.3C338.698 443.933 336.091 429.795 344.12 429.517Z" fill="#8C9DF4"/>
<path d="M418.985 436.063C418.985 436.063 407.932 429.9 413.563 421.091C419.193 412.281 438.865 428.716 434.243 434.044C429.585 439.371 424.024 440.555 418.985 436.063Z" fill="#8C9DF4"/>
<path d="M424.059 416.286C424.059 416.286 413.007 410.123 418.637 401.313C424.268 392.504 443.94 408.939 439.317 414.266C434.695 419.594 429.134 420.813 424.059 416.286Z" fill="#6F84DD"/>
<path d="M363.549 422.135C363.549 422.135 355.729 417.748 359.726 411.515C363.723 405.282 377.66 416.912 374.358 420.708C371.056 424.468 367.129 425.304 363.549 422.135Z" fill="#6F84DD"/>
<path d="M397.818 419.213C397.818 419.213 398.896 401.037 407.376 399.992C415.822 398.983 411.999 412.389 407.758 416.08C403.518 419.736 401.537 423.079 397.818 419.213Z" fill="#163560"/>
<path d="M707.495 433.452C707.495 433.452 696.443 427.289 702.073 418.479C707.704 409.669 727.376 426.105 722.753 431.432C718.131 436.725 712.57 437.944 707.495 433.452Z" fill="#8C9DF4"/>
<path d="M712.605 413.674C712.605 413.674 701.552 407.511 707.183 398.701C712.813 389.892 732.485 406.327 727.863 411.655C723.24 416.982 717.679 418.166 712.605 413.674Z" fill="#6F84DD"/>
<path d="M686.329 416.6C686.329 416.6 687.406 398.423 695.887 397.379C704.333 396.369 700.509 409.775 696.269 413.466C692.064 417.122 690.048 420.43 686.329 416.6Z" fill="#163560"/>
</svg>
