<svg width="40" height="40" viewBox="0 0 40 40" fill="none" xmlns="http://www.w3.org/2000/svg">
<rect width="40" height="40" rx="12" fill="#EBEBEB"/>
<path d="M27.1671 18.9181H15.0706L20.3553 13.612C20.7777 13.188 20.7777 12.4921 20.3553 12.068C20.153 11.8644 19.8783 11.75 19.5918 11.75C19.3054 11.75 19.0307 11.8644 18.8284 12.068L11.6918 19.2334C11.2694 19.6575 11.2694 20.3425 11.6918 20.7665L18.8284 27.932C19.2507 28.356 19.933 28.356 20.3553 27.932C20.7777 27.5079 20.7777 26.8229 20.3553 26.3988L15.0706 21.0927H27.1671C27.7627 21.0927 28.25 20.6035 28.25 20.0054C28.25 19.4074 27.7627 18.9181 27.1671 18.9181Z" fill="#455B57"/>
</svg>
