<svg width="29" height="28" viewBox="0 0 29 28" fill="none" xmlns="http://www.w3.org/2000/svg">
<path d="M5.19278 16.2263L13.3156 23.8569C13.6401 24.1617 13.8023 24.3141 14.0003 24.3141C14.1983 24.3141 14.3606 24.1617 14.685 23.8569L22.8079 16.2263C25.0901 14.0824 25.3672 10.5545 23.4478 8.0805L23.0869 7.61532C20.7906 4.65576 16.1816 5.1521 14.5681 8.53267C14.3402 9.0102 13.6605 9.0102 13.4325 8.53267C11.8191 5.1521 7.21 4.65576 4.9138 7.61531L4.55288 8.08049C2.63343 10.5544 2.91058 14.0824 5.19278 16.2263Z" stroke="white" stroke-width="2"/>
<ellipse cx="19.5198" cy="11.5404" rx="6.2153" ry="5.85808" transform="rotate(47.3285 19.5198 11.5404)" fill="white"/>
<ellipse cx="9.51979" cy="11.5404" rx="6.2153" ry="5.85808" transform="rotate(47.3285 9.51979 11.5404)" fill="white"/>
<path d="M13.6235 24.2999L3.52694 13.065L24.2972 13.6116L13.6235 24.2999Z" fill="white"/>
</svg>
