<svg width="44" height="42" viewBox="0 0 44 42" fill="none" xmlns="http://www.w3.org/2000/svg">
<g filter="url(#filter0_d)">
<path d="M13.1928 22.2263L21.3156 29.8569C21.6401 30.1617 21.8023 30.3141 22.0003 30.3141C22.1983 30.3141 22.3606 30.1617 22.685 29.8569L30.8079 22.2263C33.0901 20.0824 33.3672 16.5545 31.4478 14.0805L31.0869 13.6153C28.7906 10.6558 24.1816 11.1521 22.5681 14.5327C22.3402 15.0102 21.6605 15.0102 21.4325 14.5327C19.8191 11.1521 15.21 10.6558 12.9138 13.6153L12.5529 14.0805C10.6334 16.5544 10.9106 20.0824 13.1928 22.2263Z" stroke="white" stroke-width="2"/>
</g>
<ellipse cx="27.5198" cy="17.5404" rx="6.2153" ry="5.85808" transform="rotate(47.3285 27.5198 17.5404)" fill="white"/>
<ellipse cx="17.5198" cy="17.5404" rx="6.2153" ry="5.85808" transform="rotate(47.3285 17.5198 17.5404)" fill="white"/>
<path d="M21.6235 30.2999L11.5269 19.065L32.2972 19.6116L21.6235 30.2999Z" fill="white"/>
<defs>
<filter id="filter0_d" x="0.27832" y="0.666992" width="43.4437" height="40.6472" filterUnits="userSpaceOnUse" color-interpolation-filters="sRGB">
<feFlood flood-opacity="0" result="BackgroundImageFix"/>
<feColorMatrix in="SourceAlpha" type="matrix" values="0 0 0 0 0 0 0 0 0 0 0 0 0 0 0 0 0 0 127 0"/>
<feOffset/>
<feGaussianBlur stdDeviation="5"/>
<feColorMatrix type="matrix" values="0 0 0 0 0 0 0 0 0 0 0 0 0 0 0 0 0 0 0.1 0"/>
<feBlend mode="normal" in2="BackgroundImageFix" result="effect1_dropShadow"/>
<feBlend mode="normal" in="SourceGraphic" in2="effect1_dropShadow" result="shape"/>
</filter>
</defs>
</svg>
