<svg width="906" height="883" viewBox="0 0 906 883" fill="none" xmlns="http://www.w3.org/2000/svg">
<path d="M59.8172 922C-16.3481 835.866 -21.5989 695.216 54.5664 559.254C130.732 423.293 -88.5321 247.808 123.808 75.539C246.134 -23.6791 578.953 -59.5502 829.779 210.846C1041.89 439.538 961.626 815.368 812.411 921.945C329.108 922 59.8172 922 59.8172 922Z" fill="#F6ADAB"/>
<path d="M110.57 899.738C42.2 817.901 37.4866 684.268 105.857 555.089C174.227 425.911 -22.5965 259.18 168.012 95.5058C277.819 1.23753 576.577 -32.8441 801.733 224.063C992.134 441.346 920.086 798.426 786.142 899.687C352.301 899.738 110.57 899.738 110.57 899.738Z" fill="#FABABA"/>
<path opacity="0.25" d="M73.9001 181.02C93.3753 178.068 113.213 180.554 132.792 178.689C152.371 176.825 171.639 170.661 189.301 160.561C194.17 157.764 199.039 154.656 204.322 153.154C211.418 151.186 218.876 152.377 226.18 152.688C240.423 153.361 254.719 150.823 268.186 145.281C272.744 143.416 277.768 140.309 278.545 134.715C279.477 127.619 272.899 122.543 267.098 120.108C261.297 117.674 254.408 114.67 253.165 107.625C252.595 104.466 253.372 100.892 251.87 98.1469C250.886 96.2822 249.073 95.2463 247.312 94.3658C228.148 84.68 207.274 80.8989 186.556 79.863C181.998 79.6558 177.336 79.8112 172.571 80.0701C197.433 63.3919 223.745 49.3553 251.249 38.3746C264.405 39.2033 277.613 39.4105 290.821 38.9443C318.48 37.9602 348.21 34.8007 371.829 51.6861C374.885 53.8615 377.993 56.6585 378.977 60.6985C381.463 70.6951 370.586 77.4804 361.988 80.0184C360.641 86.9072 368.411 90.8437 374.367 92.0868C393.583 96.075 412.489 101.98 430.876 109.749C443.877 115.239 458.328 124.045 460.918 139.946C462.731 151.134 457.603 162.736 449.989 169.884C442.427 177.032 432.741 180.45 423.211 182.626C390.683 190.033 357.067 184.957 324.073 188.634C319.671 189.1 315.061 189.877 311.487 192.881C305.841 197.698 304.288 206.659 300.351 213.444C292.478 226.859 276.732 229.294 262.851 230.174C231.981 232.142 201.059 232.453 170.188 231.055C162.419 230.692 154.494 230.278 146.984 232.66C139.059 235.198 132.17 240.637 124.815 244.936C107.412 255.14 87.7813 258.714 68.5651 262.132C48.8309 265.654 28.8896 269.228 9 268.658C24.5905 237.944 42.7708 209.249 63.1783 182.988C66.7005 182.263 70.3262 181.538 73.9001 181.02Z" fill="white"/>
<path opacity="0.25" d="M281.704 473.821C284.708 468.952 289.37 465.845 293.928 463.099C361.314 422.906 441.649 436.839 517.064 429.847C536.384 428.034 555.962 424.667 573.314 414.67C593.618 403.016 611.332 382.298 633.863 380.692C649.713 379.553 670.742 385.406 677.527 368.572C679.184 364.428 679.133 359.663 679.599 355.157C686.539 293.313 786.557 311.286 796.346 311.804C820.276 313.099 844.154 314.394 868.084 315.74C891.754 348.216 912.058 384.111 928.477 422.699C905.998 422.44 883.519 422.284 861.039 422.025C849.955 421.922 838.664 421.818 828.045 425.599C813.594 430.779 801.474 442.795 787.075 448.13C775.991 452.222 764.181 452.17 752.579 452.067C710.573 451.704 668.566 451.29 626.56 450.927C618.635 450.876 610.451 450.824 603.096 454.191C595.845 457.505 589.94 463.825 583.414 468.797C561.763 485.061 534.519 485.32 509.294 491.017C501.266 492.83 492.461 495.99 488.628 504.432C482.257 518.469 494.325 534.578 506.549 541.57C555.496 569.747 615.786 542.399 667.893 561.304C681.826 566.38 694.775 574.564 708.345 580.831C752.89 601.29 802.458 599.478 850.007 593.625C890.252 588.652 930.705 580.987 971.053 582.281C974.058 606.988 975.663 632.213 975.663 657.903C975.663 665.932 975.508 673.96 975.197 681.936C952.718 682.506 930.187 683.128 907.707 683.697C865.235 684.837 822.607 685.925 780.29 681.885C756.567 679.606 732.638 675.669 710.624 664.999C697.365 658.577 684.934 649.823 671.26 644.592C647.278 635.424 621.329 637.858 596.104 636.356C557.154 634.077 519.136 622.216 481.48 610.458C423.417 592.33 280.409 565.137 276.731 496.404C276.214 488.583 277.716 480.244 281.704 473.821Z" fill="white"/>
<path d="M269.637 434.722C269.637 434.722 294.188 390.747 300.144 381.372C306.101 371.997 321.691 334.86 322.209 333.409C322.779 331.959 311.488 314.348 314.026 313.779C316.564 313.157 319.309 323.05 322.002 321.859C324.696 320.667 332.517 296.893 334.071 298.085C336.919 300.312 329.823 312.846 331.377 313.623C332.879 314.4 337.541 299.846 340.493 300.26C343.497 300.674 334.796 313.623 335.625 314.763C336.453 315.902 345.466 303.73 347.123 306.32C348.004 307.719 338.836 316.938 340.597 317.819C342.358 318.699 350.542 312.743 351.37 314.452C352.251 316.161 343.808 318.544 341.322 323.154C338.784 327.764 334.537 329.784 332.724 338.382C330.963 346.98 328.27 378.005 319.153 393.492C310.037 408.979 289.992 443.268 289.992 443.268L269.637 434.722Z" fill="#F79C8D"/>
<path d="M353.909 91.7821C353.909 128.091 317.548 157.511 317.548 157.511C317.548 157.511 281.188 128.091 281.188 91.7821C281.188 55.4732 317.548 0 317.548 0C317.548 0 353.909 55.4732 353.909 91.7821Z" fill="#AAC1A5"/>
<path d="M260.52 151.968C266.011 169.682 252.699 189.624 252.699 189.624C252.699 189.624 230.479 180.766 224.937 163.001C219.446 145.286 228.407 107.579 228.407 107.579C228.407 107.579 255.03 134.254 260.52 151.968Z" fill="#AAC1A5"/>
<path d="M244.983 221.272C261.299 230.18 265.598 253.748 265.598 253.748C265.598 253.748 243.481 262.864 227.165 253.955C210.85 245.046 194.948 208.115 194.948 208.115C194.948 208.115 228.667 212.363 244.983 221.272Z" fill="#AAC1A5"/>
<path d="M313.82 282.494C309.469 300.57 287.818 310.774 287.818 310.774C287.818 310.774 273.264 291.765 277.667 273.688C282.017 255.664 301.752 232.977 301.752 232.977C301.752 232.977 318.171 264.417 313.82 282.494Z" fill="#AAC1A5"/>
<path d="M436.006 213.813C423.161 234.583 433.572 264.314 433.572 264.314C433.572 264.314 464.805 260.326 477.65 239.555C490.495 218.785 490.91 172.532 490.91 172.532C490.91 172.532 448.852 193.043 436.006 213.813Z" fill="#AAC1A5"/>
<path d="M437.767 291.766C415.184 301.141 406.327 331.389 406.327 331.389C406.327 331.389 434.038 346.41 456.569 337.035C479.152 327.66 503.133 288.71 503.133 288.71C503.133 288.71 460.35 282.39 437.767 291.766Z" fill="#AAC1A5"/>
<path d="M360.072 455.595C337.437 464.815 328.373 494.96 328.373 494.96C328.373 494.96 355.98 510.136 378.615 500.916C401.25 491.697 410.314 461.551 410.314 461.551C410.314 461.551 382.707 446.375 360.072 455.595Z" fill="#AAC1A5"/>
<path d="M340.441 372.256C343.652 396.496 370.534 412.915 370.534 412.915C370.534 412.915 392.185 390.073 388.973 365.833C385.762 341.593 356.29 303.937 356.29 303.937C356.29 303.937 337.229 348.015 340.441 372.256Z" fill="#AAC1A5"/>
<path d="M289.061 339.469C305.428 348.274 309.883 371.79 309.883 371.79C309.883 371.79 287.818 381.061 271.45 372.256C255.083 363.451 230.221 335.688 230.221 335.688C230.221 335.688 272.693 330.664 289.061 339.469Z" fill="#AAC1A5"/>
<path d="M422.799 278.713C418.655 285.291 415.236 292.335 412.543 299.638C409.28 308.547 407.001 317.767 405.084 326.986C403.064 336.672 401.355 346.358 399.335 356.044C398.351 360.861 397.419 365.781 395.917 370.495C394.466 375.053 392.394 379.352 389.96 383.444C385.039 391.886 378.876 399.552 372.867 407.218C360.644 422.808 348.99 438.813 339.977 456.476C333.554 469.01 328.375 482.218 324.49 495.737C326.614 477.608 328.737 459.48 330.861 441.351C332.052 431.199 333.192 421.047 334.28 410.895C335.315 400.847 336.559 390.85 337.128 380.75C338.216 360.653 336.869 340.453 334.331 320.563C331.793 300.933 328.168 281.458 324.438 261.983C320.864 243.232 317.083 224.482 314.96 205.525C313.095 189.313 312.525 172.583 317.446 156.837C316.617 158.65 315.892 160.515 315.219 162.431C312.266 170.977 311.127 180.093 310.764 189.054C310.402 198.17 310.764 207.338 311.541 216.402C313.199 235.929 316.358 255.301 319.259 274.672C322.263 294.51 325.164 314.348 326.873 334.289C328.478 352.832 328.789 371.479 327.235 390.022C326.562 397.687 325.733 405.301 324.956 412.915C324.387 418.25 323.869 423.585 323.299 428.92C320.398 389.089 310.557 362.104 303.306 343.716C299.628 334.341 295.588 325.122 291.237 316.057C287.871 309.117 284.089 302.331 281.034 295.287C276.993 286.068 273.782 276.589 271.244 266.851C268.758 257.321 266.79 247.635 264.977 237.949C263.216 228.781 261.558 219.614 259.435 210.549C257.674 203.143 255.446 195.943 252.598 188.899C257.207 204.437 259.124 220.546 261.351 236.499C264.045 255.974 267.618 275.398 274.87 293.785C278.547 303.108 283.468 311.914 287.663 320.978C291.962 330.094 296.002 339.365 299.732 348.74C306.983 367.231 312.733 386.241 316.203 405.768C318.793 420.219 319.984 434.877 321.175 449.535C319.311 467.508 317.498 485.481 315.892 503.454C314.131 523.188 312.577 542.923 311.489 562.709C310.505 581.407 309.884 600.157 309.936 618.907C309.987 635.171 310.764 651.383 312.215 667.595C312.215 667.181 312.215 666.766 312.215 666.352C312.059 649.725 312.422 633.099 313.302 616.421C314.286 597.671 315.788 578.921 317.601 560.171C318.896 546.497 320.347 532.822 321.849 519.148C326.199 500.813 332.311 482.943 340.547 466.006C349.197 448.188 360.488 431.873 372.608 416.23C378.565 408.564 384.625 401.002 390.064 392.922C395.399 384.997 399.801 376.607 401.821 367.231C403.893 357.494 405.551 347.704 407.156 337.863C408.658 328.54 410.16 319.165 412.388 309.997C414.615 300.778 417.671 291.765 421.866 283.271C425.285 276.33 429.48 269.855 433.986 263.588C429.946 268.561 426.113 273.429 422.799 278.713Z" fill="#455B57"/>
<path d="M188.577 588.349C225.663 564.108 471.641 562.347 499.455 596.998C380.843 620.876 188.577 588.349 188.577 588.349Z" fill="#48434C"/>
<path d="M460.607 876.644H212.661C206.808 876.644 202.094 871.93 202.094 866.077L164.18 593.114C164.18 587.261 168.893 582.547 174.746 582.547H498.521C504.374 582.547 509.088 587.261 509.088 593.114L471.173 866.077C471.173 871.878 466.408 876.644 460.607 876.644Z" fill="#8D767E"/>
<path d="M267.304 399.967C263.368 390.488 259.328 380.958 249.124 376.141C240.837 372.256 232.187 373.706 224.832 379.248C204.01 394.943 222.138 412.191 198.416 441.921C191.061 451.141 182.1 458.6 177.697 469.425C171.534 484.601 178.889 491.852 190.698 499.104C247.207 533.807 276.783 462.536 275.747 446.22C274.97 434.152 269.842 406.079 267.304 399.967Z" fill="#13375B"/>
<path d="M267.304 399.967C263.368 390.488 259.328 380.958 249.124 376.141C240.837 372.256 232.187 373.706 224.832 379.248C204.01 394.943 222.138 412.191 198.416 441.921C191.061 451.141 182.1 458.6 177.697 469.425C171.534 484.601 178.889 491.852 190.698 499.104C247.207 533.807 276.783 462.536 275.747 446.22C274.97 434.152 269.842 406.079 267.304 399.967Z" fill="#13375B"/>
<path d="M378.769 654.958C383.327 667.026 385.709 678.628 385.916 680.027C386.02 680.7 385.088 683.963 385.139 684.688C394.307 697.223 407.515 699.968 418.807 700.745C413.057 695.099 404.563 689.764 404.148 688.003C403.475 685.154 400.005 672.516 398.296 655.009C391.355 658.272 386.59 655.734 378.769 654.958Z" fill="#F7A491"/>
<path d="M250.161 527.488L239.024 572.55C239.024 572.55 260.934 582.961 273.054 585.188C285.174 587.415 353.027 590.368 354.736 591.559C356.031 592.44 370.016 637.761 376.283 662.726C383.379 664.28 395.551 662.416 402.026 660.189C398.555 624.449 385.917 567.785 381.877 561.621C375.299 551.676 250.161 527.488 250.161 527.488Z" fill="#37405F"/>
<path d="M334.174 679.871C336.401 692.561 336.556 704.422 336.505 705.873C336.505 706.546 334.951 709.602 334.899 710.327C341.581 724.364 354.012 729.492 364.992 732.444C360.382 725.814 353.079 719.029 353.027 717.164C352.924 714.264 351.888 701.211 353.494 683.652C345.88 685.517 341.684 682.099 334.174 679.871Z" fill="#F7A491"/>
<path d="M231.618 522.93L223.797 536.293C211.884 556.649 221 582.91 243.013 591.456C243.116 591.508 243.272 591.56 243.375 591.611C254.874 596.066 320.965 611.708 322.416 613.21C323.503 614.35 328.787 661.484 330.237 687.174C336.919 690.023 349.194 690.489 355.979 689.505C359.243 653.714 357.481 595.755 354.633 588.918C350.075 577.782 231.618 522.93 231.618 522.93Z" fill="#404A6D"/>
<path d="M337.489 706.287C335.728 704.319 329.253 715.04 327.648 717.319C325.835 719.909 326.353 721.825 326.56 722.24C327.13 723.276 361.159 743.321 369.499 744.771C370.275 744.926 371.622 744.408 371.985 744.098C375.248 741.249 360.279 720.013 353.597 717.216C349.246 715.403 345.414 715.04 337.489 706.287Z" fill="#F7867F"/>
<path d="M284.087 492.008C284.812 483.307 286.003 459.895 285.641 456.994C288.282 447.982 297.864 434.619 299.884 430.837C299.884 430.837 286.884 416.127 277.25 416.231C277.25 416.231 266.994 429.18 259.38 433.168C259.277 433.116 256.687 434.308 255.547 434.308C248.192 434.256 222.502 433.479 217.736 434.929L220.43 474.605C221.828 476.884 221.517 529.974 224.366 533.704C227.215 537.485 275.955 550.745 277.405 542.716C278.13 538.365 282.636 509.567 284.087 492.008Z" fill="#71766E"/>
<path d="M238.766 419.649C238.766 419.649 241.407 433.427 240.889 438.865C240.371 444.304 242.909 461.811 254.408 461.863C265.907 461.914 256.583 439.59 255.496 434.307C254.408 428.972 254.149 412.501 254.149 412.501L238.766 419.649Z" fill="#F7A491"/>
<path d="M254.408 420.737C254.253 416.23 254.149 412.449 254.149 412.449L238.714 419.649C238.714 419.649 239.284 422.446 239.802 426.071C246.587 427.418 251.507 424.932 254.408 420.737Z" fill="#F47458"/>
<path d="M233.121 381.631C233.121 381.631 227.164 384.946 224.989 392.094C222.814 399.242 225.3 417.681 240.631 422.136C255.963 426.59 262.645 411.984 259.485 400.589C256.325 389.142 249.437 374.691 233.121 381.631Z" fill="#F7A491"/>
<path d="M261.4 396.134C261.089 399.19 259.432 401.521 257.619 401.366C255.858 401.21 254.615 398.569 254.926 395.513C255.236 392.457 256.894 390.126 258.707 390.281C260.52 390.437 261.711 393.078 261.4 396.134Z" fill="#F7A491"/>
<path d="M387.006 680.441C384.934 678.887 380.583 690.593 379.392 693.131C378.097 695.98 378.977 697.793 379.236 698.155C380.013 699.088 417.203 712.399 425.645 712.244C426.422 712.244 427.665 711.467 427.976 711.104C430.618 707.686 411.971 689.661 404.875 688.159C400.265 687.175 396.433 687.537 387.006 680.441Z" fill="#F7867F"/>
<path d="M234.933 380.699C234.933 380.699 232.136 401.262 225.506 404.991C218.876 408.72 221.621 417.836 221.621 417.836C221.621 417.836 215.613 396.652 220.844 389.867C226.128 383.03 234.933 380.699 234.933 380.699Z" fill="#13375B"/>
<path d="M229.443 407.943C231.255 410.637 231.255 413.796 229.443 414.988C227.63 416.231 224.677 415.039 222.916 412.346C221.103 409.653 221.103 406.493 222.916 405.302C224.677 404.059 227.63 405.25 229.443 407.943Z" fill="#F7A491"/>
<path d="M251.818 409.083L240.993 411.829C240.993 411.829 242.288 415.921 247.105 414.885C252.906 413.59 251.818 409.083 251.818 409.083Z" fill="white"/>
<path d="M196.189 507.34C198.935 487.968 202.975 461.5 202.975 461.5L224.315 467.457C224.315 467.457 218.772 491.697 215.302 511.017L196.189 507.34Z" fill="#F7A491"/>
<path d="M149.056 581.148C149.263 580.681 149.677 580.63 150.143 580.63C154.391 580.474 158.69 580.319 162.937 579.697C163.662 579.594 164.335 579.438 165.009 579.179C166.2 578.713 167.34 578.713 168.531 579.076C169.152 579.231 169.826 579.283 170.499 579.283C172.623 579.283 178.786 577.211 181.894 576.641C182.619 576.538 183.189 575.968 183.344 575.243C186.452 563.019 193.082 535.516 193.963 526.503C195.05 514.953 203.027 462.898 203.027 462.898L224.367 468.854C224.367 468.854 215.561 507.287 213.179 525.933C211.314 540.333 196.915 570.84 192.409 579.646C190.181 586.172 185.261 586.379 184.121 586.483C183.448 586.586 182.878 586.897 182.412 587.363C181.635 588.295 180.755 589.072 179.719 589.694C178.942 590.16 178.372 590.782 177.906 591.507C176.974 592.853 176.197 594.2 175.368 595.599C174.85 596.531 174.28 596.79 173.503 596.583C172.674 596.376 172.26 595.702 172.26 594.718C172.26 593.216 172.778 591.818 173.555 590.523C174.28 589.28 174.228 588.606 173.4 587.467C172.933 586.845 172.415 586.172 171.794 585.706C171.172 585.188 170.499 584.773 169.619 584.929C168.065 585.291 166.563 585.602 164.957 585.809L163.662 586.068C163.61 586.068 162.937 586.224 162.937 586.224C162.833 586.275 160.554 586.483 159.777 586.483C159.156 586.483 158.12 586.534 157.291 586.586C156.514 586.638 154.857 586.224 154.805 586.224C154.028 586.224 153.355 585.913 152.837 585.447C152.63 585.24 152.371 584.981 152.526 584.67C152.63 584.359 152.889 584.204 153.199 584.152C153.717 584.048 156.359 583.737 156.307 583.634C155.53 583.634 153.044 583.582 152.267 583.53C151.231 583.478 150.299 583.116 149.574 582.339C149.211 581.976 148.848 581.666 149.056 581.148Z" fill="#F7A491"/>
<path d="M217.425 434.774C206.859 432.857 198.157 480.095 198.157 480.095C198.157 480.095 221.621 486.621 227.629 483.203C227.629 483.203 234.466 452.954 236.9 454.042L217.425 434.774Z" fill="#71766E"/>
<path d="M677.529 498.637L632.519 482.995C632.519 482.995 595.07 456.32 594.345 455.233C588.492 446.013 588.026 446.893 587.146 447.722C586.524 448.344 582.639 443.527 581.914 444.77C581.241 446.013 578.34 456.061 580.568 457.408C583.727 459.273 587.612 459.791 588.958 461.189C595.122 467.56 613.769 491.8 627.495 498.43C641.22 505.06 668.206 516.87 668.206 516.87L677.529 498.637Z" fill="#ED9282"/>
<path d="M543.325 503.299L566.84 496.358C570.051 495.426 571.864 492.059 570.932 488.848L555.549 436.224C554.616 433.012 551.25 431.199 548.038 432.132L524.523 439.072C521.312 440.005 519.499 443.371 520.431 446.583L535.814 499.207C536.747 502.419 540.113 504.231 543.325 503.299Z" fill="#455B57"/>
<path d="M481.171 429.179L525.456 445.598L532.034 477.038L480.601 431.199L466.72 434.566L475.784 416.333L481.171 429.179Z" fill="#455B57"/>
<path d="M564.561 495.943C573.107 485.74 592.272 459.738 584.761 438.139C582.327 431.147 576.319 427.003 571.605 426.537C563.318 425.708 557.102 428.35 551.094 430.888C550.162 431.25 549.229 431.665 548.349 432.027C543.998 433.788 539.647 435.808 535.4 437.725C531.619 439.486 527.734 441.247 523.85 442.853L525.352 447.152C529.288 445.546 533.173 443.733 536.954 441.972C541.149 440.056 545.448 438.036 549.799 436.275C550.732 435.912 551.664 435.498 552.596 435.083C558.397 432.649 564.354 430.111 572.071 430.888C575.542 431.25 580.203 434.255 581.913 439.227C584.761 447.411 583.156 457.718 577.147 469.838C572.279 479.679 565.701 488.07 562.23 492.214L564.561 495.943Z" fill="#455B57"/>
<path d="M467.963 421.41C466.202 420.374 464.338 419.597 462.421 418.976C460.505 418.354 458.588 417.888 456.672 417.629C454.755 417.37 452.839 417.215 450.922 417.318C449.058 417.37 447.193 417.681 445.38 418.044H445.329C443.36 418.406 441.444 417.163 441.081 415.195C440.719 413.227 441.962 411.31 443.93 410.948C444.293 410.896 444.655 410.844 444.966 410.896C447.193 411.103 449.42 411.414 451.544 412.035C453.668 412.553 455.739 413.33 457.656 414.262C459.624 415.143 461.437 416.231 463.146 417.474C465.011 418.562 466.617 419.856 467.963 421.41Z" fill="#86B2F0"/>
<path d="M451.959 429.024C449.059 428.247 446.106 427.884 443.206 427.884C440.305 427.884 437.456 428.299 434.918 429.283C433.623 429.749 432.432 430.371 431.344 431.096C430.257 431.821 429.273 432.65 428.444 433.634C426.735 435.55 425.595 437.829 424.818 440.264C424.197 442.18 422.177 443.164 420.26 442.594C418.344 441.973 417.36 439.953 417.929 438.036C417.981 437.829 418.085 437.57 418.188 437.415L418.24 437.363C419.898 434.411 422.073 431.665 424.818 429.645C426.165 428.609 427.667 427.781 429.221 427.159C430.775 426.538 432.38 426.071 433.986 425.864C437.197 425.398 440.357 425.554 443.361 426.175C446.417 426.693 449.318 427.677 451.959 429.024Z" fill="#86B2F0"/>
<path d="M442.947 453.887C441.497 454.715 440.202 455.7 439.062 456.787C437.923 457.875 436.939 459.118 436.317 460.361C435.695 461.656 435.385 462.951 435.436 464.142C435.436 464.453 435.488 464.764 435.54 465.023C435.644 465.334 435.644 465.593 435.747 465.903C435.903 466.473 436.213 467.043 436.472 467.561C437.405 469.374 436.68 471.549 434.867 472.481C433.054 473.414 430.878 472.689 429.946 470.876C429.739 470.461 429.635 470.047 429.584 469.633V469.425C429.376 467.354 429.48 465.126 430.205 463.106C430.878 461.086 432.173 459.429 433.572 458.134C434.97 456.891 436.576 455.959 438.13 455.285C439.632 454.612 441.289 454.146 442.947 453.887Z" fill="#86B2F0"/>
<path d="M776.461 832.616C776.461 832.616 778.636 847.792 782.365 852.713C783.609 854.37 785.939 856.442 787.441 859.395C789.772 864.004 788.477 870.893 786.768 874.726C785.888 876.694 786.82 876.643 784.8 877.316C778.792 879.181 772.421 876.021 769.883 870.272C768.432 867.06 767.189 862.761 766.982 857.323C766.361 843.545 762.062 836.501 762.062 836.501L776.461 832.616Z" fill="#F7A491"/>
<path d="M710.939 838.262C710.939 838.262 709.592 855.407 710.68 860.949C711.25 863.953 714.513 870.065 713.011 872.862C711.509 875.659 709.8 876.384 709.8 876.384L671.108 877.005C668.985 877.057 670.383 875.659 672.092 874.416C674.889 872.344 677.116 870.997 686.025 866.698C686.595 866.439 688.719 865.092 689.496 864.626C691.412 863.435 693.38 861.57 695.038 859.706C697.835 856.598 698.042 841.525 698.042 841.525L710.939 838.262Z" fill="#F7A491"/>
<path d="M680.69 610.62C680.69 610.62 675.821 638.434 679.032 656.666C682.244 674.898 697.575 843.856 697.575 843.856L714.616 844.84C714.616 844.84 718.19 774.243 717.568 764.453C716.947 754.612 711.871 738.193 711.871 738.193L713.58 681.217L692.033 606.373L680.69 610.62Z" fill="#2C3B54"/>
<path d="M730.828 604.819C730.828 604.819 744.243 625.174 747.455 641.956C750.666 658.79 745.124 710.482 751.236 732.547C754.551 744.46 767.189 762.899 769.105 778.334C771.022 793.77 778.532 834.17 778.532 834.17L762.009 839.298L721.867 736.639L690.79 645.427L682.813 598.448L730.828 604.819Z" fill="#40506D"/>
<path d="M768.743 867.215C778.015 868.924 784.23 863.434 787.441 859.342C789.824 864.004 790.964 870.893 789.202 874.726C787.649 878.092 783.194 877.989 779.672 878.092C775.943 878.248 773.094 876.176 771.229 872.913C770.349 871.411 769.468 869.494 768.743 867.215Z" fill="#355389"/>
<path d="M689.495 864.575C699.751 867.216 707.261 865.404 711.508 863.694C712.596 866.802 714.046 870.687 713.27 872.966C712.337 875.711 710.991 876.332 709.799 876.384C700.476 876.643 675.562 876.954 668.466 877.058C667.482 877.058 666.912 875.918 667.586 875.141C669.347 873.018 688.718 865.093 689.495 864.575Z" fill="#355389"/>
<path d="M685.714 468.648C685.351 459.739 685.092 450.778 691.774 442.232C697.161 435.343 704.93 432.183 713.166 432.701C736.474 434.1 727.772 454.559 758.85 464.918C768.484 468.13 777.496 471.186 784.851 477.608C798.214 489.211 801.27 504.49 787.182 525.986C752.634 578.61 703.48 518.631 696.436 506.925C689.392 495.323 685.973 474.397 685.714 468.648Z" fill="#F2DAAE"/>
<path d="M701.771 503.351C690.428 500.917 654.844 489.315 654.844 489.315C649.975 496.204 649.095 509.929 649.095 509.929C674.941 521.791 697.058 531.01 697.058 531.01C701.201 515.213 701.771 503.351 701.771 503.351Z" fill="#7DB1A5"/>
<path d="M723.837 499.363C723.837 499.363 735.543 500.709 742.535 508.323C749.527 515.937 731.192 577.212 729.949 586.898C728.706 596.583 742.121 623.465 742.121 623.465C742.121 623.465 696.385 632.581 684.472 624.709C684.472 624.709 683.436 549.708 684.679 542.819C685.974 535.879 697.162 505.682 699.7 502.885C705.812 502.522 723.837 499.363 723.837 499.363Z" fill="#A2CBC1"/>
<path d="M717.982 475.744C717.982 475.744 718.086 476.262 718.241 477.142C719.018 481.39 722.074 495.478 724.146 499.363C726.632 504.024 715.651 518.993 705.085 517.18C701.926 516.663 707.727 503.455 707.468 502.056C706.95 499.363 706.225 495.737 705.448 492.008C705.033 489.884 704.619 487.761 704.205 485.74C703.065 480.043 702.133 475.381 702.133 475.381L717.982 475.744Z" fill="#F7A491"/>
<path opacity="0.5" d="M718.19 477.142C718.035 476.262 717.932 475.744 717.932 475.744L702.082 475.33C702.082 475.33 703.014 479.991 704.154 485.689C704.568 487.709 704.983 489.832 705.397 491.904C707.831 491.542 710.421 490.35 712.959 488.123C715.756 485.689 717.569 482.736 718.708 479.629C718.501 478.644 718.346 477.816 718.19 477.142Z" fill="#F47458"/>
<path d="M712.494 439.175C712.494 439.175 718.709 441.195 722.231 447.981C725.753 454.766 727.411 474.034 714.151 481.959C700.891 489.883 691.62 476.52 692.138 464.244C692.604 451.969 695.867 435.757 712.494 439.175Z" fill="#F7A491"/>
<path d="M689.34 460.723C689.547 463.727 691.101 466.058 692.81 465.851C694.519 465.644 695.711 463.054 695.555 460.05C695.348 457.046 693.794 454.715 692.085 454.922C690.324 455.077 689.133 457.667 689.34 460.723Z" fill="#F7A491"/>
<path d="M705.397 437.985C705.397 437.985 717.259 457.823 724.147 459.894C731.036 461.966 730.259 471.445 730.259 471.445C730.259 471.445 731.606 449.587 725.391 444.2C719.175 438.814 705.397 437.985 705.397 437.985Z" fill="#F2DAAE"/>
<path d="M721.09 463.623C719.951 466.628 720.572 469.683 722.489 470.46C724.405 471.237 726.892 469.424 727.979 466.42C729.119 463.416 728.497 460.36 726.581 459.583C724.664 458.858 722.23 460.671 721.09 463.623Z" fill="#F7A491"/>
<path d="M721.454 549.086L672.403 556.285C670.953 556.493 669.917 557.891 670.124 559.341L679.706 624.759C679.913 626.21 681.312 627.246 682.762 627.038L731.813 619.839C733.263 619.632 734.299 618.233 734.092 616.783L724.51 551.365C724.302 549.863 722.956 548.879 721.454 549.086Z" fill="#F7CC7F"/>
<path d="M684.886 552.246C684.834 551.935 685.041 551.676 685.352 551.624L705.811 548.62C706.122 548.568 706.381 548.775 706.433 549.086L706.744 551.21L685.197 554.369L684.886 552.246Z" fill="#13375B"/>
<path d="M692.447 551.262C692.706 553.023 694.364 554.266 696.125 554.007C697.886 553.748 699.129 552.091 698.87 550.33C698.611 548.569 696.954 547.325 695.193 547.584C693.38 547.843 692.188 549.501 692.447 551.262ZM693.587 551.107C693.432 549.967 694.208 548.879 695.348 548.724C696.487 548.569 697.575 549.345 697.731 550.485C697.886 551.624 697.109 552.712 695.969 552.868C694.83 553.023 693.742 552.246 693.587 551.107Z" fill="#13375B"/>
<path d="M685.145 551.728C684.938 551.832 684.834 552.039 684.886 552.298L685.197 554.421L706.744 551.262C706.951 552.712 705.915 554.111 704.465 554.318L688.253 556.701C686.803 556.908 685.404 555.872 685.197 554.421L684.886 552.298C684.834 552.039 684.938 551.832 685.145 551.728Z" fill="#355389"/>
<path d="M698.196 471.497L709.073 473.413C709.073 473.413 708.089 477.505 703.272 476.78C697.419 475.951 698.196 471.497 698.196 471.497Z" fill="white"/>
<path d="M755.848 565.816L738.082 567.629C738.082 567.629 738.392 582.702 738.082 584.463C738.082 584.463 707.678 592.905 694.988 595.184C694.988 595.184 689.186 591.921 686.856 590.885C684.525 589.849 678.206 588.71 676.859 588.503C675.461 588.296 675.927 589.849 677.118 590.367C678.309 590.885 681.417 592.336 682.298 594.148C682.298 594.148 679.811 594.407 678.465 593.838C677.118 593.268 675.305 591.973 675.305 591.351C675.253 590.678 674.994 589.124 674.528 589.228C674.425 589.228 674.269 589.746 674.114 590.316C673.959 590.834 673.803 591.351 673.7 591.869C673.492 592.802 673.233 594.148 673.13 594.77C672.923 596.168 673.751 600.001 673.855 601.348C674.062 603.834 674.787 604.922 676.082 605.544C678.206 606.269 680.433 606.735 683.748 607.097C689.808 607.719 695.35 605.958 697.785 605.699C700.219 605.44 738.91 601.607 738.91 601.607C738.91 601.607 754.294 599.38 755.33 596.738C756.366 594.097 755.848 565.816 755.848 565.816Z" fill="#F7A491"/>
<path d="M740.411 506.096C740.411 506.096 746.005 508.738 750.977 520.236C755.639 531.165 757.038 585.654 757.038 585.654L738.443 582.546L729.016 557.167C722.283 541.939 724.044 524.276 733.833 510.809C736.423 507.235 738.857 505.06 740.411 506.096Z" fill="#7DB1A5"/>
<path d="M591.393 450.727C588.181 445.754 585.022 441.818 584.763 441.559C584.245 441.093 583.157 443.165 584.918 445.91C587.197 449.484 586.99 453.731 587.819 455.129C589.217 456.372 592.273 452.125 591.393 450.727Z" fill="#ED9282"/>
<path d="M578.342 454.87C578.445 453.886 578.549 453.42 579.377 451.089C579.636 450.26 579.947 448.344 580.103 447.67C580.517 445.858 581.605 443.941 582.433 444.2C583.728 444.563 587.509 448.603 587.302 449.483C587.147 450.208 586.525 450.623 584.246 448.965C587.458 452.228 589.27 455.181 583.625 452.487C585.852 454.559 586.888 455.595 586.266 456.269C585.593 456.994 582.226 455.233 581.812 455.025C585.179 457.667 584.143 459.066 581.449 457.926C579.636 456.787 578.186 456.372 578.342 454.87Z" fill="#F7A491"/>
</svg>
