<svg width="601" height="563" viewBox="0 0 601 563" fill="none" xmlns="http://www.w3.org/2000/svg">
<path d="M63.1494 559.391C20.6418 508.51 17.7113 425.427 60.219 345.113C102.727 264.8 -19.6439 161.139 98.8623 59.3784C167.132 0.769382 352.878 -20.42 492.863 139.306C611.24 274.396 566.446 496.402 483.17 559.358C213.44 559.391 63.1494 559.391 63.1494 559.391Z" fill="#FDE9E4"/>
<path opacity="0.25" d="M40.3501 112.545C52.4583 110.709 64.7919 112.255 76.9646 111.096C89.1372 109.936 101.117 106.104 112.098 99.8248C115.125 98.0859 118.152 96.1537 121.437 95.2198C125.848 93.9961 130.486 94.7368 135.026 94.93C143.882 95.3486 152.77 93.7707 161.143 90.325C163.976 89.1657 167.1 87.2335 167.583 83.7556C168.163 79.3439 164.073 76.188 160.466 74.6745C156.86 73.1609 152.577 71.2932 151.804 66.9136C151.45 64.9492 151.933 62.7273 150.999 61.0205C150.387 59.8612 149.26 59.2171 148.165 58.6697C136.25 52.6478 123.272 50.297 110.391 49.6529C107.557 49.5241 104.659 49.6207 101.696 49.7817C117.154 39.4125 133.513 30.6855 150.612 23.8585C158.792 24.3738 167.003 24.5026 175.215 24.2128C192.411 23.6009 210.896 21.6365 225.58 32.1346C227.48 33.4871 229.412 35.2261 230.024 37.7379C231.57 43.953 224.807 48.1716 219.462 49.7495C218.624 54.0325 223.455 56.4799 227.158 57.2528C239.105 59.7324 250.859 63.4035 262.291 68.2339C270.374 71.6474 279.359 77.1219 280.969 87.0081C282.096 93.9639 278.908 101.177 274.174 105.621C269.473 110.065 263.451 112.191 257.525 113.543C237.302 118.148 216.402 114.992 195.889 117.279C193.152 117.569 190.286 118.052 188.064 119.919C184.554 122.914 183.588 128.485 181.14 132.704C176.246 141.044 166.456 142.558 157.826 143.105C138.633 144.329 119.408 144.522 100.215 143.653C95.3846 143.427 90.4575 143.17 85.7881 144.651C80.8611 146.229 76.5781 149.61 72.0054 152.283C61.1852 158.627 48.9804 160.849 37.0332 162.974C24.7639 165.164 12.3659 167.386 0 167.032C9.69303 147.936 20.9962 130.095 33.6841 113.769C35.8739 113.318 38.1281 112.867 40.3501 112.545Z" fill="white"/>
<path opacity="0.25" d="M169.547 294.587C171.415 291.56 174.313 289.628 177.147 287.921C219.043 262.932 268.989 271.594 315.877 267.247C327.888 266.12 340.061 264.027 350.849 257.811C363.472 250.566 374.486 237.685 388.494 236.686C398.348 235.978 411.422 239.617 415.641 229.151C416.671 226.575 416.639 223.612 416.929 220.81C421.244 182.36 483.428 193.535 489.514 193.857C504.392 194.662 519.237 195.467 534.115 196.304C548.831 216.495 561.455 238.812 571.663 262.803C557.687 262.642 543.711 262.545 529.735 262.384C522.844 262.32 515.824 262.255 509.222 264.606C500.237 267.826 492.702 275.298 483.75 278.614C476.858 281.158 469.516 281.126 462.303 281.062C436.186 280.836 410.07 280.579 383.953 280.353C379.026 280.321 373.938 280.289 369.365 282.382C364.857 284.443 361.186 288.372 357.128 291.463C343.668 301.575 326.729 301.736 311.046 305.278C306.055 306.405 300.58 308.37 298.197 313.619C294.236 322.346 301.74 332.361 309.339 336.708C339.771 354.226 377.255 337.223 409.651 348.977C418.314 352.133 426.364 357.221 434.801 361.118C462.496 373.838 493.314 372.711 522.876 369.072C547.898 365.98 573.048 361.214 598.134 362.02C600.002 377.38 601 393.063 601 409.036C601 414.027 600.903 419.018 600.71 423.978C586.734 424.332 572.726 424.718 558.75 425.072C532.344 425.781 505.841 426.457 479.531 423.945C464.782 422.528 449.905 420.081 436.218 413.447C427.974 409.454 420.246 404.012 411.744 400.759C396.834 395.06 380.701 396.573 365.018 395.639C340.802 394.222 317.165 386.848 293.753 379.538C257.654 368.267 168.742 351.36 166.456 308.627C166.134 303.765 167.068 298.58 169.547 294.587Z" fill="white"/>
<path d="M528.641 559.616C528.641 561.452 527.739 562.933 526.644 562.933L29.3369 562.45C28.242 562.45 27.3403 560.969 27.3403 559.133C27.3403 557.298 28.242 555.816 29.3369 555.816L526.644 556.299C527.771 556.299 528.641 557.781 528.641 559.616Z" fill="#F7CC7F"/>
<path d="M162.044 270.278C162.044 270.278 177.309 242.938 181.012 237.109C184.715 231.28 194.408 208.191 194.73 207.289C195.084 206.388 188.064 195.439 189.642 195.084C191.22 194.698 192.927 200.849 194.601 200.108C196.276 199.367 201.139 184.586 202.105 185.327C203.876 186.712 199.464 194.505 200.43 194.988C201.364 195.471 204.262 186.422 206.098 186.679C207.966 186.937 202.556 194.988 203.071 195.696C203.586 196.405 209.189 188.837 210.22 190.447C210.767 191.317 205.067 197.049 206.162 197.596C207.257 198.144 212.345 194.44 212.86 195.503C213.408 196.566 208.159 198.047 206.613 200.913C205.035 203.779 202.394 205.035 201.267 210.381C200.172 215.726 198.498 235.016 192.83 244.644C187.163 254.273 174.7 275.591 174.7 275.591L162.044 270.278Z" fill="#F79C8D"/>
<path d="M214.438 57.0633C214.438 79.6374 191.832 97.9286 191.832 97.9286C191.832 97.9286 169.226 79.6374 169.226 57.0633C169.226 34.4892 191.832 0 191.832 0C191.832 0 214.438 34.4892 214.438 57.0633Z" fill="#50BFA5"/>
<path d="M156.377 94.4825C159.79 105.496 151.514 117.894 151.514 117.894C151.514 117.894 137.699 112.387 134.253 101.342C130.84 90.3284 136.411 66.8848 136.411 66.8848C136.411 66.8848 152.963 83.4692 156.377 94.4825Z" fill="#50BFA5"/>
<path d="M146.716 137.57C156.86 143.109 159.532 157.761 159.532 157.761C159.532 157.761 145.782 163.429 135.638 157.89C125.494 152.351 115.608 129.391 115.608 129.391C115.608 129.391 136.572 132.031 146.716 137.57Z" fill="#50BFA5"/>
<path d="M189.513 175.634C186.808 186.872 173.348 193.216 173.348 193.216C173.348 193.216 164.299 181.398 167.036 170.159C169.741 158.953 182.01 144.848 182.01 144.848C182.01 144.848 192.218 164.395 189.513 175.634Z" fill="#50BFA5"/>
<path d="M265.48 132.933C257.493 145.846 263.966 164.331 263.966 164.331C263.966 164.331 283.384 161.851 291.371 148.938C299.357 136.024 299.614 107.267 299.614 107.267C299.614 107.267 273.466 120.02 265.48 132.933Z" fill="#50BFA5"/>
<path d="M266.574 181.398C252.534 187.227 247.027 206.033 247.027 206.033C247.027 206.033 264.256 215.372 278.264 209.543C292.304 203.715 307.214 179.498 307.214 179.498C307.214 179.498 280.615 175.569 266.574 181.398Z" fill="#50BFA5"/>
<path d="M218.27 283.255C204.197 288.987 198.562 307.729 198.562 307.729C198.562 307.729 215.726 317.165 229.799 311.433C243.871 305.7 249.507 286.958 249.507 286.958C249.507 286.958 232.343 277.523 218.27 283.255Z" fill="#50BFA5"/>
<path d="M206.066 231.441C208.062 246.512 224.775 256.72 224.775 256.72C224.775 256.72 238.236 242.519 236.24 227.448C234.243 212.377 215.92 188.966 215.92 188.966C215.92 188.966 204.069 216.37 206.066 231.441Z" fill="#50BFA5"/>
<path d="M174.12 211.057C184.296 216.531 187.066 231.151 187.066 231.151C187.066 231.151 173.348 236.916 163.171 231.441C152.995 225.967 137.538 208.706 137.538 208.706C137.538 208.706 163.944 205.582 174.12 211.057Z" fill="#50BFA5"/>
<path d="M257.268 173.283C254.692 177.373 252.566 181.752 250.892 186.293C248.863 191.832 247.446 197.564 246.255 203.296C244.999 209.318 243.936 215.34 242.68 221.362C242.068 224.356 241.489 227.416 240.555 230.346C239.653 233.18 238.365 235.853 236.851 238.397C233.792 243.646 229.96 248.412 226.225 253.178C218.625 262.871 211.379 272.822 205.776 283.803C201.783 291.596 198.562 299.807 196.147 308.212C197.467 296.941 198.788 285.67 200.108 274.399C200.849 268.088 201.557 261.776 202.233 255.464C202.878 249.217 203.65 243.002 204.005 236.722C204.681 224.228 203.844 211.669 202.266 199.303C200.688 187.098 198.434 174.99 196.115 162.881C193.893 151.224 191.542 139.567 190.222 127.78C189.063 117.701 188.708 107.299 191.768 97.5098C191.252 98.6369 190.801 99.7962 190.383 100.988C188.547 106.301 187.839 111.969 187.613 117.54C187.388 123.208 187.613 128.907 188.096 134.543C189.127 146.683 191.091 158.727 192.895 170.771C194.762 183.105 196.566 195.438 197.628 207.836C198.627 219.365 198.82 230.958 197.854 242.487C197.435 247.253 196.92 251.986 196.437 256.72C196.083 260.037 195.761 263.354 195.406 266.671C193.603 241.907 187.485 225.129 182.976 213.697C180.69 207.869 178.178 202.137 175.473 196.501C173.38 192.186 171.029 187.967 169.129 183.588C166.617 177.856 164.621 171.963 163.043 165.908C161.497 159.983 160.273 153.961 159.146 147.939C158.051 142.239 157.021 136.54 155.7 130.904C154.606 126.299 153.221 121.823 151.45 117.443C154.316 127.104 155.507 137.119 156.892 147.038C158.567 159.146 160.789 171.222 165.297 182.654C167.583 188.45 170.643 193.925 173.251 199.56C175.924 205.228 178.436 210.992 180.754 216.821C185.263 228.317 188.837 240.136 190.995 252.276C192.605 261.261 193.345 270.374 194.086 279.488C192.927 290.662 191.8 301.836 190.801 313.011C189.707 325.28 188.74 337.549 188.064 349.851C187.452 361.476 187.066 373.133 187.098 384.791C187.13 394.902 187.613 404.982 188.515 415.061C188.515 414.803 188.515 414.546 188.515 414.288C188.418 403.951 188.644 393.614 189.191 383.245C189.803 371.587 190.737 359.93 191.864 348.273C192.669 339.771 193.571 331.27 194.505 322.768C197.21 311.368 201.01 300.258 206.13 289.728C211.508 278.65 218.528 268.506 226.063 258.781C229.767 254.015 233.535 249.314 236.916 244.29C240.233 239.363 242.97 234.146 244.226 228.317C245.514 222.263 246.544 216.177 247.543 210.058C248.477 204.262 249.41 198.433 250.795 192.733C252.18 187.001 254.08 181.398 256.688 176.117C258.814 171.802 261.422 167.776 264.224 163.88C261.712 166.971 259.329 169.998 257.268 173.283Z" fill="#3C8F7C"/>
<path d="M111.647 365.791C134.704 350.72 287.635 349.626 304.928 371.169C231.184 386.015 111.647 365.791 111.647 365.791Z" fill="#B75742"/>
<path d="M280.776 545.032H126.621C122.982 545.032 120.052 542.102 120.052 538.463L96.4795 368.754C96.4795 365.115 99.4099 362.185 103.049 362.185H304.348C307.987 362.185 310.918 365.115 310.918 368.754L287.345 538.463C287.345 542.069 284.383 545.032 280.776 545.032Z" fill="#F47458"/>
<path d="M160.595 248.67C158.148 242.777 155.636 236.851 149.292 233.856C144.139 231.441 138.762 232.343 134.189 235.789C121.243 245.546 132.514 256.27 117.765 274.754C113.193 280.486 107.622 285.123 104.884 291.854C101.052 301.289 105.625 305.797 112.967 310.306C148.1 331.882 166.488 287.571 165.844 277.427C165.361 269.924 162.173 252.47 160.595 248.67Z" fill="#13375B"/>
<path d="M160.595 248.67C158.148 242.777 155.636 236.851 149.292 233.856C144.139 231.441 138.762 232.343 134.189 235.789C121.243 245.546 132.514 256.27 117.765 274.754C113.193 280.486 107.622 285.123 104.884 291.854C101.052 301.289 105.625 305.797 112.967 310.306C148.1 331.882 166.488 287.571 165.844 277.427C165.361 269.924 162.173 252.47 160.595 248.67Z" fill="#13375B"/>
<path d="M229.896 407.204C232.729 414.707 234.211 421.921 234.339 422.79C234.404 423.209 233.824 425.238 233.856 425.688C239.556 433.482 247.768 435.188 254.788 435.671C251.214 432.161 245.932 428.844 245.675 427.749C245.256 425.978 243.099 418.121 242.036 407.236C237.721 409.265 234.758 407.687 229.896 407.204Z" fill="#F7A491"/>
<path d="M149.936 327.953L143.012 355.969C143.012 355.969 156.634 362.442 164.169 363.827C171.705 365.211 213.89 367.047 214.953 367.788C215.758 368.335 224.453 396.513 228.35 412.034C232.761 413 240.329 411.841 244.354 410.456C242.197 388.236 234.339 353.007 231.827 349.175C227.738 342.992 149.936 327.953 149.936 327.953Z" fill="#13375B"/>
<path d="M202.169 422.694C203.554 430.583 203.65 437.958 203.618 438.859C203.618 439.278 202.652 441.178 202.62 441.629C206.774 450.356 214.503 453.544 221.33 455.379C218.464 451.257 213.923 447.039 213.891 445.88C213.826 444.076 213.182 435.961 214.181 425.044C209.447 426.204 206.838 424.078 202.169 422.694Z" fill="#F7A491"/>
<path d="M138.408 325.119L133.545 333.427C126.138 346.083 131.806 362.41 145.492 367.723C145.557 367.756 145.653 367.788 145.718 367.82C152.867 370.589 193.957 380.315 194.859 381.249C195.535 381.957 198.82 411.261 199.722 427.234C203.876 429.005 211.508 429.295 215.726 428.683C217.755 406.431 216.66 370.396 214.889 366.145C212.055 359.222 138.408 325.119 138.408 325.119Z" fill="#355389"/>
<path d="M204.23 439.117C203.135 437.893 199.109 444.559 198.111 445.976C196.984 447.586 197.306 448.778 197.435 449.035C197.789 449.679 218.946 462.142 224.131 463.044C224.614 463.14 225.451 462.818 225.677 462.625C227.705 460.854 218.399 447.651 214.245 445.912C211.54 444.785 209.157 444.559 204.23 439.117Z" fill="#F7CC7F"/>
<path d="M171.029 305.894C171.479 300.484 172.22 285.929 171.995 284.125C173.637 278.522 179.595 270.214 180.85 267.863C180.85 267.863 172.768 258.717 166.778 258.782C166.778 258.782 160.402 266.832 155.668 269.312C155.603 269.28 153.993 270.02 153.285 270.02C148.712 269.988 132.74 269.505 129.777 270.407L131.451 295.074C132.321 296.491 132.128 329.499 133.899 331.817C135.67 334.168 165.973 342.412 166.874 337.421C167.325 334.716 170.127 316.811 171.029 305.894Z" fill="#F7CC7F"/>
<path d="M142.852 260.907C142.852 260.907 144.494 269.473 144.172 272.854C143.85 276.235 145.428 287.12 152.577 287.152C159.726 287.184 153.929 273.305 153.253 270.02C152.577 266.703 152.416 256.463 152.416 256.463L142.852 260.907Z" fill="#F7A491"/>
<path d="M152.577 261.583C152.48 258.781 152.416 256.43 152.416 256.43L142.819 260.907C142.819 260.907 143.174 262.646 143.496 264.9C147.714 265.737 150.773 264.191 152.577 261.583Z" fill="#F47458"/>
<path d="M139.341 237.27C139.341 237.27 135.638 239.331 134.285 243.775C132.933 248.219 134.479 259.683 144.011 262.453C153.543 265.222 157.697 256.141 155.732 249.056C153.768 241.939 149.485 232.955 139.341 237.27Z" fill="#F7A491"/>
<path d="M156.924 246.287C156.731 248.187 155.7 249.636 154.573 249.539C153.478 249.443 152.706 247.801 152.899 245.901C153.092 244.001 154.123 242.552 155.25 242.648C156.377 242.745 157.117 244.387 156.924 246.287Z" fill="#F7A491"/>
<path d="M235.015 423.048C233.727 422.082 231.022 429.36 230.282 430.938C229.477 432.709 230.024 433.836 230.185 434.061C230.668 434.641 253.79 442.917 259.039 442.82C259.522 442.82 260.295 442.337 260.488 442.112C262.13 439.987 250.537 428.78 246.125 427.846C243.259 427.234 240.876 427.46 235.015 423.048Z" fill="#F7CC7F"/>
<path d="M140.468 236.69C140.468 236.69 138.729 249.475 134.607 251.793C130.485 254.112 132.192 259.78 132.192 259.78C132.192 259.78 128.457 246.609 131.709 242.39C134.994 238.139 140.468 236.69 140.468 236.69Z" fill="#13375B"/>
<path d="M137.055 253.629C138.182 255.303 138.182 257.268 137.055 258.009C135.928 258.781 134.092 258.041 132.997 256.366C131.87 254.692 131.87 252.727 132.997 251.987C134.092 251.214 135.928 251.954 137.055 253.629Z" fill="#F7A491"/>
<path d="M150.966 254.338L144.236 256.044C144.236 256.044 145.041 258.588 148.036 257.944C151.642 257.139 150.966 254.338 150.966 254.338Z" fill="white"/>
<path d="M116.381 315.426C118.088 303.382 120.599 286.927 120.599 286.927L133.867 290.63C133.867 290.63 130.421 305.701 128.264 317.713L116.381 315.426Z" fill="#F7A491"/>
<path d="M87.0762 361.315C87.205 361.025 87.4626 360.992 87.7524 360.992C90.3931 360.896 93.0659 360.799 95.7065 360.413C96.1574 360.348 96.576 360.252 96.9946 360.091C97.7353 359.801 98.4438 359.801 99.1844 360.026C99.5709 360.123 99.9895 360.155 100.408 360.155C101.728 360.155 105.561 358.867 107.493 358.513C107.944 358.448 108.298 358.094 108.394 357.643C110.327 350.044 114.449 332.944 114.996 327.341C115.672 320.159 120.631 287.796 120.631 287.796L133.899 291.499C133.899 291.499 128.425 315.393 126.943 326.986C125.784 335.939 116.832 354.906 114.03 360.381C112.645 364.438 109.586 364.567 108.877 364.631C108.459 364.696 108.105 364.889 107.815 365.179C107.332 365.758 106.784 366.242 106.14 366.628C105.657 366.918 105.303 367.304 105.013 367.755C104.433 368.592 103.95 369.43 103.435 370.299C103.113 370.879 102.759 371.04 102.276 370.911C101.761 370.782 101.503 370.364 101.503 369.752C101.503 368.818 101.825 367.948 102.308 367.143C102.759 366.37 102.727 365.952 102.211 365.243C101.922 364.857 101.6 364.438 101.213 364.148C100.827 363.826 100.408 363.569 99.8607 363.665C98.8946 363.891 97.9607 364.084 96.9624 364.213L96.1574 364.374C96.1252 364.374 95.7065 364.47 95.7065 364.47C95.6421 364.503 94.2252 364.631 93.7422 364.631C93.3557 364.631 92.7117 364.664 92.1964 364.696C91.7134 364.728 90.6829 364.47 90.6507 364.47C90.1676 364.47 89.749 364.277 89.427 363.987C89.2982 363.859 89.1372 363.698 89.2338 363.504C89.2982 363.311 89.4592 363.214 89.6524 363.182C89.9744 363.118 91.6168 362.925 91.5846 362.86C91.1015 362.86 89.5558 362.828 89.0728 362.796C88.4287 362.764 87.8491 362.538 87.3982 362.055C87.1728 361.83 86.9474 361.637 87.0762 361.315Z" fill="#F7A491"/>
<path d="M129.584 270.31C123.015 269.119 117.604 298.488 117.604 298.488C117.604 298.488 132.192 302.545 135.928 300.42C135.928 300.42 140.179 281.613 141.692 282.29L129.584 270.31Z" fill="#F7CC7F"/>
<path d="M415.641 310.016L387.657 300.291C387.657 300.291 364.374 283.706 363.923 283.03C360.284 277.298 359.994 277.845 359.447 278.361C359.06 278.747 356.645 275.752 356.194 276.525C355.776 277.298 353.972 283.545 355.357 284.382C357.322 285.542 359.737 285.864 360.574 286.733C364.406 290.694 375.999 305.765 384.533 309.887C393.067 314.009 409.844 321.351 409.844 321.351L415.641 310.016Z" fill="#ED9282"/>
<path d="M332.204 312.914L346.824 308.599C348.82 308.019 349.947 305.926 349.368 303.929L339.803 271.211C339.224 269.215 337.131 268.088 335.134 268.667L320.514 272.983C318.517 273.562 317.39 275.655 317.97 277.652L327.534 310.37C328.114 312.367 330.207 313.494 332.204 312.914Z" fill="#F7CC7F"/>
<path d="M293.56 266.832L321.094 277.04L325.183 296.587L293.206 268.088L284.576 270.181L290.211 258.845L293.56 266.832Z" fill="#F7CC7F"/>
<path d="M345.407 308.341C350.72 301.997 362.635 285.831 357.966 272.402C356.452 268.055 352.717 265.479 349.786 265.189C344.634 264.674 340.769 266.316 337.034 267.894C336.454 268.119 335.875 268.377 335.327 268.602C332.622 269.697 329.917 270.953 327.276 272.145C324.926 273.24 322.51 274.335 320.095 275.333L321.029 278.006C323.476 277.007 325.892 275.88 328.242 274.785C330.851 273.594 333.524 272.338 336.229 271.243C336.808 271.018 337.388 270.76 337.968 270.502C341.574 268.989 345.278 267.411 350.076 267.894C352.234 268.119 355.132 269.987 356.194 273.079C357.966 278.167 356.967 284.575 353.232 292.111C350.205 298.229 346.115 303.446 343.957 306.022L345.407 308.341Z" fill="#F7CC7F"/>
<path d="M285.348 262.002C284.254 261.358 283.094 260.875 281.903 260.488C280.711 260.102 279.52 259.812 278.328 259.651C277.137 259.49 275.945 259.393 274.754 259.458C273.594 259.49 272.435 259.683 271.308 259.908H271.276C270.052 260.134 268.861 259.361 268.635 258.137C268.41 256.914 269.183 255.722 270.406 255.497C270.632 255.465 270.857 255.432 271.05 255.465C272.435 255.593 273.82 255.787 275.14 256.173C276.46 256.495 277.749 256.978 278.94 257.558C280.164 258.105 281.291 258.781 282.354 259.554C283.513 260.231 284.511 261.036 285.348 262.002Z" fill="#86B2F0"/>
<path d="M275.398 266.735C273.594 266.252 271.759 266.027 269.956 266.027C268.152 266.027 266.381 266.284 264.803 266.896C263.998 267.186 263.257 267.572 262.581 268.023C261.905 268.474 261.293 268.989 260.778 269.601C259.715 270.793 259.007 272.21 258.524 273.723C258.137 274.915 256.881 275.527 255.69 275.172C254.498 274.786 253.886 273.53 254.241 272.338C254.273 272.21 254.337 272.049 254.402 271.952L254.434 271.92C255.464 270.084 256.817 268.378 258.524 267.122C259.361 266.478 260.295 265.962 261.261 265.576C262.227 265.189 263.225 264.9 264.223 264.771C266.22 264.481 268.184 264.578 270.052 264.964C271.952 265.286 273.755 265.898 275.398 266.735Z" fill="#86B2F0"/>
<path d="M269.794 282.193C268.892 282.708 268.087 283.32 267.379 283.996C266.67 284.673 266.059 285.446 265.672 286.218C265.286 287.024 265.093 287.829 265.125 288.569C265.125 288.762 265.157 288.956 265.189 289.117C265.254 289.31 265.254 289.471 265.318 289.664C265.415 290.018 265.608 290.373 265.769 290.695C266.348 291.822 265.898 293.174 264.771 293.754C263.643 294.334 262.291 293.883 261.711 292.756C261.582 292.498 261.518 292.24 261.486 291.983V291.854C261.357 290.566 261.421 289.181 261.872 287.925C262.291 286.669 263.096 285.639 263.965 284.834C264.835 284.061 265.833 283.481 266.799 283.063C267.733 282.644 268.764 282.354 269.794 282.193Z" fill="#86B2F0"/>
<path d="M477.148 517.659C477.148 517.659 478.501 527.095 480.819 530.154C481.592 531.184 483.041 532.472 483.975 534.308C485.424 537.174 484.619 541.457 483.557 543.84C483.009 545.064 483.589 545.032 482.333 545.45C478.597 546.609 474.636 544.645 473.058 541.071C472.157 539.074 471.384 536.401 471.255 533.02C470.869 524.454 468.196 520.074 468.196 520.074L477.148 517.659Z" fill="#F7A491"/>
<path d="M436.412 521.169C436.412 521.169 435.574 531.829 436.251 535.274C436.605 537.142 438.634 540.942 437.7 542.681C436.766 544.42 435.703 544.871 435.703 544.871L411.648 545.257C410.327 545.289 411.197 544.42 412.26 543.647C413.998 542.359 415.383 541.522 420.922 538.849C421.276 538.688 422.597 537.85 423.08 537.561C424.271 536.82 425.495 535.661 426.525 534.501C428.264 532.569 428.393 523.198 428.393 523.198L436.412 521.169Z" fill="#F7A491"/>
<path d="M417.605 379.638C417.605 379.638 414.578 396.931 416.575 408.266C418.571 419.602 428.103 524.647 428.103 524.647L438.698 525.259C438.698 525.259 440.92 481.367 440.534 475.28C440.147 469.162 436.991 458.954 436.991 458.954L438.054 423.531L424.658 376.998L417.605 379.638Z" fill="#13375B"/>
<path d="M448.777 376.032C448.777 376.032 457.118 388.687 459.114 399.121C461.111 409.587 457.665 441.725 461.465 455.443C463.526 462.85 471.384 474.314 472.575 483.911C473.767 493.507 478.436 518.625 478.436 518.625L468.163 521.813L443.206 457.988L423.885 401.278L418.925 372.071L448.777 376.032Z" fill="#355389"/>
<path d="M472.35 539.17C478.114 540.233 481.978 536.82 483.975 534.276C485.456 537.174 486.165 541.457 485.07 543.84C484.104 545.933 481.334 545.869 479.144 545.933C476.826 546.03 475.055 544.742 473.895 542.713C473.348 541.779 472.8 540.587 472.35 539.17Z" fill="#355389"/>
<path d="M423.08 537.529C429.456 539.171 434.125 538.044 436.766 536.981C437.442 538.913 438.344 541.329 437.861 542.746C437.281 544.452 436.444 544.839 435.703 544.871C429.907 545.032 414.417 545.225 410.005 545.29C409.393 545.29 409.039 544.581 409.458 544.098C410.553 542.778 422.597 537.851 423.08 537.529Z" fill="#355389"/>
<path d="M420.729 291.371C420.504 285.832 420.343 280.261 424.497 274.947C427.846 270.664 432.676 268.7 437.796 269.022C452.288 269.891 446.878 282.611 466.199 289.052C472.189 291.049 477.792 292.948 482.365 296.942C490.673 304.155 492.573 313.655 483.814 327.019C462.335 359.737 431.775 322.446 427.395 315.168C423.015 307.955 420.89 294.945 420.729 291.371Z" fill="#F7CC7F"/>
<path d="M430.712 312.947C423.659 311.433 401.536 304.22 401.536 304.22C398.509 308.503 397.961 317.036 397.961 317.036C414.031 324.411 427.781 330.143 427.781 330.143C430.357 320.321 430.712 312.947 430.712 312.947Z" fill="#50BFA5"/>
<path d="M444.43 310.467C444.43 310.467 451.708 311.304 456.055 316.038C460.403 320.772 449.003 358.868 448.23 364.889C447.457 370.911 455.798 387.625 455.798 387.625C455.798 387.625 427.363 393.292 419.956 388.397C419.956 388.397 419.312 341.768 420.085 337.485C420.89 333.17 427.846 314.396 429.424 312.657C433.224 312.431 444.43 310.467 444.43 310.467Z" fill="#96D9C9"/>
<path d="M440.791 295.782C440.791 295.782 440.855 296.104 440.952 296.652C441.435 299.292 443.335 308.052 444.623 310.467C446.169 313.365 439.342 322.672 432.773 321.544C430.808 321.222 434.415 313.011 434.254 312.141C433.932 310.467 433.481 308.213 432.998 305.894C432.74 304.574 432.483 303.253 432.225 301.997C431.517 298.455 430.937 295.557 430.937 295.557L440.791 295.782Z" fill="#F7A491"/>
<path opacity="0.5" d="M440.92 296.652C440.823 296.105 440.759 295.783 440.759 295.783L430.905 295.525C430.905 295.525 431.484 298.423 432.193 301.965C432.451 303.221 432.708 304.542 432.966 305.83C434.479 305.604 436.089 304.864 437.667 303.479C439.406 301.965 440.533 300.13 441.242 298.198C441.113 297.586 441.016 297.071 440.92 296.652Z" fill="#F47458"/>
<path d="M437.378 273.047C437.378 273.047 441.242 274.303 443.432 278.521C445.621 282.74 446.652 294.719 438.408 299.646C430.164 304.573 424.4 296.265 424.722 288.633C425.012 281.001 427.04 270.922 437.378 273.047Z" fill="#F7A491"/>
<path d="M422.983 286.444C423.112 288.311 424.078 289.76 425.141 289.632C426.204 289.503 426.944 287.893 426.848 286.025C426.719 284.157 425.753 282.708 424.69 282.837C423.595 282.933 422.854 284.544 422.983 286.444Z" fill="#F7A491"/>
<path d="M432.966 272.307C432.966 272.307 440.34 284.64 444.623 285.928C448.906 287.217 448.423 293.11 448.423 293.11C448.423 293.11 449.26 279.52 445.396 276.171C441.532 272.822 432.966 272.307 432.966 272.307Z" fill="#F7CC7F"/>
<path d="M442.723 288.247C442.015 290.115 442.401 292.015 443.593 292.498C444.784 292.981 446.33 291.854 447.006 289.986C447.715 288.118 447.328 286.218 446.137 285.735C444.945 285.284 443.432 286.411 442.723 288.247Z" fill="#F7A491"/>
<path d="M442.949 341.381L412.453 345.857C411.551 345.986 410.907 346.856 411.036 347.757L416.993 388.429C417.122 389.331 417.992 389.975 418.893 389.846L449.389 385.37C450.291 385.241 450.935 384.372 450.806 383.47L444.849 342.798C444.72 341.864 443.883 341.252 442.949 341.381Z" fill="#F7CC7F"/>
<path d="M420.213 343.346C420.181 343.152 420.31 342.991 420.503 342.959L433.223 341.091C433.417 341.059 433.578 341.188 433.61 341.381L433.803 342.701L420.407 344.666L420.213 343.346Z" fill="#13375B"/>
<path d="M424.915 342.734C425.076 343.829 426.107 344.602 427.201 344.441C428.296 344.28 429.069 343.249 428.908 342.154C428.747 341.059 427.717 340.286 426.622 340.448C425.495 340.609 424.754 341.639 424.915 342.734ZM425.623 342.637C425.527 341.929 426.01 341.253 426.718 341.156C427.427 341.059 428.103 341.542 428.2 342.251C428.296 342.959 427.813 343.636 427.105 343.732C426.396 343.829 425.72 343.346 425.623 342.637Z" fill="#13375B"/>
<path d="M420.375 343.024C420.246 343.088 420.182 343.217 420.214 343.378L420.407 344.698L433.803 342.734C433.932 343.636 433.288 344.505 432.386 344.634L422.307 346.115C421.405 346.244 420.536 345.6 420.407 344.698L420.214 343.378C420.182 343.217 420.246 343.088 420.375 343.024Z" fill="#355389"/>
<path d="M428.49 293.142L435.252 294.333C435.252 294.333 434.64 296.877 431.645 296.427C428.006 295.911 428.49 293.142 428.49 293.142Z" fill="white"/>
<path d="M464.331 351.783L453.286 352.91C453.286 352.91 453.479 362.281 453.286 363.376C453.286 363.376 434.383 368.625 426.493 370.042C426.493 370.042 422.886 368.013 421.437 367.369C419.988 366.725 416.059 366.016 415.222 365.888C414.353 365.759 414.642 366.725 415.383 367.047C416.124 367.369 418.056 368.271 418.603 369.398C418.603 369.398 417.058 369.559 416.22 369.204C415.383 368.85 414.256 368.045 414.256 367.659C414.224 367.24 414.063 366.274 413.773 366.338C413.708 366.338 413.612 366.66 413.515 367.015C413.419 367.337 413.322 367.659 413.258 367.981C413.129 368.56 412.968 369.398 412.903 369.784C412.775 370.654 413.29 373.037 413.354 373.874C413.483 375.42 413.934 376.096 414.739 376.482C416.059 376.933 417.444 377.223 419.505 377.448C423.273 377.835 426.718 376.74 428.232 376.579C429.745 376.418 453.801 374.035 453.801 374.035C453.801 374.035 463.365 372.65 464.009 371.008C464.653 369.365 464.331 351.783 464.331 351.783Z" fill="#F7A491"/>
<path d="M454.735 314.653C454.735 314.653 458.213 316.295 461.304 323.444C464.202 330.239 465.072 364.117 465.072 364.117L453.511 362.184L447.65 346.405C443.464 336.937 444.559 325.956 450.645 317.584C452.255 315.362 453.769 314.009 454.735 314.653Z" fill="#50BFA5"/>
<path d="M362.088 280.229C360.091 277.137 358.127 274.69 357.966 274.529C357.644 274.239 356.968 275.527 358.062 277.234C359.479 279.456 359.351 282.096 359.866 282.966C360.735 283.739 362.635 281.098 362.088 280.229Z" fill="#ED9282"/>
<path d="M353.972 282.804C354.037 282.193 354.101 281.903 354.616 280.454C354.778 279.938 354.971 278.747 355.067 278.328C355.325 277.201 356.001 276.01 356.516 276.171C357.322 276.396 359.672 278.908 359.544 279.455C359.447 279.906 359.06 280.164 357.644 279.133C359.64 281.162 360.767 282.998 357.257 281.323C358.642 282.611 359.286 283.255 358.899 283.674C358.481 284.125 356.388 283.03 356.13 282.901C358.223 284.543 357.579 285.413 355.905 284.704C354.778 283.996 353.876 283.738 353.972 282.804Z" fill="#F7A491"/>
</svg>
