<svg width="962" height="1095" viewBox="0 0 962 1095" fill="none" xmlns="http://www.w3.org/2000/svg">
<path d="M41 0.5H835.75V1094.5L614.25 1072.5C473.75 1047.5 620.25 712.001 403.25 712.001C251.711 712.001 213.083 597.834 207.75 541.501C195.726 414.501 160.85 432.201 61.2498 323.001C-38.3502 213.801 6.33333 56.6667 41 0.5Z" fill="#F6ADAB"/>
<path d="M187.018 0.5H961.517L961.517 1094H717.5C577 1069 738 766.5 521 766.5C369.462 766.5 408.288 594.717 390.5 541C340 388.5 286.618 457.7 187.018 348.5C87.4175 239.3 152.351 56.6667 187.018 0.5Z" fill="#FABABA"/>
<path d="M201.099 987.522C201.802 999.127 202.154 1010.73 202.857 1022.34C209.187 1023.04 215.868 1023.39 222.198 1024.09C223.253 1024.09 224.308 1024.09 225.011 1023.74C225.715 1023.04 226.066 1021.63 226.066 1020.58C226.066 1007.22 226.066 993.852 226.066 980.489" fill="#E58E67"/>
<path d="M261.231 977.676C262.286 989.632 262.989 1001.59 264.044 1013.54C270.374 1015.3 277.407 1015.3 283.737 1013.9C284.089 996.665 284.089 979.434 283.737 962.203" fill="#BC6348"/>
<path d="M290.068 627.076C299.211 681.583 305.54 736.441 309.76 791.3C310.464 799.388 310.815 807.476 313.277 815.212C315.035 820.839 317.497 826.465 318.2 832.443C319.607 843.696 314.332 854.598 311.519 865.499C303.079 898.906 317.145 937.237 299.211 966.425C297.101 969.589 294.639 972.754 293.584 976.623C292.881 979.084 292.881 981.546 291.474 983.656C286.903 991.04 260.528 990.337 260.528 990.337L249.627 971.699C249.627 971.699 228.176 926.336 222.198 905.236C210.945 865.499 199.692 826.114 188.791 786.376" fill="#48434C"/>
<path d="M251.033 989.28C249.627 989.28 247.868 988.225 247.165 986.818C248.572 985.06 250.33 982.95 249.275 980.84C248.923 980.137 248.22 979.433 247.517 978.73C244.352 975.565 245.055 970.29 245.758 965.719C248.923 968.18 252.792 969.235 256.66 969.939C271.781 972.4 287.606 971.345 302.727 967.125C302.023 969.587 301.32 972.4 300.969 974.862C300.617 975.917 300.617 976.62 299.562 977.323C298.859 977.675 298.155 977.675 297.804 978.378C297.452 979.433 298.155 980.137 298.859 981.192C299.914 982.95 299.21 986.115 297.1 986.818C297.804 987.873 298.155 988.928 298.859 989.983C285.144 997.368 268.616 998.774 254.198 993.851C252.44 993.148 250.33 992.093 250.682 989.983" fill="#5B5969"/>
<path d="M295.693 625.667C295.693 624.612 295.693 623.909 295.693 622.854C293.935 620.392 292.177 617.579 291.122 614.766C289.012 610.546 288.309 605.623 288.66 601.051C289.012 599.293 289.364 597.886 289.715 596.128C290.067 576.787 291.122 557.798 290.77 538.808L239.428 559.556L187.735 580.304C187.032 584.875 186.328 589.095 185.625 593.666C185.273 596.128 184.922 598.59 184.57 601.403C184.218 604.216 183.867 607.029 184.218 609.843C185.625 617.579 193.01 622.502 200.043 625.667C229.582 639.382 263.693 642.898 295.342 635.514C295.342 632.349 295.693 628.832 295.693 625.667Z" fill="#E58E67"/>
<path d="M288.66 601.052C287.957 605.975 289.012 610.546 291.122 614.766C285.847 617.228 280.22 618.986 274.242 619.689C264.748 620.744 254.901 618.635 247.516 612.656C244.703 610.546 242.593 608.085 239.428 606.327C237.67 605.272 235.56 604.92 233.45 604.568C217.626 600.7 201.801 597.183 185.977 593.315C186.68 589.095 187.383 584.524 188.087 579.952L239.78 559.205C241.89 559.556 244 559.908 246.11 559.908C263.693 562.369 281.979 565.534 296.397 575.732C295.342 579.952 294.287 583.821 292.88 587.689C291.122 592.26 289.012 596.48 288.66 601.052Z" fill="#BC6348"/>
<path d="M298.155 572.567C295.342 562.72 293.935 551.819 294.639 541.269C294.99 533.885 297.804 526.148 296.397 518.412C294.99 508.565 287.606 502.236 280.924 495.554C278.814 493.444 277.056 491.334 274.946 489.224C266.155 480.785 258.418 470.938 255.253 459.333C252.792 459.685 250.682 460.037 248.22 460.74C232.396 464.96 219.736 470.235 209.538 475.861C180.351 492.389 175.779 497.664 173.317 511.73C170.856 525.797 173.669 581.007 173.669 581.007C191.252 587.336 208.835 593.315 226.769 595.424C235.561 596.128 244.352 596.128 253.495 594.721C254.55 594.721 255.253 594.37 256.308 594.37C271.781 591.205 286.199 585.578 302.024 583.117C300.265 579.6 298.859 575.732 298.155 572.567Z" fill="#51312C"/>
<path d="M255.956 584.173C255.956 587.689 255.605 591.558 253.495 594.723C244.352 596.129 235.56 596.481 226.769 595.426C225.011 594.371 223.252 592.964 221.494 591.206C216.219 586.283 212.351 579.953 208.483 573.623C197.933 555.689 188.438 535.644 191.603 515.248L194.416 514.545C198.636 514.897 202.856 517.007 206.724 518.765C217.626 524.743 228.879 530.721 237.67 539.513C249.626 551.469 255.956 567.997 255.956 584.173Z" fill="#402723"/>
<path d="M294.287 613.009C287.957 616.525 281.276 618.987 274.243 619.69C268.264 620.393 261.935 619.69 256.308 617.58C253.143 616.525 249.978 614.767 247.517 612.657C246.462 611.954 245.407 610.899 244.352 609.844C244 609.492 243.648 609.492 243.648 609.14C246.462 609.492 249.275 609.492 251.737 609.492C252.792 609.492 253.846 609.492 254.901 610.195C264.748 610.195 274.594 609.14 284.441 607.382C286.199 607.03 287.957 606.679 289.364 607.382C290.77 608.085 291.825 609.492 292.88 610.899C293.232 611.602 293.935 612.305 294.287 613.009Z" fill="#BC6348"/>
<path d="M356.179 528.611C335.783 543.029 312.573 553.227 288.309 558.15C273.188 524.743 251.737 494.501 225.362 468.83C225.362 469.533 225.011 469.885 224.659 470.588C225.714 470.94 226.769 471.643 227.824 472.346C229.231 473.401 229.231 476.566 226.769 476.214C214.813 475.863 205.67 479.731 195.472 485.709C195.12 486.061 194.417 486.061 193.713 485.709C190.548 500.83 191.603 517.007 196.878 531.776C204.966 553.93 221.494 571.865 238.022 589.096C247.868 599.294 259.121 610.195 273.539 610.547C281.979 610.899 290.067 607.382 297.452 603.514C328.749 587.338 355.827 563.425 376.223 534.941L356.179 528.611Z" fill="#E58E67"/>
<path d="M310.815 365.091C306.243 372.827 303.43 381.267 302.023 390.41C301.672 394.278 301.32 398.146 300.969 402.015C300.617 404.476 300.265 406.938 299.914 409.751C299.562 411.509 298.859 413.619 298.155 415.378C294.99 423.114 290.067 429.796 285.144 436.477C284.089 437.532 283.034 438.939 281.627 439.642C280.572 439.994 279.517 439.994 278.463 440.345C271.078 440.697 263.693 441.049 256.66 439.29C249.627 437.532 242.945 433.312 239.78 426.631L215.164 441.4C215.164 441.4 218.681 425.576 219.033 422.762L213.406 402.718L208.483 371.069C208.483 371.069 220.088 337.31 247.517 332.035C274.946 326.76 310.815 365.091 310.815 365.091Z" fill="#E58E67"/>
<path d="M257.012 421.004L255.254 438.586L254.902 442.455V449.488C254.902 449.488 254.551 458.279 254.551 459.334C254.551 460.389 214.462 447.73 214.462 447.73L225.012 416.432L234.506 417.839H235.21L257.012 421.004Z" fill="#E58E67"/>
<path d="M219.033 422.058C218.681 416.784 214.461 412.564 209.889 409.75C205.318 406.937 200.395 404.827 196.526 400.959C192.307 396.388 190.548 390.058 189.493 384.08C187.735 374.937 187.735 364.738 193.362 357.354C197.23 352.43 203.208 349.617 206.725 344.342C209.889 339.419 211.296 332.738 217.274 331.331C220.087 330.628 222.901 331.683 225.714 331.683C230.989 331.683 235.912 328.87 240.484 326.056C247.165 322.54 254.198 319.726 261.935 319.023C268.616 318.32 275.298 319.375 281.979 320.43C290.419 322.188 299.21 324.298 305.892 329.573C313.98 335.903 318.903 345.749 318.2 355.947C317.848 359.112 317.145 362.629 314.683 365.09C311.87 367.903 307.298 368.607 303.078 368.607C294.99 369.31 286.902 369.31 279.166 367.552C271.429 365.793 264.045 361.574 259.473 355.244C257.363 362.277 254.901 369.662 250.33 375.64C245.758 381.618 238.725 386.189 230.989 385.838C230.286 398.497 228.879 412.915 218.681 421.355C219.032 420.652 219.736 419.949 220.439 419.949" fill="#CE572E"/>
<path d="M233.802 400.959C226.065 401.311 222.549 392.519 222.549 386.893C222.549 384.08 223.955 380.915 227.472 379.508C230.989 378.102 234.857 379.508 235.56 382.673C236.263 385.486 234.153 390.409 234.153 392.871C234.153 395.333 235.56 400.959 233.802 400.959Z" fill="#BC6348"/>
<path d="M279.869 416.784C283.034 415.377 282.682 418.894 285.144 418.894C286.199 418.894 286.199 418.542 287.605 417.839C290.067 416.784 293.232 414.322 294.287 411.861C294.287 411.509 294.287 411.157 293.935 411.157C292.88 410.454 290.77 410.454 290.067 409.751C290.419 410.102 289.364 406.586 289.364 405.531C287.605 396.388 286.902 390.41 294.639 383.728C295.342 383.025 294.287 381.618 293.232 382.322C283.737 390.41 285.847 399.553 288.66 410.454C288.66 410.806 289.012 411.157 289.364 411.157C289.715 411.157 291.825 411.509 291.825 411.861C292.529 414.322 285.847 416.081 284.792 415.729C281.979 415.377 281.627 413.619 279.166 414.674C278.462 415.729 278.814 417.136 279.869 416.784Z" fill="#BC6348"/>
<path d="M296.045 381.97C296.749 381.266 297.452 380.563 298.155 379.86C299.21 378.805 300.265 377.75 301.672 377.046C303.079 376.343 304.485 375.64 305.892 375.991C305.54 377.398 305.54 379.156 305.188 380.563C305.188 381.266 304.837 381.97 304.134 382.321C303.782 382.673 303.43 382.673 303.079 382.673C300.617 383.025 298.507 383.025 296.045 383.376" fill="#B04A27"/>
<path d="M283.034 382.322C282.33 381.267 282.682 379.861 282.682 378.806C282.33 377.399 281.627 376.344 280.22 375.641C279.165 374.938 277.759 374.586 276.352 374.586C270.022 373.531 262.989 373.179 257.363 376.344C263.693 377.751 270.022 379.157 276.352 380.564C278.462 380.916 280.572 381.619 281.979 382.674" fill="#B04A27"/>
<path d="M271.429 424.168C273.891 423.113 276.704 422.058 279.166 421.003C279.517 421.003 279.869 420.652 280.221 421.003C280.572 421.355 280.924 421.707 281.276 422.058C281.979 422.762 282.682 422.41 283.386 422.058C284.089 421.707 284.792 421.003 285.495 421.003C286.199 421.003 287.254 421.355 287.605 422.058C288.309 422.762 288.66 423.465 288.66 424.52C283.034 423.817 277.407 423.817 271.429 424.168Z" fill="#AB453C"/>
<path d="M271.429 423.817C274.242 427.333 279.517 429.443 284.089 428.388C286.199 428.037 288.309 426.63 288.66 424.52" fill="#C95A51"/>
<path d="M255.253 438.586L254.902 442.455V449.136C248.923 446.323 244 442.103 240.132 436.476C236.264 430.85 234.154 424.168 234.154 417.487C234.154 416.08 234.154 414.674 234.154 413.267C234.154 414.674 234.154 416.08 234.505 417.487C235.209 420.3 236.615 422.762 238.022 424.872C240.484 428.388 244 430.85 247.165 433.663C249.978 435.773 252.44 437.531 255.253 438.586Z" fill="#BC6348"/>
<path d="M271.429 424.52C274.594 424.169 277.759 423.817 280.924 424.169C283.386 424.52 286.199 423.817 288.661 424.52C289.364 424.52 289.364 423.817 289.012 423.817C286.199 423.114 283.034 423.465 280.221 423.465C277.407 423.114 274.243 423.465 271.429 423.817C270.726 423.817 270.726 424.52 271.429 424.52Z" fill="#96352D"/>
<g opacity="0.38">
<path opacity="0.38" d="M255.605 413.971C253.846 412.916 252.44 411.509 251.033 410.103C250.681 409.751 250.33 409.399 250.33 409.048C249.978 408.344 249.978 407.993 249.978 407.289C249.978 405.883 249.978 404.476 250.33 403.421C251.033 401.311 253.143 399.553 255.253 399.201C257.363 398.498 259.824 398.85 261.934 399.553C263.693 399.905 265.451 400.608 267.209 401.663C268.616 402.718 270.022 404.476 270.022 406.586C270.022 408.696 268.967 410.454 267.561 411.861C264.044 415.377 258.769 416.081 254.55 413.971H255.605Z" fill="#C95A51"/>
</g>
<g opacity="0.38">
<path opacity="0.38" d="M301.32 402.015C300.968 404.476 300.617 406.938 300.265 409.751C299.913 411.509 299.21 413.619 298.507 415.378C296.749 413.268 295.342 410.103 294.99 407.289C294.99 406.586 294.99 405.883 295.342 405.18C295.694 404.476 296.749 403.773 297.452 403.421C298.507 402.366 299.913 402.015 301.32 402.015Z" fill="#C95A51"/>
</g>
<path d="M172.613 515.599C172.965 506.808 181.756 473.4 194.416 458.631C207.076 443.861 212.35 444.213 215.515 437.531C218.68 430.85 217.625 428.388 217.625 428.388L255.604 452.301V461.444L255.253 476.917L255.604 496.61C255.604 496.61 209.537 497.313 191.251 513.489C172.965 529.665 179.295 540.215 179.295 540.215L172.613 515.599Z" fill="#51312C"/>
<path d="M209.186 458.982C226.417 457.575 241.89 475.51 249.978 488.521C251.033 490.279 254.198 488.521 253.143 486.763C244 472.697 227.824 453.707 209.186 455.465C206.724 455.817 206.724 459.334 209.186 458.982Z" fill="#402723"/>
<path d="M223.253 447.377C230.638 454.059 238.374 460.037 246.814 464.96C248.924 466.015 250.682 463.202 248.572 461.795C240.484 456.872 232.748 451.246 225.714 444.564C223.956 443.509 221.495 445.971 223.253 447.377Z" fill="#402723"/>
<path d="M206.022 349.617C207.428 351.024 204.615 353.134 202.505 353.134C189.494 354.189 175.779 348.211 167.691 337.661C162.416 330.98 159.251 321.837 160.658 313.397C162.065 304.957 168.043 296.869 176.482 294.759C183.164 293.001 191.604 294.056 195.472 288.429C198.285 284.209 196.527 278.231 197.933 273.308C199.34 268.385 203.56 264.868 208.132 263.11C213.055 261.352 217.978 261 222.901 261C227.121 261 232.396 261.352 234.857 264.868C236.967 268.033 236.616 272.956 239.429 275.418C244 279.989 251.737 274.011 258.067 275.418C263.342 276.473 266.506 282.099 268.616 287.023C273.891 300.386 277.408 316.21 270.023 328.166C264.397 337.309 253.495 341.881 243.297 345.398C234.506 348.211 225.363 350.321 216.22 351.727" fill="#CE572E"/>
<path d="M255.605 359.464C248.572 362.629 240.483 361.574 234.154 357.354C231.692 355.596 230.285 352.431 230.637 349.266C230.637 349.266 232.044 346.101 232.395 345.398C233.45 342.584 234.154 339.419 234.154 336.606C234.154 335.551 232.395 335.551 232.395 336.606C231.692 345.398 224.307 352.782 233.45 359.112C240.483 363.684 249.275 365.09 256.66 361.222C257.715 360.519 256.66 358.761 255.605 359.464Z" fill="#E36833"/>
<path d="M248.572 373.882C247.165 371.772 245.056 371.772 242.946 371.772C237.319 371.772 228.176 372.475 227.121 365.091C227.121 364.036 225.363 364.387 225.363 365.442C226.066 368.959 227.473 371.42 230.989 372.475C233.099 372.827 235.209 373.179 237.319 373.179C239.429 373.179 245.407 372.475 247.165 374.234C247.517 375.64 249.275 374.585 248.572 373.882Z" fill="#E36833"/>
<path d="M222.549 361.222C221.494 361.574 220.087 358.761 219.736 358.058C219.384 357.003 219.032 355.244 219.032 353.838C219.032 350.321 221.142 348.563 223.252 346.101C225.362 343.991 226.417 341.881 226.417 339.068C226.417 338.013 224.659 338.013 224.659 339.068C224.659 343.991 221.142 344.695 219.032 347.859C217.626 349.969 217.274 352.431 217.626 355.244C217.978 358.761 219.032 363.332 223.252 362.629C223.956 362.629 223.604 360.871 222.549 361.222Z" fill="#E36833"/>
<path d="M239.078 330.277C242.946 334.145 247.517 332.387 252.089 331.684C265.452 329.574 280.221 331.332 286.551 345.046C286.903 346.101 288.661 345.046 287.958 343.992C284.793 337.31 279.166 332.739 272.133 330.629C267.562 329.222 262.99 328.87 258.067 329.222C252.792 329.574 244.001 333.09 240.133 328.87C239.429 328.167 238.374 329.222 239.078 330.277Z" fill="#E36833"/>
<path d="M251.033 338.717C252.088 344.695 258.769 346.102 263.693 344.343C264.748 343.992 264.396 342.233 263.341 342.585C259.121 343.992 253.846 343.288 252.791 338.014C252.44 336.959 250.681 337.662 251.033 338.717Z" fill="#E36833"/>
<path d="M274.946 349.618C277.759 351.025 280.221 352.431 282.33 354.541C283.737 355.948 284.44 357.706 283.034 359.464C281.979 360.871 281.276 361.926 280.221 363.333C279.517 364.387 280.924 365.091 281.627 364.387C283.385 361.926 286.902 359.113 284.792 355.596C283.034 352.431 278.814 349.97 275.649 348.563C274.594 347.508 273.891 348.915 274.946 349.618Z" fill="#E36833"/>
<path d="M293.935 366.146C298.155 363.333 297.804 357.706 293.584 355.244C292.529 354.893 291.825 356.299 292.529 356.651C295.694 358.409 296.045 362.629 292.88 364.388C292.177 365.091 293.232 366.497 293.935 366.146Z" fill="#E36833"/>
<path d="M307.651 364.036C312.574 360.871 314.684 350.321 307.651 348.563C307.651 348.563 304.134 347.86 304.837 348.211C302.376 346.453 302.376 342.585 302.024 340.475C301.672 339.068 302.024 338.013 301.321 336.607C299.211 332.035 294.288 330.629 290.068 329.222C289.013 328.87 288.661 330.629 289.716 330.98C292.178 331.684 294.639 332.387 296.749 333.794C300.266 336.607 299.562 340.475 299.914 343.992C299.914 345.047 299.562 346.453 300.266 347.508C300.969 348.915 301.672 348.915 303.079 349.618C303.782 349.97 304.486 349.618 305.189 349.97C306.947 351.025 308.706 352.08 310.464 353.486C311.519 357.355 310.112 360.168 306.947 362.629C305.892 363.333 306.947 364.739 307.651 364.036Z" fill="#E36833"/>
<path d="M285.144 328.166C281.276 327.814 277.407 327.462 273.891 325.352C272.836 324.649 272.133 326.407 272.836 326.759C276.352 328.869 280.572 329.221 284.792 329.572C286.199 329.924 286.199 328.166 285.144 328.166Z" fill="#E36833"/>
<path d="M220.791 381.266C215.867 382.672 212.702 378.804 209.889 375.288C207.076 371.068 206.724 367.551 209.186 362.98C209.889 361.925 208.131 361.221 207.779 361.925C204.614 367.551 205.318 371.771 209.186 377.046C211.999 380.914 216.219 384.079 221.142 382.672C222.549 382.672 221.846 380.914 220.791 381.266Z" fill="#E36833"/>
<path d="M199.341 362.98C198.989 367.551 200.747 371.068 198.989 375.639C197.582 378.453 196.527 380.914 196.527 384.079C196.527 389.706 199.341 393.574 204.967 394.277C206.022 394.277 206.725 392.87 205.319 392.519C198.989 391.464 197.231 384.431 198.989 379.156C199.692 377.046 201.451 375.639 202.154 373.529C203.209 370.013 201.099 366.496 201.451 362.98C201.099 361.925 199.341 361.925 199.341 362.98Z" fill="#E36833"/>
<path d="M211.999 398.147C213.758 400.608 217.274 402.015 220.088 400.608C221.142 400.257 220.791 398.498 219.736 398.85C217.626 399.905 214.813 399.202 213.406 397.092C213.054 396.388 211.296 397.443 211.999 398.147Z" fill="#E36833"/>
<path d="M220.087 335.902C220.439 330.979 215.516 329.221 211.296 329.221C207.779 329.221 205.318 330.979 202.153 332.386C195.12 335.902 188.087 338.364 180.702 333.441C179.999 332.737 178.944 334.144 179.999 334.847C184.218 337.66 189.142 338.715 194.065 337.66C196.526 336.957 198.636 336.254 201.098 335.199C203.56 333.792 219.384 327.111 218.329 335.902C218.329 336.957 220.087 336.957 220.087 335.902Z" fill="#E36833"/>
<path d="M175.075 326.408C174.724 324.65 174.372 322.891 174.724 321.133C174.724 320.078 173.317 319.375 172.965 320.781C172.614 322.891 172.614 325.001 173.317 327.111C173.669 327.814 175.427 327.463 175.075 326.408Z" fill="#E36833"/>
<path d="M172.966 309.177C181.757 301.089 194.417 306.012 204.263 299.33C206.373 297.924 209.186 296.166 209.538 293.704C210.945 288.077 200.043 281.748 208.483 276.473C209.538 275.77 208.483 274.363 207.428 275.066C204.966 276.824 203.208 278.934 203.56 282.099C203.56 284.913 204.615 284.913 205.318 287.374C207.428 289.836 207.78 293.001 205.67 296.166C204.263 297.221 202.856 298.276 201.098 299.33C190.9 304.605 180.35 300.034 171.207 308.122C170.856 308.474 172.262 309.88 172.966 309.177Z" fill="#E36833"/>
<path d="M201.099 306.715C197.582 307.77 194.769 313.396 196.527 316.561C198.989 320.781 206.725 319.726 210.593 318.671C211.648 318.32 211.297 316.561 210.242 316.913C207.077 317.616 203.56 317.968 200.395 316.913C198.285 316.21 197.582 314.451 198.285 312.341C198.637 310.583 199.692 308.825 201.802 308.122C202.857 308.122 202.505 306.363 201.099 306.715Z" fill="#E36833"/>
<path d="M235.561 319.024C239.077 316.563 241.539 311.288 238.725 307.771C237.319 306.013 235.209 305.661 233.099 305.661C231.341 305.661 229.231 305.661 227.472 305.661C226.418 305.661 225.011 305.661 223.956 305.661C222.901 305.661 216.923 306.013 220.439 302.145C221.143 301.441 220.088 300.035 219.033 300.738C216.923 303.2 217.626 306.365 220.791 307.068C223.604 307.771 227.472 307.068 230.286 307.068C232.044 307.068 235.209 306.716 236.616 307.771C240.484 310.233 237.319 315.508 234.857 317.266C233.802 317.969 234.857 319.728 235.561 319.024Z" fill="#E36833"/>
<path d="M222.901 295.111C224.659 294.056 225.714 292.297 225.011 290.187C224.659 288.429 222.901 287.022 221.143 287.022C220.088 287.022 220.088 288.781 221.143 288.781C223.956 288.781 223.956 292.297 221.846 293.704C221.143 294.407 221.846 295.814 222.901 295.111Z" fill="#E36833"/>
<path d="M216.571 277.177C223.956 272.254 231.341 271.55 233.802 284.913C233.802 285.617 232.747 286.672 233.099 287.375C234.154 290.188 232.396 289.837 235.209 291.946C236.615 293.001 238.374 293.001 239.78 293.001C240.835 293.001 241.89 292.298 242.945 291.946C248.923 289.837 253.143 288.782 259.473 290.54C260.528 290.891 260.88 289.133 259.825 288.782C257.011 288.078 254.198 287.375 251.033 287.727C249.275 287.727 246.462 289.133 245.055 289.133C229.934 289.133 238.374 284.562 235.56 278.232C232.044 269.792 221.846 271.55 215.868 275.77C214.813 276.122 215.868 277.88 216.571 277.177Z" fill="#E36833"/>
<path d="M245.055 302.144C247.517 302.496 249.275 302.144 251.737 301.793C254.901 301.089 262.286 298.276 264.045 302.144C264.396 303.199 266.154 302.847 265.803 301.793C262.638 294.408 251.033 301.441 245.407 300.738C244.703 300.386 244 302.144 245.055 302.144Z" fill="#E36833"/>
<path d="M251.737 311.99C253.144 311.639 254.199 311.639 255.605 311.99C256.66 312.342 257.715 313.749 257.012 315.155C256.309 316.21 258.067 316.913 258.419 316.21C259.474 314.452 258.77 312.694 257.364 311.287C255.605 309.88 253.144 309.88 251.034 310.232C250.331 310.584 250.682 311.99 251.737 311.99Z" fill="#E36833"/>
<path d="M267.561 306.715C268.968 308.474 270.023 310.584 270.726 313.045C271.078 314.1 272.836 313.749 272.485 312.694C271.781 310.232 270.726 308.122 269.32 306.012C268.265 304.957 266.858 305.66 267.561 306.715Z" fill="#E36833"/>
<path d="M262.989 312.693C252.791 312.693 242.593 316.21 232.747 319.375C214.812 325.353 199.691 333.793 188.087 348.914C187.383 349.617 187.383 350.672 188.087 351.376C190.9 353.837 193.01 354.892 196.526 355.595C197.23 355.595 197.581 355.595 197.933 355.244C198.636 355.595 199.34 355.947 200.043 355.244C209.889 344.694 220.087 334.848 234.154 329.573C246.813 324.65 260.176 323.595 273.539 322.891C274.594 322.891 275.297 321.836 275.297 320.781C274.242 312.693 269.671 312.693 262.989 312.693Z" fill="#464C32"/>
<path d="M370.597 525.094C374.465 522.632 378.333 520.17 382.905 520.17C392.751 520.17 401.542 531.775 410.686 527.555C408.927 533.533 402.246 537.05 396.268 537.05C389.938 537.05 384.311 533.885 379.388 529.665" fill="#E58E67"/>
<path d="M420.532 553.929C414.553 535.291 392.399 527.906 376.575 539.159C369.19 544.434 363.563 553.226 362.508 562.369C361.805 569.05 364.267 575.38 366.377 581.71C368.486 588.743 370.948 595.776 373.058 603.161C374.465 607.381 381.146 605.623 379.739 601.403C374.816 585.93 363.563 565.182 374.816 550.764C385.718 537.05 408.224 538.456 413.85 556.391C414.905 560.259 421.938 558.149 420.532 553.929Z" fill="#48434C"/>
<path d="M354.771 530.016C361.453 527.555 368.134 525.093 374.816 522.631C385.366 531.423 396.619 539.511 408.927 545.841C393.805 555.687 374.816 558.5 357.233 553.929" fill="#E58E67"/>
<path d="M502.116 647.47C503.523 646.063 505.984 646.415 507.039 648.525C507.743 649.58 507.743 650.635 507.743 651.69C507.743 654.855 506.688 658.02 504.929 660.481C504.578 660.833 504.578 661.185 504.226 661.185C503.523 661.536 502.819 661.536 502.116 661.536C500.71 661.536 498.951 661.536 497.896 660.13C496.841 658.723 497.193 656.613 497.193 654.855" fill="#48434C"/>
<path d="M410.334 552.875C390.993 583.47 369.19 612.657 345.278 639.735C343.871 641.493 342.113 643.251 341.761 645.361C341.058 648.526 342.464 651.691 344.223 654.504C362.509 685.45 396.971 705.846 432.84 707.253C446.203 672.79 459.566 638.68 472.929 604.217" fill="#524C57"/>
<path d="M439.872 676.305C460.62 671.382 481.368 666.107 502.467 661.184C500.005 656.613 501.06 650.283 504.929 646.415C488.752 648.524 472.576 648.876 456.4 648.173C450.774 647.821 444.444 647.47 439.521 650.283C434.949 652.744 432.136 657.668 432.136 662.942C432.136 667.866 434.949 673.14 439.521 675.602" fill="#524C57"/>
<path d="M441.28 593.666C451.478 600.347 463.082 604.919 473.28 602.105C475.39 597.534 475.039 591.556 472.577 586.984C469.764 581.006 464.841 576.083 459.917 571.511C453.588 565.533 446.906 559.555 439.17 555.687C431.433 551.819 421.939 550.06 413.85 552.874C412.795 553.225 412.092 553.577 411.389 554.28C410.686 555.335 410.686 556.39 410.686 557.445C410.686 558.148 410.686 559.203 410.686 559.907C415.96 574.676 429.675 586.281 441.28 593.666Z" fill="#48434C"/>
<path d="M386.773 592.963C401.542 618.634 427.565 635.514 457.104 638.327C459.214 638.678 459.214 635.162 457.104 634.81C428.972 631.997 404.004 615.821 389.938 591.205C388.883 589.447 385.718 591.205 386.773 592.963Z" fill="#48434C"/>
<path d="M427.916 649.229C419.125 660.13 425.455 675.955 439.521 677.361C441.631 677.713 441.631 674.197 439.521 673.845C428.62 672.79 423.345 660.482 430.378 651.691C431.785 649.932 429.323 647.471 427.916 649.229Z" fill="#48434C"/>
<path d="M505.633 655.559C519.699 658.724 516.534 685.45 516.886 696.351C517.237 708.659 517.237 720.615 516.886 732.923C516.534 757.188 515.127 781.452 512.666 805.716C512.314 807.826 515.831 807.826 516.182 805.716C519.347 775.825 520.754 745.583 520.754 715.692C520.754 700.923 520.754 685.801 519.347 671.032C518.644 662.592 515.831 654.504 506.687 652.394C504.578 651.691 503.523 655.207 505.633 655.559Z" fill="#9490A3"/>
<path d="M504.226 668.569C504.577 676.657 504.929 685.097 505.281 693.185C505.281 695.295 508.797 695.295 508.797 693.185C508.445 685.097 508.094 676.657 507.742 668.569C507.742 666.459 504.226 666.459 504.226 668.569Z" fill="#9490A3"/>
<path d="M503.874 711.823C507.039 748.747 504.226 786.022 495.786 821.891C495.434 824.001 498.599 825.056 499.303 822.946C508.094 786.374 510.907 749.098 507.742 711.823C507.039 709.361 503.522 709.361 503.874 711.823Z" fill="#9490A3"/>
<path d="M511.611 819.077C511.611 823.649 511.611 828.572 511.611 833.143C511.611 835.253 515.128 835.253 515.128 833.143C515.128 828.572 515.128 823.649 515.128 819.077C515.128 816.616 511.611 816.616 511.611 819.077Z" fill="#9490A3"/>
<path d="M498.599 837.014C497.544 840.179 497.192 843.695 497.544 847.212C497.896 849.322 501.412 849.322 501.061 847.212C500.709 844.047 501.061 840.882 501.764 838.069C502.467 835.607 498.951 834.904 498.599 837.014Z" fill="#9490A3"/>
<path d="M301.672 686.856C301.672 694.944 300.969 704.087 295.342 710.417C292.177 713.582 288.309 715.692 284.089 717.45C282.682 718.153 281.627 718.505 280.221 719.208C277.408 720.615 274.594 722.021 272.133 724.483C266.506 730.109 264.748 738.549 263.693 746.286C253.143 822.243 263.341 901.014 245.407 975.566C242.945 985.412 239.077 996.313 230.286 1000.53C219.033 1005.81 206.021 998.423 195.472 991.39C183.867 957.983 171.911 924.575 160.306 890.816C154.68 875.344 149.405 859.519 148.35 842.991C147.295 828.573 149.756 814.155 147.295 799.737C145.185 787.078 138.855 775.121 136.042 762.462C129.712 733.626 141.317 704.438 152.57 677.361C161.713 655.91 170.504 634.107 179.647 612.656C179.999 611.953 180.35 610.898 180.702 610.195C181.757 607.381 183.164 604.568 184.219 601.755L183.515 598.238C198.285 599.293 212.351 605.271 226.769 608.788C233.451 610.546 240.132 611.601 246.813 612.305C261.935 614.063 277.408 613.008 292.177 609.843C292.529 609.843 293.232 609.491 293.584 609.491C299.21 635.162 302.024 660.833 301.672 686.856Z" fill="#524C57"/>
<path d="M294.287 613.008C287.957 616.525 281.276 618.986 274.243 619.69C268.265 620.393 261.935 619.69 256.308 617.58C253.143 616.525 249.978 614.766 247.517 612.657C247.517 612.657 247.165 612.305 246.813 612.305C261.935 614.063 277.408 613.008 292.177 609.843C292.177 610.195 292.529 610.195 292.529 610.547C293.232 611.602 293.584 612.305 294.287 613.008Z" fill="#48434C"/>
<path d="M284.09 717.099C282.683 717.802 281.628 718.154 280.221 718.857C283.386 705.494 280.925 691.076 279.518 677.361C277.76 661.537 277.408 645.712 277.76 629.888C277.76 628.833 277.76 627.426 277.76 626.371C277.76 622.503 278.111 618.635 278.463 614.415C278.463 612.305 281.98 612.305 281.98 614.415C281.628 618.283 281.628 622.151 281.628 625.668C281.628 626.723 281.628 628.13 281.628 629.185C281.276 648.526 282.331 667.515 284.441 686.505C284.793 689.669 285.145 692.483 285.145 695.648C285.145 695.999 285.145 696.351 285.145 697.054C285.145 698.109 285.145 699.164 285.145 700.219V700.571C285.496 706.549 285.145 711.824 284.09 717.099Z" fill="#6A6370"/>
<path d="M286.2 613.008C286.551 627.777 287.255 642.547 287.958 657.317C288.661 669.625 293.936 689.669 282.683 698.46C281.276 699.515 282.683 701.977 284.441 701.274C285.145 701.274 285.496 700.922 286.2 700.922C288.31 700.219 287.606 697.054 285.145 697.405C284.441 697.405 284.09 697.757 283.386 697.757C284.09 698.812 284.441 699.867 285.145 700.57C295.343 692.482 292.881 678.768 292.178 667.163C290.771 648.877 290.068 630.942 289.716 612.656C289.716 610.546 286.2 610.546 286.2 613.008Z" fill="#6A6370"/>
<path d="M180.703 613.36C200.044 620.393 220.44 625.668 240.836 628.129C258.067 630.239 279.166 633.404 295.343 625.316C297.453 624.261 295.694 621.448 293.584 622.151C276.705 630.239 252.792 626.371 234.858 623.558C216.572 620.744 198.989 616.173 181.406 609.843C179.296 609.14 178.593 612.656 180.703 613.36Z" fill="#6A6370"/>
<path d="M213.758 621.799C202.857 652.042 188.087 682.987 187.032 715.692C186.681 732.571 187.032 749.802 188.79 766.33C189.494 773.011 190.549 779.693 191.604 786.374C193.714 796.572 193.714 804.661 191.955 814.859C189.845 827.518 193.714 838.068 198.285 849.673C201.098 856.706 203.912 864.09 203.912 871.827C203.912 879.212 201.098 886.245 201.098 893.63C201.098 910.157 204.263 927.037 206.022 943.565C208.132 961.851 209.89 979.785 212 998.072C212.351 1000.18 215.868 1000.18 215.516 998.072C213.758 981.192 212 963.961 209.89 947.081C208.132 930.554 205.318 913.674 204.615 896.795C204.263 888.355 207.428 880.267 207.428 871.827C207.428 866.552 206.373 861.277 204.615 856.354C199.692 840.881 193.362 829.628 196.175 813.1C198.637 797.979 194.417 784.968 193.01 770.198C191.252 753.67 190.9 736.439 190.9 719.56C191.252 685.801 206.373 654.152 217.626 623.206C217.978 620.744 214.461 619.689 213.758 621.799Z" fill="#6A6370"/>
<path d="M200.395 670.328C223.956 670.328 251.034 653.449 246.462 626.723C246.11 624.613 242.594 625.316 242.945 627.778C246.814 652.042 221.143 666.812 200.395 666.812C197.933 666.812 197.933 670.328 200.395 670.328Z" fill="#6A6370"/>
<path d="M196.175 681.231C211.648 677.363 229.934 679.121 242.594 667.516C253.144 657.67 256.309 642.197 257.363 628.131C257.363 626.021 253.847 626.021 253.847 628.131C252.792 642.549 249.275 658.725 236.616 667.516C224.659 675.604 208.835 674.549 195.12 677.714C193.01 678.418 194.065 681.934 196.175 681.231Z" fill="#6A6370"/>
<path d="M192.658 997.719C190.9 997.719 189.494 996.664 188.439 995.258C189.845 993.499 191.603 991.389 190.548 989.279C190.197 988.576 189.494 987.873 188.79 987.169C185.625 984.005 186.329 978.73 187.032 974.158C190.197 976.62 194.417 977.675 198.285 978.378C214.461 980.84 230.989 979.785 246.814 975.565C246.11 978.026 245.407 980.84 244.704 983.301C244.352 984.356 244.352 985.06 243.297 985.763C242.594 986.115 241.539 986.114 241.187 986.818C240.835 987.873 241.539 988.576 242.242 989.631C243.649 991.389 242.594 994.554 240.484 995.258C241.187 996.313 241.539 997.367 242.242 998.422C227.824 1005.81 210.593 1007.21 195.12 1002.29C193.362 1001.59 191.252 1000.53 191.603 998.422" fill="#696678"/>
<path d="M195.471 1038.51C196.878 1033.59 198.636 1028.67 200.746 1024.09C201.098 1023.39 201.449 1022.69 202.153 1021.98C202.856 1021.63 203.559 1021.63 204.263 1021.63C210.241 1021.63 216.219 1021.63 222.549 1021.28C223.955 1021.28 225.01 1021.28 226.065 1021.63C227.472 1022.34 228.175 1023.39 229.23 1024.45C234.153 1029.72 241.89 1030.78 248.923 1031.48C251.736 1031.83 254.55 1032.18 257.011 1033.24C259.473 1034.29 261.583 1036.75 261.583 1039.57C239.78 1043.79 216.922 1043.79 195.12 1038.86" fill="#464C32"/>
<path d="M257.363 1023.04C258.418 1019.17 260.177 1015.3 262.287 1011.43C267.21 1015.3 274.243 1013.9 280.221 1012.84C280.924 1012.84 281.628 1012.49 282.331 1012.84C283.386 1013.19 284.441 1014.25 285.144 1014.95C291.123 1021.28 300.969 1020.58 309.409 1022.69C311.167 1023.04 313.277 1023.74 314.332 1025.15C315.387 1026.56 315.738 1029.02 313.98 1030.42C313.277 1030.78 312.574 1031.13 311.519 1031.13C293.936 1033.94 276.001 1033.94 258.418 1031.13C257.715 1031.13 256.66 1030.78 255.957 1030.42C254.199 1029.02 254.55 1026.2 255.605 1024.09C256.66 1022.34 257.715 1020.23 259.122 1018.82" fill="#3F452D"/>
<path d="M496.139 927.389C497.897 938.29 497.194 948.488 494.38 959.038C491.919 967.829 489.106 976.269 487.699 985.412C485.237 1001.24 485.941 1017.41 489.106 1033.24C489.457 1035.35 492.974 1034.64 492.622 1032.18C488.754 1012.84 488.754 993.148 493.677 974.159C495.787 965.719 499.304 957.631 500.359 948.84C501.414 941.455 500.71 934.07 499.655 926.685C499.304 924.224 496.139 925.279 496.139 927.389Z" fill="#3F452D"/>
<path d="M486.644 1032.89C479.259 1030.42 474.336 1023.39 470.467 1016.71C452.181 984.357 444.093 946.378 446.906 909.454C449.016 924.224 456.753 937.587 463.434 950.598C472.577 968.181 480.314 986.467 486.644 1005.46C489.808 1015.3 492.973 1025.5 491.918 1035.7" fill="#3F452D"/>
<path d="M489.104 1036.4C490.863 1027.26 492.973 1018.12 494.731 1009.32C496.489 1001.24 498.248 992.797 501.061 984.709C510.907 956.224 534.116 932.663 562.249 922.114C558.732 967.829 531.303 1011.43 491.214 1034.29" fill="#3F452D"/>
<path d="M496.49 928.794C481.017 929.498 466.599 915.783 466.247 900.662C471.17 902.42 475.742 904.882 479.962 908.047C478.203 898.904 481.72 889.057 488.753 882.728C496.138 887.299 501.413 895.387 502.819 904.179C505.984 898.2 511.611 891.519 518.292 893.629C520.05 898.904 521.457 904.179 521.457 909.805C521.457 915.432 519.699 921.058 515.479 924.926C513.017 927.036 509.852 928.443 506.688 929.498C502.116 930.904 496.49 931.608 492.973 928.794" fill="#F0441D"/>
</svg>
