<svg width="943" height="1096" viewBox="0 0 943 1096" fill="none" xmlns="http://www.w3.org/2000/svg">
<path d="M51.5 0L829.5 3.5V1094.5L608 1072.5C467.5 1047.5 614 712 397 712C245.462 712 206.833 597.833 201.5 541.5C189.476 414.5 154.6 432.2 55.0001 323C-44.5999 213.8 16.8333 56.1667 51.5 0Z" fill="#F6ADAB"/>
<path d="M168.018 1H942.517V1096H698.5C558 1071 719 768.5 502 768.5C350.462 768.5 389.288 596.717 371.5 543C321 390.5 267.618 459.7 168.018 350.5C68.4176 241.3 133.351 57.1667 168.018 1Z" fill="#FABABA"/>
<path d="M194.85 987.522C195.553 999.127 195.905 1010.73 196.608 1022.34C202.938 1023.04 209.619 1023.39 215.949 1024.09C217.004 1024.09 218.059 1024.09 218.762 1023.74C219.466 1023.04 219.817 1021.63 219.817 1020.58C219.817 1007.22 219.817 993.852 219.817 980.489" fill="#E58E67"/>
<path d="M254.982 977.676C256.037 989.632 256.74 1001.59 257.795 1013.54C264.125 1015.3 271.158 1015.3 277.488 1013.9C277.84 996.665 277.84 979.434 277.488 962.203" fill="#BC6348"/>
<path d="M283.819 627.076C292.962 681.583 299.291 736.441 303.511 791.3C304.215 799.388 304.566 807.476 307.028 815.212C308.786 820.839 311.248 826.465 311.951 832.443C313.358 843.696 308.083 854.598 305.27 865.499C296.83 898.907 310.896 937.237 292.962 966.425C290.852 969.589 288.39 972.754 287.335 976.623C286.632 979.084 286.632 981.546 285.225 983.656C280.654 991.04 254.279 990.337 254.279 990.337L243.378 971.699C243.378 971.699 221.927 926.336 215.949 905.236C204.696 865.499 193.443 826.114 182.542 786.376" fill="#48434C"/>
<path d="M244.784 989.28C243.378 989.28 241.619 988.225 240.916 986.818C242.323 985.06 244.081 982.95 243.026 980.84C242.674 980.137 241.971 979.433 241.268 978.73C238.103 975.565 238.806 970.29 239.509 965.719C242.674 968.18 246.543 969.235 250.411 969.939C265.532 972.4 281.357 971.345 296.478 967.125C295.774 969.587 295.071 972.4 294.72 974.862C294.368 975.917 294.368 976.62 293.313 977.323C292.61 977.675 291.906 977.675 291.555 978.378C291.203 979.433 291.906 980.137 292.61 981.192C293.665 982.95 292.961 986.115 290.851 986.818C291.555 987.873 291.906 988.928 292.61 989.983C278.895 997.368 262.367 998.774 247.949 993.851C246.191 993.148 244.081 992.093 244.433 989.983" fill="#5B5969"/>
<path d="M289.444 625.667C289.444 624.612 289.444 623.909 289.444 622.854C287.686 620.392 285.928 617.579 284.873 614.766C282.763 610.546 282.06 605.623 282.411 601.051C282.763 599.293 283.115 597.886 283.466 596.128C283.818 576.787 284.873 557.798 284.521 538.808L233.179 559.556L181.486 580.304C180.783 584.875 180.079 589.095 179.376 593.666C179.024 596.128 178.673 598.59 178.321 601.403C177.969 604.216 177.618 607.029 177.969 609.843C179.376 617.579 186.761 622.502 193.794 625.667C223.333 639.382 257.444 642.898 289.093 635.514C289.093 632.349 289.444 628.832 289.444 625.667Z" fill="#E58E67"/>
<path d="M282.411 601.052C281.708 605.975 282.763 610.546 284.873 614.766C279.598 617.228 273.971 618.986 267.993 619.689C258.499 620.744 248.652 618.635 241.267 612.656C238.454 610.546 236.344 608.085 233.179 606.327C231.421 605.272 229.311 604.92 227.201 604.568C211.377 600.7 195.552 597.183 179.728 593.315C180.431 589.095 181.134 584.524 181.837 579.952L233.531 559.205C235.641 559.556 237.751 559.908 239.861 559.908C257.444 562.369 275.73 565.534 290.148 575.732C289.093 579.952 288.038 583.821 286.631 587.689C284.873 592.26 282.763 596.48 282.411 601.052Z" fill="#BC6348"/>
<path d="M291.906 572.567C289.093 562.72 287.686 551.819 288.39 541.269C288.741 533.885 291.555 526.148 290.148 518.412C288.741 508.565 281.357 502.236 274.675 495.554C272.565 493.444 270.807 491.334 268.697 489.224C259.906 480.785 252.169 470.938 249.004 459.333C246.543 459.685 244.433 460.037 241.971 460.74C226.147 464.96 213.487 470.235 203.289 475.861C174.101 492.389 169.53 497.664 167.068 511.73C164.607 525.797 167.42 581.007 167.42 581.007C185.003 587.336 202.586 593.315 220.52 595.424C229.312 596.128 238.103 596.128 247.246 594.721C248.301 594.721 249.004 594.37 250.059 594.37C265.532 591.205 279.95 585.578 295.775 583.117C294.016 579.6 292.61 575.732 291.906 572.567Z" fill="#51312C"/>
<path d="M249.707 584.173C249.707 587.689 249.356 591.558 247.246 594.723C238.103 596.129 229.311 596.481 220.52 595.426C218.761 594.371 217.003 592.964 215.245 591.206C209.97 586.283 206.102 579.953 202.234 573.623C191.684 555.689 182.189 535.644 185.354 515.248L188.167 514.545C192.387 514.897 196.607 517.007 200.475 518.765C211.377 524.743 222.63 530.721 231.421 539.513C243.377 551.469 249.707 567.997 249.707 584.173Z" fill="#402723"/>
<path d="M288.038 613.009C281.708 616.525 275.027 618.987 267.994 619.69C262.015 620.393 255.686 619.69 250.059 617.58C246.894 616.525 243.729 614.767 241.268 612.657C240.213 611.954 239.158 610.899 238.103 609.844C237.751 609.492 237.399 609.492 237.399 609.14C240.213 609.492 243.026 609.492 245.488 609.492C246.542 609.492 247.597 609.492 248.652 610.195C258.499 610.195 268.345 609.14 278.192 607.382C279.95 607.03 281.708 606.679 283.115 607.382C284.521 608.085 285.576 609.492 286.631 610.899C286.983 611.602 287.686 612.305 288.038 613.009Z" fill="#BC6348"/>
<path d="M349.93 528.611C329.533 543.029 306.324 553.227 282.06 558.15C266.939 524.743 245.488 494.501 219.113 468.83C219.113 469.533 218.762 469.885 218.41 470.588C219.465 470.94 220.52 471.643 221.575 472.346C222.982 473.401 222.982 476.566 220.52 476.214C208.564 475.863 199.421 479.731 189.223 485.709C188.871 486.061 188.168 486.061 187.464 485.709C184.299 500.83 185.354 517.007 190.629 531.776C198.717 553.93 215.245 571.865 231.773 589.096C241.619 599.294 252.872 610.195 267.29 610.547C275.73 610.899 283.818 607.382 291.203 603.514C322.5 587.338 349.578 563.425 369.974 534.941L349.93 528.611Z" fill="#E58E67"/>
<path d="M304.566 365.091C299.994 372.827 297.181 381.267 295.774 390.41C295.423 394.278 295.071 398.146 294.719 402.015C294.368 404.476 294.016 406.938 293.665 409.751C293.313 411.509 292.61 413.619 291.906 415.378C288.741 423.114 283.818 429.796 278.895 436.477C277.84 437.532 276.785 438.939 275.378 439.642C274.323 439.994 273.268 439.994 272.213 440.345C264.829 440.697 257.444 441.049 250.411 439.29C243.378 437.532 236.696 433.312 233.531 426.631L208.915 441.4C208.915 441.4 212.432 425.576 212.784 422.762L207.157 402.718L202.234 371.069C202.234 371.069 213.839 337.31 241.268 332.035C268.697 326.76 304.566 365.091 304.566 365.091Z" fill="#E58E67"/>
<path d="M250.763 421.004L249.005 438.586L248.653 442.455V449.488C248.653 449.488 248.302 458.279 248.302 459.334C248.302 460.389 208.213 447.73 208.213 447.73L218.763 416.432L228.257 417.839H228.961L250.763 421.004Z" fill="#E58E67"/>
<path d="M212.783 422.058C212.432 416.784 208.212 412.564 203.64 409.75C199.069 406.937 194.146 404.827 190.277 400.959C186.058 396.388 184.299 390.058 183.244 384.08C181.486 374.936 181.486 364.738 187.113 357.354C190.981 352.43 196.959 349.617 200.476 344.342C203.64 339.419 205.047 332.738 211.025 331.331C213.838 330.628 216.652 331.683 219.465 331.683C224.74 331.683 229.663 328.87 234.235 326.056C240.916 322.54 247.949 319.726 255.686 319.023C262.367 318.32 269.048 319.375 275.73 320.43C284.17 322.188 292.961 324.298 299.643 329.573C307.731 335.903 312.654 345.749 311.951 355.947C311.599 359.112 310.896 362.629 308.434 365.09C305.621 367.903 301.049 368.607 296.829 368.607C288.741 369.31 280.653 369.31 272.917 367.552C265.18 365.793 257.795 361.574 253.224 355.244C251.114 362.277 248.652 369.662 244.081 375.64C239.509 381.618 232.476 386.19 224.74 385.838C224.036 398.497 222.63 412.915 212.432 421.355C212.783 420.652 213.487 419.949 214.19 419.949" fill="#CE572E"/>
<path d="M227.553 400.959C219.816 401.311 216.3 392.519 216.3 386.893C216.3 384.08 217.706 380.915 221.223 379.508C224.74 378.102 228.608 379.508 229.311 382.673C230.014 385.486 227.904 390.409 227.904 392.871C227.904 395.333 229.311 400.959 227.553 400.959Z" fill="#BC6348"/>
<path d="M273.62 416.784C276.785 415.377 276.433 418.894 278.895 418.894C279.95 418.894 279.95 418.542 281.356 417.839C283.818 416.784 286.983 414.322 288.038 411.861C288.038 411.509 288.038 411.157 287.686 411.157C286.631 410.454 284.521 410.454 283.818 409.751C284.17 410.102 283.115 406.586 283.115 405.531C281.356 396.388 280.653 390.41 288.39 383.728C289.093 383.025 288.038 381.618 286.983 382.322C277.488 390.41 279.598 399.553 282.411 410.454C282.411 410.806 282.763 411.157 283.115 411.157C283.466 411.157 285.576 411.509 285.576 411.861C286.28 414.322 279.598 416.081 278.543 415.729C275.73 415.377 275.378 413.619 272.917 414.674C272.213 415.729 272.565 417.136 273.62 416.784Z" fill="#BC6348"/>
<path d="M289.796 381.97C290.5 381.266 291.203 380.563 291.906 379.86C292.961 378.805 294.016 377.75 295.423 377.046C296.83 376.343 298.236 375.64 299.643 375.991C299.291 377.398 299.291 379.156 298.939 380.563C298.939 381.266 298.588 381.97 297.884 382.321C297.533 382.673 297.181 382.673 296.83 382.673C294.368 383.025 292.258 383.025 289.796 383.376" fill="#B04A27"/>
<path d="M276.785 382.322C276.081 381.267 276.433 379.861 276.433 378.806C276.081 377.399 275.378 376.344 273.971 375.641C272.916 374.938 271.51 374.586 270.103 374.586C263.773 373.531 256.74 373.179 251.114 376.344C257.444 377.751 263.773 379.158 270.103 380.564C272.213 380.916 274.323 381.619 275.73 382.674" fill="#B04A27"/>
<path d="M265.18 424.168C267.642 423.113 270.455 422.058 272.917 421.003C273.268 421.003 273.62 420.652 273.972 421.003C274.323 421.355 274.675 421.707 275.027 422.058C275.73 422.762 276.433 422.41 277.136 422.058C277.84 421.707 278.543 421.003 279.246 421.003C279.95 421.003 281.005 421.355 281.356 422.058C282.06 422.762 282.411 423.465 282.411 424.52C276.785 423.817 271.158 423.817 265.18 424.168Z" fill="#AB453C"/>
<path d="M265.18 423.817C267.993 427.333 273.268 429.443 277.84 428.388C279.95 428.037 282.06 426.63 282.411 424.52" fill="#C95A51"/>
<path d="M249.004 438.586L248.653 442.455V449.136C242.674 446.323 237.751 442.103 233.883 436.476C230.015 430.85 227.905 424.168 227.905 417.487C227.905 416.08 227.905 414.674 227.905 413.267C227.905 414.674 227.905 416.08 228.256 417.487C228.96 420.3 230.366 422.762 231.773 424.872C234.235 428.388 237.751 430.85 240.916 433.663C243.729 435.773 246.191 437.531 249.004 438.586Z" fill="#BC6348"/>
<path d="M265.18 424.52C268.345 424.169 271.51 423.817 274.675 424.169C277.137 424.52 279.95 423.817 282.411 424.52C283.115 424.52 283.115 423.817 282.763 423.817C279.95 423.114 276.785 423.465 273.972 423.465C271.158 423.114 267.994 423.465 265.18 423.817C264.477 423.817 264.477 424.52 265.18 424.52Z" fill="#96352D"/>
<g opacity="0.38">
<path opacity="0.38" d="M249.355 413.971C247.597 412.916 246.191 411.509 244.784 410.103C244.432 409.751 244.081 409.399 244.081 409.048C243.729 408.344 243.729 407.993 243.729 407.289C243.729 405.883 243.729 404.476 244.081 403.421C244.784 401.311 246.894 399.553 249.004 399.201C251.114 398.498 253.575 398.85 255.685 399.553C257.444 399.905 259.202 400.608 260.96 401.663C262.367 402.718 263.773 404.476 263.773 406.586C263.773 408.696 262.718 410.454 261.312 411.861C257.795 415.377 252.52 416.081 248.301 413.971H249.355Z" fill="#C95A51"/>
</g>
<g opacity="0.38">
<path opacity="0.38" d="M295.071 402.015C294.719 404.476 294.368 406.938 294.016 409.751C293.664 411.509 292.961 413.619 292.258 415.378C290.499 413.268 289.093 410.103 288.741 407.289C288.741 406.586 288.741 405.883 289.093 405.18C289.445 404.476 290.499 403.773 291.203 403.421C292.258 402.366 293.664 402.015 295.071 402.015Z" fill="#C95A51"/>
</g>
<path d="M166.364 515.599C166.716 506.808 175.507 473.4 188.167 458.631C200.827 443.861 206.101 444.213 209.266 437.531C212.431 430.85 211.376 428.388 211.376 428.388L249.355 452.301V461.444L249.004 476.917L249.355 496.61C249.355 496.61 203.288 497.313 185.002 513.489C166.716 529.665 173.046 540.215 173.046 540.215L166.364 515.599Z" fill="#51312C"/>
<path d="M202.937 458.982C220.168 457.575 235.641 475.51 243.729 488.521C244.784 490.279 247.949 488.521 246.894 486.763C237.751 472.697 221.575 453.707 202.937 455.465C200.475 455.817 200.475 459.334 202.937 458.982Z" fill="#402723"/>
<path d="M217.004 447.377C224.389 454.059 232.125 460.037 240.565 464.96C242.675 466.015 244.433 463.202 242.323 461.795C234.235 456.872 226.499 451.246 219.465 444.564C217.707 443.509 215.246 445.971 217.004 447.377Z" fill="#402723"/>
<path d="M199.773 349.617C201.179 351.024 198.366 353.134 196.256 353.134C183.245 354.189 169.53 348.211 161.442 337.661C156.167 330.98 153.002 321.837 154.409 313.397C155.816 304.957 161.794 296.869 170.233 294.759C176.915 293.001 185.355 294.056 189.223 288.429C192.036 284.209 190.278 278.231 191.684 273.308C193.091 268.385 197.311 264.868 201.882 263.11C206.806 261.352 211.729 261 216.652 261C220.872 261 226.147 261.352 228.608 264.868C230.718 268.033 230.367 272.956 233.18 275.418C237.751 279.989 245.488 274.011 251.818 275.418C257.093 276.473 260.257 282.099 262.367 287.023C267.642 300.386 271.159 316.21 263.774 328.166C258.148 337.309 247.246 341.881 237.048 345.398C228.257 348.211 219.114 350.321 209.971 351.727" fill="#CE572E"/>
<path d="M249.356 359.464C242.322 362.629 234.234 361.574 227.905 357.354C225.443 355.596 224.036 352.431 224.388 349.266C224.388 349.266 225.795 346.101 226.146 345.398C227.201 342.584 227.905 339.419 227.905 336.606C227.905 335.551 226.146 335.551 226.146 336.606C225.443 345.398 218.058 352.782 227.201 359.112C234.234 363.684 243.026 365.09 250.411 361.222C251.466 360.519 250.411 358.761 249.356 359.464Z" fill="#E36833"/>
<path d="M242.323 373.882C240.916 371.772 238.807 371.772 236.697 371.772C231.07 371.772 221.927 372.475 220.872 365.091C220.872 364.036 219.114 364.387 219.114 365.442C219.817 368.959 221.224 371.42 224.74 372.475C226.85 372.827 228.96 373.179 231.07 373.179C233.18 373.179 239.158 372.475 240.916 374.234C241.268 375.64 243.026 374.585 242.323 373.882Z" fill="#E36833"/>
<path d="M216.3 361.222C215.245 361.574 213.838 358.761 213.487 358.058C213.135 357.003 212.783 355.244 212.783 353.838C212.783 350.321 214.893 348.563 217.003 346.101C219.113 343.991 220.168 341.881 220.168 339.068C220.168 338.013 218.41 338.013 218.41 339.068C218.41 343.991 214.893 344.695 212.783 347.859C211.377 349.969 211.025 352.431 211.377 355.244C211.728 358.761 212.783 363.332 217.003 362.629C217.707 362.629 217.355 360.871 216.3 361.222Z" fill="#E36833"/>
<path d="M232.829 330.277C236.697 334.145 241.268 332.387 245.84 331.684C259.203 329.574 273.972 331.332 280.302 345.046C280.654 346.101 282.412 345.046 281.709 343.992C278.544 337.31 272.917 332.739 265.884 330.629C261.313 329.222 256.741 328.87 251.818 329.222C246.543 329.574 237.752 333.09 233.884 328.87C233.18 328.167 232.125 329.222 232.829 330.277Z" fill="#E36833"/>
<path d="M244.784 338.717C245.839 344.695 252.52 346.102 257.444 344.343C258.499 343.992 258.147 342.233 257.092 342.585C252.872 343.992 247.597 343.288 246.542 338.014C246.191 336.959 244.432 337.662 244.784 338.717Z" fill="#E36833"/>
<path d="M268.697 349.618C271.51 351.025 273.972 352.431 276.081 354.541C277.488 355.948 278.191 357.706 276.785 359.464C275.73 360.871 275.026 361.926 273.972 363.333C273.268 364.387 274.675 365.091 275.378 364.387C277.136 361.926 280.653 359.113 278.543 355.596C276.785 352.431 272.565 349.97 269.4 348.563C268.345 347.508 267.642 348.915 268.697 349.618Z" fill="#E36833"/>
<path d="M287.686 366.146C291.906 363.333 291.555 357.706 287.335 355.244C286.28 354.893 285.576 356.299 286.28 356.651C289.445 358.409 289.796 362.629 286.631 364.388C285.928 365.091 286.983 366.497 287.686 366.146Z" fill="#E36833"/>
<path d="M301.402 364.036C306.325 360.871 308.435 350.321 301.402 348.563C301.402 348.563 297.885 347.86 298.588 348.211C296.127 346.453 296.127 342.585 295.775 340.475C295.423 339.068 295.775 338.013 295.072 336.607C292.962 332.035 288.039 330.629 283.819 329.222C282.764 328.87 282.412 330.629 283.467 330.98C285.929 331.684 288.39 332.387 290.5 333.794C294.017 336.607 293.313 340.475 293.665 343.992C293.665 345.047 293.313 346.453 294.017 347.508C294.72 348.915 295.423 348.915 296.83 349.618C297.533 349.97 298.237 349.618 298.94 349.97C300.698 351.025 302.456 352.08 304.215 353.486C305.27 357.355 303.863 360.168 300.698 362.629C299.643 363.333 300.698 364.739 301.402 364.036Z" fill="#E36833"/>
<path d="M278.895 328.166C275.027 327.814 271.158 327.462 267.642 325.352C266.587 324.649 265.884 326.407 266.587 326.759C270.103 328.869 274.323 329.221 278.543 329.572C279.95 329.924 279.95 328.166 278.895 328.166Z" fill="#E36833"/>
<path d="M214.542 381.266C209.618 382.672 206.453 378.804 203.64 375.288C200.827 371.068 200.475 367.551 202.937 362.98C203.64 361.925 201.882 361.221 201.53 361.925C198.365 367.551 199.069 371.771 202.937 377.046C205.75 380.914 209.97 384.079 214.893 382.672C216.3 382.672 215.597 380.914 214.542 381.266Z" fill="#E36833"/>
<path d="M193.092 362.98C192.74 367.551 194.498 371.068 192.74 375.639C191.333 378.453 190.278 380.914 190.278 384.079C190.278 389.706 193.092 393.574 198.718 394.277C199.773 394.277 200.476 392.87 199.07 392.519C192.74 391.464 190.982 384.431 192.74 379.156C193.443 377.046 195.202 375.639 195.905 373.529C196.96 370.013 194.85 366.496 195.202 362.98C194.85 361.925 193.092 361.925 193.092 362.98Z" fill="#E36833"/>
<path d="M205.75 398.147C207.509 400.608 211.025 402.015 213.839 400.608C214.893 400.257 214.542 398.498 213.487 398.85C211.377 399.905 208.564 399.202 207.157 397.092C206.805 396.388 205.047 397.443 205.75 398.147Z" fill="#E36833"/>
<path d="M213.838 335.902C214.19 330.979 209.267 329.221 205.047 329.221C201.53 329.221 199.069 330.979 195.904 332.386C188.871 335.902 181.838 338.364 174.453 333.441C173.75 332.737 172.695 334.144 173.75 334.847C177.969 337.66 182.893 338.715 187.816 337.66C190.277 336.957 192.387 336.254 194.849 335.199C197.311 333.792 213.135 327.111 212.08 335.902C212.08 336.957 213.838 336.957 213.838 335.902Z" fill="#E36833"/>
<path d="M168.826 326.408C168.475 324.65 168.123 322.891 168.475 321.133C168.475 320.078 167.068 319.375 166.716 320.781C166.365 322.891 166.365 325.001 167.068 327.111C167.42 327.814 169.178 327.463 168.826 326.408Z" fill="#E36833"/>
<path d="M166.717 309.177C175.508 301.089 188.168 306.012 198.014 299.33C200.124 297.924 202.937 296.166 203.289 293.704C204.696 288.077 193.794 281.748 202.234 276.473C203.289 275.77 202.234 274.363 201.179 275.066C198.717 276.824 196.959 278.934 197.311 282.099C197.311 284.913 198.366 284.913 199.069 287.374C201.179 289.836 201.531 293.001 199.421 296.166C198.014 297.221 196.607 298.276 194.849 299.33C184.651 304.605 174.101 300.034 164.958 308.122C164.607 308.474 166.013 309.88 166.717 309.177Z" fill="#E36833"/>
<path d="M194.85 306.715C191.333 307.77 188.52 313.396 190.278 316.561C192.74 320.781 200.476 319.726 204.344 318.671C205.399 318.32 205.048 316.561 203.993 316.913C200.828 317.616 197.311 317.968 194.146 316.913C192.036 316.21 191.333 314.451 192.036 312.341C192.388 310.583 193.443 308.825 195.553 308.122C196.608 308.122 196.256 306.363 194.85 306.715Z" fill="#E36833"/>
<path d="M229.312 319.024C232.828 316.563 235.29 311.288 232.476 307.771C231.07 306.013 228.96 305.661 226.85 305.661C225.092 305.661 222.982 305.661 221.223 305.661C220.168 305.661 218.762 305.661 217.707 305.661C216.652 305.661 210.674 306.013 214.19 302.145C214.894 301.441 213.839 300.035 212.784 300.738C210.674 303.2 211.377 306.365 214.542 307.068C217.355 307.771 221.223 307.068 224.037 307.068C225.795 307.068 228.96 306.716 230.367 307.771C234.235 310.233 231.07 315.508 228.608 317.266C227.553 317.969 228.608 319.728 229.312 319.024Z" fill="#E36833"/>
<path d="M216.652 295.111C218.41 294.056 219.465 292.297 218.762 290.187C218.41 288.429 216.652 287.022 214.894 287.022C213.839 287.022 213.839 288.781 214.894 288.781C217.707 288.781 217.707 292.297 215.597 293.704C214.894 294.407 215.597 295.814 216.652 295.111Z" fill="#E36833"/>
<path d="M210.322 277.177C217.707 272.254 225.092 271.55 227.553 284.913C227.553 285.617 226.498 286.672 226.85 287.375C227.905 290.188 226.147 289.837 228.96 291.946C230.366 293.001 232.125 293.001 233.531 293.001C234.586 293.001 235.641 292.298 236.696 291.946C242.674 289.837 246.894 288.782 253.224 290.54C254.279 290.891 254.631 289.133 253.576 288.782C250.762 288.078 247.949 287.375 244.784 287.727C243.026 287.727 240.213 289.133 238.806 289.133C223.685 289.133 232.125 284.562 229.311 278.232C225.795 269.792 215.597 271.55 209.619 275.77C208.564 276.122 209.619 277.88 210.322 277.177Z" fill="#E36833"/>
<path d="M238.806 302.144C241.268 302.496 243.026 302.144 245.488 301.793C248.652 301.089 256.037 298.276 257.795 302.144C258.147 303.199 259.905 302.847 259.554 301.793C256.389 294.408 244.784 301.441 239.158 300.738C238.454 300.386 237.751 302.144 238.806 302.144Z" fill="#E36833"/>
<path d="M245.488 311.99C246.895 311.639 247.95 311.639 249.356 311.99C250.411 312.342 251.466 313.749 250.763 315.155C250.06 316.21 251.818 316.913 252.17 316.21C253.225 314.452 252.521 312.694 251.115 311.287C249.356 309.88 246.895 309.88 244.785 310.232C244.082 310.584 244.433 311.99 245.488 311.99Z" fill="#E36833"/>
<path d="M261.312 306.715C262.719 308.474 263.774 310.584 264.477 313.045C264.829 314.1 266.587 313.749 266.236 312.694C265.532 310.232 264.477 308.122 263.071 306.012C262.016 304.957 260.609 305.66 261.312 306.715Z" fill="#E36833"/>
<path d="M256.74 312.693C246.542 312.693 236.344 316.21 226.498 319.375C208.563 325.353 193.442 333.793 181.838 348.914C181.134 349.617 181.134 350.672 181.838 351.376C184.651 353.837 186.761 354.892 190.277 355.595C190.981 355.595 191.332 355.595 191.684 355.244C192.387 355.595 193.091 355.947 193.794 355.244C203.64 344.694 213.838 334.848 227.905 329.573C240.564 324.65 253.927 323.595 267.29 322.891C268.345 322.891 269.048 321.836 269.048 320.781C267.993 312.693 263.422 312.693 256.74 312.693Z" fill="#464C32"/>
<path d="M364.348 525.094C368.216 522.632 372.084 520.17 376.656 520.17C386.502 520.17 395.293 531.775 404.436 527.555C402.678 533.533 395.997 537.05 390.019 537.05C383.689 537.05 378.062 533.885 373.139 529.665" fill="#E58E67"/>
<path d="M414.283 553.929C408.304 535.291 386.15 527.906 370.326 539.159C362.941 544.434 357.314 553.226 356.259 562.369C355.556 569.05 358.018 575.38 360.127 581.71C362.237 588.743 364.699 595.776 366.809 603.161C368.216 607.381 374.897 605.623 373.49 601.403C368.567 585.93 357.314 565.182 368.567 550.764C379.469 537.05 401.975 538.456 407.601 556.391C408.656 560.259 415.689 558.149 414.283 553.929Z" fill="#48434C"/>
<path d="M348.522 530.016C355.204 527.555 361.885 525.093 368.567 522.631C379.117 531.423 390.37 539.511 402.678 545.841C387.556 555.687 368.567 558.5 350.984 553.929" fill="#E58E67"/>
<path d="M495.867 647.47C497.274 646.063 499.735 646.415 500.79 648.525C501.494 649.58 501.494 650.635 501.494 651.69C501.494 654.855 500.439 658.02 498.68 660.481C498.329 660.833 498.329 661.185 497.977 661.185C497.274 661.536 496.57 661.536 495.867 661.536C494.461 661.536 492.702 661.536 491.647 660.13C490.592 658.723 490.944 656.613 490.944 654.855" fill="#48434C"/>
<path d="M404.085 552.875C384.744 583.47 362.941 612.657 339.029 639.735C337.622 641.493 335.864 643.251 335.512 645.361C334.809 648.526 336.215 651.691 337.974 654.504C356.26 685.45 390.722 705.846 426.591 707.253C439.954 672.79 453.317 638.68 466.68 604.217" fill="#524C57"/>
<path d="M433.624 676.305C454.371 671.382 475.119 666.107 496.218 661.184C493.757 656.613 494.812 650.283 498.68 646.415C482.504 648.524 466.328 648.876 450.151 648.173C444.525 647.821 438.195 647.47 433.272 650.283C428.7 652.744 425.887 657.668 425.887 662.942C425.887 667.866 428.7 673.14 433.272 675.602" fill="#524C57"/>
<path d="M435.031 593.666C445.229 600.347 456.833 604.919 467.031 602.105C469.141 597.534 468.79 591.556 466.328 586.984C463.515 581.006 458.592 576.083 453.668 571.511C447.339 565.533 440.657 559.555 432.921 555.687C425.184 551.819 415.69 550.06 407.601 552.874C406.546 553.225 405.843 553.577 405.14 554.28C404.437 555.335 404.437 556.39 404.437 557.445C404.437 558.148 404.437 559.203 404.437 559.907C409.711 574.676 423.426 586.281 435.031 593.666Z" fill="#48434C"/>
<path d="M380.524 592.963C395.293 618.634 421.316 635.514 450.855 638.327C452.965 638.678 452.965 635.162 450.855 634.81C422.723 631.997 397.755 615.821 383.689 591.205C382.634 589.447 379.469 591.205 380.524 592.963Z" fill="#48434C"/>
<path d="M421.668 649.229C412.876 660.13 419.206 675.955 433.273 677.361C435.382 677.713 435.382 674.197 433.273 673.845C422.371 672.79 417.096 660.482 424.129 651.691C425.536 649.932 423.074 647.471 421.668 649.229Z" fill="#48434C"/>
<path d="M499.384 655.559C513.45 658.724 510.285 685.45 510.637 696.351C510.989 708.659 510.989 720.615 510.637 732.923C510.285 757.188 508.879 781.452 506.417 805.716C506.065 807.826 509.582 807.826 509.934 805.716C513.099 775.825 514.505 745.583 514.505 715.692C514.505 700.923 514.505 685.801 513.099 671.032C512.395 662.592 509.582 654.504 500.439 652.394C498.329 651.691 497.274 655.207 499.384 655.559Z" fill="#9490A3"/>
<path d="M497.977 668.569C498.328 676.657 498.68 685.097 499.032 693.185C499.032 695.295 502.548 695.295 502.548 693.185C502.196 685.097 501.845 676.657 501.493 668.569C501.493 666.459 497.977 666.459 497.977 668.569Z" fill="#9490A3"/>
<path d="M497.626 711.823C500.79 748.747 497.977 786.022 489.537 821.891C489.186 824.001 492.351 825.056 493.054 822.946C501.845 786.374 504.659 749.098 501.494 711.823C500.79 709.361 497.274 709.361 497.626 711.823Z" fill="#9490A3"/>
<path d="M505.362 819.077C505.362 823.649 505.362 828.572 505.362 833.143C505.362 835.253 508.879 835.253 508.879 833.143C508.879 828.572 508.879 823.649 508.879 819.077C508.879 816.616 505.362 816.616 505.362 819.077Z" fill="#9490A3"/>
<path d="M492.35 837.014C491.295 840.179 490.944 843.695 491.295 847.212C491.647 849.322 495.164 849.322 494.812 847.212C494.46 844.047 494.812 840.882 495.515 838.069C496.219 835.607 492.702 834.904 492.35 837.014Z" fill="#9490A3"/>
<path d="M295.423 686.856C295.423 694.944 294.72 704.087 289.093 710.417C285.928 713.582 282.06 715.692 277.84 717.45C276.433 718.153 275.378 718.505 273.972 719.208C271.159 720.615 268.345 722.021 265.884 724.483C260.257 730.109 258.499 738.549 257.444 746.286C246.894 822.243 257.092 901.014 239.158 975.566C236.696 985.412 232.828 996.313 224.037 1000.53C212.784 1005.81 199.772 998.423 189.223 991.39C177.618 957.983 165.662 924.575 154.057 890.816C148.43 875.343 143.156 859.519 142.101 842.991C141.046 828.573 143.507 814.155 141.046 799.737C138.936 787.078 132.606 775.121 129.793 762.462C123.463 733.626 135.068 704.438 146.321 677.361C155.464 655.91 164.255 634.107 173.398 612.656C173.75 611.953 174.101 610.898 174.453 610.195C175.508 607.381 176.915 604.568 177.97 601.755L177.266 598.238C192.036 599.293 206.102 605.271 220.52 608.788C227.202 610.546 233.883 611.601 240.564 612.305C255.686 614.063 271.159 613.008 285.928 609.843C286.28 609.843 286.983 609.491 287.335 609.491C292.961 635.162 295.774 660.833 295.423 686.856Z" fill="#524C57"/>
<path d="M288.038 613.008C281.708 616.525 275.027 618.986 267.994 619.69C262.015 620.393 255.686 619.69 250.059 617.58C246.894 616.525 243.729 614.766 241.268 612.657C241.268 612.657 240.916 612.305 240.564 612.305C255.686 614.063 271.159 613.008 285.928 609.843C285.928 610.195 286.28 610.195 286.28 610.547C286.983 611.602 287.335 612.305 288.038 613.008Z" fill="#48434C"/>
<path d="M277.841 717.099C276.434 717.802 275.379 718.154 273.972 718.857C277.137 705.494 274.676 691.076 273.269 677.361C271.511 661.537 271.159 645.712 271.511 629.888C271.511 628.833 271.511 627.426 271.511 626.371C271.511 622.503 271.862 618.635 272.214 614.415C272.214 612.305 275.731 612.305 275.731 614.415C275.379 618.283 275.379 622.151 275.379 625.668C275.379 626.723 275.379 628.13 275.379 629.185C275.027 648.526 276.082 667.515 278.192 686.505C278.544 689.669 278.896 692.483 278.896 695.648C278.896 695.999 278.896 696.351 278.896 697.054C278.896 698.109 278.896 699.164 278.896 700.219V700.571C279.247 706.549 278.896 711.824 277.841 717.099Z" fill="#6A6370"/>
<path d="M279.951 613.008C280.302 627.777 281.006 642.547 281.709 657.317C282.412 669.625 287.687 689.669 276.434 698.46C275.027 699.515 276.434 701.977 278.192 701.274C278.896 701.274 279.247 700.922 279.951 700.922C282.06 700.219 281.357 697.054 278.896 697.405C278.192 697.405 277.841 697.757 277.137 697.757C277.841 698.812 278.192 699.867 278.896 700.57C289.094 692.482 286.632 678.768 285.929 667.163C284.522 648.877 283.819 630.942 283.467 612.656C283.467 610.546 279.951 610.546 279.951 613.008Z" fill="#6A6370"/>
<path d="M174.454 613.36C193.795 620.393 214.191 625.668 234.587 628.129C251.818 630.239 272.917 633.404 289.094 625.316C291.204 624.261 289.445 621.448 287.335 622.151C270.456 630.239 246.543 626.371 228.609 623.558C210.323 620.744 192.74 616.173 175.157 609.843C173.047 609.14 172.344 612.656 174.454 613.36Z" fill="#6A6370"/>
<path d="M207.509 621.799C196.608 652.042 181.838 682.987 180.783 715.692C180.432 732.571 180.783 749.802 182.541 766.33C183.245 773.011 184.3 779.693 185.355 786.374C187.465 796.572 187.465 804.661 185.706 814.859C183.596 827.518 187.465 838.068 192.036 849.673C194.849 856.706 197.663 864.09 197.663 871.827C197.663 879.212 194.849 886.245 194.849 893.63C194.849 910.157 198.014 927.037 199.773 943.565C201.883 961.851 203.641 979.785 205.751 998.072C206.102 1000.18 209.619 1000.18 209.267 998.072C207.509 981.192 205.751 963.961 203.641 947.081C201.883 930.554 199.069 913.674 198.366 896.795C198.014 888.355 201.179 880.267 201.179 871.827C201.179 866.552 200.124 861.277 198.366 856.354C193.443 840.881 187.113 829.628 189.926 813.1C192.388 797.979 188.168 784.968 186.761 770.198C185.003 753.67 184.651 736.439 184.651 719.56C185.003 685.801 200.124 654.152 211.377 623.206C211.729 620.744 208.212 619.689 207.509 621.799Z" fill="#6A6370"/>
<path d="M194.146 670.328C217.707 670.328 244.785 653.449 240.213 626.723C239.861 624.613 236.345 625.316 236.696 627.778C240.565 652.042 214.894 666.812 194.146 666.812C191.684 666.812 191.684 670.328 194.146 670.328Z" fill="#6A6370"/>
<path d="M189.926 681.231C205.399 677.363 223.685 679.121 236.345 667.516C246.895 657.67 250.059 642.197 251.114 628.131C251.114 626.021 247.598 626.021 247.598 628.131C246.543 642.549 243.026 658.725 230.367 667.516C218.41 675.604 202.586 674.549 188.871 677.714C186.761 678.418 187.816 681.934 189.926 681.231Z" fill="#6A6370"/>
<path d="M186.409 997.719C184.651 997.719 183.244 996.664 182.19 995.258C183.596 993.499 185.354 991.389 184.299 989.279C183.948 988.576 183.244 987.873 182.541 987.169C179.376 984.005 180.08 978.73 180.783 974.158C183.948 976.62 188.168 977.675 192.036 978.378C208.212 980.84 224.74 979.785 240.564 975.565C239.861 978.026 239.158 980.84 238.455 983.301C238.103 984.356 238.103 985.06 237.048 985.763C236.345 986.115 235.29 986.114 234.938 986.818C234.586 987.873 235.29 988.576 235.993 989.631C237.4 991.389 236.345 994.554 234.235 995.258C234.938 996.313 235.29 997.367 235.993 998.422C221.575 1005.81 204.344 1007.21 188.871 1002.29C187.113 1001.59 185.003 1000.53 185.354 998.422" fill="#696678"/>
<path d="M189.222 1038.51C190.629 1033.59 192.387 1028.67 194.497 1024.09C194.849 1023.39 195.2 1022.69 195.904 1021.98C196.607 1021.63 197.31 1021.63 198.014 1021.63C203.992 1021.63 209.97 1021.63 216.3 1021.28C217.706 1021.28 218.761 1021.28 219.816 1021.63C221.223 1022.34 221.926 1023.39 222.981 1024.45C227.904 1029.72 235.641 1030.78 242.674 1031.48C245.487 1031.83 248.301 1032.18 250.762 1033.24C253.224 1034.29 255.334 1036.75 255.334 1039.57C233.531 1043.79 210.673 1043.79 188.871 1038.86" fill="#464C32"/>
<path d="M251.114 1023.04C252.169 1019.17 253.928 1015.3 256.038 1011.43C260.961 1015.3 267.994 1013.9 273.972 1012.84C274.675 1012.84 275.379 1012.49 276.082 1012.84C277.137 1013.19 278.192 1014.25 278.895 1014.95C284.873 1021.28 294.72 1020.58 303.16 1022.69C304.918 1023.04 307.028 1023.74 308.083 1025.15C309.138 1026.56 309.489 1029.02 307.731 1030.42C307.028 1030.78 306.325 1031.13 305.27 1031.13C287.687 1033.94 269.752 1033.94 252.169 1031.13C251.466 1031.13 250.411 1030.78 249.708 1030.42C247.95 1029.02 248.301 1026.2 249.356 1024.09C250.411 1022.34 251.466 1020.23 252.873 1018.82" fill="#3F452D"/>
<path d="M489.889 927.389C491.647 938.29 490.944 948.488 488.13 959.038C485.669 967.829 482.856 976.269 481.449 985.412C478.987 1001.24 479.691 1017.41 482.856 1033.24C483.207 1035.35 486.724 1034.64 486.372 1032.18C482.504 1012.84 482.504 993.148 487.427 974.159C489.537 965.719 493.054 957.631 494.109 948.84C495.164 941.455 494.46 934.07 493.405 926.685C493.054 924.224 489.889 925.279 489.889 927.389Z" fill="#3F452D"/>
<path d="M480.394 1032.89C473.009 1030.42 468.086 1023.39 464.218 1016.71C445.932 984.357 437.844 946.378 440.657 909.454C442.767 924.224 450.503 937.587 457.185 950.598C466.328 968.181 474.064 986.467 480.394 1005.46C483.559 1015.3 486.724 1025.5 485.669 1035.7" fill="#3F452D"/>
<path d="M482.855 1036.4C484.614 1027.26 486.724 1018.12 488.482 1009.32C490.24 1001.24 491.999 992.797 494.812 984.709C504.658 956.224 527.867 932.663 556 922.114C552.483 967.829 525.054 1011.43 484.965 1034.29" fill="#3F452D"/>
<path d="M490.24 928.794C474.767 929.498 460.349 915.783 459.997 900.662C464.92 902.42 469.492 904.882 473.712 908.047C471.953 898.904 475.47 889.057 482.503 882.728C489.888 887.299 495.163 895.387 496.569 904.179C499.734 898.2 505.361 891.519 512.042 893.629C513.8 898.904 515.207 904.179 515.207 909.805C515.207 915.432 513.449 921.058 509.229 924.926C506.767 927.036 503.602 928.443 500.438 929.498C495.866 930.904 490.24 931.608 486.723 928.794" fill="#F0441D"/>
</svg>
