<svg width="137" height="30" viewBox="0 0 137 30" fill="none" xmlns="http://www.w3.org/2000/svg">
<path d="M10.13 7.4C11.43 7.4 12.59 7.74 13.61 8.42C14.63 9.08 15.42 10.02 15.98 11.24C16.56 12.46 16.85 13.85 16.85 15.41C16.85 16.97 16.57 18.35 16.01 19.55C15.45 20.73 14.66 21.64 13.64 22.28C12.62 22.92 11.45 23.24 10.13 23.24C9.07 23.24 8.12 23.02 7.28 22.58C6.44 22.14 5.8 21.53 5.36 20.75V29.48H0.83V12.14C0.83 10.52 0.75 9.07 0.59 7.79H4.85L5.15 10.31C5.55 9.41 6.19 8.7 7.07 8.18C7.97 7.66 8.99 7.4 10.13 7.4ZM8.84 19.79C9.96 19.79 10.82 19.42 11.42 18.68C12.02 17.92 12.32 16.83 12.32 15.41C12.32 13.99 12.01 12.88 11.39 12.08C10.79 11.28 9.94 10.88 8.84 10.88C7.72 10.88 6.85 11.27 6.23 12.05C5.63 12.81 5.33 13.91 5.33 15.35C5.33 16.79 5.63 17.89 6.23 18.65C6.85 19.41 7.72 19.79 8.84 19.79ZM19.7558 0.919998H24.2858V23H19.7558V0.919998ZM43.2282 7.79V23H38.7582V20.75C38.2982 21.53 37.6482 22.14 36.8082 22.58C35.9682 23.02 35.0182 23.24 33.9582 23.24C32.6382 23.24 31.4682 22.92 30.4482 22.28C29.4482 21.64 28.6582 20.73 28.0782 19.55C27.5182 18.35 27.2382 16.97 27.2382 15.41C27.2382 13.85 27.5182 12.46 28.0782 11.24C28.6582 10.02 29.4582 9.08 30.4782 8.42C31.4982 7.74 32.6582 7.4 33.9582 7.4C35.0182 7.4 35.9682 7.63 36.8082 8.09C37.6482 8.55 38.2982 9.17 38.7582 9.95V7.79H43.2282ZM35.2782 19.79C36.3982 19.79 37.2582 19.41 37.8582 18.65C38.4582 17.89 38.7582 16.79 38.7582 15.35C38.7582 13.91 38.4582 12.81 37.8582 12.05C37.2582 11.27 36.3982 10.88 35.2782 10.88C34.1582 10.88 33.2882 11.28 32.6682 12.08C32.0482 12.88 31.7382 13.99 31.7382 15.41C31.7382 16.83 32.0382 17.92 32.6382 18.68C33.2582 19.42 34.1382 19.79 35.2782 19.79ZM56.2747 7.4C59.8747 7.4 61.6747 9.53 61.6747 13.79V23H57.1447V14C57.1447 12.94 56.9447 12.17 56.5447 11.69C56.1647 11.19 55.5547 10.94 54.7147 10.94C53.7147 10.94 52.9147 11.26 52.3147 11.9C51.7147 12.54 51.4147 13.4 51.4147 14.48V23H46.8847V12.14C46.8847 10.52 46.8047 9.07 46.6447 7.79H50.9047L51.2047 10.19C51.7447 9.29 52.4447 8.6 53.3047 8.12C54.1847 7.64 55.1747 7.4 56.2747 7.4ZM70.9831 11.18V17.09C70.9831 17.93 71.2031 18.55 71.6431 18.95C72.0831 19.33 72.6531 19.52 73.3531 19.52C73.7931 19.52 74.2931 19.45 74.8531 19.31V22.82C74.1331 23.1 73.2631 23.24 72.2431 23.24C70.3631 23.24 68.9231 22.71 67.9231 21.65C66.9431 20.59 66.4531 19.1 66.4531 17.18V11.18H63.5731V7.79H66.4531V4.22L70.9831 2.75V7.79H74.8531V11.18H70.9831ZM82.9977 23.24C80.1177 23.24 77.8477 22.62 76.1877 21.38L77.3877 18.23C78.1877 18.81 79.0777 19.26 80.0577 19.58C81.0377 19.88 82.0377 20.03 83.0577 20.03C83.8377 20.03 84.4377 19.91 84.8577 19.67C85.2777 19.43 85.4877 19.08 85.4877 18.62C85.4877 18.24 85.3377 17.94 85.0377 17.72C84.7377 17.5 84.2077 17.31 83.4477 17.15L80.9577 16.58C79.4977 16.26 78.4177 15.75 77.7177 15.05C77.0377 14.35 76.6977 13.42 76.6977 12.26C76.6977 11.32 76.9677 10.48 77.5077 9.74C78.0677 9 78.8377 8.43 79.8177 8.03C80.7977 7.61 81.9277 7.4 83.2077 7.4C84.2877 7.4 85.3477 7.57 86.3877 7.91C87.4277 8.23 88.3577 8.69 89.1777 9.29L87.9177 12.32C87.1377 11.78 86.3377 11.37 85.5177 11.09C84.7177 10.81 83.9377 10.67 83.1777 10.67C82.4377 10.67 81.8577 10.8 81.4377 11.06C81.0177 11.32 80.8077 11.68 80.8077 12.14C80.8077 12.48 80.9277 12.76 81.1677 12.98C81.4277 13.18 81.8777 13.35 82.5177 13.49L85.0677 14.06C86.6277 14.42 87.7577 14.96 88.4577 15.68C89.1577 16.4 89.5077 17.36 89.5077 18.56C89.5077 20 88.9277 21.14 87.7677 21.98C86.6077 22.82 85.0177 23.24 82.9977 23.24ZM97.8191 11.18V17.09C97.8191 17.93 98.0391 18.55 98.4791 18.95C98.9191 19.33 99.4891 19.52 100.189 19.52C100.629 19.52 101.129 19.45 101.689 19.31V22.82C100.969 23.1 100.099 23.24 99.0791 23.24C97.1991 23.24 95.7591 22.71 94.7591 21.65C93.7791 20.59 93.2891 19.1 93.2891 17.18V11.18H90.4091V7.79H93.2891V4.22L97.8191 2.75V7.79H101.689V11.18H97.8191ZM117.664 15.77H107.644C107.724 17.19 108.094 18.23 108.754 18.89C109.414 19.53 110.394 19.85 111.694 19.85C112.474 19.85 113.254 19.72 114.034 19.46C114.814 19.2 115.534 18.82 116.194 18.32L117.394 21.38C116.674 21.96 115.774 22.42 114.694 22.76C113.634 23.08 112.564 23.24 111.484 23.24C108.924 23.24 106.914 22.54 105.454 21.14C103.994 19.72 103.264 17.79 103.264 15.35C103.264 13.81 103.574 12.44 104.194 11.24C104.834 10.02 105.724 9.08 106.864 8.42C108.004 7.74 109.294 7.4 110.734 7.4C112.874 7.4 114.564 8.1 115.804 9.5C117.044 10.88 117.664 12.75 117.664 15.11V15.77ZM110.854 10.58C109.994 10.58 109.294 10.83 108.754 11.33C108.234 11.83 107.894 12.56 107.734 13.52H113.764C113.524 11.56 112.554 10.58 110.854 10.58ZM129.358 7.43C129.998 7.43 130.538 7.53 130.978 7.73L130.948 11.87C130.208 11.53 129.468 11.36 128.728 11.36C127.528 11.36 126.608 11.69 125.968 12.35C125.348 12.99 125.038 13.89 125.038 15.05V23H120.508V12.14C120.508 10.52 120.428 9.07 120.268 7.79H124.528L124.828 10.4C125.208 9.44 125.798 8.71 126.598 8.21C127.418 7.69 128.338 7.43 129.358 7.43ZM136.581 18.17V23H131.691V18.17H136.581Z" fill="#455B57"/>
</svg>
