<svg width="512" height="427" viewBox="0 0 512 427" fill="none" xmlns="http://www.w3.org/2000/svg">
<mask id="path-1-outside-1" maskUnits="userSpaceOnUse" x="-5" y="0.995605" width="522" height="426" fill="black">
<rect fill="white" x="-5" y="0.995605" width="522" height="426"/>
<path d="M511.986 14.3912C511.989 14.3302 511.991 14.2702 511.993 14.2092C511.995 14.1392 511.991 14.0702 511.991 14.0002C511.991 13.8702 511.993 13.7402 511.987 13.6112C511.982 13.5012 511.97 13.3922 511.96 13.2832C511.959 13.2692 511.958 13.2542 511.956 13.2402C511.95 13.1772 511.948 13.1132 511.94 13.0502C511.932 12.9792 511.922 12.9092 511.912 12.8392C511.897 12.7362 511.875 12.6342 511.856 12.5312C511.83 12.3882 511.805 12.2452 511.77 12.1032C511.766 12.0882 511.763 12.0732 511.759 12.0582C511.734 11.9582 511.701 11.8602 511.672 11.7602C511.632 11.6212 511.593 11.4832 511.545 11.3462C511.522 11.2802 511.496 11.2162 511.472 11.1512C511.449 11.0912 511.423 11.0342 511.399 10.9742C511.399 10.9732 511.398 10.9712 511.397 10.9702C511.351 10.8572 511.308 10.7442 511.257 10.6332C511.2 10.5092 511.134 10.3902 511.071 10.2692C511.04 10.2092 511.01 10.1492 510.977 10.0902C510.949 10.0402 510.924 9.99017 510.895 9.94117C510.796 9.77417 510.686 9.61117 510.575 9.45017C510.539 9.39817 510.509 9.34317 510.472 9.29117C510.47 9.28817 510.468 9.28617 510.466 9.28317C510.461 9.27617 510.455 9.26917 510.45 9.26217C510.351 9.12717 510.24 8.99817 510.131 8.86817C510.063 8.78717 509.999 8.70117 509.929 8.62417C509.898 8.59017 509.864 8.55717 509.832 8.52217C509.782 8.46817 509.727 8.41817 509.675 8.36617C509.565 8.25517 509.457 8.14217 509.342 8.03817C509.335 8.03117 509.328 8.02417 509.321 8.01717C509.274 7.97517 509.224 7.94117 509.176 7.90117C509.154 7.88217 509.131 7.86417 509.108 7.84517C509.074 7.81617 509.045 7.78317 509.01 7.75517C508.987 7.73717 508.962 7.72417 508.939 7.70517C508.864 7.64617 508.791 7.58617 508.715 7.53017C508.641 7.47617 508.563 7.42917 508.488 7.37717C508.348 7.28217 508.208 7.18617 508.063 7.10117C507.957 7.03817 507.847 6.98416 507.739 6.92716C507.621 6.86416 507.504 6.80017 507.383 6.74317C507.333 6.72017 507.283 6.69617 507.232 6.67417C507.2 6.66017 507.168 6.65017 507.136 6.63617C507.084 6.61417 507.032 6.59517 506.98 6.57417C506.878 6.53317 506.777 6.49017 506.674 6.45317C506.563 6.41317 506.451 6.38117 506.339 6.34717C506.274 6.32717 506.21 6.30717 506.144 6.28917C506.075 6.27017 506.006 6.24917 505.936 6.23117C505.788 6.19417 505.639 6.16717 505.489 6.13817C505.405 6.12217 505.322 6.10017 505.237 6.08717C505.215 6.08417 505.192 6.08317 505.17 6.07917C505.032 6.05917 504.893 6.04717 504.755 6.03417C504.636 6.02317 504.518 6.01017 504.399 6.00317C504.345 6.00017 504.292 5.99717 504.238 5.99617C504.175 5.99417 504.112 5.99817 504.049 5.99817C504.04 5.99817 504.031 5.99817 504.022 5.99817C503.888 5.99817 503.754 5.99617 503.62 6.00217C503.513 6.00717 503.406 6.01917 503.299 6.02817C503.228 6.03417 503.157 6.03817 503.086 6.04617C503.006 6.05517 502.927 6.06417 502.848 6.07617C502.742 6.09117 502.637 6.11417 502.531 6.13317C502.399 6.15817 502.266 6.17917 502.135 6.21017C502.12 6.21417 502.105 6.21917 502.089 6.22317C501.978 6.25017 501.868 6.28517 501.758 6.31717C501.623 6.35617 501.488 6.39417 501.355 6.44117C501.29 6.46317 501.227 6.48917 501.163 6.51317C501.146 6.51917 501.129 6.52317 501.112 6.52917L5.11201 198.529C2.02801 199.723 -0.00399411 202.691 5.89484e-06 205.998C0.00300589 209.305 2.04201 212.269 5.12801 213.456L153.005 270.332L200.39 416.457C200.397 416.478 200.408 416.496 200.415 416.516C200.429 416.559 200.439 416.603 200.454 416.646C200.566 416.965 200.705 417.275 200.858 417.58C200.89 417.643 200.923 417.704 200.956 417.766C201.105 418.045 201.269 418.317 201.453 418.579C201.477 418.614 201.498 418.651 201.523 418.685C201.535 418.702 201.547 418.719 201.56 418.736C201.574 418.754 201.589 418.77 201.603 418.789C201.663 418.869 201.73 418.946 201.794 419.024C201.87 419.118 201.942 419.214 202.022 419.305C202.084 419.374 202.152 419.438 202.217 419.505C202.247 419.536 202.277 419.567 202.307 419.598C202.353 419.644 202.396 419.693 202.443 419.738C202.492 419.785 202.539 419.833 202.589 419.879C202.637 419.923 202.689 419.963 202.739 420.005C202.893 420.14 203.049 420.271 203.213 420.395C203.223 420.403 203.232 420.411 203.242 420.419C203.257 420.43 203.275 420.438 203.29 420.449C203.34 420.485 203.391 420.518 203.441 420.553C203.698 420.732 203.968 420.897 204.249 421.046C204.295 421.07 204.338 421.101 204.384 421.124C204.399 421.132 204.414 421.137 204.429 421.145C204.693 421.276 204.964 421.397 205.248 421.501C205.308 421.523 205.369 421.538 205.429 421.558C205.508 421.585 205.587 421.609 205.667 421.633C206.011 421.738 206.357 421.823 206.704 421.881C206.72 421.884 206.735 421.889 206.751 421.892C206.784 421.897 206.817 421.896 206.85 421.901C207.233 421.957 207.617 421.991 207.997 421.991H207.998C207.998 421.991 207.998 421.991 207.999 421.991C208.03 421.991 208.06 421.984 208.091 421.984C208.42 421.98 208.748 421.953 209.074 421.909C209.123 421.902 209.173 421.903 209.221 421.896C209.291 421.885 209.361 421.86 209.431 421.847C209.684 421.801 209.934 421.743 210.182 421.672C210.263 421.649 210.345 421.634 210.425 421.609C210.439 421.605 210.453 421.603 210.467 421.599C210.505 421.587 210.541 421.569 210.579 421.556C210.698 421.516 210.814 421.468 210.931 421.422C211.087 421.36 211.242 421.297 211.392 421.227C211.415 421.217 211.438 421.209 211.461 421.198C211.474 421.191 211.489 421.187 211.502 421.181C211.577 421.145 211.648 421.101 211.722 421.062C211.877 420.981 212.028 420.895 212.176 420.805C212.274 420.745 212.371 420.685 212.466 420.621C212.467 420.62 212.468 420.62 212.469 420.619C212.497 420.6 212.526 420.584 212.554 420.565C212.687 420.473 212.813 420.372 212.94 420.273C213.014 420.215 213.089 420.161 213.161 420.1C213.24 420.033 213.316 419.962 213.392 419.892C213.451 419.839 213.507 419.783 213.565 419.727C213.811 419.488 214.045 419.238 214.258 418.971C214.276 418.949 214.295 418.928 214.313 418.905C214.336 418.875 214.356 418.842 214.378 418.812C214.395 418.79 214.415 418.771 214.432 418.748L272.889 339.753C275.517 336.201 274.769 331.192 271.217 328.564C267.666 325.936 262.655 326.685 260.028 330.236L234.63 364.558L254.816 309.452L445.888 381.973C446.806 382.321 447.768 382.494 448.726 382.494C450.125 382.494 451.518 382.127 452.757 381.405C454.843 380.188 456.268 378.094 456.634 375.707L511.909 15.2052C511.912 15.1882 511.911 15.1712 511.913 15.1542C511.932 15.0212 511.943 14.8882 511.956 14.7552C511.967 14.6342 511.98 14.5132 511.986 14.3912ZM449.557 43.6462L221.052 209.603C217.477 212.199 216.684 217.202 219.28 220.777C220.845 222.932 223.285 224.076 225.759 224.076C227.389 224.076 229.034 223.579 230.454 222.548L448.738 64.0142L244.445 293.408C243.652 294.19 243.005 295.146 242.584 296.256C242.512 296.444 242.457 296.635 242.4 296.825L208.46 389.478L167.047 261.771C166.274 259.387 164.487 257.617 162.319 256.778C162.307 256.773 162.296 256.767 162.283 256.762L30.223 205.969L449.557 43.6462ZM442.316 363.506L263.788 295.746L491.995 39.5012L442.316 363.506Z"/>
</mask>
<path d="M511.986 14.3912C511.989 14.3302 511.991 14.2702 511.993 14.2092C511.995 14.1392 511.991 14.0702 511.991 14.0002C511.991 13.8702 511.993 13.7402 511.987 13.6112C511.982 13.5012 511.97 13.3922 511.96 13.2832C511.959 13.2692 511.958 13.2542 511.956 13.2402C511.95 13.1772 511.948 13.1132 511.94 13.0502C511.932 12.9792 511.922 12.9092 511.912 12.8392C511.897 12.7362 511.875 12.6342 511.856 12.5312C511.83 12.3882 511.805 12.2452 511.77 12.1032C511.766 12.0882 511.763 12.0732 511.759 12.0582C511.734 11.9582 511.701 11.8602 511.672 11.7602C511.632 11.6212 511.593 11.4832 511.545 11.3462C511.522 11.2802 511.496 11.2162 511.472 11.1512C511.449 11.0912 511.423 11.0342 511.399 10.9742C511.399 10.9732 511.398 10.9712 511.397 10.9702C511.351 10.8572 511.308 10.7442 511.257 10.6332C511.2 10.5092 511.134 10.3902 511.071 10.2692C511.04 10.2092 511.01 10.1492 510.977 10.0902C510.949 10.0402 510.924 9.99017 510.895 9.94117C510.796 9.77417 510.686 9.61117 510.575 9.45017C510.539 9.39817 510.509 9.34317 510.472 9.29117C510.47 9.28817 510.468 9.28617 510.466 9.28317C510.461 9.27617 510.455 9.26917 510.45 9.26217C510.351 9.12717 510.24 8.99817 510.131 8.86817C510.063 8.78717 509.999 8.70117 509.929 8.62417C509.898 8.59017 509.864 8.55717 509.832 8.52217C509.782 8.46817 509.727 8.41817 509.675 8.36617C509.565 8.25517 509.457 8.14217 509.342 8.03817C509.335 8.03117 509.328 8.02417 509.321 8.01717C509.274 7.97517 509.224 7.94117 509.176 7.90117C509.154 7.88217 509.131 7.86417 509.108 7.84517C509.074 7.81617 509.045 7.78317 509.01 7.75517C508.987 7.73717 508.962 7.72417 508.939 7.70517C508.864 7.64617 508.791 7.58617 508.715 7.53017C508.641 7.47617 508.563 7.42917 508.488 7.37717C508.348 7.28217 508.208 7.18617 508.063 7.10117C507.957 7.03817 507.847 6.98416 507.739 6.92716C507.621 6.86416 507.504 6.80017 507.383 6.74317C507.333 6.72017 507.283 6.69617 507.232 6.67417C507.2 6.66017 507.168 6.65017 507.136 6.63617C507.084 6.61417 507.032 6.59517 506.98 6.57417C506.878 6.53317 506.777 6.49017 506.674 6.45317C506.563 6.41317 506.451 6.38117 506.339 6.34717C506.274 6.32717 506.21 6.30717 506.144 6.28917C506.075 6.27017 506.006 6.24917 505.936 6.23117C505.788 6.19417 505.639 6.16717 505.489 6.13817C505.405 6.12217 505.322 6.10017 505.237 6.08717C505.215 6.08417 505.192 6.08317 505.17 6.07917C505.032 6.05917 504.893 6.04717 504.755 6.03417C504.636 6.02317 504.518 6.01017 504.399 6.00317C504.345 6.00017 504.292 5.99717 504.238 5.99617C504.175 5.99417 504.112 5.99817 504.049 5.99817C504.04 5.99817 504.031 5.99817 504.022 5.99817C503.888 5.99817 503.754 5.99617 503.62 6.00217C503.513 6.00717 503.406 6.01917 503.299 6.02817C503.228 6.03417 503.157 6.03817 503.086 6.04617C503.006 6.05517 502.927 6.06417 502.848 6.07617C502.742 6.09117 502.637 6.11417 502.531 6.13317C502.399 6.15817 502.266 6.17917 502.135 6.21017C502.12 6.21417 502.105 6.21917 502.089 6.22317C501.978 6.25017 501.868 6.28517 501.758 6.31717C501.623 6.35617 501.488 6.39417 501.355 6.44117C501.29 6.46317 501.227 6.48917 501.163 6.51317C501.146 6.51917 501.129 6.52317 501.112 6.52917L5.11201 198.529C2.02801 199.723 -0.00399411 202.691 5.89484e-06 205.998C0.00300589 209.305 2.04201 212.269 5.12801 213.456L153.005 270.332L200.39 416.457C200.397 416.478 200.408 416.496 200.415 416.516C200.429 416.559 200.439 416.603 200.454 416.646C200.566 416.965 200.705 417.275 200.858 417.58C200.89 417.643 200.923 417.704 200.956 417.766C201.105 418.045 201.269 418.317 201.453 418.579C201.477 418.614 201.498 418.651 201.523 418.685C201.535 418.702 201.547 418.719 201.56 418.736C201.574 418.754 201.589 418.77 201.603 418.789C201.663 418.869 201.73 418.946 201.794 419.024C201.87 419.118 201.942 419.214 202.022 419.305C202.084 419.374 202.152 419.438 202.217 419.505C202.247 419.536 202.277 419.567 202.307 419.598C202.353 419.644 202.396 419.693 202.443 419.738C202.492 419.785 202.539 419.833 202.589 419.879C202.637 419.923 202.689 419.963 202.739 420.005C202.893 420.14 203.049 420.271 203.213 420.395C203.223 420.403 203.232 420.411 203.242 420.419C203.257 420.43 203.275 420.438 203.29 420.449C203.34 420.485 203.391 420.518 203.441 420.553C203.698 420.732 203.968 420.897 204.249 421.046C204.295 421.07 204.338 421.101 204.384 421.124C204.399 421.132 204.414 421.137 204.429 421.145C204.693 421.276 204.964 421.397 205.248 421.501C205.308 421.523 205.369 421.538 205.429 421.558C205.508 421.585 205.587 421.609 205.667 421.633C206.011 421.738 206.357 421.823 206.704 421.881C206.72 421.884 206.735 421.889 206.751 421.892C206.784 421.897 206.817 421.896 206.85 421.901C207.233 421.957 207.617 421.991 207.997 421.991H207.998C207.998 421.991 207.998 421.991 207.999 421.991C208.03 421.991 208.06 421.984 208.091 421.984C208.42 421.98 208.748 421.953 209.074 421.909C209.123 421.902 209.173 421.903 209.221 421.896C209.291 421.885 209.361 421.86 209.431 421.847C209.684 421.801 209.934 421.743 210.182 421.672C210.263 421.649 210.345 421.634 210.425 421.609C210.439 421.605 210.453 421.603 210.467 421.599C210.505 421.587 210.541 421.569 210.579 421.556C210.698 421.516 210.814 421.468 210.931 421.422C211.087 421.36 211.242 421.297 211.392 421.227C211.415 421.217 211.438 421.209 211.461 421.198C211.474 421.191 211.489 421.187 211.502 421.181C211.577 421.145 211.648 421.101 211.722 421.062C211.877 420.981 212.028 420.895 212.176 420.805C212.274 420.745 212.371 420.685 212.466 420.621C212.467 420.62 212.468 420.62 212.469 420.619C212.497 420.6 212.526 420.584 212.554 420.565C212.687 420.473 212.813 420.372 212.94 420.273C213.014 420.215 213.089 420.161 213.161 420.1C213.24 420.033 213.316 419.962 213.392 419.892C213.451 419.839 213.507 419.783 213.565 419.727C213.811 419.488 214.045 419.238 214.258 418.971C214.276 418.949 214.295 418.928 214.313 418.905C214.336 418.875 214.356 418.842 214.378 418.812C214.395 418.79 214.415 418.771 214.432 418.748L272.889 339.753C275.517 336.201 274.769 331.192 271.217 328.564C267.666 325.936 262.655 326.685 260.028 330.236L234.63 364.558L254.816 309.452L445.888 381.973C446.806 382.321 447.768 382.494 448.726 382.494C450.125 382.494 451.518 382.127 452.757 381.405C454.843 380.188 456.268 378.094 456.634 375.707L511.909 15.2052C511.912 15.1882 511.911 15.1712 511.913 15.1542C511.932 15.0212 511.943 14.8882 511.956 14.7552C511.967 14.6342 511.98 14.5132 511.986 14.3912ZM449.557 43.6462L221.052 209.603C217.477 212.199 216.684 217.202 219.28 220.777C220.845 222.932 223.285 224.076 225.759 224.076C227.389 224.076 229.034 223.579 230.454 222.548L448.738 64.0142L244.445 293.408C243.652 294.19 243.005 295.146 242.584 296.256C242.512 296.444 242.457 296.635 242.4 296.825L208.46 389.478L167.047 261.771C166.274 259.387 164.487 257.617 162.319 256.778C162.307 256.773 162.296 256.767 162.283 256.762L30.223 205.969L449.557 43.6462ZM442.316 363.506L263.788 295.746L491.995 39.5012L442.316 363.506Z" fill="white"/>
<path d="M511.986 14.3912C511.989 14.3302 511.991 14.2702 511.993 14.2092C511.995 14.1392 511.991 14.0702 511.991 14.0002C511.991 13.8702 511.993 13.7402 511.987 13.6112C511.982 13.5012 511.97 13.3922 511.96 13.2832C511.959 13.2692 511.958 13.2542 511.956 13.2402C511.95 13.1772 511.948 13.1132 511.94 13.0502C511.932 12.9792 511.922 12.9092 511.912 12.8392C511.897 12.7362 511.875 12.6342 511.856 12.5312C511.83 12.3882 511.805 12.2452 511.77 12.1032C511.766 12.0882 511.763 12.0732 511.759 12.0582C511.734 11.9582 511.701 11.8602 511.672 11.7602C511.632 11.6212 511.593 11.4832 511.545 11.3462C511.522 11.2802 511.496 11.2162 511.472 11.1512C511.449 11.0912 511.423 11.0342 511.399 10.9742C511.399 10.9732 511.398 10.9712 511.397 10.9702C511.351 10.8572 511.308 10.7442 511.257 10.6332C511.2 10.5092 511.134 10.3902 511.071 10.2692C511.04 10.2092 511.01 10.1492 510.977 10.0902C510.949 10.0402 510.924 9.99017 510.895 9.94117C510.796 9.77417 510.686 9.61117 510.575 9.45017C510.539 9.39817 510.509 9.34317 510.472 9.29117C510.47 9.28817 510.468 9.28617 510.466 9.28317C510.461 9.27617 510.455 9.26917 510.45 9.26217C510.351 9.12717 510.24 8.99817 510.131 8.86817C510.063 8.78717 509.999 8.70117 509.929 8.62417C509.898 8.59017 509.864 8.55717 509.832 8.52217C509.782 8.46817 509.727 8.41817 509.675 8.36617C509.565 8.25517 509.457 8.14217 509.342 8.03817C509.335 8.03117 509.328 8.02417 509.321 8.01717C509.274 7.97517 509.224 7.94117 509.176 7.90117C509.154 7.88217 509.131 7.86417 509.108 7.84517C509.074 7.81617 509.045 7.78317 509.01 7.75517C508.987 7.73717 508.962 7.72417 508.939 7.70517C508.864 7.64617 508.791 7.58617 508.715 7.53017C508.641 7.47617 508.563 7.42917 508.488 7.37717C508.348 7.28217 508.208 7.18617 508.063 7.10117C507.957 7.03817 507.847 6.98416 507.739 6.92716C507.621 6.86416 507.504 6.80017 507.383 6.74317C507.333 6.72017 507.283 6.69617 507.232 6.67417C507.2 6.66017 507.168 6.65017 507.136 6.63617C507.084 6.61417 507.032 6.59517 506.98 6.57417C506.878 6.53317 506.777 6.49017 506.674 6.45317C506.563 6.41317 506.451 6.38117 506.339 6.34717C506.274 6.32717 506.21 6.30717 506.144 6.28917C506.075 6.27017 506.006 6.24917 505.936 6.23117C505.788 6.19417 505.639 6.16717 505.489 6.13817C505.405 6.12217 505.322 6.10017 505.237 6.08717C505.215 6.08417 505.192 6.08317 505.17 6.07917C505.032 6.05917 504.893 6.04717 504.755 6.03417C504.636 6.02317 504.518 6.01017 504.399 6.00317C504.345 6.00017 504.292 5.99717 504.238 5.99617C504.175 5.99417 504.112 5.99817 504.049 5.99817C504.04 5.99817 504.031 5.99817 504.022 5.99817C503.888 5.99817 503.754 5.99617 503.62 6.00217C503.513 6.00717 503.406 6.01917 503.299 6.02817C503.228 6.03417 503.157 6.03817 503.086 6.04617C503.006 6.05517 502.927 6.06417 502.848 6.07617C502.742 6.09117 502.637 6.11417 502.531 6.13317C502.399 6.15817 502.266 6.17917 502.135 6.21017C502.12 6.21417 502.105 6.21917 502.089 6.22317C501.978 6.25017 501.868 6.28517 501.758 6.31717C501.623 6.35617 501.488 6.39417 501.355 6.44117C501.29 6.46317 501.227 6.48917 501.163 6.51317C501.146 6.51917 501.129 6.52317 501.112 6.52917L5.11201 198.529C2.02801 199.723 -0.00399411 202.691 5.89484e-06 205.998C0.00300589 209.305 2.04201 212.269 5.12801 213.456L153.005 270.332L200.39 416.457C200.397 416.478 200.408 416.496 200.415 416.516C200.429 416.559 200.439 416.603 200.454 416.646C200.566 416.965 200.705 417.275 200.858 417.58C200.89 417.643 200.923 417.704 200.956 417.766C201.105 418.045 201.269 418.317 201.453 418.579C201.477 418.614 201.498 418.651 201.523 418.685C201.535 418.702 201.547 418.719 201.56 418.736C201.574 418.754 201.589 418.77 201.603 418.789C201.663 418.869 201.73 418.946 201.794 419.024C201.87 419.118 201.942 419.214 202.022 419.305C202.084 419.374 202.152 419.438 202.217 419.505C202.247 419.536 202.277 419.567 202.307 419.598C202.353 419.644 202.396 419.693 202.443 419.738C202.492 419.785 202.539 419.833 202.589 419.879C202.637 419.923 202.689 419.963 202.739 420.005C202.893 420.14 203.049 420.271 203.213 420.395C203.223 420.403 203.232 420.411 203.242 420.419C203.257 420.43 203.275 420.438 203.29 420.449C203.34 420.485 203.391 420.518 203.441 420.553C203.698 420.732 203.968 420.897 204.249 421.046C204.295 421.07 204.338 421.101 204.384 421.124C204.399 421.132 204.414 421.137 204.429 421.145C204.693 421.276 204.964 421.397 205.248 421.501C205.308 421.523 205.369 421.538 205.429 421.558C205.508 421.585 205.587 421.609 205.667 421.633C206.011 421.738 206.357 421.823 206.704 421.881C206.72 421.884 206.735 421.889 206.751 421.892C206.784 421.897 206.817 421.896 206.85 421.901C207.233 421.957 207.617 421.991 207.997 421.991H207.998C207.998 421.991 207.998 421.991 207.999 421.991C208.03 421.991 208.06 421.984 208.091 421.984C208.42 421.98 208.748 421.953 209.074 421.909C209.123 421.902 209.173 421.903 209.221 421.896C209.291 421.885 209.361 421.86 209.431 421.847C209.684 421.801 209.934 421.743 210.182 421.672C210.263 421.649 210.345 421.634 210.425 421.609C210.439 421.605 210.453 421.603 210.467 421.599C210.505 421.587 210.541 421.569 210.579 421.556C210.698 421.516 210.814 421.468 210.931 421.422C211.087 421.36 211.242 421.297 211.392 421.227C211.415 421.217 211.438 421.209 211.461 421.198C211.474 421.191 211.489 421.187 211.502 421.181C211.577 421.145 211.648 421.101 211.722 421.062C211.877 420.981 212.028 420.895 212.176 420.805C212.274 420.745 212.371 420.685 212.466 420.621C212.467 420.62 212.468 420.62 212.469 420.619C212.497 420.6 212.526 420.584 212.554 420.565C212.687 420.473 212.813 420.372 212.94 420.273C213.014 420.215 213.089 420.161 213.161 420.1C213.24 420.033 213.316 419.962 213.392 419.892C213.451 419.839 213.507 419.783 213.565 419.727C213.811 419.488 214.045 419.238 214.258 418.971C214.276 418.949 214.295 418.928 214.313 418.905C214.336 418.875 214.356 418.842 214.378 418.812C214.395 418.79 214.415 418.771 214.432 418.748L272.889 339.753C275.517 336.201 274.769 331.192 271.217 328.564C267.666 325.936 262.655 326.685 260.028 330.236L234.63 364.558L254.816 309.452L445.888 381.973C446.806 382.321 447.768 382.494 448.726 382.494C450.125 382.494 451.518 382.127 452.757 381.405C454.843 380.188 456.268 378.094 456.634 375.707L511.909 15.2052C511.912 15.1882 511.911 15.1712 511.913 15.1542C511.932 15.0212 511.943 14.8882 511.956 14.7552C511.967 14.6342 511.98 14.5132 511.986 14.3912ZM449.557 43.6462L221.052 209.603C217.477 212.199 216.684 217.202 219.28 220.777C220.845 222.932 223.285 224.076 225.759 224.076C227.389 224.076 229.034 223.579 230.454 222.548L448.738 64.0142L244.445 293.408C243.652 294.19 243.005 295.146 242.584 296.256C242.512 296.444 242.457 296.635 242.4 296.825L208.46 389.478L167.047 261.771C166.274 259.387 164.487 257.617 162.319 256.778C162.307 256.773 162.296 256.767 162.283 256.762L30.223 205.969L449.557 43.6462ZM442.316 363.506L263.788 295.746L491.995 39.5012L442.316 363.506Z" stroke="white" stroke-width="10" mask="url(#path-1-outside-1)"/>
<path d="M191.671 253.806L191.67 253.806C189.81 255.157 187.647 255.811 185.506 255.811C182.267 255.811 179.06 254.311 177.004 251.48L191.671 253.806ZM191.671 253.806L207.22 242.512C207.22 242.512 207.22 242.512 207.221 242.512C211.913 239.104 212.953 232.538 209.546 227.846L209.546 227.846M191.671 253.806L209.546 227.846M209.546 227.846C206.138 223.154 199.572 222.113 194.88 225.52M209.546 227.846L194.88 225.52M194.88 225.52C194.88 225.52 194.88 225.52 194.88 225.52M194.88 225.52L194.88 225.52M194.88 225.52L179.33 236.814L194.88 225.52ZM179.33 236.814C174.638 240.222 173.598 246.788 177.004 251.48L179.33 236.814Z" fill="white" stroke="white" stroke-width="5"/>
</svg>
