<svg width="944" height="1098" viewBox="0 0 944 1098" fill="none" xmlns="http://www.w3.org/2000/svg">
<path d="M891.297 0L114 3.4952V1093L335.3 1071.03C475.673 1046.06 329.305 711.024 546.109 711.024C697.51 711.024 736.104 597.014 741.432 540.758C753.445 413.932 788.29 431.608 887.8 322.557C987.31 213.507 925.932 56.0897 891.297 0Z" fill="#F6ADAB"/>
<path d="M775.016 1H1.00024V1094H244.865C385.277 1069.05 224.378 767.098 441.242 767.098C592.686 767.098 553.884 595.629 571.661 542.01C622.129 389.789 675.478 458.862 775.016 349.862C874.554 240.861 809.661 57.0641 775.016 1Z" fill="#FABABA"/>
<path d="M215.226 863.361C191.181 776.662 241.935 686.756 328.59 662.55C415.245 638.345 504.985 689.006 529.03 775.705C553.076 862.404 502.321 952.31 415.667 976.516C329.012 1000.72 239.272 950.061 215.226 863.361Z" fill="#F99746"/>
<path d="M228.173 859.746C206.111 780.2 252.678 697.711 332.183 675.503C411.688 653.294 494.024 699.775 516.086 779.321C538.147 858.867 491.58 941.355 412.075 963.564C332.57 985.773 250.234 939.291 228.173 859.746Z" fill="#163560"/>
<path d="M354.51 808.441C354.51 808.441 357.074 813.734 354.601 817.144C352.127 820.554 345.255 815.851 354.51 808.441Z" fill="#DDE7FE"/>
<path d="M481.11 765.446C481.11 765.446 483.319 770.882 480.667 774.122C478.015 777.363 471.46 772.221 481.11 765.446Z" fill="#DDE7FE"/>
<path d="M437.22 733.802C437.22 733.802 443.115 733.559 445.175 737.194C447.317 740.806 440.271 745.274 437.22 733.802Z" fill="#DDE7FE"/>
<path d="M269.741 760.585C269.741 760.585 272.305 765.878 269.831 769.288C267.358 772.698 260.486 767.995 269.741 760.585Z" fill="#DDE7FE"/>
<path d="M430.517 852.517C430.517 852.517 427.481 857.532 423.318 857.379C419.103 857.197 419.236 848.826 430.517 852.517Z" fill="#DDE7FE"/>
<path d="M358.859 872.49C358.859 872.49 355.823 877.504 351.66 877.351C347.496 877.198 347.63 868.828 358.859 872.49Z" fill="#DDE7FE"/>
<path d="M274.971 829.386C274.971 829.386 280.782 828.684 283.255 832.072C285.618 835.535 278.945 840.556 274.971 829.386Z" fill="#DDE7FE"/>
<path d="M318.55 736.163C318.55 736.163 324.361 735.461 326.835 738.849C329.228 742.26 322.607 747.311 318.55 736.163Z" fill="#DDE7FE"/>
<path d="M292.409 900.964C292.409 900.964 298.22 900.262 300.694 903.65C303.086 907.06 296.413 912.083 292.409 900.964Z" fill="#DDE7FE"/>
<path d="M407.479 786.365C407.479 786.365 413.29 785.663 415.764 789.051C418.156 792.462 411.535 797.513 407.479 786.365Z" fill="#DDE7FE"/>
<path d="M472.226 829.988C472.226 829.988 478.037 829.286 480.511 832.674C482.874 836.137 476.201 841.159 472.226 829.988Z" fill="#DDE7FE"/>
<path d="M409.832 909.919C409.832 909.919 415.643 909.217 418.117 912.604C420.509 916.015 413.836 921.037 409.832 909.919Z" fill="#DDE7FE"/>
<path d="M356.052 780.337C356.052 780.337 360.049 781.633 359.864 783.176C359.678 784.719 357.138 784.726 355.976 783.384C354.763 782.013 354.899 780.922 356.052 780.337Z" fill="#0B0755"/>
<path d="M773.202 448.724C773.202 448.724 824.413 425.998 814.761 405.58C805.109 385.162 773.202 448.724 773.202 448.724C773.202 448.724 771.7 445.679 773.202 448.724Z" fill="#85B779"/>
<path d="M781.61 397.164C763.439 389.653 773.203 448.723 773.203 448.723C773.203 448.723 799.811 404.624 781.61 397.164Z" fill="#85B779"/>
<path d="M563.424 867.671C563.424 867.671 514.616 938.103 543.436 956.983C572.286 975.81 563.424 867.671 563.424 867.671C563.424 867.671 567.828 870.432 563.424 867.671Z" fill="#85B779"/>
<path d="M593.42 941.529C623.151 936.821 563.453 867.62 563.453 867.62C563.453 867.62 563.69 946.238 593.42 941.529Z" fill="#85B779"/>
<path d="M351.398 607.075C351.398 607.075 391.345 571.399 376.56 555.705C361.826 540.04 351.398 607.075 351.398 607.075C351.398 607.075 349.136 604.768 351.398 607.075Z" fill="#85B779"/>
<path d="M343.944 557.755C325.17 556.289 351.346 607.047 351.346 607.047C351.346 607.047 362.689 559.273 343.944 557.755Z" fill="#85B779"/>
<path d="M40.1634 710.155C45.4588 701.746 42.9215 690.7 34.5808 685.442C28.9587 681.898 11.7498 679.983 1 679.5L1.00011 698.136C5.83698 705.705 11.5793 713.261 15.4951 715.729C23.8358 720.987 34.8973 718.512 40.1634 710.155Z" fill="#E6EFFF"/>
<path d="M33.1058 639.977C26.0245 633.096 14.7306 633.312 7.8444 640.411C5.6763 642.646 3.24721 647.293 1 652.674L1 679.944C11.1977 677.197 28.5644 670.349 33.4989 665.262C40.3851 658.163 40.1871 646.859 33.1058 639.977Z" fill="#E6EFFF"/>
<path d="M104.947 531.052C96.4057 533.92 57.8901 521.653 47.9485 519.474C39.1819 517.573 20.5377 514.422 0.999756 513.307L0.999757 453.25C9.77823 458.393 21.3378 463.206 37.2542 467.637C76.2674 478.537 96.3068 489.781 107.025 503.454C116.544 515.488 114.088 527.972 104.947 531.052Z" fill="#FFB27D"/>
<path d="M85.7596 424.087C85.7596 424.087 88.9972 469.586 77.2156 468.359C65.4341 467.133 52.605 445.058 49.7384 431.561C46.8943 418.145 85.7596 424.087 85.7596 424.087Z" fill="#E8945B"/>
<path d="M16.3938 335.832C16.3938 335.832 32.7482 351.176 44.7227 357.524C83.4304 378.071 77.0283 384.07 96.6686 400.513C133.489 431.324 160.203 456.362 154.775 463.185C144.28 476.555 98.1088 456.602 74.0668 444.677C32.812 424.272 10.458 430.604 10.458 430.604L16.3938 335.832Z" fill="#FFB27D"/>
<path d="M124.641 596.208L79.6246 529.046L34.7847 493.501L47.4456 477.509L94.753 514.995L141.611 584.844L124.641 596.208Z" fill="#6F84DD"/>
<path d="M16.8086 499.971C28.8568 509.588 46.4681 507.651 56.1763 495.553C65.8844 483.455 63.9251 465.801 51.8248 456.155L1.04883 415.5L1.04883 487.353L16.8086 499.971Z" fill="#2B478B"/>
<path d="M416.962 797.006C344.803 815.803 259.53 771.509 259.53 771.509L33.6619 616.534C26.1959 611.427 29.2254 599.747 38.2502 598.936L133.14 590.5L166.252 536.339C170.01 530.289 177.957 528.596 183.819 532.66C220.082 558.144 338.565 642.678 376.596 684.335C421.63 733.86 416.962 797.006 416.962 797.006Z" fill="#8C9DF4"/>
<path d="M416.962 797.007L133.14 590.5L166.252 536.339C170.01 530.289 177.957 528.596 183.818 532.66C220.082 558.144 338.565 642.678 376.595 684.335C421.63 733.861 416.962 797.007 416.962 797.007Z" fill="#6F84DD"/>
<path d="M1 324.225C65.9733 369.938 83.147 427.249 34.8628 429.138C21.3976 429.671 10.2409 430.586 1 431.751L1 324.225Z" fill="#FFB27D"/>
<path d="M98.0244 402.24C95.4597 400.105 61.9009 378.208 28.2182 371.827C17.8745 369.858 8.91768 368.412 0.999758 367.105L0.999756 366.313C8.96832 367.577 17.9553 369.026 28.3405 371.004C62.2085 377.42 95.9752 399.435 98.5105 401.622L98.0244 402.24Z" fill="#EA8F7D"/>
<path d="M42.2525 356.679C40.0223 354.802 23.4983 348.014 4.3551 340.16C3.24705 339.705 2.12792 339.245 0.999757 338.781L0.999757 337.935C2.01825 338.355 3.02951 338.771 4.03205 339.184L4.68529 339.454L5.47912 339.782C25.0551 347.868 40.4577 354.231 42.7385 356.061L42.2525 356.679Z" fill="#EA8F7D"/>
<path d="M421.923 760.051C421.923 760.051 401.827 749.393 382.898 759.856C382.898 759.856 378.64 750.037 363.113 752.532C347.556 755.079 348.286 771.147 363.493 781.724C363.493 781.724 351.057 779.715 348.57 791.77C348.57 791.77 315.586 807.825 328.526 828.246C341.496 848.614 395.552 836.145 396.307 836.022C397.062 835.899 420.831 826.452 421.953 825.437C423.074 824.422 425.537 801.849 425.537 801.849L421.923 760.051Z" fill="#163560"/>
<path d="M337.864 762.17C337.864 762.17 341.344 753.697 333.092 746.704C324.811 739.763 320.091 742.661 320.091 742.661C320.091 742.661 318.034 734.77 308.692 732.38C299.379 729.938 298.363 739.871 298.363 739.871C298.363 739.871 292.488 736.073 287.902 744.196C283.317 752.319 295.968 762.689 295.968 762.689C295.968 762.689 294.995 767.083 301.878 772.617C301.878 772.617 297.181 780.815 319.638 789.235C342.065 797.707 334.223 777.967 334.223 777.967C334.223 777.967 341.073 771.054 337.864 762.17Z" fill="#163560"/>
<path d="M312.961 711.584C312.961 711.584 314.366 706.06 305.653 700.248C296.939 694.437 288.793 697.941 288.793 697.941C288.793 697.941 292.094 685.659 278.618 681.485C278.618 681.485 271.339 663.299 249.595 658.715C249.595 658.715 227.246 639.3 219.257 646.531C211.319 653.793 245.327 670.038 245.327 670.038C245.327 670.038 244.416 678.451 262.58 690.833C262.58 690.833 258.376 698.279 279.402 708.02C279.506 708.079 308.035 733.18 312.961 711.584Z" fill="#163560"/>
<path d="M248.185 686.345C248.185 686.345 257.048 689.22 256.582 692.596C256.167 696.002 250.576 696.072 247.948 693.078C245.372 690.114 245.68 687.747 248.185 686.345Z" fill="#163560"/>
<path d="M298.783 692.87C298.311 693.222 294.157 694.996 292.901 692.365C291.593 689.704 289.678 682.168 294.467 683.155C299.204 684.113 302.667 690.119 298.783 692.87Z" fill="#163560"/>
<path d="M333.959 235.501C333.959 235.501 328.674 196.056 358.473 171.679C358.473 171.679 369.75 201.117 333.959 235.501Z" fill="#82B378"/>
<path d="M148.558 337.984C127.528 262.158 171.917 183.527 247.704 162.357C323.491 141.187 401.977 185.494 423.007 261.32C444.037 337.146 399.647 415.777 323.86 436.947C248.073 458.117 169.588 413.81 148.558 337.984Z" fill="#F99746"/>
<path d="M159.893 334.818C140.6 265.255 181.323 193.119 250.85 173.697C320.377 154.276 392.38 194.923 411.673 264.486C430.965 334.049 390.242 406.185 320.715 425.607C251.188 445.028 179.186 404.38 159.893 334.818Z" fill="#163560"/>
<path d="M270.377 289.972C270.377 289.972 272.627 294.606 270.47 297.578C268.261 300.519 262.266 296.448 270.377 289.972Z" fill="#DDE7FE"/>
<path d="M270.362 246.292C270.362 246.292 272.339 251.047 269.974 253.901C267.638 256.702 261.879 252.215 270.362 246.292Z" fill="#DDE7FE"/>
<path d="M317.901 212.224C317.901 212.224 323.018 212.023 324.861 215.192C326.734 218.309 320.545 222.231 317.901 212.224Z" fill="#DDE7FE"/>
<path d="M187.116 254.984C187.116 254.984 189.366 259.619 187.209 262.59C185 265.532 179.005 261.461 187.116 254.984Z" fill="#DDE7FE"/>
<path d="M350.949 319.526C350.949 319.526 348.317 323.945 344.636 323.789C340.983 323.582 341.114 316.308 350.949 319.526Z" fill="#DDE7FE"/>
<path d="M251.93 327.142C251.93 327.142 249.298 331.561 245.616 331.406C241.964 331.198 242.095 323.925 251.93 327.142Z" fill="#DDE7FE"/>
<path d="M216.018 280.639C216.018 280.639 221.103 280.008 223.25 283.004C225.344 285.972 219.505 290.366 216.018 280.639Z" fill="#DDE7FE"/>
<path d="M224.194 218.443C224.194 218.443 229.279 217.812 231.425 220.809C233.52 223.777 227.681 228.171 224.194 218.443Z" fill="#DDE7FE"/>
<path d="M217.117 386.867C217.117 386.867 222.202 386.236 224.348 389.233C226.413 392.253 220.604 396.595 217.117 386.867Z" fill="#DDE7FE"/>
<path d="M323.88 274.72C323.88 274.72 328.966 274.089 331.112 277.086C333.206 280.053 327.367 284.448 323.88 274.72Z" fill="#DDE7FE"/>
<path d="M349.54 330.885C349.54 330.885 354.626 330.254 356.772 333.251C358.866 336.219 353.027 340.613 349.54 330.885Z" fill="#DDE7FE"/>
<path d="M349.717 377.679C349.717 377.679 354.802 377.047 356.948 380.044C359.042 383.012 353.203 387.407 349.717 377.679Z" fill="#DDE7FE"/>
<path d="M265.423 333.592C268.278 341.04 288.124 358.698 290.224 357.892C292.324 357.086 295.251 330.654 292.396 323.206C289.541 315.758 281.148 312.05 273.703 314.919C266.257 317.789 262.517 326.114 265.423 333.592Z" fill="#F3F8FF"/>
<path d="M308.234 327.204C301.543 331.529 288.306 354.612 289.544 356.547C290.782 358.482 317.226 355.832 323.917 351.507C330.608 347.181 332.538 338.178 328.227 331.487C323.865 324.767 314.925 322.878 308.234 327.204Z" fill="#F3F8FF"/>
<path d="M325.161 363.265C318.66 358.634 292.387 354.789 291.062 356.65C289.738 358.511 301.818 382.154 308.29 386.837C314.791 391.469 323.798 389.962 328.487 383.476C333.124 376.962 331.662 367.897 325.161 363.265Z" fill="#F3F8FF"/>
<path d="M296.593 389.709C298.618 381.995 292.964 356.074 290.776 355.457C288.559 354.892 270.737 374.564 268.683 382.33C266.658 390.045 271.226 397.98 278.93 399.994C286.605 402.061 294.539 397.476 296.593 389.709Z" fill="#F3F8FF"/>
<path d="M260.264 374.419C268.177 373.393 290.07 358.286 289.756 356.049C289.443 353.812 264.562 344.71 256.597 345.706C248.684 346.733 243.072 354.002 244.085 361.921C245.149 369.869 252.351 375.445 260.264 374.419Z" fill="#F3F8FF"/>
<path d="M286.576 359.388C284.641 357.597 284.523 354.571 286.314 352.629C288.105 350.687 291.126 350.565 293.062 352.356C294.997 354.147 295.115 357.173 293.324 359.115C291.533 361.057 288.512 361.179 286.576 359.388Z" fill="#F99746"/>
<path d="M309.617 276.555L308.367 275.369C309.104 274.549 396.285 192.477 466.475 190.765L466.934 192.26C398.136 193.934 310.487 275.742 309.617 276.555Z" fill="#82B378"/>
<path d="M256.604 290.575L256.612 288.863C255.782 288.875 165.356 296.81 127.895 347.143L128.441 348.481C165.211 299.131 255.694 290.61 256.604 290.575Z" fill="#82B378"/>
<path d="M44.1215 273.482L43.3534 272.294C85.2899 245.842 126.591 187.858 153.951 149.47C161.584 138.742 168.15 129.539 173.033 123.438C186.564 106.632 226.484 81.4462 266.344 77.8557C289.821 75.7277 309.324 81.2446 324.276 94.2171C370.744 134.526 344.505 181.855 344.24 182.324L342.993 181.62C343.257 181.151 368.856 134.834 323.31 95.32C308.693 82.605 289.531 77.2121 266.484 79.3079C227.024 82.9182 187.495 107.776 174.163 124.351C169.338 130.348 162.743 139.602 155.139 150.279C127.698 188.689 86.309 246.83 44.1215 273.482Z" fill="#82B378"/>
<path d="M125.956 189.834C125.956 189.834 141.961 208.345 134.766 230.925C134.766 230.925 119.088 219.603 125.956 189.834Z" fill="#82B378"/>
<path d="M108.359 211.898C108.359 211.898 120.673 233.063 109.501 253.947C109.53 253.895 96.1812 239.904 108.359 211.898Z" fill="#82B378"/>
<path d="M84.2663 238.67C84.2663 238.67 89.9157 258.408 76.4935 273.078C76.4641 273.13 68.5283 258.9 84.2663 238.67Z" fill="#82B378"/>
<path d="M65.4999 257.467C65.4999 257.467 65.6276 278.001 48.7802 288.541C48.7802 288.541 44.9108 272.692 65.4999 257.467Z" fill="#82B378"/>
<path d="M49.6493 268.911C49.6493 268.911 39.6932 286.911 19.8626 287.801C19.8332 287.853 24.2447 272.147 49.6493 268.911Z" fill="#82B378"/>
<path d="M65.3735 257.326C65.3735 257.326 47.7486 267.908 30.1404 258.791C30.1924 258.821 41.8441 247.408 65.3735 257.326Z" fill="#82B378"/>
<path d="M84.2664 238.671C84.2664 238.671 66.6418 249.252 49.0338 240.135C49.0044 240.188 60.6559 228.775 84.2664 238.671Z" fill="#82B378"/>
<path d="M108.4 211.096C108.4 211.096 92.7724 224.452 73.8888 218.324C73.8888 218.324 83.4888 205.204 108.4 211.096Z" fill="#82B378"/>
<path d="M125.926 189.885C125.926 189.885 107.782 205.392 85.8724 198.31C85.8204 198.281 97.055 182.994 125.926 189.885Z" fill="#82B378"/>
<path d="M147.557 158.976C147.557 158.976 166.497 174.474 163.349 197.897C163.349 197.897 145.921 189.432 147.557 158.976Z" fill="#82B378"/>
<path d="M147.527 159.026C147.527 159.026 132.285 177.407 109.481 174.215C109.481 174.215 117.887 157.262 147.527 159.026Z" fill="#82B378"/>
<path d="M174.57 122.657C174.57 122.657 191.276 140.534 185.059 163.323C185.059 163.323 168.896 152.619 174.57 122.657Z" fill="#82B378"/>
<path d="M174.489 122.68C174.489 122.68 156.977 138.887 134.783 132.674C134.835 132.704 145.341 117.006 174.489 122.68Z" fill="#82B378"/>
<path d="M209.102 96.6962C209.102 96.6962 217.691 119.604 203.206 138.343C203.206 138.343 192.343 122.255 209.102 96.6962Z" fill="#82B378"/>
<path d="M209.021 96.7186C209.021 96.7186 186.675 104.978 168.526 90.7497C168.526 90.7497 184.3 80.2909 209.021 96.7186Z" fill="#82B378"/>
<path d="M248.441 80.7951C248.441 80.7951 252.041 110.842 229.213 129.061C229.236 129.142 220.892 106.648 248.441 80.7951Z" fill="#82B378"/>
<path d="M248.36 80.8173C248.36 80.8173 219.098 84.2106 201.527 61.7944C201.497 61.8465 223.481 53.8636 248.36 80.8173Z" fill="#82B378"/>
<path d="M291.249 78.6604C291.249 78.6604 290.503 112.641 262.218 129.357C262.218 129.357 256.532 103.007 291.249 78.6604Z" fill="#82B378"/>
<path d="M291.167 78.6833C291.167 78.6833 258.087 77.7927 242.07 50.0738C242.018 50.0445 267.746 44.6558 291.167 78.6833Z" fill="#82B378"/>
<path d="M327.737 98.1612C327.737 98.1612 314.166 129.364 281.628 134.067C281.628 134.067 286.377 107.565 327.737 98.1612Z" fill="#82B378"/>
<path d="M327.602 98.1537C327.602 98.1537 297.324 84.7693 293.036 53.0288C293.036 53.0288 318.861 57.7887 327.602 98.1537Z" fill="#82B378"/>
<path d="M350.616 156.946C350.616 156.946 322.022 155.635 310.202 130.56C310.202 130.56 332.831 126.169 350.616 156.946Z" fill="#82B378"/>
<path d="M350.645 156.894C350.645 156.894 353.991 128.021 378.55 114.626C378.499 114.596 381.064 137.125 350.645 156.894Z" fill="#82B378"/>
<path d="M168.131 505.813L168.87 507.054C212.038 482.671 282.589 473.884 329.327 468.066C342.378 466.438 353.599 465.014 361.237 463.626C382.424 459.725 423.501 436.496 445.661 403.07C458.698 383.375 463.158 363.577 458.851 344.254C445.557 284.152 391.575 284.714 391.012 284.739L391.018 286.185C391.581 286.159 444.438 285.649 457.445 344.559C461.61 363.527 457.252 382.902 444.472 402.261C422.57 435.353 381.907 458.334 360.964 462.167C353.378 463.584 342.186 464.956 329.136 466.584C282.368 472.455 211.602 481.258 168.131 505.813Z" fill="#82B378"/>
<path d="M280.58 473.438C280.58 473.438 271.91 450.553 248.715 446.111C248.663 446.081 251.156 465.341 280.58 473.438Z" fill="#82B378"/>
<path d="M252.813 478.431C252.813 478.431 240.085 457.513 216.481 457.439C216.481 457.439 222.436 475.907 252.813 478.431Z" fill="#82B378"/>
<path d="M217.781 486.944C217.781 486.944 203.113 472.621 183.885 477.422C183.855 477.474 192.537 491.233 217.781 486.944Z" fill="#82B378"/>
<path d="M192.419 494.599C192.419 494.599 174.422 484.713 157.157 494.536C157.157 494.536 169.248 505.413 192.419 494.599Z" fill="#82B378"/>
<path d="M174.792 503.121C174.792 503.121 154.247 503.334 144.02 520.357C143.968 520.328 159.827 523.924 174.792 503.121Z" fill="#82B378"/>
<path d="M192.441 494.682C192.441 494.682 174.741 505.152 174.37 524.993C174.422 525.022 189.962 520.199 192.441 494.682Z" fill="#82B378"/>
<path d="M217.782 486.944C217.782 486.944 200.082 497.414 199.711 517.255C199.763 517.284 215.302 512.461 217.782 486.944Z" fill="#82B378"/>
<path d="M253.489 478.812C253.489 478.812 234.339 486.266 230.722 505.785C230.722 505.785 246.851 503.561 253.489 478.812Z" fill="#82B378"/>
<path d="M280.497 473.461C280.497 473.461 258.294 482.075 254.062 504.749C254.032 504.801 272.774 502.197 280.497 473.461Z" fill="#82B378"/>
<path d="M317.911 469.106C317.911 469.106 313.339 445.033 291.253 436.684C291.253 436.684 290.369 456.098 317.911 469.106Z" fill="#82B378"/>
<path d="M317.83 469.13C317.83 469.13 294.439 473.778 286.409 495.407C286.409 495.407 305.277 496.101 317.83 469.13Z" fill="#82B378"/>
<path d="M362.654 462.573C362.654 462.573 354.937 439.335 331.924 433.965C331.924 433.965 333.61 453.318 362.654 462.573Z" fill="#82B378"/>
<path d="M362.624 462.625C362.624 462.625 340.039 470.338 334.932 492.861C334.88 492.831 353.714 491.035 362.624 462.625Z" fill="#82B378"/>
<path d="M401.835 444.523C401.835 444.523 385.8 426.063 362.45 429.91C362.479 429.858 371.466 447.084 401.835 444.523Z" fill="#82B378"/>
<path d="M401.806 444.575C401.806 444.575 383.915 460.361 387.756 483.06C387.756 483.06 404.44 474.145 401.806 444.575Z" fill="#82B378"/>
<path d="M434.504 417.371C434.504 417.371 409.838 399.876 382.944 411.335C382.944 411.335 398.733 429.381 434.504 417.371Z" fill="#82B378"/>
<path d="M434.444 417.478C434.444 417.478 417.568 441.666 428.852 467.812C428.852 467.812 446.277 452.242 434.444 417.478Z" fill="#82B378"/>
<path d="M456.776 380.712C456.776 380.712 426.556 365.162 398.442 382.182C398.442 382.182 418.909 399.711 456.776 380.712Z" fill="#82B378"/>
<path d="M456.743 380.769C456.743 380.769 441.758 410.35 458.491 437.649C458.491 437.649 475.422 417.613 456.743 380.769Z" fill="#82B378"/>
<path d="M456.992 339.291C456.992 339.291 423.133 336.381 403.549 362.816C403.549 362.816 429.078 371.255 456.992 339.291Z" fill="#82B378"/>
<path d="M456.961 339.346C456.961 339.346 454.337 372.403 480.135 391.293C480.135 391.293 488.254 366.35 456.961 339.346Z" fill="#82B378"/>
<path d="M416.326 291.133C416.326 291.133 403.886 316.933 420.257 339.289C420.205 339.26 434.857 321.439 416.326 291.133Z" fill="#82B378"/>
<path d="M416.378 291.163C416.378 291.163 443.311 301.973 466.736 286.702C466.736 286.702 448.2 273.766 416.378 291.163Z" fill="#82B378"/>
<path d="M444.286 373.455C445.77 377.382 456.232 386.653 457.297 386.224C458.413 385.824 459.952 371.929 458.468 368.002C456.984 364.074 452.591 362.144 448.665 363.635C444.738 365.127 442.803 369.527 444.286 373.455Z" fill="#F3F8FF"/>
<path d="M466.756 370.073C463.218 372.333 456.288 384.488 456.959 385.485C457.63 386.482 471.496 385.109 475.034 382.848C478.571 380.588 479.588 375.875 477.283 372.308C475.001 368.822 470.294 367.813 466.756 370.073Z" fill="#F3F8FF"/>
<path d="M475.654 389.035C472.251 386.565 458.422 384.594 457.759 385.525C457.067 386.508 463.41 398.947 466.791 401.336C470.194 403.806 474.967 402.999 477.389 399.559C479.833 396.201 479.086 391.453 475.654 389.035Z" fill="#F3F8FF"/>
<path d="M460.665 402.959C461.729 398.89 458.735 385.253 457.601 384.956C456.466 384.658 447.061 395.005 445.998 399.074C444.935 403.143 447.316 407.302 451.379 408.36C455.443 409.418 459.55 406.999 460.665 402.959Z" fill="#F3F8FF"/>
<path d="M441.558 394.917C445.703 394.374 457.178 386.431 457.024 385.246C456.871 384.061 443.8 379.291 439.603 379.806C435.458 380.35 432.482 384.163 433.019 388.311C433.608 392.489 437.413 395.461 441.558 394.917Z" fill="#F3F8FF"/>
<path d="M454.923 383.992C455.599 382.795 457.145 382.363 458.34 383.038C459.536 383.713 459.965 385.259 459.289 386.457C458.613 387.655 457.067 388.087 455.871 387.412C454.676 386.737 454.217 385.242 454.923 383.992Z" fill="#F99746"/>
<path d="M116.504 322.033C118.961 328.364 135.788 343.357 137.615 342.671C139.441 341.986 141.897 319.545 139.469 313.162C137.012 306.831 129.954 303.671 123.574 306.111C117.245 308.581 114.047 315.702 116.504 322.033Z" fill="#F3F8FF"/>
<path d="M152.876 316.611C147.152 320.315 135.937 339.939 137.003 341.571C138.069 343.203 160.509 340.97 166.232 337.266C171.956 333.562 173.574 325.961 169.882 320.238C166.191 314.515 158.599 312.907 152.876 316.611Z" fill="#F3F8FF"/>
<path d="M167.298 347.275C161.777 343.335 139.485 340.089 138.336 341.638C137.239 343.216 147.468 363.341 152.988 367.281C158.508 371.222 166.139 369.968 170.136 364.465C174.059 358.852 172.818 351.216 167.298 347.275Z" fill="#F3F8FF"/>
<path d="M143.023 369.757C144.749 363.179 139.911 341.153 138.065 340.66C136.219 340.167 121.006 356.916 119.28 363.495C117.554 370.073 121.435 376.796 128.004 378.514C134.522 380.202 141.245 376.307 143.023 369.757Z" fill="#F3F8FF"/>
<path d="M112.191 356.747C118.92 355.876 137.49 343.013 137.267 341.102C137.043 339.191 115.835 331.475 109.106 332.346C102.378 333.216 97.598 339.376 98.4574 346.109C99.3167 352.843 105.463 357.617 112.191 356.747Z" fill="#F3F8FF"/>
<path d="M135.268 344.644C133.316 343.542 132.628 341.063 133.732 339.108C134.836 337.152 137.314 336.46 139.265 337.562C141.217 338.664 141.905 341.143 140.801 343.098C139.697 345.054 137.22 345.746 135.268 344.644Z" fill="#F99746"/>
<path d="M366.737 256.959C368.557 261.626 380.959 272.679 382.32 272.211C383.629 271.714 385.467 255.104 383.698 250.467C381.878 245.8 376.676 243.481 371.958 245.281C367.27 247.029 364.916 252.292 366.737 256.959Z" fill="#F3F8FF"/>
<path d="M393.597 252.965C389.394 255.674 381.089 270.144 381.909 271.362C382.677 272.551 399.283 270.938 403.433 268.2C407.635 265.491 408.832 259.85 406.133 255.648C403.433 251.446 397.799 250.256 393.597 252.965Z" fill="#F3F8FF"/>
<path d="M404.207 275.57C400.158 272.666 383.653 270.215 382.843 271.406C381.982 272.568 389.565 287.424 393.614 290.328C397.663 293.231 403.325 292.308 406.262 288.198C409.222 284.169 408.308 278.503 404.207 275.57Z" fill="#F3F8FF"/>
<path d="M386.297 292.241C387.587 287.407 384.034 271.119 382.662 270.757C381.29 270.394 370.073 282.738 368.783 287.572C367.493 292.406 370.367 297.393 375.194 298.676C380.021 299.959 385.008 297.075 386.297 292.241Z" fill="#F3F8FF"/>
<path d="M363.503 282.599C368.455 281.961 382.174 272.471 382.005 271.071C381.836 269.671 366.191 263.997 361.187 264.606C356.235 265.243 352.714 269.779 353.314 274.787C354.025 279.72 358.551 283.237 363.503 282.599Z" fill="#F3F8FF"/>
<path d="M379.405 269.605C380.228 268.147 382.018 267.647 383.474 268.469C384.929 269.29 385.426 271.081 384.602 272.539C383.779 273.997 381.989 274.497 380.534 273.676C379.131 272.883 378.612 271.011 379.405 269.605Z" fill="#F99746"/>
<path d="M441.27 175.438C443.09 180.105 455.493 191.158 456.854 190.69C458.162 190.193 460 173.584 458.231 168.946C456.411 164.279 451.209 161.96 446.492 163.761C441.804 165.509 439.479 170.719 441.27 175.438Z" fill="#F3F8FF"/>
<path d="M468.13 171.444C463.928 174.153 455.622 188.622 456.443 189.84C457.211 191.029 473.816 189.417 477.966 186.679C482.168 183.97 483.366 178.328 480.666 174.126C477.914 169.895 472.362 168.683 468.13 171.444Z" fill="#F3F8FF"/>
<path d="M478.74 194.05C474.69 191.146 458.185 188.695 457.376 189.886C456.515 191.048 464.098 205.904 468.147 208.807C472.196 211.711 477.858 210.788 480.795 206.678C483.755 202.65 482.789 196.954 478.74 194.05Z" fill="#F3F8FF"/>
<path d="M460.807 210.638C462.097 205.804 458.544 189.516 457.172 189.154C455.8 188.791 444.582 201.135 443.293 205.969C442.003 210.803 444.877 215.79 449.704 217.073C454.583 218.386 459.518 215.472 460.807 210.638Z" fill="#F3F8FF"/>
<path d="M438.065 201.026C443.017 200.388 456.736 190.898 456.567 189.498C456.398 188.098 440.753 182.425 435.749 183.033C430.797 183.671 427.277 188.207 427.876 193.214C428.558 198.199 433.113 201.664 438.065 201.026Z" fill="#F3F8FF"/>
<path d="M453.969 188.032C454.792 186.574 456.582 186.074 458.037 186.895C459.493 187.717 459.989 189.508 459.166 190.966C458.343 192.424 456.553 192.924 455.098 192.102C453.642 191.281 453.146 189.49 453.969 188.032Z" fill="#F99746"/>
<path d="M256.899 181.151C259.214 187.127 275.067 201.295 276.812 200.632C278.505 199.94 280.841 178.805 278.555 172.777C276.24 166.801 269.547 163.846 263.602 166.121C257.576 168.418 254.614 175.123 256.899 181.151Z" fill="#F3F8FF"/>
<path d="M291.198 176C285.806 179.479 275.238 197.957 276.2 199.531C277.192 201.052 298.394 198.945 303.786 195.465C309.177 191.986 310.693 184.808 307.225 179.417C303.758 174.026 296.589 172.52 291.198 176Z" fill="#F3F8FF"/>
<path d="M304.826 204.913C299.617 201.149 278.57 198.124 277.532 199.599C276.494 201.073 286.14 220.045 291.348 223.809C296.557 227.574 303.758 226.352 307.527 221.132C311.192 215.854 309.983 208.648 304.826 204.913Z" fill="#F3F8FF"/>
<path d="M281.901 226.097C283.555 219.89 278.974 199.108 277.18 198.644C275.386 198.181 261.132 213.96 259.478 220.168C257.824 226.375 261.511 232.714 267.71 234.359C273.909 236.005 280.247 232.305 281.901 226.097Z" fill="#F3F8FF"/>
<path d="M252.822 213.869C259.173 213.059 276.717 200.922 276.487 199.144C276.286 197.314 256.257 190.058 249.905 190.867C243.554 191.677 239.033 197.501 239.883 203.886C240.629 210.213 246.47 214.678 252.822 213.869Z" fill="#F3F8FF"/>
<path d="M273.108 197.238C274.137 195.415 276.497 194.756 278.316 195.783C280.135 196.81 280.79 199.171 279.761 200.993C278.732 202.816 276.372 203.475 274.553 202.448C272.734 201.421 272.079 199.06 273.108 197.238Z" fill="#F99746"/>
<path d="M220.473 296.544C220.473 296.544 219.005 336.296 185.575 355.328C185.546 355.38 179.373 324.429 220.473 296.544Z" fill="#82B378"/>
<path d="M194.283 303.114C194.283 303.114 154.576 301.092 136.141 267.338C136.141 267.338 167.155 261.569 194.283 303.114Z" fill="#82B378"/>
<path d="M402.55 210.641C402.55 210.641 400.198 191.255 416.607 178.82C416.63 178.902 422.366 193.264 402.55 210.641Z" fill="#82B378"/>
<path d="M745.379 521.319C745.379 521.319 693.638 529.807 674.122 506.224C666.996 497.601 662.228 486.257 659.557 475.205C657.453 466.67 656.624 458.306 656.757 451.514C656.926 442.958 658.788 436.868 662.013 436.011C671.016 433.54 745.379 521.319 745.379 521.319Z" fill="#F6A56E"/>
<path d="M659.505 475.176C657.401 466.641 656.572 458.276 656.705 451.485C663.964 458.536 690.373 484.843 696.706 500.091C701.684 512.034 675.954 491.81 659.505 475.176Z" fill="#F6A56E"/>
<path d="M750.299 1074.72C746.102 1056.9 743.054 1079.42 735.382 1034.37C733.444 1023.12 721.827 995.615 720.463 985.163L720.44 985.082C720.47 985.03 720.47 985.03 720.447 984.948C720.217 983.171 719.958 981.445 719.78 979.696C718.934 972.696 718.23 966.05 717.796 959.9C716.985 949.074 719.355 937.228 723.634 925.155C728.44 911.664 735.778 897.816 744.185 884.503C750.672 874.226 757.812 864.249 764.94 855.021C787.843 825.378 810.461 803.402 810.461 803.402C810.461 803.402 810.484 803.483 810.507 803.565C810.8 806.202 815.692 850.712 820.032 867.307C825.41 887.647 877.51 985.724 877.51 985.724C877.51 985.724 751.423 1079.41 750.299 1074.72Z" fill="#FFB27D"/>
<path d="M808.476 841.762C808.476 841.762 794.49 891.546 774.5 896.603C754.459 901.632 701.718 854.829 669.247 789.119C636.776 723.409 736.031 598.097 736.031 598.097C729.266 599.153 695.583 576.018 665.338 554.687C639.327 536.295 615.758 519.282 614.11 520.137C611.746 521.411 573.878 521.595 540.011 520.397C522.529 519.798 506.135 518.851 496.204 517.503C477.114 514.897 468.147 502.007 464.199 493.46C462.127 488.995 461.468 485.671 461.468 485.671C461.468 485.671 484.374 480.062 514.025 474.279C552.912 466.706 603.464 458.988 629.42 463.273C675.314 470.848 770.532 536.618 797.514 558.51C824.6 580.461 808.476 841.762 808.476 841.762Z" fill="#FFB27D"/>
<path d="M749.769 569.392C751.549 573.28 711.459 565.137 665.338 554.687C639.327 536.295 615.758 519.282 614.111 520.137C611.746 521.412 573.878 521.595 540.011 520.398C553.585 513.229 588.479 495.368 634.828 505.534C692.81 518.285 745.656 560.409 749.769 569.392Z" fill="#F6A56E"/>
<path d="M774.159 541L758.932 812.489C758.932 812.489 583.776 753.435 656.31 727.296C673.333 721.182 672.659 704.528 672.637 694.49C672.612 678.752 672.162 664.009 671.521 651.425C670.246 626.123 657.205 602.968 636.278 588.682C611.555 571.773 579.521 553.002 555.633 564.236C530.237 576.198 512.455 591.429 489.988 580.599C486.389 578.842 479.217 570.055 479.217 570.055L543.162 529.387C560.593 518.421 574.894 513.242 591.487 515.537L774.159 541Z" fill="#FFB27D"/>
<path d="M666.706 595.97C666.706 595.97 774.443 554.823 790.759 561.494C807.075 568.164 841.211 586.611 847.953 620.56C854.747 654.54 834.808 696.293 834.808 696.293C834.808 696.293 813.891 685.996 790.46 641.182C767.028 596.368 783.422 570.604 778.38 569.337C773.339 568.07 671.485 601.346 671.485 601.346L666.706 595.97Z" fill="#A8D29F"/>
<path d="M585.888 505.783C585.888 505.783 695.684 396.035 681.343 348.594C667.002 301.153 620.749 292.757 595.279 306.188C569.808 319.618 523.83 363.427 502.428 368.922C502.428 368.922 550.538 415.308 589.866 388.62C629.195 361.933 671.55 356.593 673.097 362.959C674.643 369.325 661.728 424.862 580.403 499.597L585.888 505.783Z" fill="#82B378"/>
<path d="M640.654 566.844C640.654 566.844 796.876 461.057 845.347 475.237C893.847 489.364 942.131 543.332 943.88 545.212C945.599 547.144 899.827 555.5 850.434 542.105C801.093 528.738 779.87 497.737 773.607 499.969C714.687 521.296 647.457 574.461 647.457 574.461L640.654 566.844Z" fill="#A8D29F"/>
<path d="M628.842 553.654C628.842 553.654 718.967 474.137 745.005 490.416C770.992 506.665 775.231 560.832 749.104 594.972C749.104 594.972 732.908 618.926 731.754 632.626C731.754 632.626 710.537 622.982 698.925 603.244C687.284 583.557 693.576 552.501 708.912 536.989C724.279 521.425 740.54 495.654 736.667 494.017C732.712 492.402 720.972 495.594 705.303 504.533C689.581 513.442 634.052 559.479 634.052 559.479L628.842 553.654Z" fill="#82B378"/>
<path d="M617.99 541.553C617.99 541.553 733.116 461.455 749.565 434.624C766.015 407.792 756.034 358.212 735.616 333.433C735.616 333.433 709.13 361.533 696.512 384.005C683.947 406.506 717.411 452.246 709.812 460.728C702.266 469.24 613.494 536.405 613.494 536.405L617.99 541.553Z" fill="#A8D29F"/>
<path d="M604.533 526.54C604.533 526.54 645.902 500.73 653.67 492.069C661.49 483.437 667.309 461.11 664.994 449.915C664.994 449.915 645.581 468.276 634.503 472.116C623.426 475.956 622.874 510.321 620.023 512.214C617.173 514.106 601.779 523.406 601.779 523.406L604.533 526.54Z" fill="#82B378"/>
<path d="M478.648 635.652L533.73 696.274C565.979 731.783 620.923 734.373 656.45 702.037L720.576 643.686C720.576 643.686 721.705 636.221 698.3 619.163C686.932 610.891 672.464 580.064 663.469 569.287C640.537 541.921 612.147 543.404 596.596 507.091C578.778 465.445 548.755 454.402 548.755 454.402L484.63 512.753C449.022 545.112 446.399 600.143 478.648 635.652Z" fill="#163560"/>
<path d="M720.546 643.737C720.546 643.737 720.706 653.166 712.55 657.901C712.55 657.901 707.53 669.829 694.57 671.783C694.57 671.783 676.898 705.272 659.537 708.586C642.154 711.819 640.273 713.573 640.273 713.573C640.273 713.573 625.61 727.405 614.814 727.833C604.017 728.262 599.973 724.742 599.973 724.742C599.973 724.742 583.411 731.255 569.59 724.414C555.769 717.573 553.582 715.377 553.582 715.377C553.582 715.377 538.809 710.951 527.406 696.548C516.003 682.146 516.003 676.927 516.003 676.927C516.003 676.927 504.787 671.419 499.148 664.047C493.509 656.675 492.635 653.367 492.635 653.367C492.635 653.367 478.952 647.496 469.806 636.016C460.66 624.535 464.699 615.074 464.699 615.074C464.699 615.074 453.265 607.04 452.764 597.487C452.292 587.882 456.426 584.929 456.426 584.929C456.426 584.929 449.715 566.102 453.299 559.268C456.935 552.462 463.191 535.189 467.383 528.491C471.656 521.771 487.993 509.708 487.993 509.708C487.993 509.708 507.292 484.142 514.681 483.437C514.681 483.437 536.355 452.208 548.644 454.476L626.293 593.619L720.546 643.737Z" fill="#163560"/>
<path d="M477.33 561.986C477.441 561.911 491.926 553.128 520.557 562.63C535.962 567.757 547.546 566.056 554.587 563.782C562.227 561.297 566.187 557.56 566.327 557.433L565.211 556.253C565.071 556.38 549.588 570.573 521.061 561.13C491.667 551.402 477.041 560.312 476.488 560.686L477.33 561.986Z" fill="#BDD1F9"/>
<path d="M512.484 708.656L514.107 708.817C517.257 675.919 546.014 652.053 546.294 651.8L545.289 650.545C544.957 650.77 515.668 675.091 512.484 708.656Z" fill="#BDD1F9"/>
<path d="M484.398 632.993C485.006 633.13 499.657 636.8 513.828 618.982C527.373 601.909 540.027 602.804 540.161 602.811L540.324 601.187C539.79 601.16 526.684 600.216 512.624 617.959C505.568 626.816 498.427 629.995 493.663 631.15C488.521 632.367 484.932 631.44 484.932 631.44L484.398 632.993Z" fill="#BDD1F9"/>
<path d="M445.297 605.494C463.031 594.356 487.99 600.893 488.279 600.988L488.679 599.428C488.442 599.363 462.772 592.63 444.403 604.165L445.297 605.494Z" fill="#BDD1F9"/>
<path d="M462.15 522.587C466.516 525.051 472.455 526.55 479.812 526.995C486.769 527.42 492.365 526.734 492.631 526.748L492.446 525.133C492.232 525.149 469.987 527.766 459.95 519.079L458.897 520.338C459.818 521.133 460.903 521.882 462.15 522.587Z" fill="#BDD1F9"/>
<path d="M789.846 879.379L785.158 889.504L820.158 1031.35L741.765 1059.12C741.765 1059.12 705.25 911.342 660.889 903.603C616.528 895.863 570.706 798.927 560.62 725.735C554.223 679.277 544.186 653.835 546.12 640.576C547.286 632.926 552.307 629.374 564.396 628.234C568.831 627.785 572.939 629.006 576.83 631.34C602.058 646.749 620.737 708.724 635.334 721.839C647.35 732.605 674.481 721.211 689.692 735.909C720.017 765.113 737.382 828.201 764.889 854.99C779.915 869.653 789.846 879.379 789.846 879.379Z" fill="#FFB27D"/>
<path d="M702.068 1016.05L680.325 958.042L851.446 908.663L887.524 950.865L900.637 966.851C897.594 988.754 896.442 1002.94 896.442 1002.94C887.885 1038.38 877.121 1068.58 864.48 1094H729.916L702.158 1016.37L702.068 1016.05Z" fill="#EF873A"/>
<path d="M701.892 1016.36C701.892 1016.36 702.026 1016.37 702.211 1016.4C707.043 1017.07 767.166 1025.06 826.846 1008.21L823.524 983.742L843.162 1001.28C843.162 1001.28 872.641 981.601 888.612 952.096L887.525 950.864L873.648 934.653L868.503 928.59L868.451 928.561L847.49 909.724L842.939 905.644L763.838 928.968L759.459 935.147L702.098 1015.99L701.892 1016.36Z" fill="#E27227"/>
<path d="M893.515 945.595C893.515 945.595 878.239 961.485 839.433 978.991L798.994 933.709L809.956 990.778C776.383 1002.66 731.135 1013.85 671.652 1020.03C671.652 1020.03 669.517 967.596 682.854 918.476C682.854 918.476 752.746 904.785 821.593 872.308L893.515 945.595Z" fill="#EEF5FF"/>
<path d="M779.227 978.923C777.425 976.532 777.868 973.074 780.289 971.214C782.681 969.406 786.134 969.844 787.989 972.265C789.792 974.656 789.348 978.113 786.927 979.974C784.484 981.753 781.03 981.314 779.227 978.923Z" fill="#F99746"/>
<path d="M121.972 839.013C127.103 820.212 118.007 799.902 101.064 790.337C84.1426 780.853 60.0665 786.35 49.4215 802.657C35.532 823.861 44.2641 843.966 61.2077 853.531C66.769 856.671 76.0465 857.719 82.0381 857.668L85.3227 871.882C94.0374 872.957 115.697 861.907 121.972 839.013Z" fill="#8C9DF4"/>
<path d="M82.18 858.024C82.4241 857.955 105.992 849.837 106.711 824.768C107.151 810.391 98.4923 803.511 93.3175 800.658C84.6829 795.921 73.5135 795.796 66.8088 800.388C60.6579 804.606 56.7804 810.382 56.0306 816.688C55.3442 822.275 57.0717 827.713 60.9715 831.974C65.0204 836.457 70.2813 838.672 75.7599 838.194C80.8091 837.749 85.3662 834.897 88.0139 830.692C90.3745 826.875 90.7102 822.395 89.0185 818.351C87.1777 814.084 83.3793 810.978 78.7532 809.946C74.5496 809.015 70.5736 810.959 68.118 815.066C66.1621 818.288 65.8447 821.885 67.3562 823.7C69.828 826.606 72.9601 828.099 75.3493 827.388C76.7619 826.95 77.6459 825.869 77.861 824.274L77.0903 824.182C76.9182 825.459 76.2038 826.36 75.1166 826.708C73.4078 827.185 70.5083 826.372 67.9394 823.274C66.681 821.739 67.0367 818.438 68.7643 815.5C69.6393 814.071 72.8928 809.522 78.5789 810.74C82.9158 811.678 86.5876 814.644 88.2793 818.689C89.9552 822.519 89.6106 826.65 87.3382 830.311C84.86 834.337 80.5244 837.039 75.69 837.468C70.4261 837.93 65.4251 835.862 61.5027 831.519C57.7814 827.427 56.1511 822.181 56.7718 816.832C57.5374 810.741 61.2455 805.144 67.2268 801.105C73.7099 796.662 84.5312 796.797 92.9579 801.417C93.0618 801.476 93.1138 801.505 93.2177 801.564C98.2592 804.41 106.34 811.1 105.934 824.81C105.242 849.345 82.1394 857.246 81.9473 857.343L82.18 858.024Z" fill="#163560"/>
<path d="M7.29437 824.468C21.8774 812.719 12.6217 789.778 12.6217 789.778C11.3903 784.031 6.42639 782.41 0.999756 783.051L0.999756 826.807C2.98705 826.932 5.09588 826.239 7.29437 824.468Z" fill="#163560"/>
<path d="M30.9212 750.806C30.9212 750.806 55.0999 758.482 54.7851 777.736C54.4182 796.961 19.2754 781.998 14.9853 774.906C10.6434 767.786 18.6799 744.445 30.9212 750.806Z" fill="#8C9DF4"/>
<path d="M137.348 823.796C137.348 823.796 126.022 805.249 141.879 796.829C157.736 788.408 173.279 829.592 161.869 833.657C150.407 837.692 141.092 834.768 137.348 823.796Z" fill="#8C9DF4"/>
<path d="M161.633 798.504C161.633 798.504 150.308 779.957 166.165 771.537C182.021 763.116 197.564 804.301 186.154 808.365C174.744 812.43 165.399 809.557 161.633 798.504Z" fill="#6F84DD"/>
<path d="M66.2069 756.169C66.2069 756.169 58.2167 743.006 69.4556 737.06C80.6944 731.113 91.7175 760.271 83.5758 763.159C75.4636 765.995 68.8851 763.93 66.2069 756.169Z" fill="#6F84DD"/>
<path d="M119.92 780.729C119.92 780.729 136.876 754.458 150.44 760.055C163.922 765.675 146.887 782.494 137.431 784.434C128.003 786.322 122.219 789.649 119.92 780.729Z" fill="#163560"/>
<path d="M570.992 1063.45C570.992 1063.45 559.667 1044.9 575.524 1036.48C591.381 1028.06 606.924 1069.25 595.514 1073.31C584.133 1077.32 574.788 1074.45 570.992 1063.45Z" fill="#8C9DF4"/>
<path d="M595.329 1038.19C595.329 1038.19 584.004 1019.64 599.861 1011.22C615.718 1002.8 631.261 1043.98 619.851 1048.05C608.441 1052.11 599.125 1049.19 595.329 1038.19Z" fill="#6F84DD"/>
<path d="M553.567 1020.38C553.567 1020.38 570.522 994.109 584.086 999.706C597.568 1005.33 580.534 1022.15 571.077 1024.09C561.701 1026 555.894 1029.25 553.567 1020.38Z" fill="#163560"/>
</svg>
