<svg width="1717" height="1480" viewBox="0 0 1717 1480" fill="none" xmlns="http://www.w3.org/2000/svg">
<path d="M1435.3 182L658 185.495V1275L879.3 1253.03C1019.67 1228.06 873.305 893.024 1090.11 893.024C1241.51 893.024 1280.1 779.014 1285.43 722.758C1297.45 595.932 1332.29 613.608 1431.8 504.557C1531.31 395.507 1469.93 238.09 1435.3 182Z" fill="#F6ADAB"/>
<path d="M1319.02 183H545V1276H788.865C929.277 1251.05 768.378 949.098 985.242 949.098C1136.69 949.098 1097.88 777.629 1115.66 724.01C1166.13 571.789 1219.48 640.862 1319.02 531.862C1418.55 422.861 1353.66 239.064 1319.02 183Z" fill="#FABABA"/>
<path d="M759.227 1045.36C735.181 958.662 785.936 868.756 872.59 844.55C959.245 820.345 1048.98 871.006 1073.03 957.705C1097.08 1044.4 1046.32 1134.31 959.667 1158.52C873.012 1182.72 783.272 1132.06 759.227 1045.36Z" fill="#F99746"/>
<path d="M772.172 1041.75C750.111 962.2 796.678 879.711 876.183 857.503C955.688 835.294 1038.02 881.775 1060.09 961.321C1082.15 1040.87 1035.58 1123.36 956.075 1145.56C876.57 1167.77 794.234 1121.29 772.172 1041.75Z" fill="#163560"/>
<path d="M898.51 990.441C898.51 990.441 901.074 995.734 898.601 999.144C896.127 1002.55 889.256 997.851 898.51 990.441Z" fill="#DDE7FE"/>
<path d="M1025.11 947.446C1025.11 947.446 1027.32 952.882 1024.67 956.122C1022.02 959.363 1015.46 954.221 1025.11 947.446Z" fill="#DDE7FE"/>
<path d="M981.221 915.802C981.221 915.802 987.115 915.559 989.175 919.194C991.317 922.806 984.271 927.274 981.221 915.802Z" fill="#DDE7FE"/>
<path d="M813.741 942.585C813.741 942.585 816.305 947.878 813.832 951.288C811.358 954.698 804.486 949.995 813.741 942.585Z" fill="#DDE7FE"/>
<path d="M974.517 1034.52C974.517 1034.52 971.481 1039.53 967.318 1039.38C963.103 1039.2 963.236 1030.83 974.517 1034.52Z" fill="#DDE7FE"/>
<path d="M902.859 1054.49C902.859 1054.49 899.823 1059.5 895.66 1059.35C891.497 1059.2 891.63 1050.83 902.859 1054.49Z" fill="#DDE7FE"/>
<path d="M818.971 1011.39C818.971 1011.39 824.782 1010.68 827.256 1014.07C829.619 1017.53 822.946 1022.56 818.971 1011.39Z" fill="#DDE7FE"/>
<path d="M862.551 918.163C862.551 918.163 868.362 917.461 870.836 920.849C873.228 924.26 866.607 929.311 862.551 918.163Z" fill="#DDE7FE"/>
<path d="M836.409 1082.96C836.409 1082.96 842.22 1082.26 844.694 1085.65C847.087 1089.06 840.413 1094.08 836.409 1082.96Z" fill="#DDE7FE"/>
<path d="M951.479 968.365C951.479 968.365 957.29 967.663 959.764 971.051C962.156 974.462 955.535 979.513 951.479 968.365Z" fill="#DDE7FE"/>
<path d="M1016.23 1011.99C1016.23 1011.99 1022.04 1011.29 1024.51 1014.67C1026.87 1018.14 1020.2 1023.16 1016.23 1011.99Z" fill="#DDE7FE"/>
<path d="M953.832 1091.92C953.832 1091.92 959.643 1091.22 962.117 1094.6C964.509 1098.01 957.836 1103.04 953.832 1091.92Z" fill="#DDE7FE"/>
<path d="M900.052 962.337C900.052 962.337 904.049 963.633 903.864 965.176C903.678 966.719 901.138 966.726 899.976 965.384C898.763 964.013 898.899 962.922 900.052 962.337Z" fill="#0B0755"/>
<path d="M1317.2 630.724C1317.2 630.724 1368.41 607.998 1358.76 587.58C1349.11 567.162 1317.2 630.724 1317.2 630.724C1315.7 627.679 1317.2 630.724 1317.2 630.724Z" fill="#85B779"/>
<path d="M1325.61 579.164C1307.44 571.653 1317.2 630.723 1317.2 630.723C1317.2 630.723 1343.81 586.624 1325.61 579.164Z" fill="#85B779"/>
<path d="M1107.42 1049.67C1107.42 1049.67 1058.62 1120.1 1087.44 1138.98C1116.29 1157.81 1107.42 1049.67 1107.42 1049.67C1111.83 1052.43 1107.42 1049.67 1107.42 1049.67Z" fill="#85B779"/>
<path d="M1137.42 1123.53C1167.15 1118.82 1107.45 1049.62 1107.45 1049.62C1107.45 1049.62 1107.69 1128.24 1137.42 1123.53Z" fill="#85B779"/>
<path d="M490.029 453.321C490.029 453.321 529.977 417.645 515.191 401.951C500.487 386.234 490.029 453.321 490.029 453.321C487.767 451.014 490.029 453.321 490.029 453.321Z" fill="#85B779"/>
<path d="M482.627 404.029C463.853 402.563 490.029 453.321 490.029 453.321C490.029 453.321 501.372 405.547 482.627 404.029Z" fill="#85B779"/>
<path d="M895.398 789.075C895.398 789.075 935.345 753.399 920.56 737.705C905.826 722.04 895.398 789.075 895.398 789.075C893.136 786.768 895.398 789.075 895.398 789.075Z" fill="#85B779"/>
<path d="M887.944 739.755C869.17 738.289 895.346 789.047 895.346 789.047C895.346 789.047 906.689 741.273 887.944 739.755Z" fill="#85B779"/>
<path d="M491.711 833.991C491.711 833.991 490.078 786.377 470.001 780.056C449.925 773.734 491.711 833.991 491.711 833.991Z" fill="#E6EFFF"/>
<path d="M228.85 843.732L229.938 847.024C403.405 832.341 534.744 864.6 536.539 865.064L537.376 861.76C535.552 861.348 403.293 828.776 228.85 843.732Z" fill="#85B779"/>
<path d="M559.495 897.73C551.154 892.472 534.528 864.134 536.013 861.745C537.499 859.357 570.24 862.184 578.581 867.442C586.921 872.7 589.459 883.746 584.163 892.155C578.897 900.512 567.836 902.987 559.495 897.73Z" fill="#E6EFFF"/>
<path d="M577.499 847.262C570.613 854.361 539.515 864.89 537.477 862.916C535.439 860.941 544.958 829.51 551.844 822.411C558.731 815.312 570.024 815.096 577.106 821.977C584.187 828.859 584.385 840.163 577.499 847.262Z" fill="#E6EFFF"/>
<path d="M537.871 818.025C541.985 827.007 540.308 859.844 537.735 861.001C535.163 862.158 509.41 841.852 505.297 832.87C501.184 823.887 505.203 813.247 514.154 809.168C523.239 805.095 533.81 809.072 537.871 818.025Z" fill="#E6EFFF"/>
<path d="M498.965 846.393C508.783 845.756 538.859 858.89 539.064 861.683C539.24 864.529 511.104 881.467 501.234 882.075C491.416 882.713 482.895 875.224 482.274 865.398C481.601 855.542 489.066 847.054 498.965 846.393Z" fill="#E6EFFF"/>
<path d="M508.797 894.174C511.948 884.829 535.472 861.854 538.18 862.764C540.835 863.645 545.859 896.145 542.709 905.49C539.558 914.835 529.433 919.9 520.073 916.813C510.713 913.726 505.646 903.518 508.797 894.174Z" fill="#E6EFFF"/>
<path d="M540.035 868.341C543.134 867.343 544.83 863.975 543.757 860.897C542.766 857.797 539.403 856.105 536.327 857.183C533.228 858.181 531.532 861.549 532.605 864.627C533.596 867.727 536.907 869.39 540.035 868.341Z" fill="#163560"/>
<path d="M404.126 816.131C393.86 827.64 346.074 846.12 342.802 843.174C339.53 840.228 352.28 790.571 362.546 779.063C372.812 767.554 390.405 766.5 401.915 776.705C413.396 786.963 414.422 804.571 404.126 816.131Z" fill="#85B779"/>
<path d="M396.835 684.573C423.75 694.686 476.366 698.366 519.354 695.305C546.134 693.394 579.309 698.732 591.949 701.474C601.89 703.653 640.406 715.92 648.948 713.052C658.088 709.972 660.544 697.488 651.025 685.454C640.307 671.781 620.268 660.537 581.254 649.637C544.058 639.281 530.657 626.841 520.938 612.977C520.714 612.645 520.491 612.312 520.238 612.032L396.835 684.573Z" fill="#FFB27D"/>
<path d="M629.76 606.087C629.76 606.087 632.997 651.586 621.216 650.359C609.434 649.133 596.605 627.058 593.738 613.561C590.894 600.145 629.76 606.087 629.76 606.087Z" fill="#E8945B"/>
<path d="M560.394 517.832C560.394 517.832 576.748 533.176 588.723 539.524C627.43 560.071 621.028 566.07 640.669 582.513C677.489 613.324 704.203 638.362 698.775 645.185C688.28 658.555 642.109 638.602 618.067 626.677C576.812 606.272 554.458 612.604 554.458 612.604L560.394 517.832Z" fill="#FFB27D"/>
<path d="M668.641 778.208L623.625 711.046L578.785 675.501L591.446 659.509L638.753 696.995L685.611 766.844L668.641 778.208Z" fill="#6F84DD"/>
<path d="M600.176 677.553C590.468 689.651 572.857 691.588 560.809 681.971L297.937 471.499C285.866 461.8 283.959 444.175 293.585 432.1C303.294 420.002 320.905 418.065 332.953 427.682L595.825 638.155C607.925 647.801 609.885 665.455 600.176 677.553Z" fill="#2B478B"/>
<path d="M960.962 979.007C888.803 997.804 803.53 953.51 803.53 953.51L577.662 798.534C570.196 793.427 573.225 781.747 582.25 780.937L677.14 772.501L710.252 718.339C714.01 712.29 721.957 710.596 727.819 714.66C764.082 740.145 882.565 824.679 920.596 866.336C965.63 915.861 960.962 979.007 960.962 979.007Z" fill="#8C9DF4"/>
<path d="M960.962 979.007L677.14 772.501L710.252 718.339C714.01 712.29 721.957 710.596 727.818 714.66C764.082 740.145 882.565 824.679 920.595 866.336C965.63 915.861 960.962 979.007 960.962 979.007Z" fill="#6F84DD"/>
<path d="M233.639 695.51C233.639 695.51 284.648 668.893 325.675 671.249C373.554 673.971 419.147 700.533 450.13 701.133C472.433 701.569 494.816 695.185 540.913 695.115L501.062 633.616C501.062 633.616 492.705 614.547 578.863 611.138C650.07 608.352 578.913 485.028 422.029 456.133C403.594 452.73 358.631 466.211 324.402 488.842C274.82 521.552 250.303 527.83 158.613 553.18L233.639 695.51Z" fill="#FFB27D"/>
<path d="M504.225 539.75C515.013 544.192 527.317 546.194 544.312 548.991C552.398 550.329 561.574 551.801 572.218 553.827C605.901 560.208 639.46 582.105 642.024 584.24L642.51 583.622C639.975 581.435 606.209 559.42 572.341 553.004C561.696 550.977 552.52 549.505 544.405 548.219C527.462 545.452 515.21 543.479 504.474 539.066L504.225 539.75Z" fill="#EA8F7D"/>
<path d="M479.742 491.94C492.632 499.217 523.321 511.872 548.355 522.16C567.499 530.014 584.023 536.802 586.253 538.679L586.739 538.061C584.427 536.206 568.638 529.696 548.686 521.454C521.662 510.318 488.013 496.472 477.399 489.656L476.965 490.304C477.745 490.744 478.651 491.324 479.742 491.94Z" fill="#EA8F7D"/>
<path d="M90.924 588.097C88.1152 602.785 86.6736 618.451 86.9403 635.218C87.8178 691.332 109.296 749.806 146.56 799.133C167.23 778.667 185.295 760.506 199.755 745.941C222.281 723.157 235.825 709.243 235.825 709.243C237.541 707.053 238.967 704.768 240.157 702.418C241.765 699.206 242.979 695.841 243.719 692.344C243.857 691.736 243.966 691.179 244.104 690.57C249.414 661.982 229.221 626 208.998 598.448C193.052 576.674 177.129 560.201 173.7 556.685C173.268 556.235 173.038 556.037 173.038 556.037C173.038 556.037 169.245 557.535 162.235 560.238C153.126 563.748 138.613 569.425 120.033 576.72C111.168 580.161 101.453 584.015 90.924 588.097Z" fill="#F99746"/>
<path d="M119.982 576.69C119.982 576.69 123.781 645.233 135.672 681.473L166.397 685.565L148.323 704.956C148.323 704.956 178.638 745.348 196.121 749.587L245.421 696.737L191.173 550.137L119.982 576.69Z" fill="#ED7D2B"/>
<path d="M227.007 533.767C227.007 533.767 172.16 539.746 114.955 555.243C114.955 555.243 132.165 633.417 149.165 667.528L220.041 660.229L171.015 703.003C171.015 703.003 191.009 742.374 207.755 752.652C207.755 752.652 246.026 707.927 272.299 679.842C272.276 679.761 211.398 586.548 227.007 533.767Z" fill="#EEF5FF"/>
<path d="M151.374 619.545C154.367 616.428 159.292 616.324 162.43 619.263C165.539 622.254 165.635 627.184 162.694 630.33C159.7 633.447 154.776 633.551 151.637 630.611C148.528 627.62 148.381 622.662 151.374 619.545Z" fill="#F99746"/>
<path d="M965.923 942.051C965.923 942.051 945.827 931.393 926.898 941.856C926.898 941.856 922.64 932.037 907.113 934.532C891.556 937.079 892.286 953.147 907.493 963.724C907.493 963.724 895.057 961.715 892.57 973.77C892.57 973.77 859.586 989.825 872.526 1010.25C885.496 1030.61 939.552 1018.15 940.307 1018.02C941.062 1017.9 964.831 1008.45 965.953 1007.44C967.074 1006.42 969.537 983.849 969.537 983.849L965.923 942.051Z" fill="#163560"/>
<path d="M881.864 944.17C881.864 944.17 885.345 935.697 877.093 928.704C868.811 921.763 864.091 924.661 864.091 924.661C864.091 924.661 862.035 916.77 852.692 914.38C843.379 911.938 842.363 921.871 842.363 921.871C842.363 921.871 836.488 918.073 831.903 926.196C827.317 934.319 839.968 944.689 839.968 944.689C839.968 944.689 838.995 949.083 845.878 954.617C845.878 954.617 841.182 962.815 863.638 971.235C886.065 979.707 878.223 959.967 878.223 959.967C878.223 959.967 885.073 953.054 881.864 944.17Z" fill="#163560"/>
<path d="M856.961 893.584C856.961 893.584 858.366 888.06 849.653 882.248C840.939 876.437 832.793 879.941 832.793 879.941C832.793 879.941 836.094 867.659 822.618 863.485C822.618 863.485 815.339 845.299 793.595 840.715C793.595 840.715 771.246 821.3 763.257 828.531C755.319 835.793 789.327 852.038 789.327 852.038C789.327 852.038 788.416 860.451 806.58 872.833C806.58 872.833 802.376 880.279 823.402 890.02C823.506 890.079 852.035 915.18 856.961 893.584Z" fill="#163560"/>
<path d="M792.185 868.345C792.185 868.345 801.048 871.22 800.582 874.596C800.167 878.002 794.576 878.072 791.948 875.078C789.372 872.114 789.68 869.747 792.185 868.345Z" fill="#163560"/>
<path d="M842.783 874.87C842.311 875.222 838.157 876.996 836.901 874.365C835.593 871.704 833.678 864.168 838.467 865.155C843.204 866.113 846.667 872.119 842.783 874.87Z" fill="#163560"/>
<path d="M877.959 417.501C877.959 417.501 872.674 378.056 902.473 353.68C902.473 353.68 913.75 383.117 877.959 417.501Z" fill="#82B378"/>
<path d="M692.558 519.984C671.528 444.158 715.917 365.527 791.704 344.357C867.491 323.187 945.977 367.494 967.007 443.32C988.037 519.146 943.647 597.777 867.86 618.947C792.073 640.117 713.588 595.81 692.558 519.984Z" fill="#F99746"/>
<path d="M703.893 516.818C684.6 447.255 725.323 375.119 794.85 355.697C864.377 336.276 936.379 376.923 955.672 446.486C974.965 516.049 934.242 588.185 864.715 607.607C795.188 627.028 723.185 586.38 703.893 516.818Z" fill="#163560"/>
<path d="M814.377 471.972C814.377 471.972 816.627 476.606 814.47 479.578C812.261 482.519 806.266 478.448 814.377 471.972Z" fill="#DDE7FE"/>
<path d="M814.362 428.292C814.362 428.292 816.339 433.047 813.974 435.901C811.638 438.702 805.879 434.215 814.362 428.292Z" fill="#DDE7FE"/>
<path d="M861.901 394.224C861.901 394.224 867.018 394.023 868.861 397.192C870.734 400.309 864.545 404.231 861.901 394.224Z" fill="#DDE7FE"/>
<path d="M731.116 436.984C731.116 436.984 733.366 441.619 731.209 444.59C729 447.532 723.005 443.461 731.116 436.984Z" fill="#DDE7FE"/>
<path d="M894.949 501.526C894.949 501.526 892.317 505.945 888.636 505.789C884.983 505.582 885.114 498.308 894.949 501.526Z" fill="#DDE7FE"/>
<path d="M795.93 509.142C795.93 509.142 793.298 513.561 789.616 513.406C785.964 513.198 786.095 505.925 795.93 509.142Z" fill="#DDE7FE"/>
<path d="M760.018 462.639C760.018 462.639 765.103 462.008 767.25 465.004C769.344 467.972 763.505 472.366 760.018 462.639Z" fill="#DDE7FE"/>
<path d="M768.194 400.443C768.194 400.443 773.279 399.812 775.425 402.809C777.52 405.777 771.681 410.171 768.194 400.443Z" fill="#DDE7FE"/>
<path d="M761.117 568.867C761.117 568.867 766.202 568.236 768.348 571.233C770.413 574.253 764.604 578.595 761.117 568.867Z" fill="#DDE7FE"/>
<path d="M867.88 456.72C867.88 456.72 872.966 456.089 875.112 459.086C877.206 462.053 871.367 466.448 867.88 456.72Z" fill="#DDE7FE"/>
<path d="M893.54 512.885C893.54 512.885 898.626 512.254 900.772 515.251C902.866 518.219 897.027 522.613 893.54 512.885Z" fill="#DDE7FE"/>
<path d="M893.717 559.679C893.717 559.679 898.802 559.047 900.948 562.044C903.042 565.012 897.203 569.407 893.717 559.679Z" fill="#DDE7FE"/>
<path d="M809.423 515.592C812.278 523.04 832.124 540.698 834.224 539.892C836.324 539.086 839.251 512.654 836.396 505.206C833.541 497.758 825.148 494.05 817.703 496.919C810.257 499.789 806.517 508.114 809.423 515.592Z" fill="#F3F8FF"/>
<path d="M852.234 509.204C845.543 513.529 832.306 536.612 833.544 538.547C834.782 540.482 861.226 537.832 867.917 533.507C874.608 529.181 876.538 520.178 872.227 513.487C867.865 506.767 858.925 504.878 852.234 509.204Z" fill="#F3F8FF"/>
<path d="M869.161 545.265C862.66 540.634 836.387 536.789 835.062 538.65C833.738 540.511 845.818 564.154 852.29 568.837C858.791 573.469 867.798 571.962 872.487 565.476C877.124 558.962 875.662 549.897 869.161 545.265Z" fill="#F3F8FF"/>
<path d="M840.593 571.709C842.618 563.995 836.964 538.074 834.776 537.457C832.559 536.892 814.737 556.564 812.683 564.33C810.658 572.045 815.226 579.98 822.93 581.994C830.605 584.061 838.539 579.476 840.593 571.709Z" fill="#F3F8FF"/>
<path d="M804.264 556.419C812.177 555.393 834.07 540.286 833.756 538.049C833.443 535.812 808.562 526.71 800.597 527.706C792.684 528.733 787.072 536.002 788.085 543.921C789.149 551.869 796.351 557.445 804.264 556.419Z" fill="#F3F8FF"/>
<path d="M830.576 541.388C828.641 539.597 828.523 536.571 830.314 534.629C832.105 532.687 835.126 532.565 837.062 534.356C838.997 536.147 839.115 539.173 837.324 541.115C835.533 543.057 832.512 543.179 830.576 541.388Z" fill="#F99746"/>
<path d="M853.617 458.555L852.367 457.369C853.104 456.549 940.285 374.477 1010.48 372.765L1010.93 374.26C942.136 375.934 854.487 457.742 853.617 458.555Z" fill="#82B378"/>
<path d="M800.604 472.575L800.612 470.863C799.782 470.875 709.356 478.81 671.895 529.143L672.441 530.481C709.211 481.131 799.694 472.61 800.604 472.575Z" fill="#82B378"/>
<path d="M588.122 455.482L587.353 454.294C629.29 427.842 670.591 369.858 697.951 331.47C705.584 320.742 712.15 311.539 717.033 305.438C730.564 288.632 770.484 263.446 810.344 259.856C833.821 257.728 853.324 263.245 868.276 276.217C914.744 316.526 888.505 363.855 888.24 364.324L886.993 363.62C887.257 363.151 912.856 316.834 867.31 277.32C852.693 264.605 833.531 259.212 810.484 261.308C771.024 264.918 731.495 289.776 718.163 306.351C713.338 312.348 706.743 321.602 699.139 332.279C671.698 370.689 630.309 428.83 588.122 455.482Z" fill="#82B378"/>
<path d="M669.956 371.834C669.956 371.834 685.961 390.345 678.766 412.925C678.766 412.925 663.088 401.603 669.956 371.834Z" fill="#82B378"/>
<path d="M652.359 393.898C652.359 393.898 664.673 415.063 653.501 435.947C653.53 435.895 640.181 421.904 652.359 393.898Z" fill="#82B378"/>
<path d="M628.266 420.67C628.266 420.67 633.916 440.408 620.493 455.078C620.464 455.13 612.528 440.9 628.266 420.67Z" fill="#82B378"/>
<path d="M609.5 439.467C609.5 439.467 609.628 460.001 592.78 470.541C592.78 470.541 588.911 454.692 609.5 439.467Z" fill="#82B378"/>
<path d="M593.649 450.911C593.649 450.911 583.693 468.911 563.863 469.801C563.833 469.853 568.245 454.147 593.649 450.911Z" fill="#82B378"/>
<path d="M609.374 439.326C609.374 439.326 591.749 449.908 574.14 440.791C574.192 440.821 585.844 429.408 609.374 439.326Z" fill="#82B378"/>
<path d="M628.266 420.671C628.266 420.671 610.642 431.252 593.034 422.135C593.004 422.188 604.656 410.775 628.266 420.671Z" fill="#82B378"/>
<path d="M652.4 393.096C652.4 393.096 636.772 406.452 617.889 400.324C617.889 400.324 627.489 387.204 652.4 393.096Z" fill="#82B378"/>
<path d="M669.926 371.885C669.926 371.885 651.782 387.392 629.872 380.31C629.82 380.281 641.055 364.994 669.926 371.885Z" fill="#82B378"/>
<path d="M691.557 340.976C691.557 340.976 710.497 356.474 707.349 379.897C707.349 379.897 689.921 371.432 691.557 340.976Z" fill="#82B378"/>
<path d="M691.527 341.026C691.527 341.026 676.285 359.407 653.481 356.215C653.481 356.215 661.887 339.262 691.527 341.026Z" fill="#82B378"/>
<path d="M718.57 304.657C718.57 304.657 735.276 322.534 729.059 345.323C729.059 345.323 712.896 334.619 718.57 304.657Z" fill="#82B378"/>
<path d="M718.489 304.68C718.489 304.68 700.977 320.887 678.783 314.674C678.835 314.704 689.341 299.006 718.489 304.68Z" fill="#82B378"/>
<path d="M753.102 278.696C753.102 278.696 761.691 301.604 747.206 320.343C747.206 320.343 736.343 304.255 753.102 278.696Z" fill="#82B378"/>
<path d="M753.021 278.719C753.021 278.719 730.675 286.978 712.526 272.75C712.526 272.75 728.3 262.291 753.021 278.719Z" fill="#82B378"/>
<path d="M792.441 262.795C792.441 262.795 796.041 292.842 773.213 311.061C773.236 311.142 764.892 288.648 792.441 262.795Z" fill="#82B378"/>
<path d="M792.36 262.817C792.36 262.817 763.098 266.211 745.527 243.794C745.497 243.846 767.481 235.864 792.36 262.817Z" fill="#82B378"/>
<path d="M835.249 260.66C835.249 260.66 834.503 294.641 806.218 311.357C806.218 311.357 800.532 285.007 835.249 260.66Z" fill="#82B378"/>
<path d="M835.167 260.683C835.167 260.683 802.087 259.793 786.07 232.074C786.018 232.045 811.746 226.656 835.167 260.683Z" fill="#82B378"/>
<path d="M871.737 280.161C871.737 280.161 858.166 311.364 825.628 316.067C825.628 316.067 830.377 289.565 871.737 280.161Z" fill="#82B378"/>
<path d="M871.602 280.154C871.602 280.154 841.324 266.769 837.036 235.029C837.036 235.029 862.861 239.789 871.602 280.154Z" fill="#82B378"/>
<path d="M894.616 338.946C894.616 338.946 866.022 337.635 854.202 312.56C854.202 312.56 876.831 308.169 894.616 338.946Z" fill="#82B378"/>
<path d="M894.645 338.894C894.645 338.894 897.991 310.021 922.55 296.626C922.499 296.596 925.064 319.125 894.645 338.894Z" fill="#82B378"/>
<path d="M712.131 687.813L712.87 689.054C756.038 664.671 826.589 655.884 873.327 650.066C886.378 648.438 897.599 647.014 905.237 645.626C926.424 641.725 967.501 618.496 989.661 585.07C1002.7 565.375 1007.16 545.577 1002.85 526.254C989.557 466.152 935.575 466.714 935.012 466.739L935.018 468.185C935.581 468.159 988.438 467.649 1001.44 526.559C1005.61 545.527 1001.25 564.902 988.472 584.261C966.57 617.353 925.907 640.334 904.964 644.167C897.378 645.584 886.186 646.956 873.136 648.584C826.368 654.455 755.602 663.258 712.131 687.813Z" fill="#82B378"/>
<path d="M824.58 655.438C824.58 655.438 815.91 632.553 792.715 628.111C792.663 628.081 795.156 647.341 824.58 655.438Z" fill="#82B378"/>
<path d="M796.813 660.431C796.813 660.431 784.085 639.513 760.481 639.439C760.481 639.439 766.436 657.907 796.813 660.431Z" fill="#82B378"/>
<path d="M761.781 668.944C761.781 668.944 747.113 654.621 727.885 659.422C727.855 659.474 736.537 673.233 761.781 668.944Z" fill="#82B378"/>
<path d="M736.419 676.599C736.419 676.599 718.422 666.713 701.157 676.536C701.157 676.536 713.248 687.413 736.419 676.599Z" fill="#82B378"/>
<path d="M718.792 685.121C718.792 685.121 698.247 685.334 688.02 702.357C687.968 702.328 703.827 705.924 718.792 685.121Z" fill="#82B378"/>
<path d="M736.441 676.682C736.441 676.682 718.741 687.152 718.37 706.993C718.422 707.022 733.962 702.199 736.441 676.682Z" fill="#82B378"/>
<path d="M761.782 668.944C761.782 668.944 744.082 679.414 743.711 699.255C743.763 699.284 759.302 694.461 761.782 668.944Z" fill="#82B378"/>
<path d="M797.489 660.812C797.489 660.812 778.339 668.266 774.722 687.785C774.722 687.785 790.851 685.561 797.489 660.812Z" fill="#82B378"/>
<path d="M824.497 655.461C824.497 655.461 802.294 664.075 798.062 686.749C798.032 686.801 816.774 684.197 824.497 655.461Z" fill="#82B378"/>
<path d="M861.911 651.106C861.911 651.106 857.339 627.033 835.253 618.684C835.253 618.684 834.369 638.098 861.911 651.106Z" fill="#82B378"/>
<path d="M861.83 651.13C861.83 651.13 838.439 655.778 830.409 677.407C830.409 677.407 849.277 678.101 861.83 651.13Z" fill="#82B378"/>
<path d="M906.654 644.573C906.654 644.573 898.937 621.335 875.924 615.965C875.924 615.965 877.61 635.318 906.654 644.573Z" fill="#82B378"/>
<path d="M906.624 644.625C906.624 644.625 884.039 652.338 878.932 674.861C878.88 674.831 897.714 673.035 906.624 644.625Z" fill="#82B378"/>
<path d="M945.835 626.523C945.835 626.523 929.8 608.063 906.45 611.91C906.479 611.858 915.466 629.084 945.835 626.523Z" fill="#82B378"/>
<path d="M945.806 626.575C945.806 626.575 927.915 642.361 931.756 665.06C931.756 665.06 948.44 656.145 945.806 626.575Z" fill="#82B378"/>
<path d="M978.504 599.371C978.504 599.371 953.838 581.876 926.944 593.335C926.944 593.335 942.733 611.381 978.504 599.371Z" fill="#82B378"/>
<path d="M978.444 599.478C978.444 599.478 961.568 623.666 972.852 649.812C972.852 649.812 990.277 634.242 978.444 599.478Z" fill="#82B378"/>
<path d="M1000.78 562.712C1000.78 562.712 970.556 547.162 942.442 564.182C942.442 564.182 962.909 581.711 1000.78 562.712Z" fill="#82B378"/>
<path d="M1000.74 562.769C1000.74 562.769 985.758 592.35 1002.49 619.649C1002.49 619.649 1019.42 599.613 1000.74 562.769Z" fill="#82B378"/>
<path d="M1000.99 521.291C1000.99 521.291 967.133 518.381 947.549 544.816C947.549 544.816 973.078 553.255 1000.99 521.291Z" fill="#82B378"/>
<path d="M1000.96 521.346C1000.96 521.346 998.337 554.403 1024.14 573.293C1024.14 573.293 1032.25 548.35 1000.96 521.346Z" fill="#82B378"/>
<path d="M960.326 473.133C960.326 473.133 947.886 498.933 964.257 521.289C964.205 521.26 978.857 503.439 960.326 473.133Z" fill="#82B378"/>
<path d="M960.378 473.163C960.378 473.163 987.311 483.973 1010.74 468.702C1010.74 468.702 992.2 455.765 960.378 473.163Z" fill="#82B378"/>
<path d="M988.286 555.455C989.77 559.382 1000.23 568.653 1001.3 568.224C1002.41 567.824 1003.95 553.929 1002.47 550.002C1000.98 546.074 996.591 544.144 992.665 545.635C988.738 547.127 986.803 551.527 988.286 555.455Z" fill="#F3F8FF"/>
<path d="M1010.76 552.073C1007.22 554.333 1000.29 566.488 1000.96 567.485C1001.63 568.482 1015.5 567.109 1019.03 564.848C1022.57 562.588 1023.59 557.875 1021.28 554.308C1019 550.822 1014.29 549.813 1010.76 552.073Z" fill="#F3F8FF"/>
<path d="M1019.65 571.035C1016.25 568.565 1002.42 566.594 1001.76 567.525C1001.07 568.508 1007.41 580.947 1010.79 583.336C1014.19 585.806 1018.97 584.999 1021.39 581.559C1023.83 578.201 1023.09 573.453 1019.65 571.035Z" fill="#F3F8FF"/>
<path d="M1004.67 584.959C1005.73 580.89 1002.74 567.253 1001.6 566.956C1000.47 566.658 991.061 577.005 989.998 581.074C988.935 585.143 991.316 589.302 995.379 590.36C999.443 591.418 1003.55 588.999 1004.67 584.959Z" fill="#F3F8FF"/>
<path d="M985.558 576.917C989.703 576.374 1001.18 568.431 1001.02 567.246C1000.87 566.061 987.8 561.291 983.603 561.806C979.458 562.35 976.482 566.163 977.019 570.311C977.608 574.489 981.413 577.461 985.558 576.917Z" fill="#F3F8FF"/>
<path d="M998.923 565.992C999.599 564.795 1001.15 564.363 1002.34 565.038C1003.54 565.713 1003.96 567.259 1003.29 568.457C1002.61 569.655 1001.07 570.087 999.871 569.412C998.676 568.737 998.217 567.242 998.923 565.992Z" fill="#F99746"/>
<path d="M660.504 504.033C662.961 510.364 679.788 525.357 681.615 524.671C683.441 523.986 685.897 501.545 683.469 495.162C681.012 488.831 673.954 485.671 667.574 488.111C661.245 490.581 658.047 497.702 660.504 504.033Z" fill="#F3F8FF"/>
<path d="M696.876 498.611C691.152 502.315 679.937 521.939 681.003 523.571C682.069 525.203 704.509 522.97 710.232 519.266C715.956 515.562 717.574 507.961 713.882 502.238C710.191 496.515 702.599 494.907 696.876 498.611Z" fill="#F3F8FF"/>
<path d="M711.298 529.275C705.777 525.335 683.485 522.089 682.336 523.638C681.239 525.216 691.468 545.341 696.988 549.281C702.508 553.222 710.139 551.968 714.136 546.465C718.059 540.852 716.818 533.216 711.298 529.275Z" fill="#F3F8FF"/>
<path d="M687.023 551.757C688.749 545.179 683.911 523.153 682.065 522.66C680.219 522.167 665.006 538.916 663.28 545.495C661.554 552.073 665.435 558.796 672.004 560.514C678.522 562.202 685.245 558.307 687.023 551.757Z" fill="#F3F8FF"/>
<path d="M656.191 538.747C662.92 537.876 681.49 525.013 681.267 523.102C681.043 521.191 659.835 513.475 653.106 514.346C646.378 515.216 641.598 521.376 642.457 528.109C643.317 534.843 649.463 539.617 656.191 538.747Z" fill="#F3F8FF"/>
<path d="M679.268 526.644C677.316 525.542 676.628 523.063 677.732 521.108C678.836 519.152 681.314 518.46 683.265 519.562C685.217 520.664 685.905 523.143 684.801 525.098C683.697 527.054 681.22 527.746 679.268 526.644Z" fill="#F99746"/>
<path d="M910.737 438.959C912.557 443.626 924.959 454.679 926.32 454.211C927.629 453.714 929.467 437.104 927.698 432.467C925.878 427.8 920.676 425.481 915.958 427.281C911.27 429.029 908.916 434.292 910.737 438.959Z" fill="#F3F8FF"/>
<path d="M937.597 434.965C933.394 437.674 925.089 452.144 925.909 453.362C926.677 454.551 943.283 452.938 947.433 450.2C951.635 447.491 952.832 441.85 950.133 437.648C947.433 433.446 941.799 432.256 937.597 434.965Z" fill="#F3F8FF"/>
<path d="M948.207 457.57C944.158 454.666 927.653 452.215 926.843 453.406C925.982 454.568 933.565 469.424 937.614 472.328C941.663 475.231 947.325 474.308 950.262 470.198C953.222 466.169 952.308 460.503 948.207 457.57Z" fill="#F3F8FF"/>
<path d="M930.297 474.241C931.587 469.407 928.034 453.119 926.662 452.757C925.29 452.394 914.073 464.738 912.783 469.572C911.493 474.406 914.367 479.393 919.194 480.676C924.021 481.959 929.008 479.075 930.297 474.241Z" fill="#F3F8FF"/>
<path d="M907.503 464.599C912.455 463.961 926.174 454.471 926.005 453.071C925.836 451.671 910.191 445.997 905.187 446.606C900.235 447.243 896.714 451.779 897.314 456.787C898.025 461.72 902.551 465.237 907.503 464.599Z" fill="#F3F8FF"/>
<path d="M923.405 451.605C924.228 450.147 926.018 449.647 927.474 450.469C928.929 451.29 929.426 453.081 928.602 454.539C927.779 455.997 925.989 456.497 924.534 455.676C923.131 454.883 922.612 453.011 923.405 451.605Z" fill="#F99746"/>
<path d="M985.27 357.438C987.09 362.105 999.493 373.158 1000.85 372.69C1002.16 372.193 1004 355.584 1002.23 350.946C1000.41 346.279 995.209 343.96 990.492 345.761C985.804 347.509 983.479 352.719 985.27 357.438Z" fill="#F3F8FF"/>
<path d="M1012.13 353.444C1007.93 356.153 999.622 370.622 1000.44 371.84C1001.21 373.029 1017.82 371.417 1021.97 368.679C1026.17 365.97 1027.37 360.328 1024.67 356.126C1021.91 351.895 1016.36 350.683 1012.13 353.444Z" fill="#F3F8FF"/>
<path d="M1022.74 376.05C1018.69 373.146 1002.19 370.695 1001.38 371.886C1000.51 373.048 1008.1 387.904 1012.15 390.807C1016.2 393.711 1021.86 392.788 1024.8 388.678C1027.75 384.65 1026.79 378.954 1022.74 376.05Z" fill="#F3F8FF"/>
<path d="M1004.81 392.638C1006.1 387.804 1002.54 371.516 1001.17 371.154C999.8 370.791 988.582 383.135 987.293 387.969C986.003 392.803 988.877 397.79 993.704 399.073C998.583 400.386 1003.52 397.472 1004.81 392.638Z" fill="#F3F8FF"/>
<path d="M982.065 383.026C987.017 382.388 1000.74 372.898 1000.57 371.498C1000.4 370.098 984.753 364.425 979.749 365.033C974.797 365.671 971.277 370.207 971.876 375.214C972.558 380.199 977.113 383.664 982.065 383.026Z" fill="#F3F8FF"/>
<path d="M997.969 370.032C998.792 368.574 1000.58 368.074 1002.04 368.895C1003.49 369.717 1003.99 371.508 1003.17 372.966C1002.34 374.424 1000.55 374.924 999.098 374.102C997.642 373.281 997.146 371.49 997.969 370.032Z" fill="#F99746"/>
<path d="M800.899 363.151C803.214 369.127 819.067 383.295 820.812 382.632C822.505 381.94 824.841 360.805 822.555 354.777C820.24 348.801 813.547 345.846 807.602 348.121C801.576 350.418 798.614 357.123 800.899 363.151Z" fill="#F3F8FF"/>
<path d="M835.198 358C829.806 361.479 819.238 379.957 820.2 381.531C821.192 383.052 842.394 380.945 847.786 377.465C853.177 373.986 854.693 366.808 851.225 361.417C847.758 356.026 840.589 354.52 835.198 358Z" fill="#F3F8FF"/>
<path d="M848.826 386.913C843.617 383.149 822.57 380.124 821.532 381.599C820.494 383.073 830.14 402.045 835.348 405.809C840.557 409.574 847.758 408.352 851.527 403.132C855.192 397.854 853.983 390.648 848.826 386.913Z" fill="#F3F8FF"/>
<path d="M825.901 408.097C827.555 401.89 822.974 381.108 821.18 380.644C819.386 380.181 805.132 395.96 803.478 402.168C801.824 408.375 805.511 414.714 811.71 416.359C817.909 418.005 824.247 414.305 825.901 408.097Z" fill="#F3F8FF"/>
<path d="M796.822 395.869C803.173 395.059 820.717 382.922 820.487 381.144C820.286 379.314 800.257 372.058 793.905 372.867C787.554 373.677 783.033 379.501 783.883 385.886C784.629 392.213 790.47 396.678 796.822 395.869Z" fill="#F3F8FF"/>
<path d="M817.108 379.238C818.137 377.415 820.497 376.756 822.316 377.783C824.135 378.81 824.79 381.171 823.761 382.993C822.732 384.816 820.372 385.475 818.553 384.448C816.734 383.421 816.079 381.06 817.108 379.238Z" fill="#F99746"/>
<path d="M764.473 478.544C764.473 478.544 763.005 518.296 729.575 537.328C729.546 537.38 723.373 506.429 764.473 478.544Z" fill="#82B378"/>
<path d="M738.283 485.114C738.283 485.114 698.576 483.092 680.141 449.338C680.141 449.338 711.155 443.569 738.283 485.114Z" fill="#82B378"/>
<path d="M946.55 392.641C946.55 392.641 944.198 373.255 960.607 360.82C960.63 360.902 966.366 375.264 946.55 392.641Z" fill="#82B378"/>
<path d="M1289.38 703.32C1289.38 703.32 1237.64 711.808 1218.12 688.225C1211 679.601 1206.23 668.258 1203.56 657.206C1201.45 648.671 1200.62 640.306 1200.76 633.515C1200.93 624.958 1202.79 618.868 1206.01 618.011C1215.02 615.54 1289.38 703.32 1289.38 703.32Z" fill="#F6A56E"/>
<path d="M1203.51 657.177C1201.4 648.642 1200.57 640.277 1200.7 633.485C1207.96 640.536 1234.37 666.843 1240.71 682.092C1245.68 694.035 1219.95 673.81 1203.51 657.177Z" fill="#F6A56E"/>
<path d="M1294.3 1256.72C1290.1 1238.9 1287.05 1261.42 1279.38 1216.37C1277.44 1205.12 1265.83 1177.62 1264.46 1167.16L1264.44 1167.08C1264.47 1167.03 1264.47 1167.03 1264.45 1166.95C1264.22 1165.17 1263.96 1163.45 1263.78 1161.7C1262.93 1154.7 1262.23 1148.05 1261.8 1141.9C1260.99 1131.07 1263.35 1119.23 1267.63 1107.16C1272.44 1093.66 1279.78 1079.82 1288.18 1066.5C1294.67 1056.23 1301.81 1046.25 1308.94 1037.02C1331.84 1007.38 1354.46 985.402 1354.46 985.402C1354.46 985.402 1354.48 985.484 1354.51 985.565C1354.8 988.202 1359.69 1032.71 1364.03 1049.31C1369.41 1069.65 1421.51 1167.72 1421.51 1167.72C1421.51 1167.72 1295.42 1261.41 1294.3 1256.72Z" fill="#FFB27D"/>
<path d="M1352.48 1023.76C1352.48 1023.76 1338.49 1073.55 1318.5 1078.6C1298.46 1083.63 1245.72 1036.83 1213.25 971.12C1180.78 905.41 1280.03 780.097 1280.03 780.097C1273.27 781.154 1239.58 758.019 1209.34 736.687C1183.33 718.295 1159.76 701.282 1158.11 702.137C1155.75 703.412 1117.88 703.595 1084.01 702.398C1066.53 701.798 1050.13 700.852 1040.2 699.503C1021.11 696.897 1012.15 684.007 1008.2 675.461C1006.13 670.996 1005.47 667.671 1005.47 667.671C1005.47 667.671 1028.37 662.062 1058.03 656.279C1096.91 648.706 1147.46 640.989 1173.42 645.273C1219.31 652.848 1314.53 718.618 1341.51 740.511C1368.6 762.462 1352.48 1023.76 1352.48 1023.76Z" fill="#FFB27D"/>
<path d="M1293.77 751.392C1295.55 755.281 1255.46 747.137 1209.34 736.688C1183.33 718.296 1159.76 701.283 1158.11 702.138C1155.75 703.412 1117.88 703.596 1084.01 702.398C1097.58 695.229 1132.48 677.368 1178.83 687.535C1236.81 700.286 1289.66 742.41 1293.77 751.392Z" fill="#F6A56E"/>
<path d="M1318.16 723.001L1302.93 994.49C1302.93 994.49 1127.78 935.435 1200.31 909.297C1217.33 903.182 1216.66 886.528 1216.64 876.491C1216.61 860.752 1216.16 846.01 1215.52 833.425C1214.25 808.124 1201.2 784.969 1180.28 770.683C1155.55 753.773 1123.52 735.002 1099.63 746.237C1074.24 758.199 1056.46 773.429 1033.99 762.6C1030.39 760.842 1023.22 752.056 1023.22 752.056L1087.16 711.387C1104.59 700.422 1118.89 695.242 1135.49 697.537L1318.16 723.001Z" fill="#FFB27D"/>
<path d="M1210.71 777.97C1210.71 777.97 1318.44 736.823 1334.76 743.494C1351.08 750.164 1385.21 768.611 1391.95 802.56C1398.75 836.54 1378.81 878.293 1378.81 878.293C1378.81 878.293 1357.89 867.996 1334.46 823.182C1311.03 778.368 1327.42 752.604 1322.38 751.337C1317.34 750.07 1215.49 783.346 1215.49 783.346L1210.71 777.97Z" fill="#A8D29F"/>
<path d="M1129.89 687.784C1129.89 687.784 1239.68 578.035 1225.34 530.594C1211 483.153 1164.75 474.757 1139.28 488.188C1113.81 501.618 1067.83 545.426 1046.43 550.922C1046.43 550.922 1094.54 597.308 1133.87 570.62C1173.19 543.933 1215.55 538.593 1217.1 544.959C1218.64 551.325 1205.73 606.862 1124.4 681.597L1129.89 687.784Z" fill="#82B378"/>
<path d="M1184.65 748.844C1184.65 748.844 1340.88 643.057 1389.35 657.237C1437.85 671.364 1486.13 725.332 1487.88 727.212C1489.6 729.144 1443.83 737.5 1394.43 724.105C1345.09 710.738 1323.87 679.737 1317.61 681.969C1258.69 703.296 1191.46 756.461 1191.46 756.461L1184.65 748.844Z" fill="#A8D29F"/>
<path d="M1172.84 735.654C1172.84 735.654 1262.97 656.137 1289.01 672.416C1314.99 688.665 1319.23 742.832 1293.1 776.972C1293.1 776.972 1276.91 800.926 1275.75 814.626C1275.75 814.626 1254.54 804.982 1242.93 785.244C1231.28 765.557 1237.58 734.501 1252.91 718.989C1268.28 703.425 1284.54 677.654 1280.67 676.017C1276.71 674.402 1264.97 677.594 1249.3 686.533C1233.58 695.442 1178.05 741.479 1178.05 741.479L1172.84 735.654Z" fill="#82B378"/>
<path d="M1161.99 723.553C1161.99 723.553 1277.12 643.455 1293.57 616.624C1310.01 589.792 1300.03 540.212 1279.62 515.433C1279.62 515.433 1253.13 543.533 1240.51 566.005C1227.95 588.506 1261.41 634.246 1253.81 642.728C1246.27 651.24 1157.49 718.405 1157.49 718.405L1161.99 723.553Z" fill="#A8D29F"/>
<path d="M1148.53 708.54C1148.53 708.54 1189.9 682.73 1197.67 674.069C1205.49 665.437 1211.31 643.11 1208.99 631.915C1208.99 631.915 1189.58 650.276 1178.5 654.116C1167.43 657.956 1166.87 692.321 1164.02 694.214C1161.17 696.106 1145.78 705.406 1145.78 705.406L1148.53 708.54Z" fill="#82B378"/>
<path d="M1022.65 817.652L1077.73 878.274C1109.98 913.783 1164.92 916.373 1200.45 884.037L1264.58 825.686C1264.58 825.686 1265.71 818.221 1242.3 801.163C1230.93 792.891 1216.46 762.064 1207.47 751.287C1184.54 723.921 1156.15 725.404 1140.6 689.091C1122.78 647.445 1092.76 636.402 1092.76 636.402L1028.63 694.753C993.022 727.112 990.399 782.143 1022.65 817.652Z" fill="#163560"/>
<path d="M1264.55 825.737C1264.55 825.737 1264.71 835.166 1256.55 839.901C1256.55 839.901 1251.53 851.829 1238.57 853.783C1238.57 853.783 1220.9 887.272 1203.54 890.586C1186.15 893.819 1184.27 895.573 1184.27 895.573C1184.27 895.573 1169.61 909.405 1158.81 909.833C1148.02 910.262 1143.97 906.742 1143.97 906.742C1143.97 906.742 1127.41 913.255 1113.59 906.414C1099.77 899.573 1097.58 897.377 1097.58 897.377C1097.58 897.377 1082.81 892.951 1071.41 878.548C1060 864.146 1060 858.927 1060 858.927C1060 858.927 1048.79 853.419 1043.15 846.047C1037.51 838.675 1036.63 835.367 1036.63 835.367C1036.63 835.367 1022.95 829.496 1013.81 818.016C1004.66 806.535 1008.7 797.074 1008.7 797.074C1008.7 797.074 997.265 789.04 996.764 779.487C996.292 769.882 1000.43 766.929 1000.43 766.929C1000.43 766.929 993.715 748.102 997.299 741.268C1000.93 734.462 1007.19 717.189 1011.38 710.491C1015.66 703.771 1031.99 691.708 1031.99 691.708C1031.99 691.708 1051.29 666.142 1058.68 665.437C1058.68 665.437 1080.35 634.208 1092.64 636.476L1170.29 775.619L1264.55 825.737Z" fill="#163560"/>
<path d="M1021.33 743.986C1021.44 743.911 1035.93 735.128 1064.56 744.63C1079.96 749.757 1091.55 748.056 1098.59 745.782C1106.23 743.297 1110.19 739.56 1110.33 739.433L1109.21 738.253C1109.07 738.38 1093.59 752.573 1065.06 743.13C1035.67 733.402 1021.04 742.312 1020.49 742.686L1021.33 743.986Z" fill="#BDD1F9"/>
<path d="M1056.48 890.656L1058.11 890.817C1061.26 857.919 1090.01 834.053 1090.29 833.8L1089.29 832.545C1088.96 832.77 1059.67 857.091 1056.48 890.656Z" fill="#BDD1F9"/>
<path d="M1028.4 814.993C1029.01 815.13 1043.66 818.8 1057.83 800.982C1071.37 783.909 1084.03 784.804 1084.16 784.811L1084.32 783.187C1083.79 783.16 1070.68 782.216 1056.62 799.959C1049.57 808.816 1042.43 811.995 1037.66 813.15C1032.52 814.367 1028.93 813.44 1028.93 813.44L1028.4 814.993Z" fill="#BDD1F9"/>
<path d="M989.297 787.494C1007.03 776.356 1031.99 782.893 1032.28 782.988L1032.68 781.428C1032.44 781.363 1006.77 774.63 988.403 786.165L989.297 787.494Z" fill="#BDD1F9"/>
<path d="M1006.15 704.587C1010.52 707.051 1016.46 708.55 1023.81 708.995C1030.77 709.42 1036.36 708.734 1036.63 708.748L1036.45 707.133C1036.23 707.149 1013.99 709.766 1003.95 701.079L1002.9 702.338C1003.82 703.133 1004.9 703.882 1006.15 704.587Z" fill="#BDD1F9"/>
<path d="M1333.85 1061.38L1329.16 1071.5L1364.16 1213.35L1285.77 1241.12C1285.77 1241.12 1249.25 1093.34 1204.89 1085.6C1160.53 1077.86 1114.71 980.927 1104.62 907.735C1098.22 861.277 1088.19 835.835 1090.12 822.576C1091.29 814.926 1096.31 811.374 1108.4 810.234C1112.83 809.785 1116.94 811.006 1120.83 813.34C1146.06 828.749 1164.74 890.724 1179.33 903.839C1191.35 914.605 1218.48 903.211 1233.69 917.909C1264.02 947.113 1281.38 1010.2 1308.89 1036.99C1323.92 1051.65 1333.85 1061.38 1333.85 1061.38Z" fill="#FFB27D"/>
<path d="M1224.33 1140.04L1246.07 1198.05L1246.14 1198.29L1246.16 1198.37L1309.84 1376.46C1367.67 1352.32 1414.33 1293.11 1440.44 1184.94C1440.44 1184.94 1441.59 1170.75 1444.64 1148.85L1431.52 1132.87L1395.45 1090.66L1224.33 1140.04Z" fill="#EF873A"/>
<path d="M1245.89 1198.36C1245.89 1198.36 1246.03 1198.37 1246.21 1198.4C1251.04 1199.07 1311.17 1207.06 1370.85 1190.21L1367.52 1165.74L1387.16 1183.28C1387.16 1183.28 1416.64 1163.6 1432.61 1134.1L1431.53 1132.86L1417.65 1116.65L1412.5 1110.59L1412.45 1110.56L1391.49 1091.72L1386.94 1087.64L1307.84 1110.97L1303.46 1117.15L1246.1 1197.99L1245.89 1198.36Z" fill="#E27227"/>
<path d="M1437.52 1127.59C1437.52 1127.59 1422.24 1143.48 1383.43 1160.99L1342.99 1115.71L1353.96 1172.78C1320.38 1184.66 1275.14 1195.85 1215.65 1202.03C1215.65 1202.03 1213.52 1149.6 1226.85 1100.48C1226.85 1100.48 1296.75 1086.79 1365.59 1054.31L1437.52 1127.59Z" fill="#EEF5FF"/>
<path d="M1323.23 1160.92C1321.42 1158.53 1321.87 1155.07 1324.29 1153.21C1326.68 1151.41 1330.13 1151.84 1331.99 1154.26C1333.79 1156.66 1333.35 1160.11 1330.93 1161.97C1328.48 1163.75 1325.03 1163.31 1323.23 1160.92Z" fill="#F99746"/>
<path d="M665.973 1021.01C671.104 1002.21 662.008 981.902 645.064 972.337C628.143 962.853 604.067 968.35 593.422 984.657C579.532 1005.86 588.264 1025.97 605.208 1035.53C610.769 1038.67 620.047 1039.72 626.038 1039.67L629.323 1053.88C638.038 1054.96 659.697 1043.91 665.973 1021.01Z" fill="#8C9DF4"/>
<path d="M626.18 1040.02C626.424 1039.96 649.993 1031.84 650.711 1006.77C651.151 992.391 642.493 985.511 637.318 982.658C628.683 977.921 617.514 977.796 610.809 982.388C604.658 986.606 600.781 992.382 600.031 998.688C599.344 1004.27 601.072 1009.71 604.972 1013.97C609.021 1018.46 614.282 1020.67 619.76 1020.19C624.809 1019.75 629.366 1016.9 632.014 1012.69C634.375 1008.88 634.71 1004.4 633.019 1000.35C631.178 996.084 627.38 992.978 622.753 991.946C618.55 991.015 614.574 992.959 612.118 997.066C610.162 1000.29 609.845 1003.89 611.356 1005.7C613.828 1008.61 616.96 1010.1 619.349 1009.39C620.762 1008.95 621.646 1007.87 621.861 1006.27L621.091 1006.18C620.918 1007.46 620.204 1008.36 619.117 1008.71C617.408 1009.18 614.509 1008.37 611.94 1005.27C610.681 1003.74 611.037 1000.44 612.765 997.5C613.64 996.071 616.893 991.522 622.579 992.74C626.916 993.678 630.588 996.644 632.28 1000.69C633.955 1004.52 633.611 1008.65 631.338 1012.31C628.86 1016.34 624.525 1019.04 619.69 1019.47C614.426 1019.93 609.425 1017.86 605.503 1013.52C601.782 1009.43 600.151 1004.18 600.772 998.832C601.538 992.741 605.246 987.144 611.227 983.105C617.71 978.662 628.531 978.797 636.958 983.417C637.062 983.476 637.114 983.505 637.218 983.564C642.259 986.41 650.34 993.1 649.934 1006.81C649.242 1031.34 626.14 1039.25 625.948 1039.34L626.18 1040.02Z" fill="#163560"/>
<path d="M556.622 971.778C556.622 971.778 565.878 994.719 551.295 1006.47C536.712 1018.22 526.074 982.548 528.684 974.889C531.271 967.149 553.793 958.577 556.622 971.778Z" fill="#163560"/>
<path d="M574.921 932.806C574.921 932.806 599.1 940.482 598.785 959.736C598.418 978.961 563.276 963.998 558.986 956.906C554.644 949.786 562.68 926.445 574.921 932.806Z" fill="#8C9DF4"/>
<path d="M681.348 1005.8C681.348 1005.8 670.023 987.249 685.88 978.829C701.736 970.408 717.279 1011.59 705.869 1015.66C694.407 1019.69 685.092 1016.77 681.348 1005.8Z" fill="#8C9DF4"/>
<path d="M705.633 980.504C705.633 980.504 694.308 961.957 710.165 953.537C726.022 945.116 741.564 986.301 730.154 990.365C718.744 994.43 709.4 991.557 705.633 980.504Z" fill="#6F84DD"/>
<path d="M610.207 938.169C610.207 938.169 602.217 925.006 613.456 919.06C624.695 913.113 635.718 942.271 627.576 945.159C619.464 947.995 612.885 945.93 610.207 938.169Z" fill="#6F84DD"/>
<path d="M663.921 962.729C663.921 962.729 680.876 936.458 694.44 942.055C707.922 947.675 690.888 964.494 681.431 966.434C672.003 968.322 666.219 971.649 663.921 962.729Z" fill="#163560"/>
<path d="M1114.99 1245.45C1114.99 1245.45 1103.67 1226.9 1119.52 1218.48C1135.38 1210.06 1150.92 1251.25 1139.51 1255.31C1128.13 1259.32 1118.79 1256.45 1114.99 1245.45Z" fill="#8C9DF4"/>
<path d="M1139.33 1220.19C1139.33 1220.19 1128 1201.64 1143.86 1193.22C1159.72 1184.8 1175.26 1225.98 1163.85 1230.05C1152.44 1234.11 1143.13 1231.19 1139.33 1220.19Z" fill="#6F84DD"/>
<path d="M1097.57 1202.38C1097.57 1202.38 1114.52 1176.11 1128.09 1181.71C1141.57 1187.33 1124.53 1204.15 1115.08 1206.09C1105.7 1208 1099.89 1211.25 1097.57 1202.38Z" fill="#163560"/>
</svg>
