<svg width="944" height="1094" viewBox="0 0 944 1094" fill="none" xmlns="http://www.w3.org/2000/svg">
<path d="M890.659 0L113.362 3.4952V1093L334.662 1071.03C475.035 1046.06 328.667 711.024 545.471 711.024C696.873 711.024 735.466 597.014 740.795 540.758C752.807 413.932 787.652 431.608 887.162 322.557C986.672 213.507 925.294 56.0897 890.659 0Z" fill="#F6ADAB"/>
<path d="M774.378 1H0.362305V1094H244.227C384.639 1069.05 223.74 767.098 440.604 767.098C592.048 767.098 553.246 595.629 571.023 542.01C621.491 389.789 674.84 458.862 774.378 349.862C873.916 240.861 809.023 57.0641 774.378 1Z" fill="#FABABA"/>
<path d="M214.588 863.361C190.543 776.662 241.297 686.756 327.952 662.55C414.607 638.345 504.347 689.006 528.392 775.705C552.438 862.404 501.683 952.31 415.029 976.516C328.374 1000.72 238.634 950.061 214.588 863.361Z" fill="#BE906A"/>
<path d="M227.535 859.746C205.473 780.2 252.04 697.711 331.545 675.503C411.05 653.294 493.386 699.775 515.448 779.321C537.509 858.867 490.942 941.355 411.437 963.564C331.932 985.773 249.596 939.291 227.535 859.746Z" fill="#48434C"/>
<path d="M353.872 808.441C353.872 808.441 356.436 813.734 353.963 817.144C351.489 820.554 344.617 815.851 353.872 808.441Z" fill="#DDE7FE"/>
<path d="M480.473 765.446C480.473 765.446 482.682 770.882 480.03 774.122C477.378 777.363 470.822 772.221 480.473 765.446Z" fill="#DDE7FE"/>
<path d="M436.583 733.802C436.583 733.802 442.477 733.559 444.537 737.194C446.679 740.806 439.633 745.274 436.583 733.802Z" fill="#DDE7FE"/>
<path d="M269.103 760.585C269.103 760.585 271.667 765.878 269.193 769.288C266.72 772.698 259.848 767.995 269.103 760.585Z" fill="#DDE7FE"/>
<path d="M429.879 852.517C429.879 852.517 426.842 857.532 422.679 857.379C418.464 857.197 418.598 848.826 429.879 852.517Z" fill="#DDE7FE"/>
<path d="M358.222 872.49C358.222 872.49 355.185 877.504 351.022 877.351C346.859 877.198 346.992 868.828 358.222 872.49Z" fill="#DDE7FE"/>
<path d="M274.333 829.386C274.333 829.386 280.144 828.684 282.618 832.072C284.981 835.535 278.308 840.556 274.333 829.386Z" fill="#DDE7FE"/>
<path d="M317.912 736.163C317.912 736.163 323.723 735.461 326.197 738.849C328.59 742.26 321.968 747.311 317.912 736.163Z" fill="#DDE7FE"/>
<path d="M291.771 900.964C291.771 900.964 297.582 900.262 300.056 903.65C302.449 907.06 295.775 912.083 291.771 900.964Z" fill="#DDE7FE"/>
<path d="M406.841 786.365C406.841 786.365 412.652 785.663 415.126 789.051C417.518 792.462 410.897 797.513 406.841 786.365Z" fill="#DDE7FE"/>
<path d="M471.589 829.988C471.589 829.988 477.4 829.286 479.874 832.674C482.237 836.137 475.563 841.159 471.589 829.988Z" fill="#DDE7FE"/>
<path d="M409.194 909.919C409.194 909.919 415.005 909.217 417.479 912.604C419.872 916.015 413.198 921.037 409.194 909.919Z" fill="#DDE7FE"/>
<path d="M355.414 780.337C355.414 780.337 359.412 781.633 359.226 783.176C359.041 784.719 356.5 784.726 355.339 783.384C354.126 782.013 354.262 780.922 355.414 780.337Z" fill="#0B0755"/>
<path d="M772.564 448.724C772.564 448.724 823.775 425.998 814.123 405.58C804.471 385.162 772.564 448.724 772.564 448.724C772.564 448.724 771.062 445.679 772.564 448.724Z" fill="#85B779"/>
<path d="M780.973 397.164C762.801 389.653 772.565 448.723 772.565 448.723C772.565 448.723 799.173 404.624 780.973 397.164Z" fill="#85B779"/>
<path d="M562.786 867.671C562.786 867.671 513.978 938.103 542.798 956.983C571.648 975.81 562.786 867.671 562.786 867.671C562.786 867.671 567.19 870.432 562.786 867.671Z" fill="#85B779"/>
<path d="M592.782 941.529C622.513 936.821 562.815 867.62 562.815 867.62C562.815 867.62 563.052 946.238 592.782 941.529Z" fill="#85B779"/>
<path d="M350.76 607.075C350.76 607.075 390.708 571.399 375.922 555.705C361.188 540.04 350.76 607.075 350.76 607.075C350.76 607.075 348.498 604.768 350.76 607.075Z" fill="#85B779"/>
<path d="M343.307 557.755C324.532 556.289 350.708 607.047 350.708 607.047C350.708 607.047 362.051 559.273 343.307 557.755Z" fill="#85B779"/>
<path d="M39.5257 710.155C44.8211 701.746 42.2838 690.7 33.9431 685.442C28.321 681.898 11.1121 679.983 0.362305 679.5L0.362416 698.136C5.19928 705.705 10.9416 713.261 14.8574 715.729C23.1981 720.987 34.2597 718.512 39.5257 710.155Z" fill="#E6EFFF"/>
<path d="M32.4681 639.977C25.3868 633.096 14.0929 633.312 7.2067 640.411C5.0386 642.646 2.60951 647.293 0.362305 652.674L0.362305 679.944C10.56 677.197 27.9267 670.349 32.8612 665.262C39.7474 658.163 39.5494 646.859 32.4681 639.977Z" fill="#E6EFFF"/>
<path d="M104.31 531.052C95.7682 533.92 57.2527 521.653 47.3111 519.474C38.5445 517.573 19.9002 514.422 0.362305 513.307L0.362306 453.25C9.14078 458.393 20.7003 463.206 36.6168 467.637C75.6299 478.537 95.6694 489.781 106.388 503.454C115.906 515.488 113.451 527.972 104.31 531.052Z" fill="#FFB27D"/>
<path d="M85.1219 424.087C85.1219 424.087 88.3595 469.586 76.578 468.359C64.7964 467.133 51.9673 445.058 49.1007 431.561C46.2566 418.145 85.1219 424.087 85.1219 424.087Z" fill="#E8945B"/>
<path d="M15.7561 335.832C15.7561 335.832 32.1105 351.176 44.085 357.524C82.7927 378.071 76.3906 384.07 96.0309 400.513C132.851 431.324 159.565 456.362 154.137 463.185C143.642 476.555 97.4711 456.602 73.4291 444.677C32.1743 424.272 9.82031 430.604 9.82031 430.604L15.7561 335.832Z" fill="#FFB27D"/>
<path d="M124.003 596.208L78.9869 529.046L34.147 493.501L46.8079 477.509L94.1153 514.995L140.973 584.844L124.003 596.208Z" fill="#89B0C6"/>
<path d="M16.1709 499.971C28.2191 509.588 45.8304 507.651 55.5386 495.553C65.2467 483.455 63.2874 465.801 51.1871 456.155L0.411133 415.5L0.411134 487.353L16.1709 499.971Z" fill="#4F7C95"/>
<path d="M416.324 797.006C344.165 815.803 258.892 771.509 258.892 771.509L33.0237 616.534C25.5577 611.427 28.5872 599.747 37.612 598.936L132.502 590.5L165.614 536.339C169.372 530.289 177.319 528.596 183.18 532.66C219.443 558.144 337.927 642.678 375.957 684.335C420.992 733.86 416.324 797.006 416.324 797.006Z" fill="#ACCADB"/>
<path d="M416.323 797.007L132.502 590.5L165.614 536.339C169.372 530.289 177.319 528.596 183.18 532.66C219.443 558.144 337.927 642.678 375.957 684.335C420.992 733.861 416.323 797.007 416.323 797.007Z" fill="#89B0C6"/>
<path d="M0.362305 324.225C65.3356 369.938 82.5093 427.249 34.2251 429.138C20.7599 429.671 9.60316 430.586 0.362306 431.751L0.362305 324.225Z" fill="#FFB27D"/>
<path d="M97.3869 402.24C94.8223 400.105 61.2635 378.208 27.5808 371.827C17.237 369.858 8.28023 368.412 0.362307 367.105L0.362305 366.313C8.33087 367.577 17.3179 369.026 27.7031 371.004C61.5711 377.42 95.3378 399.435 97.873 401.622L97.3869 402.24Z" fill="#EA8F7D"/>
<path d="M41.615 356.679C39.3848 354.802 22.8608 348.014 3.71765 340.16C2.6096 339.705 1.49047 339.245 0.362306 338.781L0.362305 337.935C1.38079 338.355 2.39206 338.771 3.3946 339.184L4.04784 339.454L4.84167 339.782C24.4176 347.868 39.8203 354.231 42.1011 356.061L41.615 356.679Z" fill="#EA8F7D"/>
<path d="M421.285 760.051C421.285 760.051 401.189 749.393 382.26 759.856C382.26 759.856 378.002 750.037 362.475 752.532C346.918 755.079 347.648 771.147 362.856 781.724C362.856 781.724 350.419 779.715 347.932 791.77C347.932 791.77 314.948 807.825 327.888 828.246C340.858 848.614 394.914 836.145 395.669 836.022C396.424 835.899 420.194 826.452 421.315 825.437C422.436 824.422 424.899 801.849 424.899 801.849L421.285 760.051Z" fill="#48434C"/>
<path d="M337.226 762.17C337.226 762.17 340.707 753.697 332.455 746.704C324.173 739.763 319.453 742.661 319.453 742.661C319.453 742.661 317.396 734.77 308.054 732.38C298.741 729.938 297.725 739.871 297.725 739.871C297.725 739.871 291.85 736.073 287.264 744.196C282.679 752.319 295.33 762.689 295.33 762.689C295.33 762.689 294.357 767.083 301.24 772.617C301.24 772.617 296.544 780.815 319 789.235C341.427 797.707 333.585 777.967 333.585 777.967C333.585 777.967 340.435 771.054 337.226 762.17Z" fill="#48434C"/>
<path d="M312.324 711.584C312.324 711.584 313.729 706.06 305.015 700.248C296.302 694.437 288.155 697.941 288.155 697.941C288.155 697.941 291.456 685.659 277.98 681.485C277.98 681.485 270.701 663.299 248.958 658.715C248.958 658.715 226.608 639.3 218.619 646.531C210.682 653.793 244.69 670.038 244.69 670.038C244.69 670.038 243.779 678.451 261.942 690.833C261.942 690.833 257.739 698.279 278.764 708.02C278.868 708.079 307.397 733.18 312.324 711.584Z" fill="#48434C"/>
<path d="M247.547 686.345C247.547 686.345 256.41 689.22 255.944 692.596C255.529 696.002 249.938 696.072 247.31 693.078C244.734 690.114 245.042 687.747 247.547 686.345Z" fill="#48434C"/>
<path d="M298.145 692.87C297.673 693.222 293.519 694.996 292.263 692.365C290.955 689.704 289.04 682.168 293.829 683.155C298.566 684.113 302.029 690.119 298.145 692.87Z" fill="#48434C"/>
<path d="M333.321 235.501C333.321 235.501 328.036 196.056 357.836 171.679C357.836 171.679 369.112 201.117 333.321 235.501Z" fill="#82B378"/>
<path d="M147.92 337.984C126.89 262.158 171.28 183.527 247.067 162.357C322.854 141.187 401.339 185.494 422.369 261.32C443.399 337.146 399.01 415.777 323.223 436.947C247.436 458.117 168.95 413.81 147.92 337.984Z" fill="#BE906A"/>
<path d="M159.255 334.818C139.963 265.255 180.685 193.119 250.213 173.697C319.74 154.276 391.742 194.923 411.035 264.486C430.328 334.049 389.605 406.185 320.078 425.607C250.551 445.028 178.548 404.38 159.255 334.818Z" fill="#48434C"/>
<path d="M269.74 289.972C269.74 289.972 271.99 294.606 269.833 297.578C267.624 300.519 261.629 296.448 269.74 289.972Z" fill="#DDE7FE"/>
<path d="M269.725 246.292C269.725 246.292 271.701 251.047 269.336 253.901C267.001 256.702 261.241 252.215 269.725 246.292Z" fill="#DDE7FE"/>
<path d="M317.264 212.224C317.264 212.224 322.38 212.023 324.224 215.192C326.097 218.309 319.907 222.231 317.264 212.224Z" fill="#DDE7FE"/>
<path d="M186.478 254.984C186.478 254.984 188.728 259.619 186.571 262.59C184.362 265.532 178.367 261.461 186.478 254.984Z" fill="#DDE7FE"/>
<path d="M350.312 319.526C350.312 319.526 347.68 323.945 343.998 323.789C340.346 323.582 340.476 316.308 350.312 319.526Z" fill="#DDE7FE"/>
<path d="M251.292 327.142C251.292 327.142 248.66 331.561 244.978 331.406C241.326 331.198 241.457 323.925 251.292 327.142Z" fill="#DDE7FE"/>
<path d="M215.38 280.639C215.38 280.639 220.465 280.008 222.611 283.004C224.706 285.972 218.867 290.366 215.38 280.639Z" fill="#DDE7FE"/>
<path d="M223.555 218.443C223.555 218.443 228.641 217.812 230.787 220.809C232.881 223.777 227.042 228.171 223.555 218.443Z" fill="#DDE7FE"/>
<path d="M216.479 386.867C216.479 386.867 221.565 386.236 223.711 389.233C225.776 392.253 219.966 396.595 216.479 386.867Z" fill="#DDE7FE"/>
<path d="M323.243 274.72C323.243 274.72 328.328 274.089 330.475 277.086C332.569 280.053 326.73 284.448 323.243 274.72Z" fill="#DDE7FE"/>
<path d="M348.902 330.885C348.902 330.885 353.988 330.254 356.134 333.251C358.228 336.219 352.389 340.613 348.902 330.885Z" fill="#DDE7FE"/>
<path d="M349.079 377.679C349.079 377.679 354.165 377.047 356.311 380.044C358.405 383.012 352.565 387.407 349.079 377.679Z" fill="#DDE7FE"/>
<path d="M264.786 333.592C267.641 341.04 287.486 358.698 289.586 357.892C291.686 357.086 294.613 330.654 291.759 323.206C288.904 315.758 280.511 312.05 273.065 314.919C265.62 317.789 261.879 326.114 264.786 333.592Z" fill="#F3F8FF"/>
<path d="M307.596 327.204C300.905 331.529 287.668 354.612 288.906 356.547C290.144 358.482 316.588 355.832 323.279 351.507C329.97 347.181 331.9 338.178 327.589 331.487C323.227 324.767 314.287 322.878 307.596 327.204Z" fill="#F3F8FF"/>
<path d="M324.524 363.265C318.022 358.634 291.75 354.789 290.425 356.65C289.1 358.511 301.181 382.154 307.652 386.837C314.153 391.469 323.16 389.962 327.85 383.476C332.487 376.962 331.025 367.897 324.524 363.265Z" fill="#F3F8FF"/>
<path d="M295.956 389.709C297.981 381.995 292.326 356.074 290.139 355.457C287.922 354.892 270.1 374.564 268.046 382.33C266.021 390.045 270.588 397.98 278.293 399.994C285.967 402.061 293.902 397.476 295.956 389.709Z" fill="#F3F8FF"/>
<path d="M259.626 374.419C267.539 373.393 289.432 358.286 289.119 356.049C288.805 353.812 263.924 344.71 255.959 345.706C248.046 346.733 242.434 354.002 243.447 361.921C244.511 369.869 251.713 375.445 259.626 374.419Z" fill="#F3F8FF"/>
<path d="M285.939 359.388C284.003 357.597 283.886 354.571 285.677 352.629C287.467 350.687 290.488 350.565 292.424 352.356C294.36 354.147 294.477 357.173 292.686 359.115C290.895 361.057 287.874 361.179 285.939 359.388Z" fill="#F99746"/>
<path d="M308.979 276.555L307.73 275.369C308.467 274.549 395.648 192.477 465.838 190.765L466.296 192.26C397.498 193.934 309.85 275.742 308.979 276.555Z" fill="#82B378"/>
<path d="M255.966 290.575L255.974 288.863C255.144 288.875 164.718 296.81 127.256 347.143L127.803 348.481C164.572 299.131 255.055 290.61 255.966 290.575Z" fill="#82B378"/>
<path d="M43.4838 273.482L42.7157 272.294C84.6522 245.842 125.953 187.858 153.313 149.47C160.946 138.742 167.512 129.539 172.395 123.438C185.927 106.632 225.847 81.4462 265.707 77.8557C289.183 75.7277 308.686 81.2446 323.638 94.2171C370.106 134.526 343.867 181.855 343.602 182.324L342.355 181.62C342.62 181.151 368.219 134.834 322.672 95.32C308.055 82.605 288.893 77.2121 265.847 79.3079C226.386 82.9182 186.857 107.776 173.525 124.351C168.7 130.348 162.105 139.602 154.502 150.279C127.06 188.689 85.6713 246.83 43.4838 273.482Z" fill="#82B378"/>
<path d="M125.318 189.834C125.318 189.834 141.323 208.345 134.128 230.925C134.128 230.925 118.45 219.603 125.318 189.834Z" fill="#82B378"/>
<path d="M107.721 211.898C107.721 211.898 120.035 233.063 108.863 253.947C108.892 253.895 95.5431 239.904 107.721 211.898Z" fill="#82B378"/>
<path d="M83.6287 238.67C83.6287 238.67 89.278 258.408 75.8558 273.078C75.8264 273.13 67.8906 258.9 83.6287 238.67Z" fill="#82B378"/>
<path d="M64.8624 257.467C64.8624 257.467 64.9901 278.001 48.1427 288.541C48.1427 288.541 44.2733 272.692 64.8624 257.467Z" fill="#82B378"/>
<path d="M49.0117 268.911C49.0117 268.911 39.0555 286.911 19.2249 287.801C19.1955 287.853 23.607 272.147 49.0117 268.911Z" fill="#82B378"/>
<path d="M64.7363 257.326C64.7363 257.326 47.1114 267.908 29.5032 258.791C29.5551 258.821 41.2069 247.408 64.7363 257.326Z" fill="#82B378"/>
<path d="M83.6289 238.671C83.6289 238.671 66.0043 249.252 48.3964 240.135C48.367 240.188 60.0184 228.775 83.6289 238.671Z" fill="#82B378"/>
<path d="M107.763 211.096C107.763 211.096 92.135 224.452 73.2513 218.324C73.2513 218.324 82.8513 205.204 107.763 211.096Z" fill="#82B378"/>
<path d="M125.288 189.885C125.288 189.885 107.144 205.392 85.2349 198.31C85.183 198.281 96.4176 182.994 125.288 189.885Z" fill="#82B378"/>
<path d="M146.919 158.976C146.919 158.976 165.859 174.474 162.711 197.897C162.711 197.897 145.283 189.432 146.919 158.976Z" fill="#82B378"/>
<path d="M146.89 159.026C146.89 159.026 131.647 177.407 108.844 174.215C108.844 174.215 117.249 157.262 146.89 159.026Z" fill="#82B378"/>
<path d="M173.932 122.657C173.932 122.657 190.639 140.534 184.422 163.323C184.422 163.323 168.258 152.619 173.932 122.657Z" fill="#82B378"/>
<path d="M173.851 122.68C173.851 122.68 156.34 138.887 134.145 132.674C134.197 132.704 144.703 117.006 173.851 122.68Z" fill="#82B378"/>
<path d="M208.465 96.6962C208.465 96.6962 217.054 119.604 202.568 138.343C202.568 138.343 191.706 122.255 208.465 96.6962Z" fill="#82B378"/>
<path d="M208.383 96.7186C208.383 96.7186 186.038 104.978 167.888 90.7497C167.888 90.7497 183.662 80.2909 208.383 96.7186Z" fill="#82B378"/>
<path d="M247.803 80.7951C247.803 80.7951 251.403 110.842 228.575 129.061C228.597 129.142 220.254 106.648 247.803 80.7951Z" fill="#82B378"/>
<path d="M247.722 80.8173C247.722 80.8173 218.46 84.2106 200.889 61.7944C200.86 61.8465 222.843 53.8636 247.722 80.8173Z" fill="#82B378"/>
<path d="M290.612 78.6604C290.612 78.6604 289.866 112.641 261.581 129.357C261.581 129.357 255.895 103.007 290.612 78.6604Z" fill="#82B378"/>
<path d="M290.53 78.6833C290.53 78.6833 257.449 77.7927 241.432 50.0738C241.38 50.0445 267.109 44.6558 290.53 78.6833Z" fill="#82B378"/>
<path d="M327.099 98.1612C327.099 98.1612 313.528 129.364 280.99 134.067C280.99 134.067 285.739 107.565 327.099 98.1612Z" fill="#82B378"/>
<path d="M326.964 98.1537C326.964 98.1537 296.687 84.7693 292.399 53.0288C292.399 53.0288 318.224 57.7887 326.964 98.1537Z" fill="#82B378"/>
<path d="M349.979 156.946C349.979 156.946 321.384 155.635 309.564 130.56C309.564 130.56 332.193 126.169 349.979 156.946Z" fill="#82B378"/>
<path d="M350.007 156.894C350.007 156.894 353.353 128.021 377.913 114.626C377.861 114.596 380.426 137.125 350.007 156.894Z" fill="#82B378"/>
<path d="M167.494 505.813L168.233 507.054C211.401 482.671 281.952 473.884 328.69 468.066C341.74 466.438 352.962 465.014 360.599 463.626C381.787 459.725 422.863 436.496 445.024 403.07C458.061 383.375 462.521 363.577 458.214 344.254C444.92 284.152 390.938 284.714 390.375 284.739L390.381 286.185C390.944 286.159 443.801 285.649 456.808 344.559C460.973 363.527 456.614 382.902 443.835 402.261C421.933 435.353 381.269 458.334 360.326 462.167C352.741 463.584 341.549 464.956 328.498 466.584C281.731 472.455 210.965 481.258 167.494 505.813Z" fill="#82B378"/>
<path d="M279.942 473.438C279.942 473.438 271.272 450.553 248.077 446.111C248.025 446.081 250.518 465.341 279.942 473.438Z" fill="#82B378"/>
<path d="M252.176 478.431C252.176 478.431 239.448 457.513 215.843 457.439C215.843 457.439 221.799 475.907 252.176 478.431Z" fill="#82B378"/>
<path d="M217.144 486.944C217.144 486.944 202.475 472.621 183.247 477.422C183.218 477.474 191.9 491.233 217.144 486.944Z" fill="#82B378"/>
<path d="M191.781 494.599C191.781 494.599 173.784 484.713 156.519 494.536C156.519 494.536 168.61 505.413 191.781 494.599Z" fill="#82B378"/>
<path d="M174.154 503.121C174.154 503.121 153.61 503.334 143.383 520.357C143.331 520.328 159.189 523.924 174.154 503.121Z" fill="#82B378"/>
<path d="M191.804 494.682C191.804 494.682 174.104 505.152 173.733 524.993C173.785 525.022 189.324 520.199 191.804 494.682Z" fill="#82B378"/>
<path d="M217.144 486.944C217.144 486.944 199.445 497.414 199.074 517.255C199.126 517.284 214.665 512.461 217.144 486.944Z" fill="#82B378"/>
<path d="M252.851 478.812C252.851 478.812 233.702 486.266 230.085 505.785C230.085 505.785 246.214 503.561 252.851 478.812Z" fill="#82B378"/>
<path d="M279.859 473.461C279.859 473.461 257.656 482.075 253.424 504.749C253.394 504.801 272.136 502.197 279.859 473.461Z" fill="#82B378"/>
<path d="M317.274 469.106C317.274 469.106 312.701 445.033 290.616 436.684C290.616 436.684 289.731 456.098 317.274 469.106Z" fill="#82B378"/>
<path d="M317.192 469.13C317.192 469.13 293.801 473.778 285.772 495.407C285.772 495.407 304.639 496.101 317.192 469.13Z" fill="#82B378"/>
<path d="M362.016 462.573C362.016 462.573 354.299 439.335 331.286 433.965C331.286 433.965 332.972 453.318 362.016 462.573Z" fill="#82B378"/>
<path d="M361.986 462.625C361.986 462.625 339.401 470.338 334.294 492.861C334.242 492.831 353.076 491.035 361.986 462.625Z" fill="#82B378"/>
<path d="M401.197 444.523C401.197 444.523 385.162 426.063 361.812 429.91C361.841 429.858 370.827 447.084 401.197 444.523Z" fill="#82B378"/>
<path d="M401.168 444.575C401.168 444.575 383.277 460.361 387.118 483.06C387.118 483.06 403.802 474.145 401.168 444.575Z" fill="#82B378"/>
<path d="M433.866 417.371C433.866 417.371 409.2 399.876 382.306 411.335C382.306 411.335 398.095 429.381 433.866 417.371Z" fill="#82B378"/>
<path d="M433.805 417.478C433.805 417.478 416.93 441.666 428.214 467.812C428.214 467.812 445.639 452.242 433.805 417.478Z" fill="#82B378"/>
<path d="M456.138 380.712C456.138 380.712 425.918 365.162 397.804 382.182C397.804 382.182 418.271 399.711 456.138 380.712Z" fill="#82B378"/>
<path d="M456.106 380.769C456.106 380.769 441.12 410.35 457.853 437.649C457.853 437.649 474.784 417.613 456.106 380.769Z" fill="#82B378"/>
<path d="M456.354 339.291C456.354 339.291 422.495 336.381 402.911 362.816C402.911 362.816 428.44 371.255 456.354 339.291Z" fill="#82B378"/>
<path d="M456.323 339.346C456.323 339.346 453.7 372.403 479.498 391.293C479.498 391.293 487.616 366.35 456.323 339.346Z" fill="#82B378"/>
<path d="M415.689 291.133C415.689 291.133 403.249 316.933 419.619 339.289C419.567 339.26 434.22 321.439 415.689 291.133Z" fill="#82B378"/>
<path d="M415.74 291.163C415.74 291.163 442.673 301.973 466.098 286.702C466.098 286.702 447.562 273.766 415.74 291.163Z" fill="#82B378"/>
<path d="M443.649 373.455C445.132 377.382 455.594 386.653 456.659 386.224C457.775 385.824 459.314 371.929 457.83 368.002C456.346 364.074 451.953 362.144 448.027 363.635C444.101 365.127 442.165 369.527 443.649 373.455Z" fill="#F3F8FF"/>
<path d="M466.118 370.073C462.581 372.333 455.65 384.488 456.321 385.485C456.992 386.482 470.858 385.109 474.396 382.848C477.934 380.588 478.95 375.875 476.645 372.308C474.364 368.822 469.656 367.813 466.118 370.073Z" fill="#F3F8FF"/>
<path d="M475.016 389.035C471.613 386.565 457.784 384.594 457.122 385.525C456.43 386.508 462.772 398.947 466.153 401.336C469.556 403.806 474.33 402.999 476.751 399.559C479.195 396.201 478.449 391.453 475.016 389.035Z" fill="#F3F8FF"/>
<path d="M460.027 402.959C461.091 398.89 458.097 385.253 456.963 384.956C455.828 384.658 446.424 395.005 445.36 399.074C444.297 403.143 446.678 407.302 450.742 408.36C454.805 409.418 458.912 406.999 460.027 402.959Z" fill="#F3F8FF"/>
<path d="M440.92 394.917C445.065 394.374 456.54 386.431 456.386 385.246C456.233 384.061 443.162 379.291 438.965 379.806C434.82 380.35 431.844 384.163 432.381 388.311C432.97 392.489 436.775 395.461 440.92 394.917Z" fill="#F3F8FF"/>
<path d="M454.285 383.992C454.961 382.795 456.507 382.363 457.703 383.038C458.898 383.713 459.327 385.259 458.651 386.457C457.975 387.655 456.429 388.087 455.233 387.412C454.038 386.737 453.58 385.242 454.285 383.992Z" fill="#F99746"/>
<path d="M115.867 322.033C118.324 328.364 135.151 343.357 136.977 342.671C138.804 341.986 141.26 319.545 138.832 313.162C136.374 306.831 129.317 303.671 122.936 306.111C116.607 308.581 113.409 315.702 115.867 322.033Z" fill="#F3F8FF"/>
<path d="M152.238 316.611C146.514 320.315 135.299 339.939 136.365 341.571C137.431 343.203 159.871 340.97 165.594 337.266C171.318 333.562 172.936 325.961 169.244 320.238C165.553 314.515 157.961 312.907 152.238 316.611Z" fill="#F3F8FF"/>
<path d="M166.66 347.275C161.14 343.335 138.847 340.089 137.698 341.638C136.602 343.216 146.83 363.341 152.35 367.281C157.871 371.222 165.501 369.968 169.498 364.465C173.421 358.852 172.18 351.216 166.66 347.275Z" fill="#F3F8FF"/>
<path d="M142.385 369.757C144.111 363.179 139.273 341.153 137.427 340.66C135.581 340.167 120.368 356.916 118.642 363.495C116.916 370.073 120.797 376.796 127.366 378.514C133.884 380.202 140.607 376.307 142.385 369.757Z" fill="#F3F8FF"/>
<path d="M111.554 356.747C118.283 355.876 136.852 343.013 136.629 341.102C136.406 339.191 115.197 331.475 108.469 332.346C101.74 333.216 96.9606 339.376 97.8199 346.109C98.6792 352.843 104.825 357.617 111.554 356.747Z" fill="#F3F8FF"/>
<path d="M134.63 344.644C132.678 343.542 131.991 341.063 133.095 339.108C134.199 337.152 136.676 336.46 138.628 337.562C140.58 338.664 141.267 341.143 140.163 343.098C139.059 345.054 136.582 345.746 134.63 344.644Z" fill="#F99746"/>
<path d="M366.099 256.959C367.92 261.626 380.322 272.679 381.683 272.211C382.992 271.714 384.829 255.104 383.061 250.467C381.241 245.8 376.039 243.481 371.321 245.281C366.633 247.029 364.279 252.292 366.099 256.959Z" fill="#F3F8FF"/>
<path d="M392.959 252.965C388.757 255.674 380.451 270.144 381.272 271.362C382.04 272.551 398.645 270.938 402.795 268.2C406.998 265.491 408.195 259.85 405.495 255.648C402.796 251.446 397.161 250.256 392.959 252.965Z" fill="#F3F8FF"/>
<path d="M403.57 275.57C399.52 272.666 383.016 270.215 382.206 271.406C381.345 272.568 388.928 287.424 392.977 290.328C397.026 293.231 402.688 292.308 405.625 288.198C408.584 284.169 407.671 278.503 403.57 275.57Z" fill="#F3F8FF"/>
<path d="M385.659 292.241C386.949 287.407 383.396 271.119 382.024 270.757C380.652 270.394 369.434 282.738 368.145 287.572C366.855 292.406 369.729 297.393 374.556 298.676C379.383 299.959 384.37 297.075 385.659 292.241Z" fill="#F3F8FF"/>
<path d="M362.865 282.599C367.817 281.961 381.537 272.471 381.367 271.071C381.198 269.671 365.553 263.997 360.549 264.606C355.597 265.243 352.077 269.779 352.677 274.787C353.387 279.72 357.913 283.237 362.865 282.599Z" fill="#F3F8FF"/>
<path d="M378.768 269.605C379.591 268.147 381.381 267.647 382.836 268.469C384.291 269.29 384.788 271.081 383.965 272.539C383.142 273.997 381.352 274.497 379.896 273.676C378.493 272.883 377.974 271.011 378.768 269.605Z" fill="#F99746"/>
<path d="M440.633 175.438C442.453 180.105 454.856 191.158 456.216 190.69C457.525 190.193 459.363 173.584 457.594 168.946C455.774 164.279 450.572 161.96 445.854 163.761C441.166 165.509 438.842 170.719 440.633 175.438Z" fill="#F3F8FF"/>
<path d="M467.493 171.444C463.29 174.153 454.985 188.622 455.805 189.84C456.573 191.029 473.179 189.417 477.329 186.679C481.531 183.97 482.728 178.328 480.029 174.126C477.277 169.895 471.724 168.683 467.493 171.444Z" fill="#F3F8FF"/>
<path d="M478.101 194.05C474.052 191.146 457.547 188.695 456.738 189.886C455.876 191.048 463.46 205.904 467.509 208.807C471.558 211.711 477.22 210.788 480.157 206.678C483.117 202.65 482.151 196.954 478.101 194.05Z" fill="#F3F8FF"/>
<path d="M460.169 210.638C461.459 205.804 457.906 189.516 456.534 189.154C455.162 188.791 443.944 201.135 442.655 205.969C441.365 210.803 444.239 215.79 449.066 217.073C453.945 218.386 458.88 215.472 460.169 210.638Z" fill="#F3F8FF"/>
<path d="M437.427 201.026C442.379 200.388 456.098 190.898 455.929 189.498C455.76 188.098 440.115 182.425 435.111 183.033C430.159 183.671 426.639 188.207 427.238 193.214C427.92 198.199 432.475 201.664 437.427 201.026Z" fill="#F3F8FF"/>
<path d="M453.331 188.032C454.154 186.574 455.944 186.074 457.399 186.895C458.855 187.717 459.351 189.508 458.528 190.966C457.705 192.424 455.915 192.924 454.46 192.102C453.004 191.281 452.508 189.49 453.331 188.032Z" fill="#F99746"/>
<path d="M256.261 181.151C258.576 187.127 274.429 201.295 276.174 200.632C277.867 199.94 280.203 178.805 277.918 172.777C275.603 166.801 268.909 163.846 262.964 166.121C256.938 168.418 253.976 175.123 256.261 181.151Z" fill="#F3F8FF"/>
<path d="M290.561 176C285.169 179.479 274.601 197.957 275.563 199.531C276.555 201.052 297.757 198.945 303.148 195.465C308.54 191.986 310.056 184.808 306.588 179.417C303.12 174.026 295.952 172.52 290.561 176Z" fill="#F3F8FF"/>
<path d="M304.188 204.913C298.98 201.149 277.932 198.124 276.894 199.599C275.857 201.073 285.502 220.045 290.711 223.809C295.919 227.574 303.12 226.352 306.889 221.132C310.554 215.854 309.345 208.648 304.188 204.913Z" fill="#F3F8FF"/>
<path d="M281.263 226.097C282.917 219.89 278.336 199.108 276.542 198.644C274.748 198.181 260.494 213.96 258.84 220.168C257.186 226.375 260.873 232.714 267.072 234.359C273.271 236.005 279.609 232.305 281.263 226.097Z" fill="#F3F8FF"/>
<path d="M252.184 213.869C258.535 213.059 276.079 200.922 275.849 199.144C275.648 197.314 255.619 190.058 249.268 190.867C242.916 191.677 238.395 197.501 239.245 203.886C239.991 210.213 245.832 214.678 252.184 213.869Z" fill="#F3F8FF"/>
<path d="M272.471 197.238C273.5 195.415 275.859 194.756 277.678 195.783C279.498 196.81 280.152 199.171 279.124 200.993C278.095 202.816 275.735 203.475 273.916 202.448C272.097 201.421 271.442 199.06 272.471 197.238Z" fill="#F99746"/>
<path d="M219.835 296.544C219.835 296.544 218.367 336.296 184.937 355.328C184.908 355.38 178.735 324.429 219.835 296.544Z" fill="#82B378"/>
<path d="M193.645 303.114C193.645 303.114 153.938 301.092 135.503 267.338C135.503 267.338 166.518 261.569 193.645 303.114Z" fill="#82B378"/>
<path d="M401.913 210.641C401.913 210.641 399.561 191.255 415.97 178.82C415.992 178.902 421.729 193.264 401.913 210.641Z" fill="#82B378"/>
<path d="M744.741 521.319C744.741 521.319 693.001 529.807 673.485 506.224C666.359 497.601 661.591 486.257 658.92 475.205C656.816 466.67 655.986 458.306 656.119 451.514C656.289 442.958 658.151 436.868 661.376 436.011C670.379 433.54 744.741 521.319 744.741 521.319Z" fill="#F6A56E"/>
<path d="M658.868 475.176C656.764 466.641 655.934 458.276 656.067 451.485C663.327 458.536 689.736 484.843 696.069 500.091C701.047 512.034 675.317 491.81 658.868 475.176Z" fill="#F6A56E"/>
<path d="M749.661 1074.72C745.464 1056.9 742.416 1079.42 734.744 1034.37C732.805 1023.12 721.189 995.615 719.825 985.163L719.802 985.082C719.831 985.03 719.831 985.03 719.809 984.948C719.579 983.171 719.319 981.445 719.141 979.696C718.296 972.696 717.592 966.05 717.158 959.9C716.347 949.074 718.717 937.228 722.996 925.155C727.802 911.664 735.14 897.816 743.547 884.503C750.034 874.226 757.174 864.249 764.302 855.021C787.205 825.378 809.823 803.402 809.823 803.402C809.823 803.402 809.846 803.483 809.868 803.565C810.162 806.202 815.054 850.712 819.393 867.307C824.771 887.647 876.872 985.724 876.872 985.724C876.872 985.724 750.785 1079.41 749.661 1074.72Z" fill="#FFB27D"/>
<path d="M807.838 841.762C807.838 841.762 793.852 891.546 773.863 896.603C753.821 901.632 701.081 854.829 668.61 789.119C636.139 723.409 735.393 598.097 735.393 598.097C728.628 599.153 694.946 576.018 664.7 554.687C638.689 536.295 615.121 519.282 613.473 520.137C611.108 521.411 573.24 521.595 539.373 520.397C521.891 519.798 505.497 518.851 495.566 517.503C476.476 514.897 467.509 502.007 463.561 493.46C461.49 488.995 460.83 485.671 460.83 485.671C460.83 485.671 483.736 480.062 513.388 474.279C552.275 466.706 602.826 458.988 628.782 463.273C674.676 470.848 769.894 536.618 796.876 558.51C823.962 580.461 807.838 841.762 807.838 841.762Z" fill="#FFB27D"/>
<path d="M749.131 569.392C750.911 573.28 710.821 565.137 664.7 554.687C638.689 536.295 615.121 519.282 613.473 520.137C611.109 521.412 573.241 521.595 539.373 520.398C552.947 513.229 587.841 495.368 634.191 505.534C692.172 518.285 745.018 560.409 749.131 569.392Z" fill="#F6A56E"/>
<path d="M773.521 541L758.294 812.489C758.294 812.489 583.138 753.435 655.672 727.296C672.694 721.182 672.021 704.528 671.999 694.49C671.974 678.752 671.523 664.009 670.883 651.425C669.608 626.123 656.567 602.968 635.64 588.682C610.917 571.773 578.882 553.002 554.995 564.236C529.599 576.198 511.817 591.429 489.35 580.599C485.75 578.842 478.579 570.055 478.579 570.055L542.524 529.387C559.954 518.421 574.256 513.242 590.849 515.537L773.521 541Z" fill="#FFB27D"/>
<path d="M666.068 595.97C666.068 595.97 773.805 554.823 790.121 561.494C806.437 568.164 840.573 586.611 847.315 620.56C854.109 654.54 834.17 696.293 834.17 696.293C834.17 696.293 813.253 685.996 789.821 641.182C766.389 596.368 782.784 570.604 777.742 569.337C772.7 568.07 670.847 601.346 670.847 601.346L666.068 595.97Z" fill="#A8D29F"/>
<path d="M585.251 505.783C585.251 505.783 695.047 396.035 680.706 348.594C666.365 301.153 620.112 292.757 594.641 306.188C569.171 319.618 523.193 363.427 501.791 368.922C501.791 368.922 549.901 415.308 589.229 388.62C628.557 361.933 670.913 356.593 672.46 362.959C674.006 369.325 661.09 424.862 579.765 499.597L585.251 505.783Z" fill="#82B378"/>
<path d="M640.016 566.844C640.016 566.844 796.238 461.057 844.709 475.237C893.209 489.364 941.493 543.332 943.241 545.212C944.961 547.144 899.189 555.5 849.796 542.105C800.455 528.738 779.232 497.737 772.969 499.969C714.049 521.296 646.819 574.461 646.819 574.461L640.016 566.844Z" fill="#A8D29F"/>
<path d="M628.204 553.654C628.204 553.654 718.329 474.137 744.368 490.416C770.355 506.665 774.594 560.832 748.467 594.972C748.467 594.972 732.271 618.926 731.117 632.626C731.117 632.626 709.899 622.982 698.288 603.244C686.647 583.557 692.938 552.501 708.275 536.989C723.641 521.425 739.903 495.654 736.03 494.017C732.075 492.402 720.335 495.594 704.666 504.533C688.944 513.442 633.415 559.479 633.415 559.479L628.204 553.654Z" fill="#82B378"/>
<path d="M617.352 541.553C617.352 541.553 732.478 461.455 748.927 434.624C765.377 407.792 755.396 358.212 734.978 333.433C734.978 333.433 708.491 361.533 695.874 384.005C683.308 406.506 716.773 452.246 709.174 460.728C701.628 469.24 612.855 536.405 612.855 536.405L617.352 541.553Z" fill="#A8D29F"/>
<path d="M603.896 526.54C603.896 526.54 645.265 500.73 653.033 492.069C660.853 483.437 666.672 461.11 664.356 449.915C664.356 449.915 644.943 468.276 633.866 472.116C622.788 475.956 622.236 510.321 619.386 512.214C616.535 514.106 601.141 523.406 601.141 523.406L603.896 526.54Z" fill="#82B378"/>
<path d="M478.01 635.652L533.093 696.274C565.341 731.783 620.286 734.373 655.812 702.037L719.938 643.686C719.938 643.686 721.068 636.221 697.662 619.163C686.294 610.891 671.827 580.064 662.832 569.287C639.899 541.921 611.51 543.404 595.959 507.091C578.14 465.445 548.118 454.402 548.118 454.402L483.992 512.753C448.385 545.112 445.761 600.143 478.01 635.652Z" fill="#48434C"/>
<path d="M719.908 643.737C719.908 643.737 720.069 653.166 711.913 657.901C711.913 657.901 706.892 669.829 693.932 671.783C693.932 671.783 676.26 705.272 658.9 708.586C641.516 711.819 639.636 713.573 639.636 713.573C639.636 713.573 624.973 727.405 614.176 727.833C603.38 728.262 599.335 724.742 599.335 724.742C599.335 724.742 582.773 731.255 568.952 724.414C555.132 717.573 552.944 715.377 552.944 715.377C552.944 715.377 538.171 710.951 526.768 696.548C515.366 682.146 515.365 676.927 515.365 676.927C515.365 676.927 504.149 671.419 498.51 664.047C492.871 656.675 491.997 653.367 491.997 653.367C491.997 653.367 478.314 647.496 469.168 636.016C460.022 624.535 464.061 615.074 464.061 615.074C464.061 615.074 452.628 607.04 452.126 597.487C451.654 587.882 455.789 584.929 455.789 584.929C455.789 584.929 449.077 566.102 452.661 559.268C456.297 552.462 462.553 535.189 466.745 528.491C471.019 521.771 487.356 509.708 487.356 509.708C487.356 509.708 506.655 484.142 514.043 483.437C514.043 483.437 535.717 452.208 548.007 454.476L625.655 593.619L719.908 643.737Z" fill="#48434C"/>
<path d="M476.693 561.986C476.803 561.911 491.288 553.128 519.919 562.63C535.325 567.757 546.908 566.056 553.949 563.782C561.589 561.297 565.549 557.56 565.69 557.433L564.573 556.253C564.433 556.38 548.95 570.573 520.423 561.13C491.029 551.402 476.404 560.312 475.85 560.686L476.693 561.986Z" fill="#BDD1F9"/>
<path d="M511.847 708.656L513.469 708.817C516.62 675.919 545.377 652.053 545.657 651.8L544.652 650.545C544.32 650.77 515.031 675.091 511.847 708.656Z" fill="#BDD1F9"/>
<path d="M483.76 632.993C484.368 633.13 499.02 636.8 513.191 618.982C526.736 601.909 539.39 602.804 539.523 602.811L539.686 601.187C539.153 601.16 526.047 600.216 511.986 617.959C504.93 626.816 497.79 629.995 493.025 631.15C487.883 632.367 484.294 631.44 484.294 631.44L483.76 632.993Z" fill="#BDD1F9"/>
<path d="M444.66 605.494C462.393 594.356 487.352 600.893 487.641 600.988L488.041 599.428C487.804 599.363 462.134 592.63 443.765 604.165L444.66 605.494Z" fill="#BDD1F9"/>
<path d="M461.513 522.587C465.879 525.051 471.818 526.55 479.175 526.995C486.131 527.42 491.727 526.734 491.994 526.748L491.809 525.133C491.594 525.149 469.35 527.766 459.313 519.079L458.259 520.338C459.181 521.133 460.266 521.882 461.513 522.587Z" fill="#BDD1F9"/>
<path d="M789.208 879.379L784.52 889.504L819.52 1031.35L741.128 1059.12C741.128 1059.12 704.613 911.342 660.251 903.603C615.89 895.863 570.068 798.927 559.983 725.735C553.586 679.277 543.549 653.835 545.482 640.576C546.648 632.926 551.669 629.374 563.759 628.234C568.193 627.785 572.301 629.006 576.193 631.34C601.42 646.749 620.099 708.724 634.696 721.839C646.712 732.605 673.843 721.211 689.054 735.909C719.379 765.113 736.744 828.201 764.252 854.99C779.277 869.653 789.208 879.379 789.208 879.379Z" fill="#FFB27D"/>
<path d="M701.43 1016.05L679.688 958.042L850.808 908.663L886.886 950.865L900 966.851C896.956 988.754 895.804 1002.94 895.804 1002.94C887.247 1038.38 876.483 1068.58 863.842 1094H729.279L701.52 1016.37L701.43 1016.05Z" fill="#92988F"/>
<path d="M701.254 1016.36C701.254 1016.36 701.387 1016.37 701.573 1016.4C706.405 1017.07 766.528 1025.06 826.208 1008.21L822.886 983.742L842.523 1001.28C842.523 1001.28 872.003 981.601 887.974 952.096L886.887 950.864L873.01 934.653L867.865 928.59L867.813 928.561L846.851 909.724L842.301 905.644L763.2 928.968L758.82 935.147L701.46 1015.99L701.254 1016.36Z" fill="#71766E"/>
<path d="M892.877 945.595C892.877 945.595 877.601 961.485 838.795 978.991L798.356 933.709L809.318 990.778C775.745 1002.66 730.497 1013.85 671.014 1020.03C671.014 1020.03 668.879 967.596 682.216 918.476C682.216 918.476 752.109 904.785 820.956 872.308L892.877 945.595Z" fill="#EEF5FF"/>
<path d="M778.59 978.923C776.787 976.532 777.231 973.074 779.652 971.214C782.044 969.406 785.497 969.844 787.352 972.265C789.155 974.656 788.711 978.113 786.29 979.974C783.846 981.753 780.393 981.314 778.59 978.923Z" fill="#71766E"/>
<path d="M121.335 839.013C126.466 820.212 117.37 799.902 100.427 790.337C83.5054 780.853 59.4293 786.35 48.7843 802.657C34.8948 823.861 43.6268 843.966 60.5705 853.531C66.1318 856.671 75.4093 857.719 81.4009 857.668L84.6855 871.882C93.4002 872.957 115.059 861.907 121.335 839.013Z" fill="#89B0C6"/>
<path d="M81.542 858.024C81.7861 857.955 105.354 849.837 106.073 824.768C106.513 810.391 97.8544 803.511 92.6795 800.658C84.045 795.921 72.8756 795.796 66.1709 800.388C60.02 804.606 56.1424 810.382 55.3926 816.688C54.7063 822.275 56.4338 827.713 60.3335 831.974C64.3824 836.457 69.6433 838.672 75.1219 838.194C80.1711 837.749 84.7282 834.897 87.3759 830.692C89.7365 826.875 90.0723 822.395 88.3806 818.351C86.5397 814.084 82.7414 810.978 78.1152 809.946C73.9117 809.015 69.9356 810.959 67.4801 815.066C65.5242 818.288 65.2067 821.885 66.7183 823.7C69.19 826.606 72.3222 828.099 74.7113 827.388C76.124 826.95 77.0079 825.869 77.2231 824.274L76.4524 824.182C76.2803 825.459 75.5658 826.36 74.4786 826.708C72.7699 827.185 69.8704 826.372 67.3015 823.274C66.043 821.739 66.3988 818.438 68.1263 815.5C69.0014 814.071 72.2549 809.522 77.941 810.74C82.2778 811.678 85.9496 814.644 87.6414 818.689C89.3173 822.519 88.9726 826.65 86.7002 830.311C84.2221 834.337 79.8865 837.039 75.052 837.468C69.7881 837.93 64.7871 835.862 60.8648 831.519C57.1435 827.427 55.5131 822.181 56.1338 816.832C56.8994 810.741 60.6075 805.144 66.5888 801.105C73.072 796.662 83.8933 796.797 92.3199 801.417C92.4239 801.476 92.4758 801.505 92.5798 801.564C97.6213 804.41 105.702 811.1 105.296 824.81C104.604 849.345 81.5015 857.246 81.3093 857.343L81.542 858.024Z" fill="#163560"/>
<path d="M6.65692 824.468C21.24 812.719 11.9842 789.778 11.9842 789.778C10.7528 784.031 5.78894 782.41 0.362305 783.051L0.362305 826.807C2.3496 826.932 4.45843 826.239 6.65692 824.468Z" fill="#48434C"/>
<path d="M30.2835 750.806C30.2835 750.806 54.4622 758.482 54.1474 777.736C53.7805 796.961 18.6377 781.998 14.3477 774.906C10.0057 767.786 18.0422 744.445 30.2835 750.806Z" fill="#89B0C6"/>
<path d="M136.71 823.796C136.71 823.796 125.385 805.249 141.242 796.829C157.099 788.408 172.642 829.592 161.232 833.657C149.77 837.692 140.454 834.768 136.71 823.796Z" fill="#89B0C6"/>
<path d="M160.995 798.504C160.995 798.504 149.67 779.957 165.527 771.537C181.384 763.116 196.927 804.301 185.517 808.365C174.107 812.43 164.762 809.557 160.995 798.504Z" fill="#99B6B8"/>
<path d="M65.5697 756.169C65.5697 756.169 57.5795 743.006 68.8184 737.06C80.0572 731.113 91.0803 760.271 82.9386 763.159C74.8264 765.995 68.2479 763.93 65.5697 756.169Z" fill="#99B6B8"/>
<path d="M119.282 780.729C119.282 780.729 136.238 754.458 149.802 760.055C163.284 765.675 146.249 782.494 136.793 784.434C127.365 786.322 121.581 789.649 119.282 780.729Z" fill="#48434C"/>
<path d="M570.354 1063.45C570.354 1063.45 559.03 1044.9 574.886 1036.48C590.743 1028.06 606.286 1069.25 594.876 1073.31C583.495 1077.32 574.151 1074.45 570.354 1063.45Z" fill="#89B0C6"/>
<path d="M594.691 1038.19C594.691 1038.19 583.366 1019.64 599.223 1011.22C615.08 1002.8 630.623 1043.98 619.213 1048.05C607.803 1052.11 598.488 1049.19 594.691 1038.19Z" fill="#99B6B8"/>
<path d="M552.929 1020.38C552.929 1020.38 569.885 994.109 583.448 999.706C596.93 1005.33 579.896 1022.15 570.439 1024.09C561.064 1026 555.257 1029.25 552.929 1020.38Z" fill="#48434C"/>
</svg>
