<svg width="48" height="48" viewBox="0 0 48 48" fill="none" xmlns="http://www.w3.org/2000/svg">
<path fill-rule="evenodd" clip-rule="evenodd" d="M35 24C35 30.0751 30.0751 35 24 35C17.9249 35 13 30.0751 13 24C13 17.9249 17.9249 13 24 13C30.0751 13 35 17.9249 35 24Z" stroke="#231815" stroke-width="2"/>
<line x1="43" y1="24" x2="39" y2="24" stroke="#F25022" stroke-width="2" stroke-linecap="round" stroke-linejoin="round"/>
<line x1="9" y1="24" x2="5" y2="24" stroke="#F25022" stroke-width="2" stroke-linecap="round" stroke-linejoin="round"/>
<line x1="43" y1="24" x2="39" y2="24" stroke="#231815" stroke-width="2" stroke-linecap="round" stroke-linejoin="round"/>
<line x1="9" y1="24" x2="5" y2="24" stroke="#231815" stroke-width="2" stroke-linecap="round" stroke-linejoin="round"/>
<g clip-path="url(#clip0)">
<line x1="40.4543" y1="33.5003" x2="36.9902" y2="31.5003" stroke="#231815" stroke-width="2" stroke-linecap="round" stroke-linejoin="round"/>
</g>
<g clip-path="url(#clip1)">
<line x1="11.0095" y1="16.5003" x2="7.54536" y2="14.5003" stroke="#231815" stroke-width="2" stroke-linecap="round" stroke-linejoin="round"/>
</g>
<g clip-path="url(#clip2)">
<line x1="33.4997" y1="40.4543" x2="31.4997" y2="36.9902" stroke="#231815" stroke-width="2" stroke-linecap="round" stroke-linejoin="round"/>
</g>
<g clip-path="url(#clip3)">
<line x1="16.4997" y1="11.0095" x2="14.4997" y2="7.54536" stroke="#231815" stroke-width="2" stroke-linecap="round" stroke-linejoin="round"/>
</g>
<g clip-path="url(#clip4)">
<line x1="24" y1="43" x2="24" y2="39" stroke="#231815" stroke-width="2" stroke-linecap="round" stroke-linejoin="round"/>
</g>
<g clip-path="url(#clip5)">
<line x1="24" y1="9" x2="24" y2="5" stroke="#231815" stroke-width="2" stroke-linecap="round" stroke-linejoin="round"/>
</g>
<g clip-path="url(#clip6)">
<line x1="14.4997" y1="40.4543" x2="16.4997" y2="36.9902" stroke="#231815" stroke-width="2" stroke-linecap="round" stroke-linejoin="round"/>
</g>
<g clip-path="url(#clip7)">
<line x1="31.4997" y1="11.0095" x2="33.4997" y2="7.54536" stroke="#231815" stroke-width="2" stroke-linecap="round" stroke-linejoin="round"/>
</g>
<g clip-path="url(#clip8)">
<line x1="7.54571" y1="33.4997" x2="11.0098" y2="31.4997" stroke="#231815" stroke-width="2" stroke-linecap="round" stroke-linejoin="round"/>
</g>
<g clip-path="url(#clip9)">
<line x1="36.9905" y1="16.4997" x2="40.4546" y2="14.4997" stroke="#231815" stroke-width="2" stroke-linecap="round" stroke-linejoin="round"/>
</g>
<defs>
<clipPath id="clip0">
<rect x="36.2583" y="28.7681" width="8" height="4" rx="2" transform="rotate(30 36.2583 28.7681)" fill="white"/>
</clipPath>
<clipPath id="clip1">
<rect x="6.81348" y="11.7681" width="8" height="4" rx="2" transform="rotate(30 6.81348 11.7681)" fill="white"/>
</clipPath>
<clipPath id="clip2">
<rect x="32.2319" y="34.2583" width="8" height="4" rx="2" transform="rotate(60 32.2319 34.2583)" fill="white"/>
</clipPath>
<clipPath id="clip3">
<rect x="15.2319" y="4.81348" width="8" height="4" rx="2" transform="rotate(60 15.2319 4.81348)" fill="white"/>
</clipPath>
<clipPath id="clip4">
<rect x="26" y="37" width="8" height="4" rx="2" transform="rotate(90 26 37)" fill="white"/>
</clipPath>
<clipPath id="clip5">
<rect x="26" y="3" width="8" height="4" rx="2" transform="rotate(90 26 3)" fill="white"/>
</clipPath>
<clipPath id="clip6">
<rect x="19.2319" y="36.2583" width="8" height="4" rx="2" transform="rotate(120 19.2319 36.2583)" fill="white"/>
</clipPath>
<clipPath id="clip7">
<rect x="36.2319" y="6.81348" width="8" height="4" rx="2" transform="rotate(120 36.2319 6.81348)" fill="white"/>
</clipPath>
<clipPath id="clip8">
<rect x="13.7417" y="32.2319" width="8" height="4" rx="2" transform="rotate(150 13.7417 32.2319)" fill="white"/>
</clipPath>
<clipPath id="clip9">
<rect x="43.1865" y="15.2319" width="8" height="4" rx="2" transform="rotate(150 43.1865 15.2319)" fill="white"/>
</clipPath>
</defs>
</svg>
