<svg width="26" height="32" viewBox="0 0 26 32" fill="none" xmlns="http://www.w3.org/2000/svg">
<path d="M13 31C19.5356 31 25 26.1627 25 20C25 15.984 22.8329 11.9443 20.4996 8.73052C18.1436 5.48546 15.4972 2.91978 14.3057 1.82576C13.5617 1.14265 12.4383 1.14265 11.6943 1.82576C10.5028 2.91978 7.85636 5.48546 5.50037 8.73052C3.16711 11.9443 1 15.984 1 20C1 26.1627 6.46441 31 13 31Z" fill="#F37673" stroke="#FABABA" stroke-width="2"/>
<path d="M13 27C17.3364 27 21 23.7526 21 19.5714C21 17 19.6953 14.4523 18.2836 12.4235C16.8532 10.3677 15.2082 8.69743 14.3223 7.85537C13.5778 7.14778 12.4222 7.14778 11.6777 7.85537C10.7918 8.69743 9.1468 10.3677 7.71637 12.4235C6.30472 14.4523 5 17 5 19.5714C5 23.7526 8.66359 27 13 27Z" stroke="white" stroke-width="2"/>
<path d="M13 23C12.4747 23 11.9546 22.8965 11.4693 22.6955C10.984 22.4945 10.543 22.1999 10.1716 21.8284C9.80014 21.457 9.5055 21.016 9.30448 20.5307C9.10346 20.0454 9 19.5253 9 19" stroke="white" stroke-width="2" stroke-linecap="round"/>
</svg>
