<svg width="1400" height="756" viewBox="0 0 1400 756" fill="none" xmlns="http://www.w3.org/2000/svg">
<path d="M1341.67 756H1400V468V27H0V468V596H58.3334C116.667 596 233.333 596 350 580C466.667 564 583.333 532 700 558.7C816.667 585 933.333 671 1050 713.3C1166.67 756 1283.33 756 1341.67 756Z" fill="#F6ADAB"/>
<path d="M1341.67 729H1400V441V0H0V441V569H58.3334C116.667 569 233.333 569 350 553C466.667 537 583.333 505 700 531.7C816.667 558 933.333 644 1050 686.3C1166.67 729 1283.33 729 1341.67 729Z" fill="#FABABA"/>
</svg>
