<svg width="319" height="76" viewBox="0 0 319 76" fill="none" xmlns="http://www.w3.org/2000/svg">
<path d="M12.33 68L11.954 68.3296L12.1034 68.5H12.33V68ZM6.36 61.19L6.73598 60.8604L5.86 59.8612V61.19H6.36ZM6.36 68V68.5H6.86V68H6.36ZM1.83 68H1.33V68.5H1.83V68ZM1.83 45.92V45.42H1.33V45.92H1.83ZM6.36 45.92H6.86V45.42H6.36V45.92ZM6.36 59.33H5.86V60.6601L6.73618 59.6594L6.36 59.33ZM12.06 52.82V52.32H11.8332L11.6838 52.4906L12.06 52.82ZM17.49 52.82L17.8645 53.1513L18.6 52.32H17.49V52.82ZM11.04 60.11L10.6655 59.7787L10.3754 60.1066L10.6622 60.4375L11.04 60.11ZM17.88 68V68.5H18.9752L18.2578 67.6725L17.88 68ZM12.706 67.6704L6.73598 60.8604L5.98402 61.5196L11.954 68.3296L12.706 67.6704ZM5.86 61.19V68H6.86V61.19H5.86ZM6.36 67.5H1.83V68.5H6.36V67.5ZM2.33 68V45.92H1.33V68H2.33ZM1.83 46.42H6.36V45.42H1.83V46.42ZM5.86 45.92V59.33H6.86V45.92H5.86ZM6.73618 59.6594L12.4362 53.1494L11.6838 52.4906L5.98382 59.0006L6.73618 59.6594ZM12.06 53.32H17.49V52.32H12.06V53.32ZM17.1155 52.4887L10.6655 59.7787L11.4145 60.4413L17.8645 53.1513L17.1155 52.4887ZM10.6622 60.4375L17.5022 68.3275L18.2578 67.6725L11.4178 59.7825L10.6622 60.4375ZM17.88 67.5H12.33V68.5H17.88V67.5ZM32.5308 60.77V61.27H33.0308V60.77H32.5308ZM22.5108 60.77V60.27H21.9818L22.0116 60.7981L22.5108 60.77ZM23.6208 63.89L23.2672 64.2436L23.2727 64.2489L23.6208 63.89ZM31.0608 63.32L31.5263 63.1375L31.2852 62.5227L30.7589 62.9215L31.0608 63.32ZM32.2608 66.38L32.5744 66.7694L32.8603 66.5391L32.7263 66.1975L32.2608 66.38ZM29.5608 67.76L29.7053 68.2387L29.7109 68.2369L29.5608 67.76ZM20.3208 66.14L19.9722 66.4984L19.9747 66.5009L20.3208 66.14ZM19.0608 56.24L18.618 56.0077L18.6166 56.0105L19.0608 56.24ZM21.7308 53.42L21.9813 53.8527L21.9869 53.8494L21.7308 53.42ZM30.6708 54.5L30.2965 54.8315L30.2989 54.8342L30.6708 54.5ZM23.6208 56.33L23.281 55.9631L23.2742 55.9696L23.6208 56.33ZM22.6008 58.52L22.1076 58.4378L22.0106 59.02H22.6008V58.52ZM28.6308 58.52V59.02H29.1957L29.1271 58.4592L28.6308 58.52ZM32.5308 60.27H22.5108V61.27H32.5308V60.27ZM22.0116 60.7981C22.095 62.2787 22.4846 63.461 23.2672 64.2436L23.9743 63.5364C23.4369 62.999 23.0866 62.1013 23.01 60.7419L22.0116 60.7981ZM23.2727 64.2489C24.0587 65.0112 25.185 65.35 26.5608 65.35V64.35C25.3366 64.35 24.5028 64.0488 23.9689 63.531L23.2727 64.2489ZM26.5608 65.35C27.3974 65.35 28.2307 65.2104 29.0589 64.9343L28.7427 63.9857C28.0109 64.2296 27.2842 64.35 26.5608 64.35V65.35ZM29.0589 64.9343C29.891 64.657 30.6595 64.2512 31.3627 63.7185L30.7589 62.9215C30.142 63.3887 29.4705 63.743 28.7427 63.9857L29.0589 64.9343ZM30.5953 63.5025L31.7953 66.5625L32.7263 66.1975L31.5263 63.1375L30.5953 63.5025ZM31.9471 65.9906C31.2852 66.5238 30.4441 66.9577 29.4106 67.2831L29.7109 68.2369C30.8375 67.8823 31.7963 67.3962 32.5744 66.7694L31.9471 65.9906ZM29.4163 67.2813C28.4019 67.5875 27.3806 67.74 26.3508 67.74V68.74C27.481 68.74 28.5996 68.5725 29.7053 68.2387L29.4163 67.2813ZM26.3508 67.74C23.884 67.74 22.0108 67.0678 20.6668 65.7791L19.9747 66.5009C21.5508 68.0122 23.6976 68.74 26.3508 68.74V67.74ZM20.6694 65.7816C19.325 64.474 18.6308 62.6837 18.6308 60.35H17.6308C17.6308 62.8963 18.3965 64.966 19.9722 66.4984L20.6694 65.7816ZM18.6308 60.35C18.6308 58.8786 18.9265 57.5892 19.505 56.4695L18.6166 56.0105C17.9551 57.2908 17.6308 58.7414 17.6308 60.35H18.6308ZM19.5036 56.4723C20.1018 55.3319 20.9269 54.4632 21.9813 53.8527L21.4803 52.9873C20.2547 53.6968 19.2998 54.7081 18.618 56.0077L19.5036 56.4723ZM21.9869 53.8494C23.0429 53.2195 24.2431 52.9 25.6008 52.9V51.9C24.0785 51.9 22.6986 52.2605 21.4746 52.9906L21.9869 53.8494ZM25.6008 52.9C27.6205 52.9 29.1656 53.5547 30.2965 54.8315L31.0451 54.1685C29.696 52.6453 27.861 51.9 25.6008 51.9V52.9ZM30.2989 54.8342C31.4358 56.0995 32.0308 57.8387 32.0308 60.11H33.0308C33.0308 57.6613 32.3857 55.6605 31.0427 54.1658L30.2989 54.8342ZM32.0308 60.11V60.77H33.0308V60.11H32.0308ZM25.7208 55.08C24.7575 55.08 23.9289 55.3633 23.2811 55.9631L23.9605 56.6969C24.3927 56.2967 24.9641 56.08 25.7208 56.08V55.08ZM23.2742 55.9696C22.6536 56.5663 22.2792 57.4083 22.1076 58.4378L23.094 58.6022C23.2424 57.7117 23.5479 57.0937 23.9673 56.6904L23.2742 55.9696ZM22.6008 59.02H28.6308V58.02H22.6008V59.02ZM29.1271 58.4592C28.9993 57.4154 28.6689 56.5596 28.0786 55.9633C27.4788 55.3572 26.6712 55.08 25.7208 55.08V56.08C26.4703 56.08 26.9978 56.2928 27.3679 56.6667C27.7477 57.0504 28.0223 57.6646 28.1345 58.5808L29.1271 58.4592ZM49.0249 60.77V61.27H49.5249V60.77H49.0249ZM39.0049 60.77V60.27H38.476L38.5057 60.7981L39.0049 60.77ZM40.1149 63.89L39.7613 64.2436L39.7668 64.2489L40.1149 63.89ZM47.5549 63.32L48.0204 63.1375L47.7793 62.5227L47.253 62.9215L47.5549 63.32ZM48.7549 66.38L49.0686 66.7694L49.3544 66.5391L49.2204 66.1975L48.7549 66.38ZM46.0549 67.76L46.1994 68.2387L46.2051 68.2369L46.0549 67.76ZM36.8149 66.14L36.4663 66.4984L36.4689 66.5009L36.8149 66.14ZM35.5549 56.24L35.1121 56.0077L35.1107 56.0105L35.5549 56.24ZM38.2249 53.42L38.4755 53.8527L38.4811 53.8494L38.2249 53.42ZM47.1649 54.5L46.7906 54.8315L46.793 54.8342L47.1649 54.5ZM40.1149 56.33L39.7752 55.9631L39.7684 55.9696L40.1149 56.33ZM39.0949 58.52L38.6017 58.4378L38.5047 59.02H39.0949V58.52ZM45.1249 58.52V59.02H45.6899L45.6212 58.4592L45.1249 58.52ZM49.0249 60.27H39.0049V61.27H49.0249V60.27ZM38.5057 60.7981C38.5891 62.2787 38.9788 63.461 39.7614 64.2436L40.4685 63.5364C39.9311 62.999 39.5807 62.1013 39.5041 60.7419L38.5057 60.7981ZM39.7668 64.2489C40.5529 65.0112 41.6791 65.35 43.0549 65.35V64.35C41.8307 64.35 40.997 64.0488 40.463 63.531L39.7668 64.2489ZM43.0549 65.35C43.8915 65.35 44.7248 65.2104 45.553 64.9343L45.2368 63.9857C44.505 64.2296 43.7783 64.35 43.0549 64.35V65.35ZM45.553 64.9343C46.3852 64.657 47.1537 64.2512 47.8569 63.7185L47.253 62.9215C46.6362 63.3887 45.9647 63.743 45.2368 63.9857L45.553 64.9343ZM47.0894 63.5025L48.2894 66.5625L49.2204 66.1975L48.0204 63.1375L47.0894 63.5025ZM48.4413 65.9906C47.7794 66.5238 46.9382 66.9577 45.9048 67.2831L46.2051 68.2369C47.3316 67.8823 48.2905 67.3962 49.0686 66.7694L48.4413 65.9906ZM45.9104 67.2813C44.8961 67.5875 43.8747 67.74 42.8449 67.74V68.74C43.9751 68.74 45.0938 68.5725 46.1994 68.2387L45.9104 67.2813ZM42.8449 67.74C40.3781 67.74 38.5049 67.0678 37.161 65.7791L36.4689 66.5009C38.0449 68.0122 40.1917 68.74 42.8449 68.74V67.74ZM37.1635 65.7816C35.8192 64.474 35.1249 62.6837 35.1249 60.35H34.1249C34.1249 62.8963 34.8907 64.966 36.4663 66.4984L37.1635 65.7816ZM35.1249 60.35C35.1249 58.8786 35.4206 57.5892 35.9991 56.4695L35.1107 56.0105C34.4492 57.2908 34.1249 58.7414 34.1249 60.35H35.1249ZM35.9977 56.4723C36.5959 55.3319 37.421 54.4632 38.4754 53.8527L37.9744 52.9873C36.7488 53.6968 35.7939 54.7081 35.1121 56.0077L35.9977 56.4723ZM38.4811 53.8494C39.5371 53.2195 40.7372 52.9 42.0949 52.9V51.9C40.5727 51.9 39.1928 52.2605 37.9688 52.9906L38.4811 53.8494ZM42.0949 52.9C44.1147 52.9 45.6597 53.5547 46.7906 54.8315L47.5392 54.1685C46.1901 52.6453 44.3552 51.9 42.0949 51.9V52.9ZM46.793 54.8342C47.93 56.0995 48.5249 57.8387 48.5249 60.11H49.5249C49.5249 57.6613 48.8799 55.6605 47.5368 54.1658L46.793 54.8342ZM48.5249 60.11V60.77H49.5249V60.11H48.5249ZM42.2149 55.08C41.2516 55.08 40.423 55.3633 39.7752 55.9631L40.4546 56.6969C40.8868 56.2967 41.4582 56.08 42.2149 56.08V55.08ZM39.7684 55.9696C39.1478 56.5663 38.7733 57.4083 38.6017 58.4378L39.5881 58.6022C39.7365 57.7117 40.0421 57.0937 40.4615 56.6904L39.7684 55.9696ZM39.0949 59.02H45.1249V58.02H39.0949V59.02ZM45.6212 58.4592C45.4934 57.4154 45.163 56.5596 44.5728 55.9633C43.9729 55.3572 43.1654 55.08 42.2149 55.08V56.08C42.9645 56.08 43.4919 56.2928 43.8621 56.6667C44.2418 57.0504 44.5164 57.6646 44.6286 58.5808L45.6212 58.4592ZM64.6491 53.42L64.3717 53.8361L64.3774 53.8398L64.6491 53.42ZM67.0191 56.24L66.5646 56.4486L66.5675 56.4547L67.0191 56.24ZM67.0491 64.55L67.5008 64.7644L67.5022 64.7614L67.0491 64.55ZM64.6791 67.28L64.9448 67.7035L64.9448 67.7035L64.6791 67.28ZM58.3191 67.58L58.5511 67.1371L58.5511 67.1371L58.3191 67.58ZM56.3991 65.75L56.8346 65.5043L55.8991 63.846V65.75H56.3991ZM56.3991 74.48V74.98H56.8991V74.48H56.3991ZM51.8691 74.48H51.3691V74.98H51.8691V74.48ZM51.6291 52.79V52.29H51.0627L51.1329 52.852L51.6291 52.79ZM55.8891 52.79L56.3856 52.7309L56.3331 52.29H55.8891V52.79ZM56.1891 55.31L55.6926 55.3691L55.9075 57.1746L56.646 55.5131L56.1891 55.31ZM58.1091 53.18L57.8589 52.747L57.8547 52.7495L58.1091 53.18ZM62.4591 63.68L62.8475 63.9949L62.8515 63.9898L62.4591 63.68ZM62.4291 57.08L62.029 57.38L62.0339 57.3863L62.4291 57.08ZM57.2691 57.05L56.8776 56.7389L56.8766 56.7402L57.2691 57.05ZM57.2691 63.65L56.8766 63.9599L56.8816 63.9661L57.2691 63.65ZM61.1691 52.9C62.3766 52.9 63.4389 53.2142 64.3717 53.836L64.9264 53.004C63.8192 52.2658 62.5615 51.9 61.1691 51.9V52.9ZM64.3774 53.8398C65.3094 54.4428 66.04 55.3055 66.5646 56.4486L67.4735 56.0314C66.8782 54.7345 66.0287 53.7172 64.9207 53.0002L64.3774 53.8398ZM66.5675 56.4547C67.111 57.598 67.3891 58.9128 67.3891 60.41H68.3891C68.3891 58.7872 68.0871 57.322 67.4706 56.0253L66.5675 56.4547ZM67.3891 60.41C67.3891 61.9098 67.1201 63.2155 66.596 64.3386L67.5022 64.7614C68.0981 63.4845 68.3891 62.0302 68.3891 60.41H67.3891ZM66.5974 64.3356C66.0746 65.4372 65.3459 66.2713 64.4133 66.8565L64.9448 67.7035C66.0523 67.0087 66.9036 66.0228 67.5008 64.7644L66.5974 64.3356ZM64.4133 66.8565C63.4805 67.4417 62.4044 67.74 61.1691 67.74V68.74C62.5737 68.74 63.8376 68.3983 64.9448 67.7035L64.4133 66.8565ZM61.1691 67.74C60.1802 67.74 59.3114 67.5353 58.5511 67.1371L58.0871 68.0229C59.0067 68.5047 60.0379 68.74 61.1691 68.74V67.74ZM58.5511 67.1371C57.7912 66.7391 57.2243 66.1953 56.8346 65.5043L55.9636 65.9957C56.4538 66.8647 57.1669 67.5409 58.0871 68.0229L58.5511 67.1371ZM55.8991 65.75V74.48H56.8991V65.75H55.8991ZM56.3991 73.98H51.8691V74.98H56.3991V73.98ZM52.3691 74.48V57.14H51.3691V74.48H52.3691ZM52.3691 57.14C52.3691 55.5043 52.2883 54.033 52.1252 52.728L51.1329 52.852C51.2898 54.107 51.3691 55.5357 51.3691 57.14H52.3691ZM51.6291 53.29H55.8891V52.29H51.6291V53.29ZM55.3926 52.8491L55.6926 55.3691L56.6856 55.2509L56.3856 52.7309L55.3926 52.8491ZM56.646 55.5131C57.0021 54.7118 57.5693 54.0797 58.3634 53.6105L57.8547 52.7495C56.8888 53.3203 56.1761 54.1082 55.7322 55.1069L56.646 55.5131ZM58.3592 53.6129C59.1759 53.141 60.1081 52.9 61.1691 52.9V51.9C59.95 51.9 58.8422 52.179 57.8589 52.7471L58.3592 53.6129ZM59.8791 65.29C61.1203 65.29 62.1353 64.8732 62.8474 63.9949L62.0707 63.3651C61.5828 63.9668 60.8779 64.29 59.8791 64.29V65.29ZM62.8515 63.9898C63.5471 63.1087 63.8591 61.8918 63.8591 60.41H62.8591C62.8591 61.7682 62.571 62.7313 62.0666 63.3702L62.8515 63.9898ZM63.8591 60.41C63.8591 58.9229 63.5349 57.6906 62.8243 56.7737L62.0339 57.3863C62.5633 58.0694 62.8591 59.0571 62.8591 60.41H63.8591ZM62.8291 56.78C62.1242 55.8402 61.1183 55.38 59.8791 55.38V56.38C60.8398 56.38 61.5339 56.7198 62.0291 57.38L62.8291 56.78ZM59.8791 55.38C58.6281 55.38 57.6051 55.8237 56.8777 56.7389L57.6605 57.3611C58.173 56.7163 58.89 56.38 59.8791 56.38V55.38ZM56.8766 56.7402C56.1802 57.6223 55.8691 58.8501 55.8691 60.35H56.8691C56.8691 58.9699 57.1579 57.9977 57.6615 57.3598L56.8766 56.7402ZM55.8691 60.35C55.8691 61.8499 56.1802 63.0777 56.8766 63.9598L57.6615 63.3402C57.1579 62.7023 56.8691 61.7301 56.8691 60.35H55.8691ZM56.8816 63.9661C57.6108 64.8598 58.6328 65.29 59.8791 65.29V64.29C58.8853 64.29 58.1674 63.9602 57.6565 63.3339L56.8816 63.9661ZM94.2323 52.79L94.6903 52.9907L94.9973 52.29H94.2323V52.79ZM87.2123 68.81L87.6694 69.0126L87.6703 69.0107L87.2123 68.81ZM83.9423 73.07L83.6606 72.6568L83.6535 72.6619L83.9423 73.07ZM79.1423 74.84L78.6637 74.9844L78.787 75.3933L79.2101 75.3354L79.1423 74.84ZM78.0923 71.36L77.9876 70.8711L77.4569 70.9848L77.6137 71.5044L78.0923 71.36ZM81.2423 70.22L80.9731 69.7986L80.9678 69.8021L81.2423 70.22ZM82.9223 68.21L83.3775 68.4169L83.3775 68.4169L82.9223 68.21ZM83.3723 67.22L83.8275 67.4269L83.9195 67.2246L83.8309 67.0207L83.3723 67.22ZM77.1023 52.79V52.29H76.3399L76.6438 52.9893L77.1023 52.79ZM81.8423 52.79L82.3074 52.6063L82.1824 52.29H81.8423V52.79ZM85.7423 62.66L85.2773 62.8437L85.7353 64.0028L86.2054 62.8486L85.7423 62.66ZM89.7623 52.79V52.29H89.4261L89.2993 52.6014L89.7623 52.79ZM93.7744 52.5893L86.7544 68.6093L87.6703 69.0107L94.6903 52.9907L93.7744 52.5893ZM86.7552 68.6074C85.9209 70.4895 84.8824 71.8239 83.6607 72.6569L84.224 73.4831C85.6423 72.5161 86.7838 71.0105 87.6694 69.0126L86.7552 68.6074ZM83.6535 72.6619C82.4312 73.5269 80.911 74.0933 79.0746 74.3446L79.2101 75.3354C81.1736 75.0667 82.8535 74.4531 84.2312 73.4781L83.6535 72.6619ZM79.621 74.6956L78.571 71.2156L77.6137 71.5044L78.6637 74.9844L79.621 74.6956ZM78.1971 71.8489C79.6209 71.5438 80.7411 71.1477 81.5169 70.6379L80.9678 69.8021C80.3436 70.2123 79.3638 70.5762 77.9876 70.8711L78.1971 71.8489ZM81.5115 70.6413C82.3233 70.1227 82.943 69.3729 83.3775 68.4169L82.4672 68.0031C82.1017 68.8071 81.6014 69.3973 80.9731 69.7987L81.5115 70.6413ZM83.3775 68.4169L83.8275 67.4269L82.9172 67.0131L82.4672 68.0031L83.3775 68.4169ZM83.8309 67.0207L77.5609 52.5907L76.6438 52.9893L82.9138 67.4193L83.8309 67.0207ZM77.1023 53.29H81.8423V52.29H77.1023V53.29ZM81.3773 52.9737L85.2773 62.8437L86.2074 62.4763L82.3074 52.6063L81.3773 52.9737ZM86.2054 62.8486L90.2254 52.9786L89.2993 52.6014L85.2793 62.4714L86.2054 62.8486ZM89.7623 53.29H94.2323V52.29H89.7623V53.29ZM98.4335 67.28L98.1982 67.7212L98.2012 67.7228L98.4335 67.28ZM95.6435 64.52L95.2023 64.7553L95.2054 64.761L95.6435 64.52ZM95.6435 56.12L95.2054 55.879L95.2023 55.8847L95.6435 56.12ZM98.4335 53.36L98.2012 52.9172L98.1982 52.9188L98.4335 53.36ZM109.654 56.12L109.212 56.3553L109.215 56.361L109.654 56.12ZM109.654 64.52L109.215 64.279L109.212 64.2847L109.654 64.52ZM106.894 67.28L107.129 67.7212L106.894 67.28ZM105.244 63.68L104.855 63.3651L104.85 63.3716L105.244 63.68ZM105.244 56.99L104.846 57.2933L104.851 57.2992L104.855 57.3049L105.244 56.99ZM100.084 56.99L100.472 57.3049L100.476 57.2998L100.084 56.99ZM102.694 67.74C101.14 67.74 99.8025 67.4335 98.6658 66.8372L98.2012 67.7228C99.5045 68.4065 101.007 68.74 102.694 68.74V67.74ZM98.6688 66.8388C97.555 66.2448 96.6952 65.3947 96.0816 64.279L95.2054 64.761C95.9118 66.0453 96.912 67.0352 98.1982 67.7212L98.6688 66.8388ZM96.0847 64.2847C95.4896 63.1689 95.1835 61.8524 95.1835 60.32H94.1835C94.1835 61.9876 94.5174 63.4711 95.2023 64.7553L96.0847 64.2847ZM95.1835 60.32C95.1835 58.7876 95.4896 57.4711 96.0847 56.3553L95.2023 55.8847C94.5174 57.1689 94.1835 58.6524 94.1835 60.32H95.1835ZM96.0816 56.361C96.6952 55.2453 97.555 54.3952 98.6688 53.8012L98.1982 52.9188C96.912 53.6048 95.9118 54.5947 95.2054 55.879L96.0816 56.361ZM98.6658 53.8028C99.8025 53.2065 101.14 52.9 102.694 52.9V51.9C101.007 51.9 99.5045 52.2335 98.2012 52.9172L98.6658 53.8028ZM102.694 52.9C104.226 52.9 105.542 53.2061 106.658 53.8012L107.129 52.9188C105.845 52.2339 104.361 51.9 102.694 51.9V52.9ZM106.658 53.8012C107.771 54.3945 108.619 55.2428 109.212 56.3553L110.095 55.8847C109.408 54.5972 108.416 53.6055 107.129 52.9188L106.658 53.8012ZM109.215 56.361C109.828 57.4756 110.144 58.79 110.144 60.32H111.144C111.144 58.65 110.799 57.1644 110.092 55.879L109.215 56.361ZM110.144 60.32C110.144 61.85 109.828 63.1644 109.215 64.279L110.092 64.761C110.799 63.4756 111.144 61.99 111.144 60.32H110.144ZM109.212 64.2847C108.619 65.3972 107.771 66.2455 106.658 66.8388L107.129 67.7212C108.416 67.0345 109.408 66.0428 110.095 64.7553L109.212 64.2847ZM106.658 66.8388C105.542 67.4339 104.226 67.74 102.694 67.74V68.74C104.361 68.74 105.845 68.4061 107.129 67.7212L106.658 66.8388ZM102.694 65.29C103.934 65.29 104.944 64.8731 105.637 63.9884L104.85 63.3716C104.383 63.9669 103.693 64.29 102.694 64.29V65.29ZM105.632 63.9949C106.335 63.1273 106.644 61.8727 106.644 60.32H105.644C105.644 61.7673 105.352 62.7527 104.855 63.3651L105.632 63.9949ZM106.644 60.32C106.644 58.7854 106.335 57.5417 105.632 56.6751L104.855 57.3049C105.352 57.9183 105.644 58.8946 105.644 60.32H106.644ZM105.641 56.6867C104.949 55.7805 103.939 55.35 102.694 55.35V56.35C103.688 56.35 104.378 56.6795 104.846 57.2933L105.641 56.6867ZM102.694 55.35C101.431 55.35 100.403 55.7781 99.6911 56.6802L100.476 57.2998C100.964 56.6819 101.676 56.35 102.694 56.35V55.35ZM99.6951 56.6751C98.9925 57.5417 98.6835 58.7854 98.6835 60.32H99.6835C99.6835 58.8946 99.9745 57.9183 100.472 57.3049L99.6951 56.6751ZM98.6835 60.32C98.6835 61.8618 98.9839 63.1104 99.6678 63.9813C100.37 64.8752 101.41 65.29 102.694 65.29V64.29C101.637 64.29 100.922 63.9598 100.454 63.3637C99.9681 62.7446 99.6835 61.7582 99.6835 60.32H98.6835ZM128.059 52.79H128.559V52.29H128.059V52.79ZM128.059 68V68.5H128.559V68H128.059ZM123.649 68H123.149V68.5H123.649V68ZM123.649 65.78H124.149V63.9748L123.22 65.5228L123.649 65.78ZM121.759 67.61L121.996 68.0502L121.996 68.0502L121.759 67.61ZM114.859 66.65L114.485 66.9817L114.485 66.9817L114.859 66.65ZM113.449 52.79V52.29H112.949V52.79H113.449ZM117.979 52.79H118.479V52.29H117.979V52.79ZM122.629 63.74L122.999 64.0758L122.999 64.0758L122.629 63.74ZM123.499 52.79V52.29H122.999V52.79H123.499ZM127.559 52.79V68H128.559V52.79H127.559ZM128.059 67.5H123.649V68.5H128.059V67.5ZM124.149 68V65.78H123.149V68H124.149ZM123.22 65.5228C122.784 66.2499 122.218 66.7947 121.522 67.1698L121.996 68.0502C122.86 67.5853 123.554 66.9101 124.078 66.0372L123.22 65.5228ZM121.522 67.1698C120.822 67.5465 120.025 67.74 119.119 67.74V68.74C120.173 68.74 121.136 68.5135 121.996 68.0502L121.522 67.1698ZM119.119 67.74C117.311 67.74 116.049 67.2381 115.233 66.3183L114.485 66.9817C115.549 68.1819 117.127 68.74 119.119 68.74V67.74ZM115.233 66.3183C114.407 65.3866 113.949 63.9282 113.949 61.85H112.949C112.949 64.0518 113.431 65.7934 114.485 66.9817L115.233 66.3183ZM113.949 61.85V52.79H112.949V61.85H113.949ZM113.449 53.29H117.979V52.29H113.449V53.29ZM117.479 52.79V61.94H118.479V52.79H117.479ZM117.479 61.94C117.479 62.92 117.688 63.7483 118.192 64.3357C118.709 64.9377 119.46 65.2 120.349 65.2V64.2C119.658 64.2 119.224 64.0023 118.951 63.6843C118.665 63.3517 118.479 62.8 118.479 61.94H117.479ZM120.349 65.2C121.416 65.2 122.316 64.8303 122.999 64.0758L122.258 63.4042C121.782 63.9297 121.162 64.2 120.349 64.2V65.2ZM122.999 64.0758C123.679 63.3258 123.999 62.3574 123.999 61.22H122.999C122.999 62.1626 122.739 62.8742 122.258 63.4042L122.999 64.0758ZM123.999 61.22V52.79H122.999V61.22H123.999ZM123.499 53.29H128.059V52.29H123.499V53.29ZM142.202 52.73L142.702 52.7336L142.705 52.4091L142.409 52.2748L142.202 52.73ZM142.172 56.87L141.964 57.3243L142.667 57.6474L142.672 56.8736L142.172 56.87ZM137.192 57.35L136.833 57.0019L136.833 57.0021L137.192 57.35ZM136.262 68V68.5H136.762V68H136.262ZM131.732 68H131.232V68.5H131.732V68ZM131.492 52.79V52.29H130.926L130.996 52.852L131.492 52.79ZM135.752 52.79L136.249 52.7329L136.198 52.29H135.752V52.79ZM136.052 55.4L135.556 55.4571L136.517 55.584L136.052 55.4ZM137.822 53.21L138.087 53.634L138.09 53.6323L137.822 53.21ZM140.582 52.93C141.173 52.93 141.638 53.0226 141.995 53.1852L142.409 52.2748C141.887 52.0374 141.272 51.93 140.582 51.93V52.93ZM141.702 52.7264L141.672 56.8664L142.672 56.8736L142.702 52.7336L141.702 52.7264ZM142.381 56.4157C141.582 56.0486 140.771 55.86 139.952 55.86V56.86C140.613 56.86 141.282 57.0114 141.964 57.3243L142.381 56.4157ZM139.952 55.86C138.66 55.86 137.594 56.2177 136.833 57.0019L137.551 57.6981C138.071 57.1623 138.844 56.86 139.952 56.86V55.86ZM136.833 57.0021C136.098 57.761 135.762 58.8008 135.762 60.05H136.762C136.762 58.9792 137.047 58.219 137.551 57.6979L136.833 57.0021ZM135.762 60.05V68H136.762V60.05H135.762ZM136.262 67.5H131.732V68.5H136.262V67.5ZM132.232 68V57.14H131.232V68H132.232ZM132.232 57.14C132.232 55.5043 132.152 54.033 131.988 52.728L130.996 52.852C131.153 54.107 131.232 55.5357 131.232 57.14H132.232ZM131.492 53.29H135.752V52.29H131.492V53.29ZM135.256 52.8471L135.556 55.4571L136.549 55.3429L136.249 52.7329L135.256 52.8471ZM136.517 55.584C136.862 54.7134 137.387 54.072 138.087 53.634L137.557 52.786C136.658 53.348 136.003 54.1666 135.587 55.216L136.517 55.584ZM138.09 53.6323C138.826 53.1657 139.652 52.93 140.582 52.93V51.93C139.473 51.93 138.459 52.2143 137.555 52.7877L138.09 53.6323ZM165.255 53.42L164.977 53.8361L164.983 53.8398L165.255 53.42ZM167.625 56.24L167.17 56.4486L167.173 56.4547L167.625 56.24ZM167.655 64.55L168.106 64.7644L168.108 64.7614L167.655 64.55ZM165.285 67.28L165.55 67.7035L165.55 67.7035L165.285 67.28ZM158.925 67.58L159.157 67.1371L159.157 67.1371L158.925 67.58ZM157.005 65.75L157.44 65.5043L156.505 63.846V65.75H157.005ZM157.005 74.48V74.98H157.505V74.48H157.005ZM152.475 74.48H151.975V74.98H152.475V74.48ZM152.235 52.79V52.29H151.668L151.738 52.852L152.235 52.79ZM156.495 52.79L156.991 52.7309L156.939 52.29H156.495V52.79ZM156.795 55.31L156.298 55.3691L156.513 57.1746L157.251 55.5131L156.795 55.31ZM158.715 53.18L158.464 52.747L158.46 52.7495L158.715 53.18ZM163.065 63.68L163.453 63.9949L163.457 63.9898L163.065 63.68ZM163.035 57.08L162.634 57.38L162.639 57.3863L163.035 57.08ZM157.875 57.05L157.483 56.7389L157.482 56.7402L157.875 57.05ZM157.875 63.65L157.482 63.9599L157.487 63.9661L157.875 63.65ZM161.775 52.9C162.982 52.9 164.044 53.2142 164.977 53.836L165.532 53.004C164.425 52.2658 163.167 51.9 161.775 51.9V52.9ZM164.983 53.8398C165.915 54.4428 166.645 55.3055 167.17 56.4486L168.079 56.0314C167.484 54.7345 166.634 53.7172 165.526 53.0002L164.983 53.8398ZM167.173 56.4547C167.716 57.598 167.995 58.9128 167.995 60.41H168.995C168.995 58.7872 168.693 57.322 168.076 56.0253L167.173 56.4547ZM167.995 60.41C167.995 61.9098 167.726 63.2155 167.201 64.3386L168.108 64.7614C168.704 63.4845 168.995 62.0302 168.995 60.41H167.995ZM167.203 64.3356C166.68 65.4372 165.951 66.2713 165.019 66.8565L165.55 67.7035C166.658 67.0087 167.509 66.0228 168.106 64.7644L167.203 64.3356ZM165.019 66.8565C164.086 67.4417 163.01 67.74 161.775 67.74V68.74C163.179 68.74 164.443 68.3983 165.55 67.7035L165.019 66.8565ZM161.775 67.74C160.786 67.74 159.917 67.5353 159.157 67.1371L158.693 68.0229C159.612 68.5047 160.643 68.74 161.775 68.74V67.74ZM159.157 67.1371C158.397 66.7391 157.83 66.1953 157.44 65.5043L156.569 65.9957C157.059 66.8647 157.772 67.5409 158.693 68.0229L159.157 67.1371ZM156.505 65.75V74.48H157.505V65.75H156.505ZM157.005 73.98H152.475V74.98H157.005V73.98ZM152.975 74.48V57.14H151.975V74.48H152.975ZM152.975 57.14C152.975 55.5043 152.894 54.033 152.731 52.728L151.738 52.852C151.895 54.107 151.975 55.5357 151.975 57.14H152.975ZM152.235 53.29H156.495V52.29H152.235V53.29ZM155.998 52.8491L156.298 55.3691L157.291 55.2509L156.991 52.7309L155.998 52.8491ZM157.251 55.5131C157.608 54.7118 158.175 54.0797 158.969 53.6105L158.46 52.7495C157.494 53.3203 156.782 54.1082 156.338 55.1069L157.251 55.5131ZM158.965 53.6129C159.781 53.141 160.714 52.9 161.775 52.9V51.9C160.555 51.9 159.448 52.179 158.464 52.7471L158.965 53.6129ZM160.485 65.29C161.726 65.29 162.741 64.8732 163.453 63.9949L162.676 63.3651C162.188 63.9668 161.483 64.29 160.485 64.29V65.29ZM163.457 63.9898C164.153 63.1087 164.465 61.8918 164.465 60.41H163.465C163.465 61.7682 163.176 62.7313 162.672 63.3702L163.457 63.9898ZM164.465 60.41C164.465 58.9229 164.14 57.6906 163.43 56.7737L162.639 57.3863C163.169 58.0694 163.465 59.0571 163.465 60.41H164.465ZM163.435 56.78C162.73 55.8402 161.724 55.38 160.485 55.38V56.38C161.445 56.38 162.139 56.7198 162.635 57.38L163.435 56.78ZM160.485 55.38C159.234 55.38 158.211 55.8237 157.483 56.7389L158.266 57.3611C158.778 56.7163 159.496 56.38 160.485 56.38V55.38ZM157.482 56.7402C156.786 57.6223 156.475 58.8501 156.475 60.35H157.475C157.475 58.9699 157.763 57.9977 158.267 57.3598L157.482 56.7402ZM156.475 60.35C156.475 61.8499 156.786 63.0777 157.482 63.9598L158.267 63.3402C157.763 62.7023 157.475 61.7301 157.475 60.35H156.475ZM157.487 63.9661C158.216 64.8598 159.238 65.29 160.485 65.29V64.29C159.491 64.29 158.773 63.9602 158.262 63.3339L157.487 63.9661ZM171.4 45.92V45.42H170.9V45.92H171.4ZM175.93 45.92H176.43V45.42H175.93V45.92ZM175.93 68V68.5H176.43V68H175.93ZM171.4 68H170.9V68.5H171.4V68ZM171.4 46.42H175.93V45.42H171.4V46.42ZM175.43 45.92V68H176.43V45.92H175.43ZM175.93 67.5H171.4V68.5H175.93V67.5ZM171.9 68V45.92H170.9V68H171.9ZM194.873 52.79H195.373V52.29H194.873V52.79ZM194.873 68V68.5H195.373V68H194.873ZM190.403 68H189.903V68.5H190.403V68ZM190.403 65.75H190.903V63.9179L189.972 65.496L190.403 65.75ZM188.453 67.58L188.685 68.0229L188.685 68.0229L188.453 67.58ZM182.093 67.28L181.823 67.7012L181.827 67.7035L182.093 67.28ZM179.723 64.55L179.27 64.7615L179.274 64.7706L179.723 64.55ZM179.723 56.24L179.271 56.0253L179.268 56.0314L179.723 56.24ZM182.123 53.42L182.394 53.8398L182.4 53.836L182.123 53.42ZM188.453 53.09L188.213 53.5285L188.213 53.5285L188.453 53.09ZM190.403 54.95L189.972 55.204L190.903 56.7821V54.95H190.403ZM190.403 52.79V52.29H189.903V52.79H190.403ZM189.503 57.05L189.106 57.3549L189.11 57.3598L189.503 57.05ZM184.313 57.08L183.918 56.7737L183.918 56.7737L184.313 57.08ZM184.283 63.68L183.89 63.9898L183.895 63.9955L183.899 64.0011L184.283 63.68ZM194.373 52.79V68H195.373V52.79H194.373ZM194.873 67.5H190.403V68.5H194.873V67.5ZM190.903 68V65.75H189.903V68H190.903ZM189.972 65.496C189.562 66.1919 188.982 66.7382 188.221 67.1371L188.685 68.0229C189.603 67.5418 190.324 66.8681 190.833 66.004L189.972 65.496ZM188.221 67.1371C187.46 67.5353 186.592 67.74 185.603 67.74V68.74C186.734 68.74 187.765 68.5047 188.685 68.0229L188.221 67.1371ZM185.603 67.74C184.367 67.74 183.291 67.4417 182.358 66.8565L181.827 67.7035C182.934 68.3983 184.198 68.74 185.603 68.74V67.74ZM182.362 66.8589C181.447 66.2733 180.716 65.4365 180.171 64.3294L179.274 64.7706C179.89 66.0235 180.738 67.0067 181.823 67.7011L182.362 66.8589ZM180.176 64.3386C179.652 63.2155 179.383 61.9098 179.383 60.41H178.383C178.383 62.0302 178.674 63.4845 179.27 64.7614L180.176 64.3386ZM179.383 60.41C179.383 58.9104 179.652 57.5934 180.177 56.4486L179.268 56.0314C178.674 57.3266 178.383 58.7896 178.383 60.41H179.383ZM180.174 56.4547C180.719 55.3088 181.461 54.4439 182.394 53.8398L181.851 53.0002C180.745 53.7161 179.886 54.7312 179.271 56.0253L180.174 56.4547ZM182.4 53.836C183.333 53.2142 184.395 52.9 185.603 52.9V51.9C184.21 51.9 182.953 52.2658 181.845 53.004L182.4 53.836ZM185.603 52.9C186.588 52.9 187.454 53.113 188.213 53.5285L188.693 52.6515C187.772 52.147 186.738 51.9 185.603 51.9V52.9ZM188.213 53.5285C188.978 53.9479 189.56 54.5061 189.972 55.204L190.833 54.696C190.325 53.8339 189.607 53.1521 188.693 52.6515L188.213 53.5285ZM190.903 54.95V52.79H189.903V54.95H190.903ZM190.403 53.29H194.873V52.29H190.403V53.29ZM186.923 65.29C188.169 65.29 189.185 64.8596 189.895 63.9598L189.11 63.3402C188.621 63.9604 187.917 64.29 186.923 64.29V65.29ZM189.895 63.9598C190.592 63.0777 190.903 61.8499 190.903 60.35H189.903C189.903 61.7301 189.614 62.7023 189.11 63.3402L189.895 63.9598ZM190.903 60.35C190.903 58.8501 190.592 57.6223 189.895 56.7402L189.11 57.3598C189.614 57.9977 189.903 58.9699 189.903 60.35H190.903ZM189.899 56.7451C189.19 55.824 188.174 55.38 186.923 55.38V56.38C187.912 56.38 188.615 56.716 189.106 57.3549L189.899 56.7451ZM186.923 55.38C185.667 55.38 184.643 55.8373 183.918 56.7737L184.708 57.3863C185.222 56.7227 185.938 56.38 186.923 56.38V55.38ZM183.918 56.7737C183.207 57.6906 182.883 58.9229 182.883 60.41H183.883C183.883 59.0571 184.179 58.0694 184.708 57.3863L183.918 56.7737ZM182.883 60.41C182.883 61.8918 183.195 63.1087 183.89 63.9898L184.675 63.3702C184.171 62.7313 183.883 61.7682 183.883 60.41H182.883ZM183.899 64.0011C184.632 64.8754 185.664 65.29 186.923 65.29V64.29C185.901 64.29 185.173 63.9646 184.666 63.3589L183.899 64.0011ZM213.319 68V68.5H213.819V68H213.319ZM208.789 68H208.289V68.5H208.789V68ZM208.189 56.69L207.791 56.9925L207.798 57.0015L207.805 57.0101L208.189 56.69ZM203.959 56.9L204.324 57.242L204.324 57.242L203.959 56.9ZM203.059 68V68.5H203.559V68H203.059ZM198.529 68H198.029V68.5H198.529V68ZM198.289 52.79V52.29H197.723L197.793 52.852L198.289 52.79ZM202.549 52.79L203.045 52.728L202.991 52.29H202.549V52.79ZM202.849 55.19L202.353 55.252L202.533 56.6893L203.278 55.4472L202.849 55.19ZM204.949 53.12L204.71 52.681L204.706 52.6834L204.949 53.12ZM207.919 52.9C209.618 52.9 210.808 53.3986 211.587 54.3202C212.38 55.258 212.819 56.7184 212.819 58.79H213.819C213.819 56.6016 213.359 54.867 212.351 53.6748C211.33 52.4664 209.82 51.9 207.919 51.9V52.9ZM212.819 58.79V68H213.819V58.79H212.819ZM213.319 67.5H208.789V68.5H213.319V67.5ZM209.289 68V59H208.289V68H209.289ZM209.289 59C209.289 57.8976 209.085 56.9839 208.573 56.3699L207.805 57.0101C208.093 57.3561 208.289 57.9824 208.289 59H209.289ZM208.587 56.3875C208.083 55.7238 207.298 55.44 206.359 55.44V56.44C207.1 56.44 207.536 56.6562 207.791 56.9925L208.587 56.3875ZM206.359 55.44C205.242 55.44 204.303 55.8027 203.594 56.558L204.324 57.242C204.816 56.7173 205.476 56.44 206.359 56.44V55.44ZM203.594 56.558C202.889 57.311 202.559 58.3038 202.559 59.48H203.559C203.559 58.4962 203.83 57.769 204.324 57.242L203.594 56.558ZM202.559 59.48V68H203.559V59.48H202.559ZM203.059 67.5H198.529V68.5H203.059V67.5ZM199.029 68V57.14H198.029V68H199.029ZM199.029 57.14C199.029 55.5043 198.948 54.033 198.785 52.728L197.793 52.852C197.95 54.107 198.029 55.5357 198.029 57.14H199.029ZM198.289 53.29H202.549V52.29H198.289V53.29ZM202.053 52.852L202.353 55.252L203.345 55.128L203.045 52.728L202.053 52.852ZM203.278 55.4472C203.776 54.6171 204.414 53.9912 205.193 53.5566L204.706 52.6834C203.764 53.2088 203.002 53.9629 202.42 54.9328L203.278 55.4472ZM205.189 53.5589C205.988 53.1228 206.895 52.9 207.919 52.9V51.9C206.744 51.9 205.67 52.1572 204.71 52.6811L205.189 53.5589ZM222.628 56.18V55.68H222.128V56.18H222.628ZM223.288 63.95L222.951 64.3201L222.961 64.3284L223.288 63.95ZM226.498 64.31H226.998V63.6696L226.376 63.8249L226.498 64.31ZM226.498 67.82L226.679 68.286L226.998 68.162V67.82H226.498ZM219.568 66.65L219.201 66.9894L219.204 66.9931L219.568 66.65ZM218.098 56.18H218.598V55.68H218.098V56.18ZM215.218 56.18H214.718V56.68H215.218V56.18ZM215.218 52.79V52.29H214.718V52.79H215.218ZM218.098 52.79V53.29H218.598V52.79H218.098ZM218.098 49.22L217.943 48.7444L217.598 48.8566V49.22H218.098ZM222.628 47.75H223.128V47.0621L222.473 47.2744L222.628 47.75ZM222.628 52.79H222.128V53.29H222.628V52.79ZM226.498 52.79H226.998V52.29H226.498V52.79ZM226.498 56.18V56.68H226.998V56.18H226.498ZM222.128 56.18V62.09H223.128V56.18H222.128ZM222.128 62.09C222.128 63.0112 222.37 63.7914 222.951 64.32L223.624 63.58C223.325 63.3086 223.128 62.8488 223.128 62.09H222.128ZM222.961 64.3284C223.509 64.8021 224.203 65.02 224.998 65.02V64.02C224.392 64.02 223.946 63.8579 223.614 63.5716L222.961 64.3284ZM224.998 65.02C225.489 65.02 226.031 64.9421 226.619 64.7951L226.376 63.8249C225.844 63.9579 225.386 64.02 224.998 64.02V65.02ZM225.998 64.31V67.82H226.998V64.31H225.998ZM226.316 67.354C225.669 67.6056 224.864 67.74 223.888 67.74V68.74C224.951 68.74 225.886 68.5944 226.679 68.286L226.316 67.354ZM223.888 67.74C222.103 67.74 220.811 67.2398 219.931 66.3069L219.204 66.9931C220.324 68.1802 221.912 68.74 223.888 68.74V67.74ZM219.935 66.3106C219.065 65.37 218.598 64.0166 218.598 62.18H217.598C217.598 64.1834 218.11 65.81 219.201 66.9894L219.935 66.3106ZM218.598 62.18V56.18H217.598V62.18H218.598ZM218.098 55.68H215.218V56.68H218.098V55.68ZM215.718 56.18V52.79H214.718V56.18H215.718ZM215.218 53.29H218.098V52.29H215.218V53.29ZM218.598 52.79V49.22H217.598V52.79H218.598ZM218.252 49.6956L222.782 48.2256L222.473 47.2744L217.943 48.7444L218.252 49.6956ZM222.128 47.75V52.79H223.128V47.75H222.128ZM222.628 53.29H226.498V52.29H222.628V53.29ZM225.998 52.79V56.18H226.998V52.79H225.998ZM226.498 55.68H222.628V56.68H226.498V55.68ZM227.832 66.38L227.365 66.202L227.231 66.5547L227.533 66.7806L227.832 66.38ZM229.032 63.23L229.326 62.8252L228.797 62.4421L228.565 63.052L229.032 63.23ZM231.702 64.58L231.547 65.0554L231.556 65.0581L231.702 64.58ZM236.502 64.67L236.254 64.2359L236.254 64.2359L236.502 64.67ZM236.682 62.72L236.387 63.1232L236.387 63.1232L236.682 62.72ZM235.092 62.15L234.981 62.6375L234.989 62.6393L235.092 62.15ZM232.602 61.58L232.714 61.0926L232.709 61.0916L232.602 61.58ZM229.362 60.05L229.004 60.3984L229.009 60.4036L229.362 60.05ZM229.152 54.74L228.753 54.4382L228.748 54.4453L229.152 54.74ZM231.462 53.03L231.651 53.493L231.659 53.4896L231.462 53.03ZM238.032 52.91L237.877 53.3853L237.885 53.3879L238.032 52.91ZM240.822 54.29L241.284 54.482L241.435 54.1188L241.117 53.8865L240.822 54.29ZM239.562 57.32L239.278 57.7311L239.786 58.0833L240.024 57.512L239.562 57.32ZM237.162 56.09L236.997 56.5619L237.001 56.5632L237.162 56.09ZM233.082 56.06L232.819 55.6349L232.819 55.6349L233.082 56.06ZM232.812 57.98L232.474 58.3486L232.49 58.3632L232.507 58.3763L232.812 57.98ZM234.162 58.49L234.271 58.002L234.269 58.0015L234.162 58.49ZM236.712 59.06L236.825 58.5728L236.821 58.572L236.712 59.06ZM240.102 60.68L239.744 61.0285L240.102 60.68ZM239.412 66.98L239.705 67.385L239.705 67.385L239.412 66.98ZM234.642 67.74C231.829 67.74 229.677 67.134 228.131 65.9794L227.533 66.7806C229.307 68.106 231.695 68.74 234.642 68.74V67.74ZM228.299 66.558L229.499 63.408L228.565 63.052L227.365 66.202L228.299 66.558ZM228.739 63.6348C229.583 64.2467 230.52 64.7198 231.547 65.0553L231.857 64.1047C230.925 63.8001 230.082 63.3733 229.326 62.8252L228.739 63.6348ZM231.556 65.0581C232.583 65.3725 233.632 65.53 234.702 65.53V64.53C233.732 64.53 232.781 64.3875 231.849 64.1019L231.556 65.0581ZM234.702 65.53C235.521 65.53 236.222 65.4061 236.75 65.1041L236.254 64.2359C235.943 64.4139 235.443 64.53 234.702 64.53V65.53ZM236.75 65.1041C237.316 64.7808 237.632 64.2705 237.632 63.62H236.632C236.632 63.8895 236.528 64.0792 236.254 64.2359L236.75 65.1041ZM237.632 63.62C237.632 63.0848 237.41 62.6333 236.978 62.3168L236.387 63.1232C236.555 63.2467 236.632 63.3952 236.632 63.62H237.632ZM236.978 62.3168C236.586 62.0295 235.965 61.8229 235.195 61.6607L234.989 62.6393C235.739 62.7971 236.178 62.9705 236.387 63.1232L236.978 62.3168ZM235.204 61.6626L232.714 61.0926L232.491 62.0674L234.981 62.6374L235.204 61.6626ZM232.709 61.0916C231.298 60.7823 230.322 60.3027 229.716 59.6964L229.009 60.4036C229.802 61.1973 230.986 61.7377 232.495 62.0684L232.709 61.0916ZM229.721 59.7016C229.148 59.1122 228.842 58.3161 228.842 57.26H227.842C227.842 58.5239 228.216 59.5878 229.004 60.3984L229.721 59.7016ZM228.842 57.26C228.842 56.423 229.08 55.6868 229.556 55.0347L228.748 54.4453C228.144 55.2732 227.842 56.217 227.842 57.26H228.842ZM229.551 55.0417C230.049 54.3829 230.742 53.8639 231.651 53.4929L231.273 52.5671C230.222 52.9961 229.375 53.6171 228.753 54.4383L229.551 55.0417ZM231.659 53.4896C232.566 53.101 233.627 52.9 234.852 52.9V51.9C233.518 51.9 232.319 52.119 231.265 52.5704L231.659 53.4896ZM234.852 52.9C235.879 52.9 236.886 53.0614 237.877 53.3852L238.188 52.4348C237.098 52.0786 235.986 51.9 234.852 51.9V52.9ZM237.885 53.3879C238.876 53.6927 239.755 54.1286 240.527 54.6935L241.117 53.8865C240.249 53.2514 239.269 52.7673 238.179 52.4321L237.885 53.3879ZM240.361 54.098L239.101 57.128L240.024 57.512L241.284 54.482L240.361 54.098ZM239.847 56.9089C239.032 56.3451 238.191 55.9131 237.324 55.6168L237.001 56.5632C237.773 56.8269 238.532 57.2149 239.278 57.7311L239.847 56.9089ZM237.327 55.6181C236.48 55.3216 235.645 55.17 234.822 55.17V56.17C235.52 56.17 236.244 56.2984 236.997 56.5619L237.327 55.6181ZM234.822 55.17C234.032 55.17 233.348 55.3073 232.819 55.6349L233.345 56.4851C233.656 56.2927 234.132 56.17 234.822 56.17V55.17ZM232.819 55.6349C232.265 55.9779 231.952 56.492 231.952 57.14H232.952C232.952 56.868 233.06 56.6621 233.345 56.4851L232.819 55.6349ZM231.952 57.14C231.952 57.6131 232.126 58.0292 232.474 58.3486L233.15 57.6114C233.018 57.4908 232.952 57.3469 232.952 57.14H231.952ZM232.507 58.3763C232.859 58.647 233.401 58.8353 234.055 58.9784L234.269 58.0015C233.643 57.8647 233.285 57.713 233.117 57.5837L232.507 58.3763ZM234.053 58.978L236.603 59.548L236.821 58.572L234.271 58.002L234.053 58.978ZM236.6 59.5472C238.117 59.8973 239.14 60.4071 239.744 61.0285L240.461 60.3315C239.665 59.5129 238.427 58.9427 236.825 58.5728L236.6 59.5472ZM239.744 61.0285C240.336 61.6374 240.652 62.4631 240.652 63.56H241.652C241.652 62.2569 241.269 61.1626 240.461 60.3315L239.744 61.0285ZM240.652 63.56C240.652 64.8407 240.148 65.8297 239.119 66.575L239.705 67.385C240.996 66.4503 241.652 65.1593 241.652 63.56H240.652ZM239.119 66.575C238.073 67.3325 236.599 67.74 234.642 67.74V68.74C236.726 68.74 238.432 68.3075 239.705 67.385L239.119 66.575ZM267.588 52.79H268.088V52.29H267.588V52.79ZM267.588 68V68.5H268.088V68H267.588ZM263.118 68H262.618V68.5H263.118V68ZM263.118 65.75H263.618V63.9179L262.687 65.496L263.118 65.75ZM261.168 67.58L261.4 68.0229L261.4 68.0229L261.168 67.58ZM254.808 67.28L254.538 67.7012L254.542 67.7035L254.808 67.28ZM252.438 64.55L251.984 64.7615L251.989 64.7706L252.438 64.55ZM252.438 56.24L251.986 56.0253L251.983 56.0314L252.438 56.24ZM254.838 53.42L255.109 53.8398L255.115 53.836L254.838 53.42ZM261.168 53.09L260.927 53.5285L260.927 53.5285L261.168 53.09ZM263.118 54.95L262.687 55.204L263.618 56.7821V54.95H263.118ZM263.118 52.79V52.29H262.618V52.79H263.118ZM262.218 57.05L261.821 57.3549L261.825 57.3598L262.218 57.05ZM257.028 57.08L256.632 56.7737L256.632 56.7737L257.028 57.08ZM256.998 63.68L256.605 63.9898L256.61 63.9955L256.614 64.0011L256.998 63.68ZM267.088 52.79V68H268.088V52.79H267.088ZM267.588 67.5H263.118V68.5H267.588V67.5ZM263.618 68V65.75H262.618V68H263.618ZM262.687 65.496C262.277 66.1919 261.697 66.7382 260.936 67.1371L261.4 68.0229C262.318 67.5418 263.039 66.8681 263.548 66.004L262.687 65.496ZM260.936 67.1371C260.175 67.5353 259.306 67.74 258.318 67.74V68.74C259.449 68.74 260.48 68.5047 261.4 68.0229L260.936 67.1371ZM258.318 67.74C257.082 67.74 256.006 67.4417 255.073 66.8565L254.542 67.7035C255.649 68.3983 256.913 68.74 258.318 68.74V67.74ZM255.077 66.8589C254.162 66.2733 253.43 65.4365 252.886 64.3294L251.989 64.7706C252.605 66.0235 253.453 67.0067 254.538 67.7011L255.077 66.8589ZM252.891 64.3386C252.367 63.2155 252.098 61.9098 252.098 60.41H251.098C251.098 62.0302 251.389 63.4845 251.984 64.7614L252.891 64.3386ZM252.098 60.41C252.098 58.9104 252.367 57.5934 252.892 56.4486L251.983 56.0314C251.389 57.3266 251.098 58.7896 251.098 60.41H252.098ZM252.889 56.4547C253.434 55.3088 254.176 54.4439 255.109 53.8398L254.566 53.0002C253.46 53.7161 252.601 54.7312 251.986 56.0253L252.889 56.4547ZM255.115 53.836C256.048 53.2142 257.11 52.9 258.318 52.9V51.9C256.925 51.9 255.667 52.2658 254.56 53.004L255.115 53.836ZM258.318 52.9C259.303 52.9 260.169 53.113 260.927 53.5285L261.408 52.6515C260.486 52.147 259.452 51.9 258.318 51.9V52.9ZM260.927 53.5285C261.693 53.9479 262.275 54.5061 262.687 55.204L263.548 54.696C263.04 53.8339 262.322 53.1521 261.408 52.6515L260.927 53.5285ZM263.618 54.95V52.79H262.618V54.95H263.618ZM263.118 53.29H267.588V52.29H263.118V53.29ZM259.638 65.29C260.884 65.29 261.9 64.8596 262.61 63.9598L261.825 63.3402C261.336 63.9604 260.632 64.29 259.638 64.29V65.29ZM262.61 63.9598C263.306 63.0777 263.618 61.8499 263.618 60.35H262.618C262.618 61.7301 262.329 62.7023 261.825 63.3402L262.61 63.9598ZM263.618 60.35C263.618 58.8501 263.306 57.6223 262.61 56.7402L261.825 57.3598C262.329 57.9977 262.618 58.9699 262.618 60.35H263.618ZM262.614 56.7451C261.905 55.824 260.888 55.38 259.638 55.38V56.38C260.627 56.38 261.33 56.716 261.821 57.3549L262.614 56.7451ZM259.638 55.38C258.382 55.38 257.358 55.8373 256.632 56.7737L257.423 57.3863C257.937 56.7227 258.653 56.38 259.638 56.38V55.38ZM256.632 56.7737C255.922 57.6906 255.598 58.9229 255.598 60.41H256.598C256.598 59.0571 256.893 58.0694 257.423 57.3863L256.632 56.7737ZM255.598 60.41C255.598 61.8918 255.91 63.1087 256.605 63.9898L257.39 63.3702C256.886 62.7313 256.598 61.7682 256.598 60.41H255.598ZM256.614 64.0011C257.347 64.8754 258.379 65.29 259.638 65.29V64.29C258.616 64.29 257.888 63.9646 257.381 63.3589L256.614 64.0011ZM271.244 45.92V45.42H270.744V45.92H271.244ZM275.774 45.92H276.274V45.42H275.774V45.92ZM275.774 68V68.5H276.274V68H275.774ZM271.244 68H270.744V68.5H271.244V68ZM271.244 46.42H275.774V45.42H271.244V46.42ZM275.274 45.92V68H276.274V45.92H275.274ZM275.774 67.5H271.244V68.5H275.774V67.5ZM271.744 68V45.92H270.744V68H271.744ZM279.476 52.79V52.29H278.976V52.79H279.476ZM284.006 52.79H284.506V52.29H284.006V52.79ZM284.006 68V68.5H284.506V68H284.006ZM279.476 68H278.976V68.5H279.476V68ZM284.156 45.65H284.656V45.15H284.156V45.65ZM284.156 49.91V50.41H284.656V49.91H284.156ZM279.326 49.91H278.826V50.41H279.326V49.91ZM279.326 45.65V45.15H278.826V45.65H279.326ZM279.476 53.29H284.006V52.29H279.476V53.29ZM283.506 52.79V68H284.506V52.79H283.506ZM284.006 67.5H279.476V68.5H284.006V67.5ZM279.976 68V52.79H278.976V68H279.976ZM283.656 45.65V49.91H284.656V45.65H283.656ZM284.156 49.41H279.326V50.41H284.156V49.41ZM279.826 49.91V45.65H278.826V49.91H279.826ZM279.326 46.15H284.156V45.15H279.326V46.15ZM302.709 52.82L303.166 53.0216L303.476 52.32H302.709V52.82ZM296.019 68V68.5H296.345L296.476 68.2016L296.019 68ZM292.179 68L291.72 68.1994L291.851 68.5H292.179V68ZM285.579 52.82V52.32H284.816L285.12 53.0194L285.579 52.82ZM290.319 52.82L290.784 52.6358L290.659 52.32H290.319V52.82ZM294.219 62.66L293.754 62.8442L294.212 63.9993L294.682 62.8491L294.219 62.66ZM298.239 52.82V52.32H297.903L297.776 52.6309L298.239 52.82ZM302.251 52.6184L295.561 67.7984L296.476 68.2016L303.166 53.0216L302.251 52.6184ZM296.019 67.5H292.179V68.5H296.019V67.5ZM292.637 67.8006L286.037 52.6206L285.12 53.0194L291.72 68.1994L292.637 67.8006ZM285.579 53.32H290.319V52.32H285.579V53.32ZM289.854 53.0042L293.754 62.8442L294.684 62.4758L290.784 52.6358L289.854 53.0042ZM294.682 62.8491L298.702 53.0091L297.776 52.6309L293.756 62.4709L294.682 62.8491ZM298.239 53.32H302.709V52.32H298.239V53.32ZM317.56 60.77V61.27H318.06V60.77H317.56ZM307.54 60.77V60.27H307.011L307.041 60.7981L307.54 60.77ZM308.65 63.89L308.296 64.2436L308.302 64.2489L308.65 63.89ZM316.09 63.32L316.556 63.1375L316.314 62.5227L315.788 62.9215L316.09 63.32ZM317.29 66.38L317.604 66.7694L317.89 66.5391L317.756 66.1975L317.29 66.38ZM314.59 67.76L314.735 68.2387L314.74 68.2369L314.59 67.76ZM305.35 66.14L305.001 66.4984L305.004 66.5009L305.35 66.14ZM304.09 56.24L303.647 56.0077L303.646 56.0105L304.09 56.24ZM306.76 53.42L307.011 53.8527L307.016 53.8494L306.76 53.42ZM315.7 54.5L315.326 54.8315L315.328 54.8342L315.7 54.5ZM308.65 56.33L308.31 55.9631L308.304 55.9696L308.65 56.33ZM307.63 58.52L307.137 58.4378L307.04 59.02H307.63V58.52ZM313.66 58.52V59.02H314.225L314.156 58.4592L313.66 58.52ZM317.56 60.27H307.54V61.27H317.56V60.27ZM307.041 60.7981C307.124 62.2787 307.514 63.461 308.297 64.2436L309.004 63.5364C308.466 62.999 308.116 62.1013 308.039 60.7419L307.041 60.7981ZM308.302 64.2489C309.088 65.0112 310.214 65.35 311.59 65.35V64.35C310.366 64.35 309.532 64.0488 308.998 63.531L308.302 64.2489ZM311.59 65.35C312.427 65.35 313.26 65.2104 314.088 64.9343L313.772 63.9857C313.04 64.2296 312.313 64.35 311.59 64.35V65.35ZM314.088 64.9343C314.92 64.657 315.689 64.2512 316.392 63.7185L315.788 62.9215C315.171 63.3887 314.5 63.743 313.772 63.9857L314.088 64.9343ZM315.625 63.5025L316.825 66.5625L317.756 66.1975L316.556 63.1375L315.625 63.5025ZM316.976 65.9906C316.315 66.5238 315.473 66.9577 314.44 67.2831L314.74 68.2369C315.867 67.8823 316.826 67.3962 317.604 66.7694L316.976 65.9906ZM314.446 67.2813C313.431 67.5875 312.41 67.74 311.38 67.74V68.74C312.51 68.74 313.629 68.5725 314.735 68.2387L314.446 67.2813ZM311.38 67.74C308.913 67.74 307.04 67.0678 305.696 65.7791L305.004 66.5009C306.58 68.0122 308.727 68.74 311.38 68.74V67.74ZM305.699 65.7816C304.354 64.474 303.66 62.6837 303.66 60.35H302.66C302.66 62.8963 303.426 64.966 305.001 66.4984L305.699 65.7816ZM303.66 60.35C303.66 58.8786 303.956 57.5892 304.534 56.4695L303.646 56.0105C302.984 57.2908 302.66 58.7414 302.66 60.35H303.66ZM304.533 56.4723C305.131 55.3319 305.956 54.4632 307.011 53.8527L306.51 52.9873C305.284 53.6968 304.329 54.7081 303.647 56.0077L304.533 56.4723ZM307.016 53.8494C308.072 53.2195 309.272 52.9 310.63 52.9V51.9C309.108 51.9 307.728 52.2605 306.504 52.9906L307.016 53.8494ZM310.63 52.9C312.65 52.9 314.195 53.5547 315.326 54.8315L316.074 54.1685C314.725 52.6453 312.89 51.9 310.63 51.9V52.9ZM315.328 54.8342C316.465 56.0995 317.06 57.8387 317.06 60.11H318.06C318.06 57.6613 317.415 55.6605 316.072 54.1658L315.328 54.8342ZM317.06 60.11V60.77H318.06V60.11H317.06ZM310.75 55.08C309.787 55.08 308.958 55.3633 308.31 55.9631L308.99 56.6969C309.422 56.2967 309.993 56.08 310.75 56.08V55.08ZM308.304 55.9696C307.683 56.5663 307.308 57.4083 307.137 58.4378L308.123 58.6022C308.272 57.7117 308.577 57.0937 308.997 56.6904L308.304 55.9696ZM307.63 59.02H313.66V58.02H307.63V59.02ZM314.156 58.4592C314.029 57.4154 313.698 56.5596 313.108 55.9633C312.508 55.3572 311.701 55.08 310.75 55.08V56.08C311.5 56.08 312.027 56.2928 312.397 56.6667C312.777 57.0504 313.052 57.6646 313.164 58.5808L314.156 58.4592Z" fill="#455B57"/>
<path d="M33.21 1.64L25.62 23H21.87L16.89 8.87L11.88 23H8.13L0.54 1.64H5.31L10.23 16.4L15.39 1.64H18.66L23.7 16.61L28.74 1.64H33.21ZM47.4722 15.77H37.4522C37.5322 17.19 37.9022 18.23 38.5622 18.89C39.2222 19.53 40.2022 19.85 41.5022 19.85C42.2822 19.85 43.0622 19.72 43.8422 19.46C44.6222 19.2 45.3422 18.82 46.0022 18.32L47.2022 21.38C46.4822 21.96 45.5822 22.42 44.5022 22.76C43.4422 23.08 42.3722 23.24 41.2922 23.24C38.7322 23.24 36.7222 22.54 35.2622 21.14C33.8022 19.72 33.0722 17.79 33.0722 15.35C33.0722 13.81 33.3822 12.44 34.0022 11.24C34.6422 10.02 35.5322 9.08 36.6722 8.42C37.8122 7.74 39.1022 7.4 40.5422 7.4C42.6822 7.4 44.3722 8.1 45.6122 9.5C46.8522 10.88 47.4722 12.75 47.4722 15.11V15.77ZM40.6622 10.58C39.8022 10.58 39.1022 10.83 38.5622 11.33C38.0422 11.83 37.7022 12.56 37.5422 13.52H43.5722C43.3322 11.56 42.3622 10.58 40.6622 10.58ZM50.3163 0.919998H54.8463V23H50.3163V0.919998ZM65.7488 23.24C63.2688 23.24 61.3188 22.54 59.8988 21.14C58.4988 19.74 57.7988 17.83 57.7988 15.41C57.7988 13.83 58.1388 12.44 58.8188 11.24C59.4988 10.02 60.4488 9.08 61.6688 8.42C62.9088 7.74 64.3388 7.4 65.9588 7.4C67.0588 7.4 68.1288 7.57 69.1688 7.91C70.2088 8.25 71.0388 8.71 71.6588 9.29L70.4588 12.44C69.8588 11.96 69.1988 11.59 68.4788 11.33C67.7588 11.05 67.0588 10.91 66.3788 10.91C65.1388 10.91 64.1688 11.29 63.4688 12.05C62.7888 12.79 62.4488 13.88 62.4488 15.32C62.4488 16.78 62.7888 17.89 63.4688 18.65C64.1488 19.39 65.1188 19.76 66.3788 19.76C67.0588 19.76 67.7588 19.63 68.4788 19.37C69.1988 19.09 69.8588 18.71 70.4588 18.23L71.6588 21.38C70.9988 21.96 70.1388 22.42 69.0788 22.76C68.0188 23.08 66.9088 23.24 65.7488 23.24ZM81.0724 23.24C79.4524 23.24 78.0324 22.92 76.8124 22.28C75.6124 21.64 74.6824 20.72 74.0224 19.52C73.3824 18.32 73.0624 16.92 73.0624 15.32C73.0624 13.72 73.3824 12.32 74.0224 11.12C74.6824 9.92 75.6124 9 76.8124 8.36C78.0324 7.72 79.4524 7.4 81.0724 7.4C82.6724 7.4 84.0724 7.72 85.2724 8.36C86.4724 9 87.3924 9.92 88.0324 11.12C88.6924 12.32 89.0224 13.72 89.0224 15.32C89.0224 16.92 88.6924 18.32 88.0324 19.52C87.3924 20.72 86.4724 21.64 85.2724 22.28C84.0724 22.92 82.6724 23.24 81.0724 23.24ZM81.0724 19.79C82.1924 19.79 83.0424 19.42 83.6224 18.68C84.2224 17.94 84.5224 16.82 84.5224 15.32C84.5224 13.84 84.2224 12.73 83.6224 11.99C83.0424 11.23 82.1924 10.85 81.0724 10.85C79.9324 10.85 79.0624 11.23 78.4624 11.99C77.8624 12.73 77.5624 13.84 77.5624 15.32C77.5624 18.3 78.7324 19.79 81.0724 19.79ZM110.518 7.4C112.258 7.4 113.548 7.93 114.388 8.99C115.248 10.03 115.678 11.63 115.678 13.79V23H111.148V13.94C111.148 12.88 110.978 12.12 110.638 11.66C110.298 11.18 109.738 10.94 108.958 10.94C108.038 10.94 107.328 11.26 106.828 11.9C106.328 12.54 106.078 13.44 106.078 14.6V23H101.548V13.94C101.548 12.9 101.368 12.14 101.008 11.66C100.668 11.18 100.118 10.94 99.3579 10.94C98.4379 10.94 97.7179 11.26 97.1979 11.9C96.6979 12.54 96.4479 13.44 96.4479 14.6V23H91.9179V12.14C91.9179 10.52 91.8379 9.07 91.6779 7.79H95.9379L96.2079 10.07C96.6679 9.21 97.3079 8.55 98.1279 8.09C98.9679 7.63 99.9279 7.4 101.008 7.4C103.268 7.4 104.768 8.34 105.508 10.22C106.008 9.36 106.698 8.68 107.578 8.18C108.478 7.66 109.458 7.4 110.518 7.4ZM132.902 15.77H122.882C122.962 17.19 123.332 18.23 123.992 18.89C124.652 19.53 125.632 19.85 126.932 19.85C127.712 19.85 128.492 19.72 129.272 19.46C130.052 19.2 130.772 18.82 131.432 18.32L132.632 21.38C131.912 21.96 131.012 22.42 129.932 22.76C128.872 23.08 127.802 23.24 126.722 23.24C124.162 23.24 122.152 22.54 120.692 21.14C119.232 19.72 118.502 17.79 118.502 15.35C118.502 13.81 118.812 12.44 119.432 11.24C120.072 10.02 120.962 9.08 122.102 8.42C123.242 7.74 124.532 7.4 125.972 7.4C128.112 7.4 129.802 8.1 131.042 9.5C132.282 10.88 132.902 12.75 132.902 15.11V15.77ZM126.092 10.58C125.232 10.58 124.532 10.83 123.992 11.33C123.472 11.83 123.132 12.56 122.972 13.52H129.002C128.762 11.56 127.792 10.58 126.092 10.58Z" fill="#455B57"/>
</svg>
