<svg width="242" height="114" viewBox="0 0 242 114" fill="none" xmlns="http://www.w3.org/2000/svg">
<path d="M3.83 45.92V45.42H3.33V45.92H3.83ZM8.36 45.92H8.86V45.42H8.36V45.92ZM8.36 68V68.5H8.86V68H8.36ZM3.83 68H3.33V68.5H3.83V68ZM3.83 46.42H8.36V45.42H3.83V46.42ZM7.86 45.92V68H8.86V45.92H7.86ZM8.36 67.5H3.83V68.5H8.36V67.5ZM4.33 68V45.92H3.33V68H4.33ZM25.7124 60.77V61.27H26.2124V60.77H25.7124ZM15.6924 60.77V60.27H15.1635L15.1932 60.7981L15.6924 60.77ZM16.8024 63.89L16.4488 64.2436L16.4543 64.2489L16.8024 63.89ZM24.2424 63.32L24.7079 63.1375L24.4668 62.5227L23.9405 62.9215L24.2424 63.32ZM25.4424 66.38L25.7561 66.7694L26.0419 66.5391L25.9079 66.1975L25.4424 66.38ZM22.7424 67.76L22.8869 68.2387L22.8926 68.2369L22.7424 67.76ZM13.5024 66.14L13.1538 66.4984L13.1564 66.5009L13.5024 66.14ZM12.2424 56.24L11.7996 56.0077L11.7982 56.0105L12.2424 56.24ZM14.9124 53.42L15.163 53.8527L15.1686 53.8494L14.9124 53.42ZM23.8524 54.5L23.4781 54.8315L23.4805 54.8342L23.8524 54.5ZM16.8024 56.33L16.4627 55.9631L16.4559 55.9696L16.8024 56.33ZM15.7824 58.52L15.2892 58.4378L15.1922 59.02H15.7824V58.52ZM21.8124 58.52V59.02H22.3774L22.3087 58.4592L21.8124 58.52ZM25.7124 60.27H15.6924V61.27H25.7124V60.27ZM15.1932 60.7981C15.2766 62.2787 15.6663 63.461 16.4489 64.2436L17.156 63.5364C16.6186 62.999 16.2682 62.1013 16.1916 60.7419L15.1932 60.7981ZM16.4543 64.2489C17.2404 65.0112 18.3666 65.35 19.7424 65.35V64.35C18.5182 64.35 17.6845 64.0488 17.1505 63.531L16.4543 64.2489ZM19.7424 65.35C20.579 65.35 21.4123 65.2104 22.2405 64.9343L21.9243 63.9857C21.1925 64.2296 20.4658 64.35 19.7424 64.35V65.35ZM22.2405 64.9343C23.0727 64.657 23.8412 64.2512 24.5444 63.7185L23.9405 62.9215C23.3237 63.3887 22.6522 63.743 21.9243 63.9857L22.2405 64.9343ZM23.7769 63.5025L24.9769 66.5625L25.9079 66.1975L24.7079 63.1375L23.7769 63.5025ZM25.1288 65.9906C24.4669 66.5238 23.6257 66.9577 22.5923 67.2831L22.8926 68.2369C24.0191 67.8823 24.978 67.3962 25.7561 66.7694L25.1288 65.9906ZM22.5979 67.2813C21.5836 67.5875 20.5622 67.74 19.5324 67.74V68.74C20.6626 68.74 21.7813 68.5725 22.8869 68.2387L22.5979 67.2813ZM19.5324 67.74C17.0656 67.74 15.1924 67.0678 13.8485 65.7791L13.1564 66.5009C14.7324 68.0122 16.8792 68.74 19.5324 68.74V67.74ZM13.851 65.7816C12.5067 64.474 11.8124 62.6837 11.8124 60.35H10.8124C10.8124 62.8963 11.5782 64.966 13.1538 66.4984L13.851 65.7816ZM11.8124 60.35C11.8124 58.8786 12.1081 57.5892 12.6866 56.4695L11.7982 56.0105C11.1367 57.2908 10.8124 58.7414 10.8124 60.35H11.8124ZM12.6852 56.4723C13.2834 55.3319 14.1085 54.4632 15.1629 53.8527L14.6619 52.9873C13.4363 53.6968 12.4814 54.7081 11.7996 56.0077L12.6852 56.4723ZM15.1686 53.8494C16.2246 53.2195 17.4247 52.9 18.7824 52.9V51.9C17.2602 51.9 15.8803 52.2605 14.6563 52.9906L15.1686 53.8494ZM18.7824 52.9C20.8022 52.9 22.3472 53.5547 23.4781 54.8315L24.2267 54.1685C22.8776 52.6453 21.0427 51.9 18.7824 51.9V52.9ZM23.4805 54.8342C24.6175 56.0995 25.2124 57.8387 25.2124 60.11H26.2124C26.2124 57.6613 25.5674 55.6605 24.2243 54.1658L23.4805 54.8342ZM25.2124 60.11V60.77H26.2124V60.11H25.2124ZM18.9024 55.08C17.9391 55.08 17.1105 55.3633 16.4627 55.9631L17.1421 56.6969C17.5743 56.2967 18.1457 56.08 18.9024 56.08V55.08ZM16.4559 55.9696C15.8353 56.5663 15.4608 57.4083 15.2892 58.4378L16.2756 58.6022C16.424 57.7117 16.7296 57.0937 17.149 56.6904L16.4559 55.9696ZM15.7824 59.02H21.8124V58.02H15.7824V59.02ZM22.3087 58.4592C22.1809 57.4154 21.8505 56.5596 21.2603 55.9633C20.6604 55.3572 19.8529 55.08 18.9024 55.08V56.08C19.652 56.08 20.1794 56.2928 20.5496 56.6667C20.9293 57.0504 21.2039 57.6646 21.3161 58.5808L22.3087 58.4592ZM33.9636 56.18V55.68H33.4636V56.18H33.9636ZM34.6236 63.95L34.2871 64.3201L34.2968 64.3284L34.6236 63.95ZM37.8336 64.31H38.3336V63.6696L37.7123 63.8249L37.8336 64.31ZM37.8336 67.82L38.0148 68.286L38.3336 68.162V67.82H37.8336ZM30.9036 66.65L30.5364 66.9894L30.5399 66.9931L30.9036 66.65ZM29.4336 56.18H29.9336V55.68H29.4336V56.18ZM26.5536 56.18H26.0536V56.68H26.5536V56.18ZM26.5536 52.79V52.29H26.0536V52.79H26.5536ZM29.4336 52.79V53.29H29.9336V52.79H29.4336ZM29.4336 49.22L29.2793 48.7444L28.9336 48.8566V49.22H29.4336ZM33.9636 47.75H34.4636V47.0621L33.8093 47.2744L33.9636 47.75ZM33.9636 52.79H33.4636V53.29H33.9636V52.79ZM37.8336 52.79H38.3336V52.29H37.8336V52.79ZM37.8336 56.18V56.68H38.3336V56.18H37.8336ZM33.4636 56.18V62.09H34.4636V56.18H33.4636ZM33.4636 62.09C33.4636 63.0112 33.7058 63.7914 34.2873 64.32L34.9599 63.58C34.6614 63.3086 34.4636 62.8488 34.4636 62.09H33.4636ZM34.2968 64.3284C34.8453 64.8021 35.5392 65.02 36.3336 65.02V64.02C35.728 64.02 35.2819 63.8579 34.9504 63.5716L34.2968 64.3284ZM36.3336 65.02C36.8249 65.02 37.3668 64.9421 37.9549 64.7951L37.7123 63.8249C37.1804 63.9579 36.7223 64.02 36.3336 64.02V65.02ZM37.3336 64.31V67.82H38.3336V64.31H37.3336ZM37.6524 67.354C37.0054 67.6056 36.2004 67.74 35.2236 67.74V68.74C36.2868 68.74 37.2218 68.5944 38.0148 68.286L37.6524 67.354ZM35.2236 67.74C33.4391 67.74 32.1474 67.2398 31.2673 66.3069L30.5399 66.9931C31.6598 68.1802 33.2481 68.74 35.2236 68.74V67.74ZM31.2707 66.3106C30.4011 65.37 29.9336 64.0166 29.9336 62.18H28.9336C28.9336 64.1834 29.446 65.81 30.5365 66.9894L31.2707 66.3106ZM29.9336 62.18V56.18H28.9336V62.18H29.9336ZM29.4336 55.68H26.5536V56.68H29.4336V55.68ZM27.0536 56.18V52.79H26.0536V56.18H27.0536ZM26.5536 53.29H29.4336V52.29H26.5536V53.29ZM29.9336 52.79V49.22H28.9336V52.79H29.9336ZM29.5879 49.6956L34.1179 48.2256L33.8093 47.2744L29.2793 48.7444L29.5879 49.6956ZM33.4636 47.75V52.79H34.4636V47.75H33.4636ZM33.9636 53.29H37.8336V52.29H33.9636V53.29ZM37.3336 52.79V56.18H38.3336V52.79H37.3336ZM37.8336 55.68H33.9636V56.68H37.8336V55.68ZM44.9518 46.64H45.4518V46.14H44.9518V46.64ZM44.3218 52.91L43.8652 52.706L43.8617 52.7142L44.3218 52.91ZM42.2518 55.82L41.9403 56.2111L42.2931 56.4922L42.6089 56.17L42.2518 55.82ZM40.4818 54.41L40.1248 54.06L39.7367 54.4557L40.1703 54.8011L40.4818 54.41ZM42.3118 51.47L42.7986 51.5839L42.9423 50.97H42.3118V51.47ZM40.0618 51.47H39.5618V51.97H40.0618V51.47ZM40.0618 46.64V46.14H39.5618V46.64H40.0618ZM44.4518 46.64V49.73H45.4518V46.64H44.4518ZM44.4518 49.73C44.4518 50.8499 44.2527 51.8389 43.8653 52.706L44.7783 53.114C45.2309 52.1011 45.4518 50.9701 45.4518 49.73H44.4518ZM43.8617 52.7142C43.4934 53.5799 42.8461 54.4992 41.8947 55.47L42.6089 56.17C43.6174 55.1408 44.3502 54.1201 44.7819 53.1058L43.8617 52.7142ZM42.5633 55.4289L40.7933 54.0189L40.1703 54.8011L41.9403 56.2111L42.5633 55.4289ZM40.8388 54.76C41.8742 53.704 42.5501 52.6459 42.7986 51.5839L41.825 51.3561C41.6335 52.1741 41.0894 53.076 40.1248 54.06L40.8388 54.76ZM42.3118 50.97H40.0618V51.97H42.3118V50.97ZM40.5618 51.47V46.64H39.5618V51.47H40.5618ZM40.0618 47.14H44.9518V46.14H40.0618V47.14ZM46.4923 66.38L46.0251 66.202L45.8907 66.5547L46.1931 66.7806L46.4923 66.38ZM47.6923 63.23L47.9858 62.8252L47.4574 62.4421L47.2251 63.052L47.6923 63.23ZM50.3623 64.58L50.2071 65.0554L50.216 65.0581L50.3623 64.58ZM55.1623 64.67L54.9143 64.2359L54.9143 64.2359L55.1623 64.67ZM55.3423 62.72L55.0467 63.1232L55.0467 63.1232L55.3423 62.72ZM53.7523 62.15L53.6408 62.6375L53.6493 62.6393L53.7523 62.15ZM51.2623 61.58L51.3739 61.0926L51.3694 61.0916L51.2623 61.58ZM48.0223 60.05L47.6637 60.3984L47.6688 60.4036L48.0223 60.05ZM47.8123 54.74L47.4136 54.4382L47.4084 54.4453L47.8123 54.74ZM50.1223 53.03L50.3113 53.493L50.3193 53.4896L50.1223 53.03ZM56.6923 52.91L56.537 53.3853L56.5453 53.3879L56.6923 52.91ZM59.4823 54.29L59.944 54.482L60.0951 54.1188L59.7776 53.8865L59.4823 54.29ZM58.2223 57.32L57.9377 57.7311L58.4464 58.0833L58.684 57.512L58.2223 57.32ZM55.8223 56.09L55.6572 56.5619L55.6608 56.5632L55.8223 56.09ZM51.7423 56.06L51.4792 55.6349L51.4792 55.6349L51.7423 56.06ZM51.4723 57.98L51.1345 58.3486L51.1504 58.3632L51.1675 58.3763L51.4723 57.98ZM52.8223 58.49L52.9314 58.002L52.9292 58.0015L52.8223 58.49ZM55.3723 59.06L55.4848 58.5728L55.4814 58.572L55.3723 59.06ZM58.7623 60.68L58.4038 61.0285L58.7623 60.68ZM58.0723 66.98L58.3656 67.385L58.3656 67.385L58.0723 66.98ZM53.3023 67.74C50.4891 67.74 48.3372 67.134 46.7916 65.9794L46.1931 66.7806C47.9675 68.106 50.3556 68.74 53.3023 68.74V67.74ZM46.9596 66.558L48.1596 63.408L47.2251 63.052L46.0251 66.202L46.9596 66.558ZM47.3989 63.6348C48.2428 64.2467 49.1798 64.7198 50.2071 65.0553L50.5175 64.1047C49.5849 63.8001 48.7419 63.3733 47.9858 62.8252L47.3989 63.6348ZM50.216 65.0581C51.2432 65.3725 52.2925 65.53 53.3623 65.53V64.53C52.3922 64.53 51.4415 64.3875 50.5087 64.1019L50.216 65.0581ZM53.3623 65.53C54.1815 65.53 54.882 65.4061 55.4104 65.1041L54.9143 64.2359C54.6027 64.4139 54.1032 64.53 53.3623 64.53V65.53ZM55.4104 65.1041C55.9763 64.7808 56.2923 64.2705 56.2923 63.62H55.2923C55.2923 63.8895 55.1884 64.0792 54.9143 64.2359L55.4104 65.1041ZM56.2923 63.62C56.2923 63.0848 56.0697 62.6333 55.638 62.3168L55.0467 63.1232C55.215 63.2467 55.2923 63.3952 55.2923 63.62H56.2923ZM55.638 62.3168C55.2463 62.0295 54.6255 61.8229 53.8553 61.6607L53.6493 62.6393C54.3992 62.7971 54.8384 62.9705 55.0467 63.1232L55.638 62.3168ZM53.8639 61.6626L51.3739 61.0926L51.1508 62.0674L53.6408 62.6374L53.8639 61.6626ZM51.3694 61.0916C49.9584 60.7823 48.9821 60.3027 48.3759 59.6964L47.6688 60.4036C48.4626 61.1973 49.6463 61.7377 51.1553 62.0684L51.3694 61.0916ZM48.381 59.7016C47.8084 59.1122 47.5023 58.3161 47.5023 57.26H46.5023C46.5023 58.5239 46.8763 59.5878 47.6637 60.3984L48.381 59.7016ZM47.5023 57.26C47.5023 56.423 47.7404 55.6868 48.2162 55.0347L47.4084 54.4453C46.8043 55.2732 46.5023 56.217 46.5023 57.26H47.5023ZM48.211 55.0417C48.7096 54.3829 49.4025 53.8639 50.3113 53.4929L49.9334 52.5671C48.8822 52.9961 48.0351 53.6171 47.4136 54.4383L48.211 55.0417ZM50.3193 53.4896C51.2259 53.101 52.2868 52.9 53.5123 52.9V51.9C52.1779 51.9 50.9788 52.119 49.9254 52.5704L50.3193 53.4896ZM53.5123 52.9C54.5389 52.9 55.5465 53.0614 56.537 53.3852L56.8477 52.4348C55.7582 52.0786 54.6458 51.9 53.5123 51.9V52.9ZM56.5453 53.3879C57.5359 53.6927 58.4151 54.1286 59.1871 54.6935L59.7776 53.8865C58.9096 53.2514 57.9288 52.7673 56.8394 52.4321L56.5453 53.3879ZM59.0207 54.098L57.7607 57.128L58.684 57.512L59.944 54.482L59.0207 54.098ZM58.5069 56.9089C57.6926 56.3451 56.8515 55.9131 55.9839 55.6168L55.6608 56.5632C56.4332 56.8269 57.1921 57.2149 57.9377 57.7311L58.5069 56.9089ZM55.9875 55.6181C55.1405 55.3216 54.3047 55.17 53.4823 55.17V56.17C54.18 56.17 54.9042 56.2984 55.6572 56.5619L55.9875 55.6181ZM53.4823 55.17C52.6925 55.17 52.0083 55.3073 51.4792 55.6349L52.0055 56.4851C52.3164 56.2927 52.7922 56.17 53.4823 56.17V55.17ZM51.4792 55.6349C50.925 55.9779 50.6123 56.492 50.6123 57.14H51.6123C51.6123 56.868 51.7197 56.6621 52.0055 56.4851L51.4792 55.6349ZM50.6123 57.14C50.6123 57.6131 50.7861 58.0292 51.1345 58.3486L51.8102 57.6114C51.6786 57.4908 51.6123 57.3469 51.6123 57.14H50.6123ZM51.1675 58.3763C51.5194 58.647 52.0613 58.8353 52.7155 58.9784L52.9292 58.0015C52.3034 57.8647 51.9453 57.713 51.7772 57.5837L51.1675 58.3763ZM52.7133 58.978L55.2633 59.548L55.4814 58.572L52.9314 58.002L52.7133 58.978ZM55.2599 59.5472C56.7771 59.8973 57.7997 60.4071 58.4038 61.0285L59.1208 60.3315C58.325 59.5129 57.0876 58.9427 55.4848 58.5728L55.2599 59.5472ZM58.4038 61.0285C58.9958 61.6374 59.3123 62.4631 59.3123 63.56H60.3123C60.3123 62.2569 59.9289 61.1626 59.1208 60.3315L58.4038 61.0285ZM59.3123 63.56C59.3123 64.8407 58.8084 65.8297 57.7791 66.575L58.3656 67.385C59.6563 66.4503 60.3123 65.1593 60.3123 63.56H59.3123ZM57.7791 66.575C56.733 67.3325 55.2589 67.74 53.3023 67.74V68.74C55.3858 68.74 57.0917 68.3075 58.3656 67.385L57.7791 66.575ZM72.3577 66.14L72.0042 66.4936L72.0067 66.4961L72.3577 66.14ZM71.2777 56.24L71.7128 56.4865L71.7145 56.4834L71.2777 56.24ZM74.1277 53.42L74.3656 53.8598L74.3682 53.8584L74.1277 53.42ZM81.6277 52.91L81.4724 53.3852L81.4724 53.3852L81.6277 52.91ZM84.1177 54.29L84.585 54.468L84.7045 54.1542L84.4593 53.9249L84.1177 54.29ZM82.9177 57.44L82.6054 57.8304L83.1409 58.2588L83.385 57.618L82.9177 57.44ZM80.9377 56.33L80.7565 56.7961L80.7679 56.8003L80.9377 56.33ZM75.9277 57.05L75.56 56.7113L75.5596 56.7117L75.9277 57.05ZM75.9277 63.65L75.5551 63.9834L75.5596 63.9883L75.9277 63.65ZM80.9377 64.37L81.1076 64.8404L81.119 64.836L80.9377 64.37ZM82.9177 63.23L83.385 63.052L83.1409 62.4112L82.6054 62.8396L82.9177 63.23ZM84.1177 66.38L84.4478 66.7556L84.7086 66.5264L84.585 66.202L84.1177 66.38ZM81.5377 67.76L81.6823 68.2387L81.6904 68.2361L81.5377 67.76ZM78.2077 67.74C75.8253 67.74 74.0136 67.0704 72.7088 65.7839L72.0067 66.4961C73.5418 68.0096 75.6302 68.74 78.2077 68.74V67.74ZM72.7113 65.7864C71.4251 64.5003 70.7577 62.7288 70.7577 60.41H69.7577C69.7577 62.9312 70.4903 64.9797 72.0042 66.4936L72.7113 65.7864ZM70.7577 60.41C70.7577 58.9037 71.0812 57.601 71.7127 56.4865L70.8427 55.9935C70.1143 57.279 69.7577 58.7563 69.7577 60.41H70.7577ZM71.7145 56.4834C72.3485 55.3458 73.2298 54.4742 74.3656 53.8598L73.8898 52.9802C72.5856 53.6858 71.5669 54.6942 70.841 55.9966L71.7145 56.4834ZM74.3682 53.8584C75.5243 53.2244 76.8694 52.9 78.4177 52.9V51.9C76.7261 51.9 75.2111 52.2556 73.8873 52.9816L74.3682 53.8584ZM78.4177 52.9C79.4652 52.9 80.4828 53.0617 81.4724 53.3852L81.7831 52.4348C80.6927 52.0783 79.5702 51.9 78.4177 51.9V52.9ZM81.4724 53.3852C82.4623 53.7089 83.2225 54.1372 83.7762 54.6551L84.4593 53.9249C83.773 53.2828 82.8732 52.7911 81.7831 52.4348L81.4724 53.3852ZM83.6505 54.112L82.4505 57.262L83.385 57.618L84.585 54.468L83.6505 54.112ZM83.2301 57.0496C82.5874 56.5354 81.8793 56.1384 81.1076 55.8597L80.7679 56.8003C81.4362 57.0416 82.048 57.3846 82.6054 57.8304L83.2301 57.0496ZM81.119 55.864C80.349 55.5646 79.5876 55.41 78.8377 55.41V56.41C79.4479 56.41 80.0865 56.5354 80.7565 56.796L81.119 55.864ZM78.8377 55.41C77.4883 55.41 76.3734 55.8281 75.56 56.7113L76.2955 57.3887C76.8821 56.7519 77.7071 56.41 78.8377 56.41V55.41ZM75.5596 56.7117C74.7643 57.5772 74.4077 58.8086 74.4077 60.32H75.4077C75.4077 58.9514 75.7312 58.0028 76.2959 57.3883L75.5596 56.7117ZM74.4077 60.32C74.4077 61.8504 74.7637 63.0989 75.5551 63.9834L76.3004 63.3166C75.7317 62.6811 75.4077 61.7096 75.4077 60.32H74.4077ZM75.5596 63.9883C76.3572 64.8563 77.4758 65.26 78.8377 65.26V64.26C77.6797 64.26 76.8582 63.9237 76.2959 63.3117L75.5596 63.9883ZM78.8377 65.26C79.5824 65.26 80.3399 65.1175 81.1076 64.8403L80.7679 63.8997C80.0956 64.1425 79.453 64.26 78.8377 64.26V65.26ZM81.119 64.836C81.886 64.5377 82.5902 64.1323 83.2301 63.6204L82.6054 62.8396C82.0452 63.2877 81.4295 63.6423 80.7565 63.904L81.119 64.836ZM82.4505 63.408L83.6505 66.558L84.585 66.202L83.385 63.052L82.4505 63.408ZM83.7877 66.0044C83.1911 66.5287 82.3965 66.9595 81.385 67.2839L81.6904 68.2361C82.799 67.8805 83.7244 67.3913 84.4478 66.7556L83.7877 66.0044ZM81.3932 67.2813C80.3823 67.5865 79.3211 67.74 78.2077 67.74V68.74C79.4143 68.74 80.5732 68.5735 81.6822 68.2387L81.3932 67.2813ZM101.061 68V68.5H101.561V68H101.061ZM96.5314 68H96.0314V68.5H96.5314V68ZM95.9314 56.69L95.5333 56.9925L95.5401 57.0015L95.5473 57.0101L95.9314 56.69ZM91.7014 56.9L92.0662 57.242L92.0662 57.242L91.7014 56.9ZM90.8014 68V68.5H91.3014V68H90.8014ZM86.2714 68H85.7714V68.5H86.2714V68ZM86.2714 45.92V45.42H85.7714V45.92H86.2714ZM90.8014 45.92H91.3014V45.42H90.8014V45.92ZM90.8014 54.86H90.3014V56.4944L91.2158 55.1397L90.8014 54.86ZM92.8714 53.03L93.095 53.4772L93.095 53.4772L92.8714 53.03ZM95.6614 52.9C97.3602 52.9 98.5507 53.3986 99.3295 54.3202C100.122 55.258 100.561 56.7184 100.561 58.79H101.561C101.561 56.6016 101.101 54.867 100.093 53.6748C99.0722 52.4664 97.5626 51.9 95.6614 51.9V52.9ZM100.561 58.79V68H101.561V58.79H100.561ZM101.061 67.5H96.5314V68.5H101.061V67.5ZM97.0314 68V59H96.0314V68H97.0314ZM97.0314 59C97.0314 57.8976 96.8272 56.9839 96.3155 56.3699L95.5473 57.0101C95.8356 57.3561 96.0314 57.9824 96.0314 59H97.0314ZM96.3295 56.3875C95.8251 55.7238 95.0407 55.44 94.1014 55.44V56.44C94.8422 56.44 95.2777 56.6562 95.5333 56.9925L96.3295 56.3875ZM94.1014 55.44C92.9844 55.44 92.0448 55.8027 91.3366 56.558L92.0662 57.242C92.558 56.7173 93.2184 56.44 94.1014 56.44V55.44ZM91.3366 56.558C90.6307 57.311 90.3014 58.3038 90.3014 59.48H91.3014C91.3014 58.4962 91.5721 57.769 92.0662 57.242L91.3366 56.558ZM90.3014 59.48V68H91.3014V59.48H90.3014ZM90.8014 67.5H86.2714V68.5H90.8014V67.5ZM86.7714 68V45.92H85.7714V68H86.7714ZM86.2714 46.42H90.8014V45.42H86.2714V46.42ZM90.3014 45.92V54.86H91.3014V45.92H90.3014ZM91.2158 55.1397C91.7091 54.409 92.3342 53.8576 93.095 53.4772L92.6478 52.5828C91.7286 53.0424 90.9737 53.711 90.387 54.5803L91.2158 55.1397ZM93.095 53.4772C93.8597 53.0948 94.7122 52.9 95.6614 52.9V51.9C94.5706 51.9 93.5631 52.1251 92.6478 52.5828L93.095 53.4772ZM118.32 60.77V61.27H118.82V60.77H118.32ZM108.3 60.77V60.27H107.771L107.801 60.7981L108.3 60.77ZM109.41 63.89L109.056 64.2436L109.062 64.2489L109.41 63.89ZM116.85 63.32L117.315 63.1375L117.074 62.5227L116.548 62.9215L116.85 63.32ZM118.05 66.38L118.364 66.7694L118.649 66.5391L118.515 66.1975L118.05 66.38ZM115.35 67.76L115.494 68.2387L115.5 68.2369L115.35 67.76ZM106.11 66.14L105.761 66.4984L105.764 66.5009L106.11 66.14ZM104.85 56.24L104.407 56.0077L104.406 56.0105L104.85 56.24ZM107.52 53.42L107.77 53.8527L107.776 53.8494L107.52 53.42ZM116.46 54.5L116.086 54.8315L116.088 54.8342L116.46 54.5ZM109.41 56.33L109.07 55.9631L109.063 55.9696L109.41 56.33ZM108.39 58.52L107.897 58.4378L107.8 59.02H108.39V58.52ZM114.42 58.52V59.02H114.985L114.916 58.4592L114.42 58.52ZM118.32 60.27H108.3V61.27H118.32V60.27ZM107.801 60.7981C107.884 62.2787 108.274 63.461 109.056 64.2436L109.763 63.5364C109.226 62.999 108.876 62.1013 108.799 60.7419L107.801 60.7981ZM109.062 64.2489C109.848 65.0112 110.974 65.35 112.35 65.35V64.35C111.126 64.35 110.292 64.0488 109.758 63.531L109.062 64.2489ZM112.35 65.35C113.186 65.35 114.02 65.2104 114.848 64.9343L114.532 63.9857C113.8 64.2296 113.073 64.35 112.35 64.35V65.35ZM114.848 64.9343C115.68 64.657 116.449 64.2512 117.152 63.7185L116.548 62.9215C115.931 63.3887 115.26 63.743 114.532 63.9857L114.848 64.9343ZM116.384 63.5025L117.584 66.5625L118.515 66.1975L117.315 63.1375L116.384 63.5025ZM117.736 65.9906C117.074 66.5238 116.233 66.9577 115.2 67.2831L115.5 68.2369C116.627 67.8823 117.585 67.3962 118.364 66.7694L117.736 65.9906ZM115.205 67.2813C114.191 67.5875 113.17 67.74 112.14 67.74V68.74C113.27 68.74 114.389 68.5725 115.494 68.2387L115.205 67.2813ZM112.14 67.74C109.673 67.74 107.8 67.0678 106.456 65.7791L105.764 66.5009C107.34 68.0122 109.487 68.74 112.14 68.74V67.74ZM106.458 65.7816C105.114 64.474 104.42 62.6837 104.42 60.35H103.42C103.42 62.8963 104.186 64.966 105.761 66.4984L106.458 65.7816ZM104.42 60.35C104.42 58.8786 104.716 57.5892 105.294 56.4695L104.406 56.0105C103.744 57.2908 103.42 58.7414 103.42 60.35H104.42ZM105.293 56.4723C105.891 55.3319 106.716 54.4632 107.77 53.8527L107.269 52.9873C106.044 53.6968 105.089 54.7081 104.407 56.0077L105.293 56.4723ZM107.776 53.8494C108.832 53.2195 110.032 52.9 111.39 52.9V51.9C109.868 51.9 108.488 52.2605 107.264 52.9906L107.776 53.8494ZM111.39 52.9C113.41 52.9 114.955 53.5547 116.086 54.8315L116.834 54.1685C115.485 52.6453 113.65 51.9 111.39 51.9V52.9ZM116.088 54.8342C117.225 56.0995 117.82 57.8387 117.82 60.11H118.82C118.82 57.6613 118.175 55.6605 116.832 54.1658L116.088 54.8342ZM117.82 60.11V60.77H118.82V60.11H117.82ZM111.51 55.08C110.547 55.08 109.718 55.3633 109.07 55.9631L109.75 56.6969C110.182 56.2967 110.753 56.08 111.51 56.08V55.08ZM109.063 55.9696C108.443 56.5663 108.068 57.4083 107.897 58.4378L108.883 58.6022C109.031 57.7117 109.337 57.0937 109.756 56.6904L109.063 55.9696ZM108.39 59.02H114.42V58.02H108.39V59.02ZM114.916 58.4592C114.788 57.4154 114.458 56.5596 113.868 55.9633C113.268 55.3572 112.46 55.08 111.51 55.08V56.08C112.259 56.08 112.787 56.2928 113.157 56.6667C113.537 57.0504 113.811 57.6646 113.924 58.5808L114.916 58.4592ZM122.514 66.14L122.16 66.4936L122.163 66.4961L122.514 66.14ZM121.434 56.24L121.869 56.4865L121.871 56.4834L121.434 56.24ZM124.284 53.42L124.522 53.8598L124.524 53.8584L124.284 53.42ZM131.784 52.91L131.629 53.3852L131.629 53.3852L131.784 52.91ZM134.274 54.29L134.741 54.468L134.861 54.1542L134.616 53.9249L134.274 54.29ZM133.074 57.44L132.762 57.8304L133.297 58.2588L133.541 57.618L133.074 57.44ZM131.094 56.33L130.913 56.7961L130.924 56.8003L131.094 56.33ZM126.084 57.05L125.716 56.7113L125.716 56.7117L126.084 57.05ZM126.084 63.65L125.711 63.9834L125.716 63.9883L126.084 63.65ZM131.094 64.37L131.264 64.8404L131.275 64.836L131.094 64.37ZM133.074 63.23L133.541 63.052L133.297 62.4112L132.762 62.8396L133.074 63.23ZM134.274 66.38L134.604 66.7556L134.865 66.5264L134.741 66.202L134.274 66.38ZM131.694 67.76L131.839 68.2387L131.847 68.2361L131.694 67.76ZM128.364 67.74C125.982 67.74 124.17 67.0704 122.865 65.7839L122.163 66.4961C123.698 68.0096 125.786 68.74 128.364 68.74V67.74ZM122.868 65.7864C121.581 64.5003 120.914 62.7288 120.914 60.41H119.914C119.914 62.9312 120.647 64.9797 122.16 66.4936L122.868 65.7864ZM120.914 60.41C120.914 58.9037 121.237 57.601 121.869 56.4865L120.999 55.9935C120.271 57.279 119.914 58.7563 119.914 60.41H120.914ZM121.871 56.4834C122.505 55.3458 123.386 54.4742 124.522 53.8598L124.046 52.9802C122.742 53.6858 121.723 54.6942 120.997 55.9966L121.871 56.4834ZM124.524 53.8584C125.681 53.2244 127.026 52.9 128.574 52.9V51.9C126.882 51.9 125.367 52.2556 124.044 52.9816L124.524 53.8584ZM128.574 52.9C129.621 52.9 130.639 53.0617 131.629 53.3852L131.939 52.4348C130.849 52.0783 129.726 51.9 128.574 51.9V52.9ZM131.629 53.3852C132.619 53.7089 133.379 54.1372 133.932 54.6551L134.616 53.9249C133.929 53.2828 133.029 52.7911 131.939 52.4348L131.629 53.3852ZM133.807 54.112L132.607 57.262L133.541 57.618L134.741 54.468L133.807 54.112ZM133.386 57.0496C132.744 56.5354 132.036 56.1384 131.264 55.8597L130.924 56.8003C131.592 57.0416 132.204 57.3846 132.762 57.8304L133.386 57.0496ZM131.275 55.864C130.505 55.5646 129.744 55.41 128.994 55.41V56.41C129.604 56.41 130.243 56.5354 130.913 56.796L131.275 55.864ZM128.994 55.41C127.645 55.41 126.53 55.8281 125.716 56.7113L126.452 57.3887C127.038 56.7519 127.863 56.41 128.994 56.41V55.41ZM125.716 56.7117C124.921 57.5772 124.564 58.8086 124.564 60.32H125.564C125.564 58.9514 125.887 58.0028 126.452 57.3883L125.716 56.7117ZM124.564 60.32C124.564 61.8504 124.92 63.0989 125.711 63.9834L126.457 63.3166C125.888 62.6811 125.564 61.7096 125.564 60.32H124.564ZM125.716 63.9883C126.513 64.8563 127.632 65.26 128.994 65.26V64.26C127.836 64.26 127.014 63.9237 126.452 63.3117L125.716 63.9883ZM128.994 65.26C129.739 65.26 130.496 65.1175 131.264 64.8403L130.924 63.8997C130.252 64.1425 129.609 64.26 128.994 64.26V65.26ZM131.275 64.836C132.042 64.5377 132.746 64.1323 133.386 63.6204L132.762 62.8396C132.201 63.2877 131.586 63.6423 130.913 63.904L131.275 64.836ZM132.607 63.408L133.807 66.558L134.741 66.202L133.541 63.052L132.607 63.408ZM133.944 66.0044C133.347 66.5287 132.553 66.9595 131.541 67.2839L131.847 68.2361C132.955 67.8805 133.881 67.3913 134.604 66.7556L133.944 66.0044ZM131.549 67.2813C130.539 67.5865 129.477 67.74 128.364 67.74V68.74C129.571 68.74 130.729 68.5735 131.838 68.2387L131.549 67.2813ZM146.928 68L146.552 68.3296L146.701 68.5H146.928V68ZM140.958 61.19L141.334 60.8604L140.458 59.8612V61.19H140.958ZM140.958 68V68.5H141.458V68H140.958ZM136.428 68H135.928V68.5H136.428V68ZM136.428 45.92V45.42H135.928V45.92H136.428ZM140.958 45.92H141.458V45.42H140.958V45.92ZM140.958 59.33H140.458V60.6601L141.334 59.6594L140.958 59.33ZM146.658 52.82V52.32H146.431L146.281 52.4906L146.658 52.82ZM152.088 52.82L152.462 53.1513L153.198 52.32H152.088V52.82ZM145.638 60.11L145.263 59.7787L144.973 60.1066L145.26 60.4375L145.638 60.11ZM152.478 68V68.5H153.573L152.855 67.6725L152.478 68ZM147.304 67.6704L141.334 60.8604L140.582 61.5196L146.552 68.3296L147.304 67.6704ZM140.458 61.19V68H141.458V61.19H140.458ZM140.958 67.5H136.428V68.5H140.958V67.5ZM136.928 68V45.92H135.928V68H136.928ZM136.428 46.42H140.958V45.42H136.428V46.42ZM140.458 45.92V59.33H141.458V45.92H140.458ZM141.334 59.6594L147.034 53.1494L146.281 52.4906L140.581 59.0006L141.334 59.6594ZM146.658 53.32H152.088V52.32H146.658V53.32ZM151.713 52.4887L145.263 59.7787L146.012 60.4413L152.462 53.1513L151.713 52.4887ZM145.26 60.4375L152.1 68.3275L152.855 67.6725L146.015 59.7825L145.26 60.4375ZM152.478 67.5H146.928V68.5H152.478V67.5ZM176.582 52.79H177.082V52.29H176.582V52.79ZM176.582 68V68.5H177.082V68H176.582ZM172.172 68H171.672V68.5H172.172V68ZM172.172 65.78H172.672V63.9748L171.744 65.5228L172.172 65.78ZM170.282 67.61L170.519 68.0502L170.519 68.0502L170.282 67.61ZM163.382 66.65L163.008 66.9817L163.008 66.9817L163.382 66.65ZM161.972 52.79V52.29H161.472V52.79H161.972ZM166.502 52.79H167.002V52.29H166.502V52.79ZM171.152 63.74L171.523 64.0758L171.523 64.0758L171.152 63.74ZM172.022 52.79V52.29H171.522V52.79H172.022ZM176.082 52.79V68H177.082V52.79H176.082ZM176.582 67.5H172.172V68.5H176.582V67.5ZM172.672 68V65.78H171.672V68H172.672ZM171.744 65.5228C171.307 66.2499 170.742 66.7947 170.045 67.1698L170.519 68.0502C171.383 67.5853 172.077 66.9101 172.601 66.0372L171.744 65.5228ZM170.045 67.1698C169.346 67.5465 168.549 67.74 167.642 67.74V68.74C168.696 68.74 169.659 68.5135 170.519 68.0502L170.045 67.1698ZM167.642 67.74C165.834 67.74 164.572 67.2381 163.757 66.3183L163.008 66.9817C164.073 68.1819 165.651 68.74 167.642 68.74V67.74ZM163.757 66.3183C162.93 65.3866 162.472 63.9282 162.472 61.85H161.472C161.472 64.0518 161.955 65.7934 163.008 66.9817L163.757 66.3183ZM162.472 61.85V52.79H161.472V61.85H162.472ZM161.972 53.29H166.502V52.29H161.972V53.29ZM166.002 52.79V61.94H167.002V52.79H166.002ZM166.002 61.94C166.002 62.92 166.211 63.7483 166.716 64.3357C167.233 64.9377 167.984 65.2 168.872 65.2V64.2C168.181 64.2 167.747 64.0023 167.474 63.6843C167.189 63.3517 167.002 62.8 167.002 61.94H166.002ZM168.872 65.2C169.94 65.2 170.839 64.8303 171.523 64.0758L170.782 63.4042C170.306 63.9297 169.685 64.2 168.872 64.2V65.2ZM171.523 64.0758C172.203 63.3258 172.522 62.3574 172.522 61.22H171.522C171.522 62.1626 171.262 62.8742 170.782 63.4042L171.523 64.0758ZM172.522 61.22V52.79H171.522V61.22H172.522ZM172.022 53.29H176.582V52.29H172.022V53.29ZM193.036 53.42L192.758 53.8361L192.764 53.8398L193.036 53.42ZM195.406 56.24L194.951 56.4486L194.954 56.4547L195.406 56.24ZM195.436 64.55L195.888 64.7644L195.889 64.7614L195.436 64.55ZM193.066 67.28L193.332 67.7035L193.332 67.7035L193.066 67.28ZM186.706 67.58L186.938 67.1371L186.938 67.1371L186.706 67.58ZM184.786 65.75L185.221 65.5043L184.286 63.846V65.75H184.786ZM184.786 74.48V74.98H185.286V74.48H184.786ZM180.256 74.48H179.756V74.98H180.256V74.48ZM180.016 52.79V52.29H179.449L179.52 52.852L180.016 52.79ZM184.276 52.79L184.772 52.7309L184.72 52.29H184.276V52.79ZM184.576 55.31L184.079 55.3691L184.294 57.1746L185.033 55.5131L184.576 55.31ZM186.496 53.18L186.246 52.747L186.241 52.7495L186.496 53.18ZM190.846 63.68L191.234 63.9949L191.238 63.9898L190.846 63.68ZM190.816 57.08L190.416 57.38L190.421 57.3863L190.816 57.08ZM185.656 57.05L185.264 56.7389L185.263 56.7402L185.656 57.05ZM185.656 63.65L185.263 63.9599L185.268 63.9661L185.656 63.65ZM189.556 52.9C190.763 52.9 191.826 53.2142 192.758 53.836L193.313 53.004C192.206 52.2658 190.948 51.9 189.556 51.9V52.9ZM192.764 53.8398C193.696 54.4428 194.427 55.3055 194.951 56.4486L195.86 56.0314C195.265 54.7345 194.415 53.7172 193.307 53.0002L192.764 53.8398ZM194.954 56.4547C195.498 57.598 195.776 58.9128 195.776 60.41H196.776C196.776 58.7872 196.474 57.322 195.857 56.0253L194.954 56.4547ZM195.776 60.41C195.776 61.9098 195.507 63.2155 194.983 64.3386L195.889 64.7614C196.485 63.4845 196.776 62.0302 196.776 60.41H195.776ZM194.984 64.3356C194.461 65.4372 193.733 66.2713 192.8 66.8565L193.332 67.7035C194.439 67.0087 195.29 66.0228 195.887 64.7644L194.984 64.3356ZM192.8 66.8565C191.867 67.4417 190.791 67.74 189.556 67.74V68.74C190.96 68.74 192.224 68.3983 193.332 67.7035L192.8 66.8565ZM189.556 67.74C188.567 67.74 187.698 67.5353 186.938 67.1371L186.474 68.0229C187.393 68.5047 188.425 68.74 189.556 68.74V67.74ZM186.938 67.1371C186.178 66.7391 185.611 66.1953 185.221 65.5043L184.35 65.9957C184.841 66.8647 185.554 67.5409 186.474 68.0229L186.938 67.1371ZM184.286 65.75V74.48H185.286V65.75H184.286ZM184.786 73.98H180.256V74.98H184.786V73.98ZM180.756 74.48V57.14H179.756V74.48H180.756ZM180.756 57.14C180.756 55.5043 180.675 54.033 180.512 52.728L179.52 52.852C179.677 54.107 179.756 55.5357 179.756 57.14H180.756ZM180.016 53.29H184.276V52.29H180.016V53.29ZM183.779 52.8491L184.079 55.3691L185.072 55.2509L184.772 52.7309L183.779 52.8491ZM185.033 55.5131C185.389 54.7118 185.956 54.0797 186.75 53.6105L186.241 52.7495C185.276 53.3203 184.563 54.1082 184.119 55.1069L185.033 55.5131ZM186.746 53.6129C187.563 53.141 188.495 52.9 189.556 52.9V51.9C188.337 51.9 187.229 52.179 186.246 52.7471L186.746 53.6129ZM188.266 65.29C189.507 65.29 190.522 64.8732 191.234 63.9949L190.457 63.3651C189.97 63.9668 189.265 64.29 188.266 64.29V65.29ZM191.238 63.9898C191.934 63.1087 192.246 61.8918 192.246 60.41H191.246C191.246 61.7682 190.958 62.7313 190.453 63.3702L191.238 63.9898ZM192.246 60.41C192.246 58.9229 191.922 57.6906 191.211 56.7737L190.421 57.3863C190.95 58.0694 191.246 59.0571 191.246 60.41H192.246ZM191.216 56.78C190.511 55.8402 189.505 55.38 188.266 55.38V56.38C189.227 56.38 189.921 56.7198 190.416 57.38L191.216 56.78ZM188.266 55.38C187.015 55.38 185.992 55.8237 185.264 56.7389L186.047 57.3611C186.56 56.7163 187.277 56.38 188.266 56.38V55.38ZM185.263 56.7402C184.567 57.6223 184.256 58.8501 184.256 60.35H185.256C185.256 58.9699 185.545 57.9977 186.048 57.3598L185.263 56.7402ZM184.256 60.35C184.256 61.8499 184.567 63.0777 185.263 63.9598L186.048 63.3402C185.545 62.7023 185.256 61.7301 185.256 60.35H184.256ZM185.268 63.9661C185.997 64.8598 187.02 65.29 188.266 65.29V64.29C187.272 64.29 186.554 63.9602 186.043 63.3339L185.268 63.9661ZM210.619 67.28L210.384 67.7212L210.387 67.7228L210.619 67.28ZM207.829 64.52L207.388 64.7553L207.391 64.761L207.829 64.52ZM207.829 56.12L207.391 55.879L207.388 55.8847L207.829 56.12ZM210.619 53.36L210.387 52.9172L210.384 52.9188L210.619 53.36ZM221.839 56.12L221.398 56.3553L221.401 56.361L221.839 56.12ZM221.839 64.52L221.401 64.279L221.398 64.2847L221.839 64.52ZM219.079 67.28L219.314 67.7212L219.079 67.28ZM217.429 63.68L217.041 63.3651L217.036 63.3716L217.429 63.68ZM217.429 56.99L217.032 57.2933L217.036 57.2992L217.041 57.3049L217.429 56.99ZM212.269 56.99L212.657 57.3049L212.662 57.2998L212.269 56.99ZM214.879 67.74C213.326 67.74 211.988 67.4335 210.851 66.8372L210.387 67.7228C211.69 68.4065 213.192 68.74 214.879 68.74V67.74ZM210.854 66.8388C209.741 66.2448 208.881 65.3947 208.267 64.279L207.391 64.761C208.097 66.0453 209.098 67.0352 210.384 67.7212L210.854 66.8388ZM208.27 64.2847C207.675 63.1689 207.369 61.8524 207.369 60.32H206.369C206.369 61.9876 206.703 63.4711 207.388 64.7553L208.27 64.2847ZM207.369 60.32C207.369 58.7876 207.675 57.4711 208.27 56.3553L207.388 55.8847C206.703 57.1689 206.369 58.6524 206.369 60.32H207.369ZM208.267 56.361C208.881 55.2453 209.741 54.3952 210.854 53.8012L210.384 52.9188C209.098 53.6048 208.097 54.5947 207.391 55.879L208.267 56.361ZM210.851 53.8028C211.988 53.2065 213.326 52.9 214.879 52.9V51.9C213.192 51.9 211.69 52.2335 210.387 52.9172L210.851 53.8028ZM214.879 52.9C216.411 52.9 217.728 53.2061 218.844 53.8012L219.314 52.9188C218.03 52.2339 216.547 51.9 214.879 51.9V52.9ZM218.844 53.8012C219.956 54.3945 220.805 55.2428 221.398 56.3553L222.28 55.8847C221.594 54.5972 220.602 53.6055 219.314 52.9188L218.844 53.8012ZM221.401 56.361C222.014 57.4756 222.329 58.79 222.329 60.32H223.329C223.329 58.65 222.984 57.1644 222.277 55.879L221.401 56.361ZM222.329 60.32C222.329 61.85 222.014 63.1644 221.401 64.279L222.277 64.761C222.984 63.4756 223.329 61.99 223.329 60.32H222.329ZM221.398 64.2847C220.805 65.3972 219.956 66.2455 218.844 66.8388L219.314 67.7212C220.602 67.0345 221.594 66.0428 222.28 64.7553L221.398 64.2847ZM218.844 66.8388C217.728 67.4339 216.411 67.74 214.879 67.74V68.74C216.547 68.74 218.03 68.4061 219.314 67.7212L218.844 66.8388ZM214.879 65.29C216.12 65.29 217.129 64.8731 217.823 63.9884L217.036 63.3716C216.569 63.9669 215.878 64.29 214.879 64.29V65.29ZM217.817 63.9949C218.521 63.1273 218.829 61.8727 218.829 60.32H217.829C217.829 61.7673 217.537 62.7527 217.041 63.3651L217.817 63.9949ZM218.829 60.32C218.829 58.7854 218.52 57.5417 217.817 56.6751L217.041 57.3049C217.538 57.9183 217.829 58.8946 217.829 60.32H218.829ZM217.827 56.6867C217.135 55.7805 216.125 55.35 214.879 55.35V56.35C215.873 56.35 216.563 56.6795 217.032 57.2933L217.827 56.6867ZM214.879 55.35C213.616 55.35 212.589 55.7781 211.877 56.6802L212.662 57.2998C213.149 56.6819 213.862 56.35 214.879 56.35V55.35ZM211.881 56.6751C211.178 57.5417 210.869 58.7854 210.869 60.32H211.869C211.869 58.8946 212.16 57.9183 212.657 57.3049L211.881 56.6751ZM210.869 60.32C210.869 61.8618 211.169 63.1104 211.853 63.9813C212.555 64.8752 213.595 65.29 214.879 65.29V64.29C213.823 64.29 213.108 63.9598 212.64 63.3637C212.154 62.7446 211.869 61.7582 211.869 60.32H210.869ZM240.515 68V68.5H241.015V68H240.515ZM235.985 68H235.485V68.5H235.985V68ZM235.385 56.69L234.986 56.9925L234.993 57.0015L235 57.0101L235.385 56.69ZM231.155 56.9L231.519 57.242L231.519 57.242L231.155 56.9ZM230.255 68V68.5H230.755V68H230.255ZM225.725 68H225.225V68.5H225.725V68ZM225.485 52.79V52.29H224.918L224.988 52.852L225.485 52.79ZM229.745 52.79L230.241 52.728L230.186 52.29H229.745V52.79ZM230.045 55.19L229.548 55.252L229.728 56.6893L230.473 55.4472L230.045 55.19ZM232.145 53.12L231.905 52.681L231.901 52.6834L232.145 53.12ZM235.115 52.9C236.813 52.9 238.004 53.3986 238.783 54.3202C239.575 55.258 240.015 56.7184 240.015 58.79H241.015C241.015 56.6016 240.554 54.867 239.546 53.6748C238.525 52.4664 237.016 51.9 235.115 51.9V52.9ZM240.015 58.79V68H241.015V58.79H240.015ZM240.515 67.5H235.985V68.5H240.515V67.5ZM236.485 68V59H235.485V68H236.485ZM236.485 59C236.485 57.8976 236.28 56.9839 235.769 56.3699L235 57.0101C235.289 57.3561 235.485 57.9824 235.485 59H236.485ZM235.783 56.3875C235.278 55.7238 234.494 55.44 233.555 55.44V56.44C234.295 56.44 234.731 56.6562 234.986 56.9925L235.783 56.3875ZM233.555 55.44C232.438 55.44 231.498 55.8027 230.79 56.558L231.519 57.242C232.011 56.7173 232.671 56.44 233.555 56.44V55.44ZM230.79 56.558C230.084 57.311 229.755 58.3038 229.755 59.48H230.755C230.755 58.4962 231.025 57.769 231.519 57.242L230.79 56.558ZM229.755 59.48V68H230.755V59.48H229.755ZM230.255 67.5H225.725V68.5H230.255V67.5ZM226.225 68V57.14H225.225V68H226.225ZM226.225 57.14C226.225 55.5043 226.144 54.033 225.981 52.728L224.988 52.852C225.145 54.107 225.225 55.5357 225.225 57.14H226.225ZM225.485 53.29H229.745V52.29H225.485V53.29ZM229.248 52.852L229.548 55.252L230.541 55.128L230.241 52.728L229.248 52.852ZM230.473 55.4472C230.971 54.6171 231.61 53.9912 232.388 53.5566L231.901 52.6834C230.96 53.2088 230.198 53.9629 229.616 54.9328L230.473 55.4472ZM232.384 53.5589C233.184 53.1228 234.09 52.9 235.115 52.9V51.9C233.939 51.9 232.866 52.1572 231.905 52.6811L232.384 53.5589ZM18.83 90.79L19.288 90.9907L19.595 90.29H18.83V90.79ZM11.81 106.81L12.2671 107.013L12.268 107.011L11.81 106.81ZM8.54 111.07L8.25829 110.657L8.25117 110.662L8.54 111.07ZM3.74 112.84L3.26131 112.984L3.38468 113.393L3.80779 113.335L3.74 112.84ZM2.69 109.36L2.58524 108.871L2.05454 108.985L2.21131 109.504L2.69 109.36ZM5.84 108.22L5.57078 107.799L5.56541 107.802L5.84 108.22ZM7.52 106.21L7.97518 106.417L7.97518 106.417L7.52 106.21ZM7.97 105.22L8.42518 105.427L8.51715 105.225L8.42858 105.021L7.97 105.22ZM1.7 90.79V90.29H0.937584L1.24142 90.9893L1.7 90.79ZM6.44 90.79L6.90501 90.6063L6.78005 90.29H6.44V90.79ZM10.34 100.66L9.87499 100.844L10.333 102.003L10.8031 100.849L10.34 100.66ZM14.36 90.79V90.29H14.0238L13.8969 90.6014L14.36 90.79ZM18.372 90.5893L11.352 106.609L12.268 107.011L19.288 90.9907L18.372 90.5893ZM11.3529 106.607C10.5186 108.489 9.48003 109.824 8.25833 110.657L8.82167 111.483C10.24 110.516 11.3814 109.011 12.2671 107.013L11.3529 106.607ZM8.25117 110.662C7.02887 111.527 5.5087 112.093 3.67221 112.345L3.80779 113.335C5.7713 113.067 7.45113 112.453 8.82883 111.478L8.25117 110.662ZM4.21869 112.696L3.16869 109.216L2.21131 109.504L3.26131 112.984L4.21869 112.696ZM2.79476 109.849C4.21855 109.544 5.33874 109.148 6.11459 108.638L5.56541 107.802C4.94126 108.212 3.96145 108.576 2.58524 108.871L2.79476 109.849ZM6.10919 108.641C6.92097 108.123 7.54062 107.373 7.97518 106.417L7.06482 106.003C6.69938 106.807 6.19903 107.397 5.57081 107.799L6.10919 108.641ZM7.97518 106.417L8.42518 105.427L7.51482 105.013L7.06482 106.003L7.97518 106.417ZM8.42858 105.021L2.15858 90.5907L1.24142 90.9893L7.51142 105.419L8.42858 105.021ZM1.7 91.29H6.44V90.29H1.7V91.29ZM5.97499 90.9737L9.87499 100.844L10.805 100.476L6.90501 90.6063L5.97499 90.9737ZM10.8031 100.849L14.8231 90.9786L13.8969 90.6014L9.87694 100.471L10.8031 100.849ZM14.36 91.29H18.83V90.29H14.36V91.29ZM23.0312 105.28L22.7959 105.721L22.7989 105.723L23.0312 105.28ZM20.2412 102.52L19.8 102.755L19.8031 102.761L20.2412 102.52ZM20.2412 94.12L19.803 93.879L19.8 93.8847L20.2412 94.12ZM23.0312 91.36L22.7989 90.9172L22.7959 90.9188L23.0312 91.36ZM34.2512 94.12L33.81 94.3553L33.8131 94.361L34.2512 94.12ZM34.2512 102.52L33.813 102.279L33.81 102.285L34.2512 102.52ZM31.4912 105.28L31.7265 105.721L31.4912 105.28ZM29.8412 101.68L29.4527 101.365L29.4476 101.372L29.8412 101.68ZM29.8412 94.99L29.4437 95.2933L29.4482 95.2992L29.4528 95.3049L29.8412 94.99ZM24.6812 94.99L25.0696 95.3049L25.0736 95.2998L24.6812 94.99ZM27.2912 105.74C25.7379 105.74 24.4002 105.434 23.2634 104.837L22.7989 105.723C24.1022 106.406 25.6045 106.74 27.2912 106.74V105.74ZM23.2665 104.839C22.1527 104.245 21.2929 103.395 20.6793 102.279L19.8031 102.761C20.5095 104.045 21.5096 105.035 22.7959 105.721L23.2665 104.839ZM20.6823 102.285C20.0873 101.169 19.7812 99.8524 19.7812 98.32H18.7812C18.7812 99.9876 19.1151 101.471 19.8 102.755L20.6823 102.285ZM19.7812 98.32C19.7812 96.7876 20.0873 95.4711 20.6823 94.3553L19.8 93.8847C19.1151 95.1689 18.7812 96.6524 18.7812 98.32H19.7812ZM20.6793 94.361C21.2929 93.2453 22.1527 92.3952 23.2665 91.8012L22.7959 90.9188C21.5096 91.6048 20.5095 92.5947 19.8031 93.879L20.6793 94.361ZM23.2634 91.8028C24.4002 91.2065 25.7379 90.9 27.2912 90.9V89.9C25.6045 89.9 24.1022 90.2335 22.7989 90.9172L23.2634 91.8028ZM27.2912 90.9C28.8236 90.9 30.1401 91.2061 31.2559 91.8012L31.7265 90.9188C30.4423 90.2339 28.9588 89.9 27.2912 89.9V90.9ZM31.2559 91.8012C32.3683 92.3945 33.2167 93.2428 33.81 94.3553L34.6923 93.8847C34.0057 92.5972 33.014 91.6055 31.7265 90.9188L31.2559 91.8012ZM33.8131 94.361C34.4261 95.4756 34.7412 96.79 34.7412 98.32H35.7412C35.7412 96.65 35.3962 95.1644 34.6893 93.879L33.8131 94.361ZM34.7412 98.32C34.7412 99.85 34.4261 101.164 33.8131 102.279L34.6893 102.761C35.3962 101.476 35.7412 99.99 35.7412 98.32H34.7412ZM33.81 102.285C33.2167 103.397 32.3683 104.246 31.2559 104.839L31.7265 105.721C33.014 105.034 34.0057 104.043 34.6923 102.755L33.81 102.285ZM31.2559 104.839C30.1401 105.434 28.8236 105.74 27.2912 105.74V106.74C28.9588 106.74 30.4423 106.406 31.7265 105.721L31.2559 104.839ZM27.2912 103.29C28.532 103.29 29.5414 102.873 30.2347 101.988L29.4476 101.372C28.981 101.967 28.2904 102.29 27.2912 102.29V103.29ZM30.2296 101.995C30.933 101.127 31.2412 99.8727 31.2412 98.32H30.2412C30.2412 99.7673 29.9494 100.753 29.4528 101.365L30.2296 101.995ZM31.2412 98.32C31.2412 96.7854 30.9322 95.5417 30.2296 94.6751L29.4528 95.3049C29.9501 95.9183 30.2412 96.8946 30.2412 98.32H31.2412ZM30.2386 94.6867C29.5471 93.7805 28.5369 93.35 27.2912 93.35V94.35C28.2855 94.35 28.9752 94.6795 29.4437 95.2933L30.2386 94.6867ZM27.2912 93.35C26.0286 93.35 25.0009 93.7781 24.2887 94.6802L25.0736 95.2998C25.5614 94.6819 26.2738 94.35 27.2912 94.35V93.35ZM24.2928 94.6751C23.5901 95.5417 23.2812 96.7854 23.2812 98.32H24.2812C24.2812 96.8946 24.5722 95.9183 25.0695 95.3049L24.2928 94.6751ZM23.2812 98.32C23.2812 99.8618 23.5815 101.11 24.2654 101.981C24.9674 102.875 26.0076 103.29 27.2912 103.29V102.29C26.2348 102.29 25.52 101.96 25.0519 101.364C24.5658 100.745 24.2812 99.7582 24.2812 98.32H23.2812ZM52.6566 90.79H53.1566V90.29H52.6566V90.79ZM52.6566 106V106.5H53.1566V106H52.6566ZM48.2466 106H47.7466V106.5H48.2466V106ZM48.2466 103.78H48.7466V101.975L47.8179 103.523L48.2466 103.78ZM46.3566 105.61L46.5937 106.05L46.5937 106.05L46.3566 105.61ZM39.4566 104.65L39.0825 104.982L39.0825 104.982L39.4566 104.65ZM38.0466 90.79V90.29H37.5466V90.79H38.0466ZM42.5766 90.79H43.0766V90.29H42.5766V90.79ZM47.2266 101.74L47.5971 102.076L47.5971 102.076L47.2266 101.74ZM48.0966 90.79V90.29H47.5966V90.79H48.0966ZM52.1566 90.79V106H53.1566V90.79H52.1566ZM52.6566 105.5H48.2466V106.5H52.6566V105.5ZM48.7466 106V103.78H47.7466V106H48.7466ZM47.8179 103.523C47.3816 104.25 46.8161 104.795 46.1196 105.17L46.5937 106.05C47.4572 105.585 48.1517 104.91 48.6754 104.037L47.8179 103.523ZM46.1196 105.17C45.4199 105.546 44.6229 105.74 43.7166 105.74V106.74C44.7704 106.74 45.7333 106.514 46.5937 106.05L46.1196 105.17ZM43.7166 105.74C41.9084 105.74 40.6464 105.238 39.8307 104.318L39.0825 104.982C40.1468 106.182 41.7249 106.74 43.7166 106.74V105.74ZM39.8307 104.318C39.0046 103.387 38.5466 101.928 38.5466 99.85H37.5466C37.5466 102.052 38.0287 103.793 39.0825 104.982L39.8307 104.318ZM38.5466 99.85V90.79H37.5466V99.85H38.5466ZM38.0466 91.29H42.5766V90.29H38.0466V91.29ZM42.0766 90.79V99.94H43.0766V90.79H42.0766ZM42.0766 99.94C42.0766 100.92 42.2854 101.748 42.7898 102.336C43.3067 102.938 44.058 103.2 44.9466 103.2V102.2C44.2553 102.2 43.8216 102.002 43.5485 101.684C43.2629 101.352 43.0766 100.8 43.0766 99.94H42.0766ZM44.9466 103.2C46.0138 103.2 46.9134 102.83 47.5971 102.076L46.8561 101.404C46.3799 101.93 45.7595 102.2 44.9466 102.2V103.2ZM47.5971 102.076C48.2768 101.326 48.5966 100.357 48.5966 99.22H47.5966C47.5966 100.163 47.3365 100.874 46.8561 101.404L47.5971 102.076ZM48.5966 99.22V90.79H47.5966V99.22H48.5966ZM48.0966 91.29H52.6566V90.29H48.0966V91.29ZM66.8 90.73L67.3 90.7336L67.3023 90.4091L67.0069 90.2748L66.8 90.73ZM66.77 94.87L66.5613 95.3243L67.2644 95.6474L67.27 94.8736L66.77 94.87ZM61.79 95.35L61.4311 95.0019L61.4309 95.0021L61.79 95.35ZM60.86 106V106.5H61.36V106H60.86ZM56.33 106H55.83V106.5H56.33V106ZM56.09 90.79V90.29H55.5236L55.5939 90.852L56.09 90.79ZM60.35 90.79L60.8467 90.7329L60.7958 90.29H60.35V90.79ZM60.65 93.4L60.1533 93.4571L61.1149 93.584L60.65 93.4ZM62.42 91.21L62.685 91.634L62.6878 91.6323L62.42 91.21ZM65.18 90.93C65.7707 90.93 66.2355 91.0226 66.5931 91.1852L67.0069 90.2748C66.4845 90.0374 65.8693 89.93 65.18 89.93V90.93ZM66.3 90.7264L66.27 94.8664L67.27 94.8736L67.3 90.7336L66.3 90.7264ZM66.9788 94.4157C66.1799 94.0486 65.369 93.86 64.55 93.86V94.86C65.211 94.86 65.8801 95.0114 66.5613 95.3243L66.9788 94.4157ZM64.55 93.86C63.2579 93.86 62.1916 94.2177 61.4311 95.0019L62.149 95.6981C62.6684 95.1623 63.4421 94.86 64.55 94.86V93.86ZM61.4309 95.0021C60.6957 95.761 60.36 96.8008 60.36 98.05H61.36C61.36 96.9792 61.6443 96.219 62.1491 95.6979L61.4309 95.0021ZM60.36 98.05V106H61.36V98.05H60.36ZM60.86 105.5H56.33V106.5H60.86V105.5ZM56.83 106V95.14H55.83V106H56.83ZM56.83 95.14C56.83 93.5043 56.7493 92.033 56.5861 90.728L55.5939 90.852C55.7507 92.107 55.83 93.5357 55.83 95.14H56.83ZM56.09 91.29H60.35V90.29H56.09V91.29ZM59.8533 90.8471L60.1533 93.4571L61.1467 93.3429L60.8467 90.7329L59.8533 90.8471ZM61.1149 93.584C61.4595 92.7134 61.9842 92.072 62.685 91.634L62.155 90.786C61.2558 91.348 60.6005 92.1666 60.1851 93.216L61.1149 93.584ZM62.6878 91.6323C63.4236 91.1657 64.2498 90.93 65.18 90.93V89.93C64.0702 89.93 63.0564 90.2143 62.1522 90.7877L62.6878 91.6323ZM89.8522 91.42L89.5748 91.8361L89.5806 91.8398L89.8522 91.42ZM92.2222 94.24L91.7677 94.4486L91.7706 94.4547L92.2222 94.24ZM92.2522 102.55L92.7039 102.764L92.7053 102.761L92.2522 102.55ZM89.8822 105.28L90.1479 105.704L90.1479 105.704L89.8822 105.28ZM83.5222 105.58L83.7542 105.137L83.7542 105.137L83.5222 105.58ZM81.6022 103.75L82.0377 103.504L81.1022 101.846V103.75H81.6022ZM81.6022 112.48V112.98H82.1022V112.48H81.6022ZM77.0722 112.48H76.5722V112.98H77.0722V112.48ZM76.8322 90.79V90.29H76.2658L76.336 90.852L76.8322 90.79ZM81.0922 90.79L81.5887 90.7309L81.5362 90.29H81.0922V90.79ZM81.3922 93.31L80.8957 93.3691L81.1106 95.1746L81.8491 93.5131L81.3922 93.31ZM83.3122 91.18L83.062 90.747L83.0578 90.7495L83.3122 91.18ZM87.6622 101.68L88.0506 101.995L88.0546 101.99L87.6622 101.68ZM87.6322 95.08L87.2321 95.38L87.237 95.3863L87.6322 95.08ZM82.4722 95.05L82.0808 94.7389L82.0797 94.7402L82.4722 95.05ZM82.4722 101.65L82.0797 101.96L82.0848 101.966L82.4722 101.65ZM86.3722 90.9C87.5798 90.9 88.642 91.2142 89.5748 91.836L90.1295 91.004C89.0223 90.2658 87.7646 89.9 86.3722 89.9V90.9ZM89.5806 91.8398C90.5126 92.4428 91.2431 93.3055 91.7678 94.4486L92.6766 94.0314C92.0813 92.7345 91.2318 91.7172 90.1238 91.0002L89.5806 91.8398ZM91.7706 94.4547C92.3141 95.598 92.5922 96.9128 92.5922 98.41H93.5922C93.5922 96.7872 93.2902 95.322 92.6738 94.0253L91.7706 94.4547ZM92.5922 98.41C92.5922 99.9098 92.3232 101.216 91.7991 102.339L92.7053 102.761C93.3012 101.484 93.5922 100.03 93.5922 98.41H92.5922ZM91.8005 102.336C91.2777 103.437 90.549 104.271 89.6164 104.856L90.1479 105.704C91.2554 105.009 92.1067 104.023 92.7039 102.764L91.8005 102.336ZM89.6164 104.856C88.6837 105.442 87.6075 105.74 86.3722 105.74V106.74C87.7768 106.74 89.0407 106.398 90.1479 105.704L89.6164 104.856ZM86.3722 105.74C85.3833 105.74 84.5145 105.535 83.7542 105.137L83.2902 106.023C84.2099 106.505 85.241 106.74 86.3722 106.74V105.74ZM83.7542 105.137C82.9943 104.739 82.4274 104.195 82.0377 103.504L81.1667 103.996C81.6569 104.865 82.37 105.541 83.2902 106.023L83.7542 105.137ZM81.1022 103.75V112.48H82.1022V103.75H81.1022ZM81.6022 111.98H77.0722V112.98H81.6022V111.98ZM77.5722 112.48V95.14H76.5722V112.48H77.5722ZM77.5722 95.14C77.5722 93.5043 77.4914 92.033 77.3283 90.728L76.336 90.852C76.4929 92.107 76.5722 93.5357 76.5722 95.14H77.5722ZM76.8322 91.29H81.0922V90.29H76.8322V91.29ZM80.5957 90.8491L80.8957 93.3691L81.8887 93.2509L81.5887 90.7309L80.5957 90.8491ZM81.8491 93.5131C82.2052 92.7118 82.7725 92.0797 83.5666 91.6105L83.0578 90.7495C82.0919 91.3203 81.3792 92.1082 80.9353 93.1069L81.8491 93.5131ZM83.5623 91.6129C84.3791 91.141 85.3113 90.9 86.3722 90.9V89.9C85.1531 89.9 84.0453 90.179 83.062 90.7471L83.5623 91.6129ZM85.0822 103.29C86.3234 103.29 87.3385 102.873 88.0506 101.995L87.2738 101.365C86.7859 101.967 86.081 102.29 85.0822 102.29V103.29ZM88.0546 101.99C88.7502 101.109 89.0622 99.8918 89.0622 98.41H88.0622C88.0622 99.7682 87.7741 100.731 87.2697 101.37L88.0546 101.99ZM89.0622 98.41C89.0622 96.9229 88.738 95.6906 88.0274 94.7737L87.237 95.3863C87.7664 96.0694 88.0622 97.0571 88.0622 98.41H89.0622ZM88.0322 94.78C87.3274 93.8402 86.3214 93.38 85.0822 93.38V94.38C86.043 94.38 86.737 94.7198 87.2322 95.38L88.0322 94.78ZM85.0822 93.38C83.8312 93.38 82.8082 93.8237 82.0808 94.7389L82.8636 95.3611C83.3761 94.7163 84.0932 94.38 85.0822 94.38V93.38ZM82.0797 94.7402C81.3833 95.6223 81.0722 96.8501 81.0722 98.35H82.0722C82.0722 96.9699 82.3611 95.9977 82.8646 95.3598L82.0797 94.7402ZM81.0722 98.35C81.0722 99.8499 81.3833 101.078 82.0797 101.96L82.8646 101.34C82.3611 100.702 82.0722 99.7301 82.0722 98.35H81.0722ZM82.0848 101.966C82.8139 102.86 83.8359 103.29 85.0822 103.29V102.29C84.0884 102.29 83.3705 101.96 82.8596 101.334L82.0848 101.966ZM95.998 83.92V83.42H95.498V83.92H95.998ZM100.528 83.92H101.028V83.42H100.528V83.92ZM100.528 106V106.5H101.028V106H100.528ZM95.998 106H95.498V106.5H95.998V106ZM95.998 84.42H100.528V83.42H95.998V84.42ZM100.028 83.92V106H101.028V83.92H100.028ZM100.528 105.5H95.998V106.5H100.528V105.5ZM96.498 106V83.92H95.498V106H96.498ZM119.47 90.79H119.97V90.29H119.47V90.79ZM119.47 106V106.5H119.97V106H119.47ZM115 106H114.5V106.5H115V106ZM115 103.75H115.5V101.918L114.57 103.496L115 103.75ZM113.05 105.58L113.282 106.023L113.282 106.023L113.05 105.58ZM106.69 105.28L106.421 105.701L106.425 105.704L106.69 105.28ZM104.32 102.55L103.867 102.761L103.872 102.771L104.32 102.55ZM104.32 94.24L103.869 94.0253L103.866 94.0314L104.32 94.24ZM106.72 91.42L106.992 91.8398L106.998 91.836L106.72 91.42ZM113.05 91.09L112.81 91.5285L112.81 91.5285L113.05 91.09ZM115 92.95L114.57 93.204L115.5 94.7821V92.95H115ZM115 90.79V90.29H114.5V90.79H115ZM114.1 95.05L113.704 95.3549L113.708 95.3598L114.1 95.05ZM108.91 95.08L108.515 94.7737L108.515 94.7737L108.91 95.08ZM108.88 101.68L108.488 101.99L108.492 101.996L108.497 102.001L108.88 101.68ZM118.97 90.79V106H119.97V90.79H118.97ZM119.47 105.5H115V106.5H119.47V105.5ZM115.5 106V103.75H114.5V106H115.5ZM114.57 103.496C114.159 104.192 113.58 104.738 112.818 105.137L113.282 106.023C114.201 105.542 114.921 104.868 115.431 104.004L114.57 103.496ZM112.818 105.137C112.058 105.535 111.189 105.74 110.2 105.74V106.74C111.332 106.74 112.363 106.505 113.282 106.023L112.818 105.137ZM110.2 105.74C108.965 105.74 107.889 105.442 106.956 104.856L106.425 105.704C107.532 106.398 108.796 106.74 110.2 106.74V105.74ZM106.96 104.859C106.045 104.273 105.313 103.437 104.769 102.329L103.872 102.771C104.487 104.023 105.336 105.007 106.421 105.701L106.96 104.859ZM104.773 102.339C104.249 101.216 103.98 99.9098 103.98 98.41H102.98C102.98 100.03 103.271 101.484 103.867 102.761L104.773 102.339ZM103.98 98.41C103.98 96.9104 104.249 95.5934 104.775 94.4486L103.866 94.0314C103.271 95.3266 102.98 96.7896 102.98 98.41H103.98ZM104.772 94.4547C105.317 93.3088 106.058 92.4439 106.992 91.8398L106.449 91.0002C105.342 91.7161 104.484 92.7312 103.869 94.0253L104.772 94.4547ZM106.998 91.836C107.931 91.2142 108.993 90.9 110.2 90.9V89.9C108.808 89.9 107.55 90.2658 106.443 91.004L106.998 91.836ZM110.2 90.9C111.186 90.9 112.051 91.113 112.81 91.5285L113.291 90.6515C112.369 90.147 111.335 89.9 110.2 89.9V90.9ZM112.81 91.5285C113.576 91.9479 114.158 92.5061 114.57 93.204L115.431 92.696C114.923 91.8339 114.205 91.1521 113.291 90.6515L112.81 91.5285ZM115.5 92.95V90.79H114.5V92.95H115.5ZM115 91.29H119.47V90.29H115V91.29ZM111.52 103.29C112.766 103.29 113.782 102.86 114.493 101.96L113.708 101.34C113.218 101.96 112.514 102.29 111.52 102.29V103.29ZM114.493 101.96C115.189 101.078 115.5 99.8499 115.5 98.35H114.5C114.5 99.7301 114.212 100.702 113.708 101.34L114.493 101.96ZM115.5 98.35C115.5 96.8501 115.189 95.6223 114.493 94.7402L113.708 95.3598C114.212 95.9977 114.5 96.9699 114.5 98.35H115.5ZM114.497 94.7451C113.788 93.824 112.771 93.38 111.52 93.38V94.38C112.51 94.38 113.213 94.716 113.704 95.3549L114.497 94.7451ZM111.52 93.38C110.265 93.38 109.241 93.8373 108.515 94.7737L109.306 95.3863C109.82 94.7227 110.536 94.38 111.52 94.38V93.38ZM108.515 94.7737C107.805 95.6906 107.48 96.9229 107.48 98.41H108.48C108.48 97.0571 108.776 96.0694 109.306 95.3863L108.515 94.7737ZM107.48 98.41C107.48 99.8918 107.792 101.109 108.488 101.99L109.273 101.37C108.768 100.731 108.48 99.7682 108.48 98.41H107.48ZM108.497 102.001C109.23 102.875 110.262 103.29 111.52 103.29V102.29C110.499 102.29 109.771 101.965 109.264 101.359L108.497 102.001ZM137.917 106V106.5H138.417V106H137.917ZM133.387 106H132.887V106.5H133.387V106ZM132.787 94.69L132.389 94.9925L132.396 95.0015L132.403 95.0101L132.787 94.69ZM128.557 94.9L128.922 95.242L128.922 95.242L128.557 94.9ZM127.657 106V106.5H128.157V106H127.657ZM123.127 106H122.627V106.5H123.127V106ZM122.887 90.79V90.29H122.32L122.391 90.852L122.887 90.79ZM127.147 90.79L127.643 90.728L127.588 90.29H127.147V90.79ZM127.447 93.19L126.951 93.252L127.13 94.6893L127.876 93.4472L127.447 93.19ZM129.547 91.12L129.307 90.681L129.303 90.6834L129.547 91.12ZM132.517 90.9C134.216 90.9 135.406 91.3986 136.185 92.3202C136.977 93.258 137.417 94.7184 137.417 96.79H138.417C138.417 94.6016 137.956 92.867 136.949 91.6748C135.928 90.4664 134.418 89.9 132.517 89.9V90.9ZM137.417 96.79V106H138.417V96.79H137.417ZM137.917 105.5H133.387V106.5H137.917V105.5ZM133.887 106V97H132.887V106H133.887ZM133.887 97C133.887 95.8976 133.683 94.9839 133.171 94.3699L132.403 95.0101C132.691 95.3561 132.887 95.9824 132.887 97H133.887ZM133.185 94.3875C132.681 93.7238 131.896 93.44 130.957 93.44V94.44C131.698 94.44 132.133 94.6562 132.389 94.9925L133.185 94.3875ZM130.957 93.44C129.84 93.44 128.9 93.8027 128.192 94.558L128.922 95.242C129.414 94.7173 130.074 94.44 130.957 94.44V93.44ZM128.192 94.558C127.486 95.311 127.157 96.3038 127.157 97.48H128.157C128.157 96.4962 128.428 95.769 128.922 95.242L128.192 94.558ZM127.157 97.48V106H128.157V97.48H127.157ZM127.657 105.5H123.127V106.5H127.657V105.5ZM123.627 106V95.14H122.627V106H123.627ZM123.627 95.14C123.627 93.5043 123.546 92.033 123.383 90.728L122.391 90.852C122.548 92.107 122.627 93.5357 122.627 95.14H123.627ZM122.887 91.29H127.147V90.29H122.887V91.29ZM126.651 90.852L126.951 93.252L127.943 93.128L127.643 90.728L126.651 90.852ZM127.876 93.4472C128.374 92.6171 129.012 91.9912 129.791 91.5566L129.303 90.6834C128.362 91.2088 127.6 91.9629 127.018 92.9328L127.876 93.4472ZM129.786 91.5589C130.586 91.1228 131.492 90.9 132.517 90.9V89.9C131.342 89.9 130.268 90.1572 129.307 90.6811L129.786 91.5589ZM147.225 94.18V93.68H146.725V94.18H147.225ZM147.885 101.95L147.549 102.32L147.559 102.328L147.885 101.95ZM151.095 102.31H151.595V101.67L150.974 101.825L151.095 102.31ZM151.095 105.82L151.277 106.286L151.595 106.162V105.82H151.095ZM144.165 104.65L143.798 104.989L143.802 104.993L144.165 104.65ZM142.695 94.18H143.195V93.68H142.695V94.18ZM139.815 94.18H139.315V94.68H139.815V94.18ZM139.815 90.79V90.29H139.315V90.79H139.815ZM142.695 90.79V91.29H143.195V90.79H142.695ZM142.695 87.22L142.541 86.7444L142.195 86.8566V87.22H142.695ZM147.225 85.75H147.725V85.0621L147.071 85.2744L147.225 85.75ZM147.225 90.79H146.725V91.29H147.225V90.79ZM151.095 90.79H151.595V90.29H151.095V90.79ZM151.095 94.18V94.68H151.595V94.18H151.095ZM146.725 94.18V100.09H147.725V94.18H146.725ZM146.725 100.09C146.725 101.011 146.968 101.791 147.549 102.32L148.222 101.58C147.923 101.309 147.725 100.849 147.725 100.09H146.725ZM147.559 102.328C148.107 102.802 148.801 103.02 149.595 103.02V102.02C148.99 102.02 148.544 101.858 148.212 101.572L147.559 102.328ZM149.595 103.02C150.087 103.02 150.628 102.942 151.217 102.795L150.974 101.825C150.442 101.958 149.984 102.02 149.595 102.02V103.02ZM150.595 102.31V105.82H151.595V102.31H150.595ZM150.914 105.354C150.267 105.606 149.462 105.74 148.485 105.74V106.74C149.549 106.74 150.484 106.594 151.277 106.286L150.914 105.354ZM148.485 105.74C146.701 105.74 145.409 105.24 144.529 104.307L143.802 104.993C144.922 106.18 146.51 106.74 148.485 106.74V105.74ZM144.532 104.311C143.663 103.37 143.195 102.017 143.195 100.18H142.195C142.195 102.183 142.708 103.81 143.798 104.989L144.532 104.311ZM143.195 100.18V94.18H142.195V100.18H143.195ZM142.695 93.68H139.815V94.68H142.695V93.68ZM140.315 94.18V90.79H139.315V94.18H140.315ZM139.815 91.29H142.695V90.29H139.815V91.29ZM143.195 90.79V87.22H142.195V90.79H143.195ZM142.85 87.6956L147.38 86.2256L147.071 85.2744L142.541 86.7444L142.85 87.6956ZM146.725 85.75V90.79H147.725V85.75H146.725ZM147.225 91.29H151.095V90.29H147.225V91.29ZM150.595 90.79V94.18H151.595V90.79H150.595ZM151.095 93.68H147.225V94.68H151.095V93.68ZM152.43 104.38L151.963 104.202L151.828 104.555L152.131 104.781L152.43 104.38ZM153.63 101.23L153.923 100.825L153.395 100.442L153.163 101.052L153.63 101.23ZM156.3 102.58L156.145 103.055L156.153 103.058L156.3 102.58ZM161.1 102.67L160.852 102.236L160.852 102.236L161.1 102.67ZM161.28 100.72L160.984 101.123L160.984 101.123L161.28 100.72ZM159.69 100.15L159.578 100.637L159.587 100.639L159.69 100.15ZM157.2 99.58L157.311 99.0926L157.307 99.0916L157.2 99.58ZM153.96 98.05L153.601 98.3984L153.606 98.4036L153.96 98.05ZM153.75 92.74L153.351 92.4382L153.346 92.4453L153.75 92.74ZM156.06 91.03L156.249 91.493L156.257 91.4896L156.06 91.03ZM162.63 90.91L162.474 91.3853L162.483 91.3879L162.63 90.91ZM165.42 92.29L165.882 92.482L166.033 92.1188L165.715 91.8865L165.42 92.29ZM164.16 95.32L163.875 95.7311L164.384 96.0833L164.622 95.512L164.16 95.32ZM161.76 94.09L161.595 94.5619L161.598 94.5632L161.76 94.09ZM157.68 94.06L157.417 93.6349L157.417 93.6349L157.68 94.06ZM157.41 95.98L157.072 96.3486L157.088 96.3632L157.105 96.3763L157.41 95.98ZM158.76 96.49L158.869 96.002L158.867 96.0015L158.76 96.49ZM161.31 97.06L161.422 96.5728L161.419 96.572L161.31 97.06ZM164.7 98.68L164.341 99.0285L164.7 98.68ZM164.01 104.98L164.303 105.385L164.303 105.385L164.01 104.98ZM159.24 105.74C156.427 105.74 154.275 105.134 152.729 103.979L152.131 104.781C153.905 106.106 156.293 106.74 159.24 106.74V105.74ZM152.897 104.558L154.097 101.408L153.163 101.052L151.963 104.202L152.897 104.558ZM153.336 101.635C154.18 102.247 155.117 102.72 156.145 103.055L156.455 102.105C155.522 101.8 154.679 101.373 153.923 100.825L153.336 101.635ZM156.153 103.058C157.181 103.373 158.23 103.53 159.3 103.53V102.53C158.33 102.53 157.379 102.387 156.446 102.102L156.153 103.058ZM159.3 103.53C160.119 103.53 160.82 103.406 161.348 103.104L160.852 102.236C160.54 102.414 160.041 102.53 159.3 102.53V103.53ZM161.348 103.104C161.914 102.781 162.23 102.271 162.23 101.62H161.23C161.23 101.889 161.126 102.079 160.852 102.236L161.348 103.104ZM162.23 101.62C162.23 101.085 162.007 100.633 161.576 100.317L160.984 101.123C161.153 101.247 161.23 101.395 161.23 101.62H162.23ZM161.576 100.317C161.184 100.03 160.563 99.8229 159.793 99.6607L159.587 100.639C160.337 100.797 160.776 100.97 160.984 101.123L161.576 100.317ZM159.801 99.6626L157.311 99.0926L157.088 100.067L159.578 100.637L159.801 99.6626ZM157.307 99.0916C155.896 98.7823 154.92 98.3027 154.313 97.6964L153.606 98.4036C154.4 99.1973 155.584 99.7377 157.093 100.068L157.307 99.0916ZM154.318 97.7016C153.746 97.1122 153.44 96.3161 153.44 95.26H152.44C152.44 96.5239 152.814 97.5878 153.601 98.3984L154.318 97.7016ZM153.44 95.26C153.44 94.423 153.678 93.6868 154.154 93.0347L153.346 92.4453C152.742 93.2732 152.44 94.217 152.44 95.26H153.44ZM154.149 93.0417C154.647 92.3829 155.34 91.8639 156.249 91.4929L155.871 90.5671C154.82 90.9961 153.973 91.6171 153.351 92.4383L154.149 93.0417ZM156.257 91.4896C157.163 91.101 158.224 90.9 159.45 90.9V89.9C158.115 89.9 156.916 90.119 155.863 90.5704L156.257 91.4896ZM159.45 90.9C160.476 90.9 161.484 91.0614 162.474 91.3852L162.785 90.4348C161.696 90.0786 160.583 89.9 159.45 89.9V90.9ZM162.483 91.3879C163.473 91.6927 164.353 92.1286 165.125 92.6935L165.715 91.8865C164.847 91.2514 163.866 90.7673 162.777 90.4321L162.483 91.3879ZM164.958 92.098L163.698 95.128L164.622 95.512L165.882 92.482L164.958 92.098ZM164.444 94.9089C163.63 94.3451 162.789 93.9131 161.921 93.6168L161.598 94.5632C162.371 94.8269 163.13 95.2149 163.875 95.7311L164.444 94.9089ZM161.925 93.6181C161.078 93.3216 160.242 93.17 159.42 93.17V94.17C160.118 94.17 160.842 94.2984 161.595 94.5619L161.925 93.6181ZM159.42 93.17C158.63 93.17 157.946 93.3073 157.417 93.6349L157.943 94.4851C158.254 94.2927 158.73 94.17 159.42 94.17V93.17ZM157.417 93.6349C156.863 93.9779 156.55 94.492 156.55 95.14H157.55C157.55 94.868 157.657 94.6621 157.943 94.4851L157.417 93.6349ZM156.55 95.14C156.55 95.6131 156.724 96.0292 157.072 96.3486L157.748 95.6114C157.616 95.4908 157.55 95.3469 157.55 95.14H156.55ZM157.105 96.3763C157.457 96.647 157.999 96.8353 158.653 96.9784L158.867 96.0015C158.241 95.8647 157.883 95.713 157.715 95.5837L157.105 96.3763ZM158.651 96.978L161.201 97.548L161.419 96.572L158.869 96.002L158.651 96.978ZM161.197 97.5472C162.715 97.8973 163.737 98.4071 164.341 99.0285L165.058 98.3315C164.262 97.5129 163.025 96.9427 161.422 96.5728L161.197 97.5472ZM164.341 99.0285C164.933 99.6374 165.25 100.463 165.25 101.56H166.25C166.25 100.257 165.866 99.1626 165.058 98.3315L164.341 99.0285ZM165.25 101.56C165.25 102.841 164.746 103.83 163.717 104.575L164.303 105.385C165.594 104.45 166.25 103.159 166.25 101.56H165.25ZM163.717 104.575C162.671 105.333 161.196 105.74 159.24 105.74V106.74C161.323 106.74 163.029 106.307 164.303 105.385L163.717 104.575Z" fill="#455B57"/>
<path d="M35.21 1.64L27.62 23H23.87L18.89 8.87L13.88 23H10.13L2.54 1.64H7.31L12.23 16.4L17.39 1.64H20.66L25.7 16.61L30.74 1.64H35.21ZM49.4722 15.77H39.4522C39.5322 17.19 39.9022 18.23 40.5622 18.89C41.2222 19.53 42.2022 19.85 43.5022 19.85C44.2822 19.85 45.0622 19.72 45.8422 19.46C46.6222 19.2 47.3422 18.82 48.0022 18.32L49.2022 21.38C48.4822 21.96 47.5822 22.42 46.5022 22.76C45.4422 23.08 44.3722 23.24 43.2922 23.24C40.7322 23.24 38.7222 22.54 37.2622 21.14C35.8022 19.72 35.0722 17.79 35.0722 15.35C35.0722 13.81 35.3822 12.44 36.0022 11.24C36.6422 10.02 37.5322 9.08 38.6722 8.42C39.8122 7.74 41.1022 7.4 42.5422 7.4C44.6822 7.4 46.3722 8.1 47.6122 9.5C48.8522 10.88 49.4722 12.75 49.4722 15.11V15.77ZM42.6622 10.58C41.8022 10.58 41.1022 10.83 40.5622 11.33C40.0422 11.83 39.7022 12.56 39.5422 13.52H45.5722C45.3322 11.56 44.3622 10.58 42.6622 10.58ZM52.3163 0.919998H56.8463V23H52.3163V0.919998ZM67.7488 23.24C65.2688 23.24 63.3188 22.54 61.8988 21.14C60.4988 19.74 59.7988 17.83 59.7988 15.41C59.7988 13.83 60.1388 12.44 60.8188 11.24C61.4988 10.02 62.4488 9.08 63.6688 8.42C64.9088 7.74 66.3388 7.4 67.9588 7.4C69.0588 7.4 70.1288 7.57 71.1688 7.91C72.2088 8.25 73.0388 8.71 73.6588 9.29L72.4588 12.44C71.8588 11.96 71.1988 11.59 70.4788 11.33C69.7588 11.05 69.0588 10.91 68.3788 10.91C67.1388 10.91 66.1688 11.29 65.4688 12.05C64.7888 12.79 64.4488 13.88 64.4488 15.32C64.4488 16.78 64.7888 17.89 65.4688 18.65C66.1488 19.39 67.1188 19.76 68.3788 19.76C69.0588 19.76 69.7588 19.63 70.4788 19.37C71.1988 19.09 71.8588 18.71 72.4588 18.23L73.6588 21.38C72.9988 21.96 72.1388 22.42 71.0788 22.76C70.0188 23.08 68.9088 23.24 67.7488 23.24ZM83.0724 23.24C81.4524 23.24 80.0324 22.92 78.8124 22.28C77.6124 21.64 76.6824 20.72 76.0224 19.52C75.3824 18.32 75.0624 16.92 75.0624 15.32C75.0624 13.72 75.3824 12.32 76.0224 11.12C76.6824 9.92 77.6124 9 78.8124 8.36C80.0324 7.72 81.4524 7.4 83.0724 7.4C84.6724 7.4 86.0724 7.72 87.2724 8.36C88.4724 9 89.3924 9.92 90.0324 11.12C90.6924 12.32 91.0224 13.72 91.0224 15.32C91.0224 16.92 90.6924 18.32 90.0324 19.52C89.3924 20.72 88.4724 21.64 87.2724 22.28C86.0724 22.92 84.6724 23.24 83.0724 23.24ZM83.0724 19.79C84.1924 19.79 85.0424 19.42 85.6224 18.68C86.2224 17.94 86.5224 16.82 86.5224 15.32C86.5224 13.84 86.2224 12.73 85.6224 11.99C85.0424 11.23 84.1924 10.85 83.0724 10.85C81.9324 10.85 81.0624 11.23 80.4624 11.99C79.8624 12.73 79.5624 13.84 79.5624 15.32C79.5624 18.3 80.7324 19.79 83.0724 19.79ZM112.518 7.4C114.258 7.4 115.548 7.93 116.388 8.99C117.248 10.03 117.678 11.63 117.678 13.79V23H113.148V13.94C113.148 12.88 112.978 12.12 112.638 11.66C112.298 11.18 111.738 10.94 110.958 10.94C110.038 10.94 109.328 11.26 108.828 11.9C108.328 12.54 108.078 13.44 108.078 14.6V23H103.548V13.94C103.548 12.9 103.368 12.14 103.008 11.66C102.668 11.18 102.118 10.94 101.358 10.94C100.438 10.94 99.7179 11.26 99.1979 11.9C98.6979 12.54 98.4479 13.44 98.4479 14.6V23H93.9179V12.14C93.9179 10.52 93.8379 9.07 93.6779 7.79H97.9379L98.2079 10.07C98.6679 9.21 99.3079 8.55 100.128 8.09C100.968 7.63 101.928 7.4 103.008 7.4C105.268 7.4 106.768 8.34 107.508 10.22C108.008 9.36 108.698 8.68 109.578 8.18C110.478 7.66 111.458 7.4 112.518 7.4ZM134.902 15.77H124.882C124.962 17.19 125.332 18.23 125.992 18.89C126.652 19.53 127.632 19.85 128.932 19.85C129.712 19.85 130.492 19.72 131.272 19.46C132.052 19.2 132.772 18.82 133.432 18.32L134.632 21.38C133.912 21.96 133.012 22.42 131.932 22.76C130.872 23.08 129.802 23.24 128.722 23.24C126.162 23.24 124.152 22.54 122.692 21.14C121.232 19.72 120.502 17.79 120.502 15.35C120.502 13.81 120.812 12.44 121.432 11.24C122.072 10.02 122.962 9.08 124.102 8.42C125.242 7.74 126.532 7.4 127.972 7.4C130.112 7.4 131.802 8.1 133.042 9.5C134.282 10.88 134.902 12.75 134.902 15.11V15.77ZM128.092 10.58C127.232 10.58 126.532 10.83 125.992 11.33C125.472 11.83 125.132 12.56 124.972 13.52H131.002C130.762 11.56 129.792 10.58 128.092 10.58ZM155.484 7.4C156.804 7.4 157.974 7.73 158.994 8.39C160.014 9.03 160.804 9.95 161.364 11.15C161.924 12.33 162.204 13.7 162.204 15.26C162.204 16.82 161.914 18.21 161.334 19.43C160.774 20.63 159.984 21.57 158.964 22.25C157.944 22.91 156.784 23.24 155.484 23.24C154.424 23.24 153.464 23.02 152.604 22.58C151.764 22.12 151.124 21.5 150.684 20.72V23H146.184V0.919998H150.714V9.92C151.154 9.14 151.794 8.53 152.634 8.09C153.494 7.63 154.444 7.4 155.484 7.4ZM154.194 19.79C155.314 19.79 156.174 19.4 156.774 18.62C157.374 17.84 157.674 16.72 157.674 15.26C157.674 13.86 157.374 12.78 156.774 12.02C156.174 11.26 155.314 10.88 154.194 10.88C153.074 10.88 152.204 11.27 151.584 12.05C150.984 12.81 150.684 13.9 150.684 15.32C150.684 16.76 150.984 17.87 151.584 18.65C152.204 19.41 153.074 19.79 154.194 19.79ZM180.349 7.79V23H175.879V20.75C175.419 21.53 174.769 22.14 173.929 22.58C173.089 23.02 172.139 23.24 171.079 23.24C169.759 23.24 168.589 22.92 167.569 22.28C166.569 21.64 165.779 20.73 165.199 19.55C164.639 18.35 164.359 16.97 164.359 15.41C164.359 13.85 164.639 12.46 165.199 11.24C165.779 10.02 166.579 9.08 167.599 8.42C168.619 7.74 169.779 7.4 171.079 7.4C172.139 7.4 173.089 7.63 173.929 8.09C174.769 8.55 175.419 9.17 175.879 9.95V7.79H180.349ZM172.399 19.79C173.519 19.79 174.379 19.41 174.979 18.65C175.579 17.89 175.879 16.79 175.879 15.35C175.879 13.91 175.579 12.81 174.979 12.05C174.379 11.27 173.519 10.88 172.399 10.88C171.279 10.88 170.409 11.28 169.789 12.08C169.169 12.88 168.859 13.99 168.859 15.41C168.859 16.83 169.159 17.92 169.759 18.68C170.379 19.42 171.259 19.79 172.399 19.79ZM191.206 23.24C188.726 23.24 186.776 22.54 185.356 21.14C183.956 19.74 183.256 17.83 183.256 15.41C183.256 13.83 183.596 12.44 184.276 11.24C184.956 10.02 185.906 9.08 187.126 8.42C188.366 7.74 189.796 7.4 191.416 7.4C192.516 7.4 193.586 7.57 194.626 7.91C195.666 8.25 196.496 8.71 197.116 9.29L195.916 12.44C195.316 11.96 194.656 11.59 193.936 11.33C193.216 11.05 192.516 10.91 191.836 10.91C190.596 10.91 189.626 11.29 188.926 12.05C188.246 12.79 187.906 13.88 187.906 15.32C187.906 16.78 188.246 17.89 188.926 18.65C189.606 19.39 190.576 19.76 191.836 19.76C192.516 19.76 193.216 19.63 193.936 19.37C194.656 19.09 195.316 18.71 195.916 18.23L197.116 21.38C196.456 21.96 195.596 22.42 194.536 22.76C193.476 23.08 192.366 23.24 191.206 23.24ZM209.769 23L203.799 16.19V23H199.269V0.919998H203.799V14.33L209.499 7.82H214.929L208.479 15.11L215.319 23H209.769Z" fill="#455B57"/>
</svg>
