<svg width="275" height="76" viewBox="0 0 275 76" fill="none" xmlns="http://www.w3.org/2000/svg">
<path d="M0.83 45.92V45.42H0.33V45.92H0.83ZM5.36 45.92H5.86V45.42H5.36V45.92ZM5.36 68V68.5H5.86V68H5.36ZM0.83 68H0.33V68.5H0.83V68ZM0.83 46.42H5.36V45.42H0.83V46.42ZM4.86 45.92V68H5.86V45.92H4.86ZM5.36 67.5H0.83V68.5H5.36V67.5ZM1.33 68V45.92H0.33V68H1.33ZM22.7124 60.77V61.27H23.2124V60.77H22.7124ZM12.6924 60.77V60.27H12.1635L12.1932 60.7981L12.6924 60.77ZM13.8024 63.89L13.4488 64.2436L13.4543 64.2489L13.8024 63.89ZM21.2424 63.32L21.7079 63.1375L21.4668 62.5227L20.9405 62.9215L21.2424 63.32ZM22.4424 66.38L22.7561 66.7694L23.0419 66.5391L22.9079 66.1975L22.4424 66.38ZM19.7424 67.76L19.8869 68.2387L19.8926 68.2369L19.7424 67.76ZM10.5024 66.14L10.1538 66.4984L10.1564 66.5009L10.5024 66.14ZM9.24242 56.24L8.79964 56.0077L8.79821 56.0105L9.24242 56.24ZM11.9124 53.42L12.163 53.8527L12.1686 53.8494L11.9124 53.42ZM20.8524 54.5L20.4781 54.8315L20.4805 54.8342L20.8524 54.5ZM13.8024 56.33L13.4627 55.9631L13.4559 55.9696L13.8024 56.33ZM12.7824 58.52L12.2892 58.4378L12.1922 59.02H12.7824V58.52ZM18.8124 58.52V59.02H19.3774L19.3087 58.4592L18.8124 58.52ZM22.7124 60.27H12.6924V61.27H22.7124V60.27ZM12.1932 60.7981C12.2766 62.2787 12.6663 63.461 13.4489 64.2436L14.156 63.5364C13.6186 62.999 13.2682 62.1013 13.1916 60.7419L12.1932 60.7981ZM13.4543 64.2489C14.2404 65.0112 15.3666 65.35 16.7424 65.35V64.35C15.5182 64.35 14.6845 64.0488 14.1505 63.531L13.4543 64.2489ZM16.7424 65.35C17.579 65.35 18.4123 65.2104 19.2405 64.9343L18.9243 63.9857C18.1925 64.2296 17.4658 64.35 16.7424 64.35V65.35ZM19.2405 64.9343C20.0727 64.657 20.8412 64.2512 21.5444 63.7185L20.9405 62.9215C20.3237 63.3887 19.6522 63.743 18.9243 63.9857L19.2405 64.9343ZM20.7769 63.5025L21.9769 66.5625L22.9079 66.1975L21.7079 63.1375L20.7769 63.5025ZM22.1288 65.9906C21.4669 66.5238 20.6257 66.9577 19.5923 67.2831L19.8926 68.2369C21.0191 67.8823 21.978 67.3962 22.7561 66.7694L22.1288 65.9906ZM19.5979 67.2813C18.5836 67.5875 17.5622 67.74 16.5324 67.74V68.74C17.6626 68.74 18.7813 68.5725 19.8869 68.2387L19.5979 67.2813ZM16.5324 67.74C14.0656 67.74 12.1924 67.0678 10.8485 65.7791L10.1564 66.5009C11.7324 68.0122 13.8792 68.74 16.5324 68.74V67.74ZM10.851 65.7816C9.50666 64.474 8.81242 62.6837 8.81242 60.35H7.81242C7.81242 62.8963 8.57819 64.966 10.1538 66.4984L10.851 65.7816ZM8.81242 60.35C8.81242 58.8786 9.10814 57.5892 9.68663 56.4695L8.79821 56.0105C8.1367 57.2908 7.81242 58.7414 7.81242 60.35H8.81242ZM9.6852 56.4723C10.2834 55.3319 11.1085 54.4632 12.1629 53.8527L11.6619 52.9873C10.4363 53.6968 9.48141 54.7081 8.79965 56.0077L9.6852 56.4723ZM12.1686 53.8494C13.2246 53.2195 14.4247 52.9 15.7824 52.9V51.9C14.2602 51.9 12.8803 52.2605 11.6563 52.9906L12.1686 53.8494ZM15.7824 52.9C17.8022 52.9 19.3472 53.5547 20.4781 54.8315L21.2267 54.1685C19.8776 52.6453 18.0427 51.9 15.7824 51.9V52.9ZM20.4805 54.8342C21.6175 56.0995 22.2124 57.8387 22.2124 60.11H23.2124C23.2124 57.6613 22.5674 55.6605 21.2243 54.1658L20.4805 54.8342ZM22.2124 60.11V60.77H23.2124V60.11H22.2124ZM15.9024 55.08C14.9391 55.08 14.1105 55.3633 13.4627 55.9631L14.1421 56.6969C14.5743 56.2967 15.1457 56.08 15.9024 56.08V55.08ZM13.4559 55.9696C12.8353 56.5663 12.4608 57.4083 12.2892 58.4378L13.2756 58.6022C13.424 57.7117 13.7296 57.0937 14.149 56.6904L13.4559 55.9696ZM12.7824 59.02H18.8124V58.02H12.7824V59.02ZM19.3087 58.4592C19.1809 57.4154 18.8505 56.5596 18.2603 55.9633C17.6604 55.3572 16.8529 55.08 15.9024 55.08V56.08C16.652 56.08 17.1794 56.2928 17.5496 56.6667C17.9293 57.0504 18.2039 57.6646 18.3161 58.5808L19.3087 58.4592ZM30.9636 56.18V55.68H30.4636V56.18H30.9636ZM31.6236 63.95L31.2871 64.3201L31.2968 64.3284L31.6236 63.95ZM34.8336 64.31H35.3336V63.6696L34.7123 63.8249L34.8336 64.31ZM34.8336 67.82L35.0148 68.286L35.3336 68.162V67.82H34.8336ZM27.9036 66.65L27.5364 66.9894L27.5399 66.9931L27.9036 66.65ZM26.4336 56.18H26.9336V55.68H26.4336V56.18ZM23.5536 56.18H23.0536V56.68H23.5536V56.18ZM23.5536 52.79V52.29H23.0536V52.79H23.5536ZM26.4336 52.79V53.29H26.9336V52.79H26.4336ZM26.4336 49.22L26.2793 48.7444L25.9336 48.8566V49.22H26.4336ZM30.9636 47.75H31.4636V47.0621L30.8093 47.2744L30.9636 47.75ZM30.9636 52.79H30.4636V53.29H30.9636V52.79ZM34.8336 52.79H35.3336V52.29H34.8336V52.79ZM34.8336 56.18V56.68H35.3336V56.18H34.8336ZM30.4636 56.18V62.09H31.4636V56.18H30.4636ZM30.4636 62.09C30.4636 63.0112 30.7058 63.7914 31.2873 64.32L31.9599 63.58C31.6614 63.3086 31.4636 62.8488 31.4636 62.09H30.4636ZM31.2968 64.3284C31.8453 64.8021 32.5392 65.02 33.3336 65.02V64.02C32.728 64.02 32.2819 63.8579 31.9504 63.5716L31.2968 64.3284ZM33.3336 65.02C33.8249 65.02 34.3668 64.9421 34.9549 64.7951L34.7123 63.8249C34.1804 63.9579 33.7223 64.02 33.3336 64.02V65.02ZM34.3336 64.31V67.82H35.3336V64.31H34.3336ZM34.6524 67.354C34.0054 67.6056 33.2004 67.74 32.2236 67.74V68.74C33.2868 68.74 34.2218 68.5944 35.0148 68.286L34.6524 67.354ZM32.2236 67.74C30.4391 67.74 29.1474 67.2398 28.2673 66.3069L27.5399 66.9931C28.6598 68.1802 30.2481 68.74 32.2236 68.74V67.74ZM28.2707 66.3106C27.4011 65.37 26.9336 64.0166 26.9336 62.18H25.9336C25.9336 64.1834 26.446 65.81 27.5365 66.9894L28.2707 66.3106ZM26.9336 62.18V56.18H25.9336V62.18H26.9336ZM26.4336 55.68H23.5536V56.68H26.4336V55.68ZM24.0536 56.18V52.79H23.0536V56.18H24.0536ZM23.5536 53.29H26.4336V52.29H23.5536V53.29ZM26.9336 52.79V49.22H25.9336V52.79H26.9336ZM26.5879 49.6956L31.1179 48.2256L30.8093 47.2744L26.2793 48.7444L26.5879 49.6956ZM30.4636 47.75V52.79H31.4636V47.75H30.4636ZM30.9636 53.29H34.8336V52.29H30.9636V53.29ZM34.3336 52.79V56.18H35.3336V52.79H34.3336ZM34.8336 55.68H30.9636V56.68H34.8336V55.68ZM41.9518 46.64H42.4518V46.14H41.9518V46.64ZM41.3218 52.91L40.8652 52.706L40.8617 52.7142L41.3218 52.91ZM39.2518 55.82L38.9403 56.2111L39.2931 56.4922L39.6089 56.17L39.2518 55.82ZM37.4818 54.41L37.1248 54.06L36.7367 54.4557L37.1703 54.8011L37.4818 54.41ZM39.3118 51.47L39.7986 51.5839L39.9423 50.97H39.3118V51.47ZM37.0618 51.47H36.5618V51.97H37.0618V51.47ZM37.0618 46.64V46.14H36.5618V46.64H37.0618ZM41.4518 46.64V49.73H42.4518V46.64H41.4518ZM41.4518 49.73C41.4518 50.8499 41.2527 51.8389 40.8653 52.706L41.7783 53.114C42.2309 52.1011 42.4518 50.9701 42.4518 49.73H41.4518ZM40.8617 52.7142C40.4934 53.5799 39.8461 54.4992 38.8947 55.47L39.6089 56.17C40.6174 55.1408 41.3502 54.1201 41.7819 53.1058L40.8617 52.7142ZM39.5633 55.4289L37.7933 54.0189L37.1703 54.8011L38.9403 56.2111L39.5633 55.4289ZM37.8388 54.76C38.8742 53.704 39.5501 52.6459 39.7986 51.5839L38.825 51.3561C38.6335 52.1741 38.0894 53.076 37.1248 54.06L37.8388 54.76ZM39.3118 50.97H37.0618V51.97H39.3118V50.97ZM37.5618 51.47V46.64H36.5618V51.47H37.5618ZM37.0618 47.14H41.9518V46.14H37.0618V47.14ZM43.4923 66.38L43.0251 66.202L42.8907 66.5547L43.1931 66.7806L43.4923 66.38ZM44.6923 63.23L44.9858 62.8252L44.4574 62.4421L44.2251 63.052L44.6923 63.23ZM47.3623 64.58L47.2071 65.0554L47.216 65.0581L47.3623 64.58ZM52.1623 64.67L51.9143 64.2359L51.9143 64.2359L52.1623 64.67ZM52.3423 62.72L52.0467 63.1232L52.0467 63.1232L52.3423 62.72ZM50.7523 62.15L50.6408 62.6375L50.6493 62.6393L50.7523 62.15ZM48.2623 61.58L48.3739 61.0926L48.3694 61.0916L48.2623 61.58ZM45.0223 60.05L44.6637 60.3984L44.6688 60.4036L45.0223 60.05ZM44.8123 54.74L44.4136 54.4382L44.4084 54.4453L44.8123 54.74ZM47.1223 53.03L47.3113 53.493L47.3193 53.4896L47.1223 53.03ZM53.6923 52.91L53.537 53.3853L53.5453 53.3879L53.6923 52.91ZM56.4823 54.29L56.944 54.482L57.0951 54.1188L56.7776 53.8865L56.4823 54.29ZM55.2223 57.32L54.9377 57.7311L55.4464 58.0833L55.684 57.512L55.2223 57.32ZM52.8223 56.09L52.6572 56.5619L52.6608 56.5632L52.8223 56.09ZM48.7423 56.06L48.4792 55.6349L48.4792 55.6349L48.7423 56.06ZM48.4723 57.98L48.1345 58.3486L48.1504 58.3632L48.1675 58.3763L48.4723 57.98ZM49.8223 58.49L49.9314 58.002L49.9292 58.0015L49.8223 58.49ZM52.3723 59.06L52.4848 58.5728L52.4814 58.572L52.3723 59.06ZM55.7623 60.68L55.4038 61.0285L55.7623 60.68ZM55.0723 66.98L55.3656 67.385L55.3656 67.385L55.0723 66.98ZM50.3023 67.74C47.4891 67.74 45.3372 67.134 43.7916 65.9794L43.1931 66.7806C44.9675 68.106 47.3556 68.74 50.3023 68.74V67.74ZM43.9596 66.558L45.1596 63.408L44.2251 63.052L43.0251 66.202L43.9596 66.558ZM44.3989 63.6348C45.2428 64.2467 46.1798 64.7198 47.2071 65.0553L47.5175 64.1047C46.5849 63.8001 45.7419 63.3733 44.9858 62.8252L44.3989 63.6348ZM47.216 65.0581C48.2432 65.3725 49.2925 65.53 50.3623 65.53V64.53C49.3922 64.53 48.4415 64.3875 47.5087 64.1019L47.216 65.0581ZM50.3623 65.53C51.1815 65.53 51.882 65.4061 52.4104 65.1041L51.9143 64.2359C51.6027 64.4139 51.1032 64.53 50.3623 64.53V65.53ZM52.4104 65.1041C52.9763 64.7808 53.2923 64.2705 53.2923 63.62H52.2923C52.2923 63.8895 52.1884 64.0792 51.9143 64.2359L52.4104 65.1041ZM53.2923 63.62C53.2923 63.0848 53.0697 62.6333 52.638 62.3168L52.0467 63.1232C52.215 63.2467 52.2923 63.3952 52.2923 63.62H53.2923ZM52.638 62.3168C52.2463 62.0295 51.6255 61.8229 50.8553 61.6607L50.6493 62.6393C51.3992 62.7971 51.8384 62.9705 52.0467 63.1232L52.638 62.3168ZM50.8639 61.6626L48.3739 61.0926L48.1508 62.0674L50.6408 62.6374L50.8639 61.6626ZM48.3694 61.0916C46.9584 60.7823 45.9821 60.3027 45.3759 59.6964L44.6688 60.4036C45.4626 61.1973 46.6463 61.7377 48.1553 62.0684L48.3694 61.0916ZM45.381 59.7016C44.8084 59.1122 44.5023 58.3161 44.5023 57.26H43.5023C43.5023 58.5239 43.8763 59.5878 44.6637 60.3984L45.381 59.7016ZM44.5023 57.26C44.5023 56.423 44.7404 55.6868 45.2162 55.0347L44.4084 54.4453C43.8043 55.2732 43.5023 56.217 43.5023 57.26H44.5023ZM45.211 55.0417C45.7096 54.3829 46.4025 53.8639 47.3113 53.4929L46.9334 52.5671C45.8822 52.9961 45.0351 53.6171 44.4136 54.4383L45.211 55.0417ZM47.3193 53.4896C48.2259 53.101 49.2868 52.9 50.5123 52.9V51.9C49.1779 51.9 47.9788 52.119 46.9254 52.5704L47.3193 53.4896ZM50.5123 52.9C51.5389 52.9 52.5465 53.0614 53.537 53.3852L53.8477 52.4348C52.7582 52.0786 51.6458 51.9 50.5123 51.9V52.9ZM53.5453 53.3879C54.5359 53.6927 55.4151 54.1286 56.1871 54.6935L56.7776 53.8865C55.9096 53.2514 54.9288 52.7673 53.8394 52.4321L53.5453 53.3879ZM56.0207 54.098L54.7607 57.128L55.684 57.512L56.944 54.482L56.0207 54.098ZM55.5069 56.9089C54.6926 56.3451 53.8515 55.9131 52.9839 55.6168L52.6608 56.5632C53.4332 56.8269 54.1921 57.2149 54.9377 57.7311L55.5069 56.9089ZM52.9875 55.6181C52.1405 55.3216 51.3047 55.17 50.4823 55.17V56.17C51.18 56.17 51.9042 56.2984 52.6572 56.5619L52.9875 55.6181ZM50.4823 55.17C49.6925 55.17 49.0083 55.3073 48.4792 55.6349L49.0055 56.4851C49.3164 56.2927 49.7922 56.17 50.4823 56.17V55.17ZM48.4792 55.6349C47.925 55.9779 47.6123 56.492 47.6123 57.14H48.6123C48.6123 56.868 48.7197 56.6621 49.0055 56.4851L48.4792 55.6349ZM47.6123 57.14C47.6123 57.6131 47.7861 58.0292 48.1345 58.3486L48.8102 57.6114C48.6786 57.4908 48.6123 57.3469 48.6123 57.14H47.6123ZM48.1675 58.3763C48.5194 58.647 49.0613 58.8353 49.7155 58.9784L49.9292 58.0015C49.3034 57.8647 48.9453 57.713 48.7772 57.5837L48.1675 58.3763ZM49.7133 58.978L52.2633 59.548L52.4814 58.572L49.9314 58.002L49.7133 58.978ZM52.2599 59.5472C53.7771 59.8973 54.7997 60.4071 55.4038 61.0285L56.1208 60.3315C55.325 59.5129 54.0876 58.9427 52.4848 58.5728L52.2599 59.5472ZM55.4038 61.0285C55.9958 61.6374 56.3123 62.4631 56.3123 63.56H57.3123C57.3123 62.2569 56.9289 61.1626 56.1208 60.3315L55.4038 61.0285ZM56.3123 63.56C56.3123 64.8407 55.8084 65.8297 54.7791 66.575L55.3656 67.385C56.6563 66.4503 57.3123 65.1593 57.3123 63.56H56.3123ZM54.7791 66.575C53.733 67.3325 52.2589 67.74 50.3023 67.74V68.74C52.3858 68.74 54.0917 68.3075 55.3656 67.385L54.7791 66.575ZM83.3977 52.79H83.8977V52.29H83.3977V52.79ZM81.2977 72.83L81.6322 73.2016L81.6322 73.2016L81.2977 72.83ZM68.8777 73.31L68.388 73.2094L68.3125 73.5769L68.6442 73.7521L68.8777 73.31ZM69.5677 69.95L69.7913 69.5028L69.2089 69.2116L69.078 69.8494L69.5677 69.95ZM77.9377 70.4L77.5957 70.0352L77.5898 70.0409L77.9377 70.4ZM78.8977 65H79.3977V63.3104L78.4783 64.7279L78.8977 65ZM76.8877 66.86L77.1315 67.2967L77.139 67.2923L76.8877 66.86ZM70.5277 66.65L70.262 67.0736L70.268 67.0773L70.5277 66.65ZM68.1277 63.98L67.6805 64.2036L67.6821 64.2067L68.1277 63.98ZM68.1277 56.03L68.5734 56.2567L68.5749 56.2536L68.1277 56.03ZM70.5277 53.36L70.7875 53.7873L70.7935 53.7835L70.5277 53.36ZM76.9177 53.09L76.6819 53.5309L76.6819 53.5309L76.9177 53.09ZM78.8977 54.95L78.4671 55.204L79.3977 56.7821V54.95H78.8977ZM78.8977 52.79V52.29H78.3977V52.79H78.8977ZM77.9377 63.05L77.5596 62.7229L77.5589 62.7237L77.9377 63.05ZM77.9677 56.99L77.5844 57.3111L77.5889 57.3163L77.9677 56.99ZM72.7177 56.99L73.0915 57.3222L73.0959 57.3171L72.7177 56.99ZM72.7177 63.02L73.0959 62.6929L73.0959 62.6929L72.7177 63.02ZM82.8977 52.79V67.31H83.8977V52.79H82.8977ZM82.8977 67.31C82.8977 69.6312 82.2297 71.3186 80.9633 72.4584L81.6322 73.2016C83.1658 71.8214 83.8977 69.8288 83.8977 67.31H82.8977ZM80.9633 72.4584C79.6874 73.6066 77.7861 74.22 75.1777 74.22V75.22C77.9294 75.22 80.108 74.5734 81.6322 73.2016L80.9633 72.4584ZM75.1777 74.22C72.8228 74.22 70.8061 73.7629 69.1112 72.8679L68.6442 73.7521C70.5094 74.7371 72.6927 75.22 75.1777 75.22V74.22ZM69.3675 73.4106L70.0575 70.0506L69.078 69.8494L68.388 73.2094L69.3675 73.4106ZM69.3441 70.3972C71.2436 71.3469 73.1397 71.83 75.0277 71.83V70.83C73.3158 70.83 71.5719 70.3931 69.7913 69.5028L69.3441 70.3972ZM75.0277 71.83C76.3983 71.83 77.5171 71.5037 78.2856 70.7591L77.5898 70.0409C77.0784 70.5363 76.2571 70.83 75.0277 70.83V71.83ZM78.2797 70.7648C79.0564 70.0366 79.3977 68.9598 79.3977 67.64H78.3977C78.3977 68.8002 78.0991 69.5634 77.5958 70.0352L78.2797 70.7648ZM79.3977 67.64V65H78.3977V67.64H79.3977ZM78.4783 64.7279C78.0462 65.3941 77.4373 65.9621 76.6364 66.4277L77.139 67.2923C78.0581 66.7579 78.7893 66.0859 79.3172 65.2721L78.4783 64.7279ZM76.6441 66.4234C75.8627 66.8595 74.9974 67.08 74.0377 67.08V68.08C75.1581 68.08 76.1927 67.8205 77.1314 67.2966L76.6441 66.4234ZM74.0377 67.08C72.7993 67.08 71.7211 66.7902 70.7874 66.2227L70.268 67.0773C71.3744 67.7498 72.6361 68.08 74.0377 68.08V67.08ZM70.7935 66.2265C69.855 65.6376 69.115 64.8178 68.5734 63.7533L67.6821 64.2067C68.3005 65.4222 69.1605 66.3824 70.262 67.0735L70.7935 66.2265ZM68.5749 63.7564C68.0347 62.6759 67.7577 61.4245 67.7577 59.99H66.7577C66.7577 61.5555 67.0607 62.9641 67.6805 64.2036L68.5749 63.7564ZM67.7577 59.99C67.7577 58.5552 68.0348 57.3153 68.5734 56.2567L67.6821 55.8033C67.0607 57.0247 66.7577 58.4248 66.7577 59.99H67.7577ZM68.5749 56.2536C69.1166 55.1702 69.8548 54.3542 70.7874 53.7873L70.268 52.9327C69.1607 53.6058 68.2988 54.5698 67.6805 55.8064L68.5749 56.2536ZM70.7935 53.7835C71.7263 53.1983 72.8024 52.9 74.0377 52.9V51.9C72.6331 51.9 71.3692 52.2417 70.262 52.9365L70.7935 53.7835ZM74.0377 52.9C75.0228 52.9 75.9006 53.113 76.6819 53.5309L77.1536 52.6491C76.2148 52.147 75.1727 51.9 74.0377 51.9V52.9ZM76.6819 53.5309C77.4675 53.9511 78.0572 54.5091 78.4671 55.204L79.3284 54.696C78.8182 53.8309 78.088 53.1489 77.1536 52.6491L76.6819 53.5309ZM79.3977 54.95V52.79H78.3977V54.95H79.3977ZM78.8977 53.29H83.3977V52.29H78.8977V53.29ZM75.3577 64.63C76.5778 64.63 77.5862 64.2245 78.3166 63.3763L77.5589 62.7237C77.0493 63.3155 76.3376 63.63 75.3577 63.63V64.63ZM78.3159 63.3771C79.0572 62.52 79.3977 61.3701 79.3977 59.99H78.3977C78.3977 61.2099 78.0983 62.1 77.5596 62.7229L78.3159 63.3771ZM79.3977 59.99C79.3977 58.6321 79.0683 57.5018 78.3466 56.6637L77.5889 57.3163C78.1072 57.9182 78.3977 58.7879 78.3977 59.99H79.3977ZM78.351 56.6689C77.6203 55.7967 76.5993 55.38 75.3577 55.38V56.38C76.3562 56.38 77.0752 56.7033 77.5845 57.3111L78.351 56.6689ZM75.3577 55.38C74.1159 55.38 73.0888 55.7966 72.3396 56.6629L73.0959 57.3171C73.6266 56.7034 74.3595 56.38 75.3577 56.38V55.38ZM72.344 56.6578C71.5991 57.4959 71.2577 58.6285 71.2577 59.99H72.2577C72.2577 58.7915 72.5564 57.9241 73.0914 57.3222L72.344 56.6578ZM71.2577 59.99C71.2577 61.3524 71.5994 62.4913 72.3396 63.3471L73.0959 62.6929C72.5561 62.0687 72.2577 61.1876 72.2577 59.99H71.2577ZM72.3396 63.3471C73.0888 64.2134 74.1159 64.63 75.3577 64.63V63.63C74.3595 63.63 73.6266 63.3066 73.0959 62.6929L72.3396 63.3471ZM97.4914 52.73L97.9914 52.7336L97.9937 52.4091L97.6983 52.2748L97.4914 52.73ZM97.4614 56.87L97.2527 57.3243L97.9558 57.6474L97.9614 56.8736L97.4614 56.87ZM92.4814 57.35L92.1225 57.0019L92.1223 57.0021L92.4814 57.35ZM91.5514 68V68.5H92.0514V68H91.5514ZM87.0214 68H86.5214V68.5H87.0214V68ZM86.7814 52.79V52.29H86.215L86.2853 52.852L86.7814 52.79ZM91.0414 52.79L91.5381 52.7329L91.4872 52.29H91.0414V52.79ZM91.3414 55.4L90.8447 55.4571L91.8063 55.584L91.3414 55.4ZM93.1114 53.21L93.3764 53.634L93.3792 53.6323L93.1114 53.21ZM95.8714 52.93C96.4621 52.93 96.9269 53.0226 97.2845 53.1852L97.6983 52.2748C97.1759 52.0374 96.5607 51.93 95.8714 51.93V52.93ZM96.9914 52.7264L96.9614 56.8664L97.9614 56.8736L97.9914 52.7336L96.9914 52.7264ZM97.6702 56.4157C96.8713 56.0486 96.0604 55.86 95.2414 55.86V56.86C95.9024 56.86 96.5715 57.0114 97.2527 57.3243L97.6702 56.4157ZM95.2414 55.86C93.9493 55.86 92.883 56.2177 92.1225 57.0019L92.8404 57.6981C93.3598 57.1623 94.1335 56.86 95.2414 56.86V55.86ZM92.1223 57.0021C91.3871 57.761 91.0514 58.8008 91.0514 60.05H92.0514C92.0514 58.9792 92.3357 58.219 92.8405 57.6979L92.1223 57.0021ZM91.0514 60.05V68H92.0514V60.05H91.0514ZM91.5514 67.5H87.0214V68.5H91.5514V67.5ZM87.5214 68V57.14H86.5214V68H87.5214ZM87.5214 57.14C87.5214 55.5043 87.4407 54.033 87.2775 52.728L86.2853 52.852C86.4421 54.107 86.5214 55.5357 86.5214 57.14H87.5214ZM86.7814 53.29H91.0414V52.29H86.7814V53.29ZM90.5447 52.8471L90.8447 55.4571L91.8381 55.3429L91.5381 52.7329L90.5447 52.8471ZM91.8063 55.584C92.1509 54.7134 92.6756 54.072 93.3764 53.634L92.8464 52.786C91.9472 53.348 91.2919 54.1666 90.8765 55.216L91.8063 55.584ZM93.3792 53.6323C94.115 53.1657 94.9412 52.93 95.8714 52.93V51.93C94.7616 51.93 93.7479 52.2143 92.8436 52.7877L93.3792 53.6323ZM102.033 67.28L101.798 67.7212L101.801 67.7228L102.033 67.28ZM99.2431 64.52L98.8019 64.7553L98.805 64.761L99.2431 64.52ZM99.2431 56.12L98.805 55.879L98.8019 55.8847L99.2431 56.12ZM102.033 53.36L101.801 52.9172L101.798 52.9188L102.033 53.36ZM113.253 56.12L112.812 56.3553L112.815 56.361L113.253 56.12ZM113.253 64.52L112.815 64.279L112.812 64.2847L113.253 64.52ZM110.493 67.28L110.728 67.7212L110.493 67.28ZM108.843 63.68L108.455 63.3651L108.45 63.3716L108.843 63.68ZM108.843 56.99L108.446 57.2933L108.45 57.2992L108.455 57.3049L108.843 56.99ZM103.683 56.99L104.072 57.3049L104.076 57.2998L103.683 56.99ZM106.293 67.74C104.74 67.74 103.402 67.4335 102.265 66.8372L101.801 67.7228C103.104 68.4065 104.606 68.74 106.293 68.74V67.74ZM102.268 66.8388C101.155 66.2448 100.295 65.3947 99.6812 64.279L98.805 64.761C99.5114 66.0453 100.512 67.0352 101.798 67.7212L102.268 66.8388ZM99.6843 64.2847C99.0892 63.1689 98.7831 61.8524 98.7831 60.32H97.7831C97.7831 61.9876 98.117 63.4711 98.8019 64.7553L99.6843 64.2847ZM98.7831 60.32C98.7831 58.7876 99.0892 57.4711 99.6843 56.3553L98.8019 55.8847C98.117 57.1689 97.7831 58.6524 97.7831 60.32H98.7831ZM99.6812 56.361C100.295 55.2453 101.155 54.3952 102.268 53.8012L101.798 52.9188C100.512 53.6048 99.5114 54.5947 98.805 55.879L99.6812 56.361ZM102.265 53.8028C103.402 53.2065 104.74 52.9 106.293 52.9V51.9C104.606 51.9 103.104 52.2335 101.801 52.9172L102.265 53.8028ZM106.293 52.9C107.826 52.9 109.142 53.2061 110.258 53.8012L110.728 52.9188C109.444 52.2339 107.961 51.9 106.293 51.9V52.9ZM110.258 53.8012C111.37 54.3945 112.219 55.2428 112.812 56.3553L113.694 55.8847C113.008 54.5972 112.016 53.6055 110.728 52.9188L110.258 53.8012ZM112.815 56.361C113.428 57.4756 113.743 58.79 113.743 60.32H114.743C114.743 58.65 114.398 57.1644 113.691 55.879L112.815 56.361ZM113.743 60.32C113.743 61.85 113.428 63.1644 112.815 64.279L113.691 64.761C114.398 63.4756 114.743 61.99 114.743 60.32H113.743ZM112.812 64.2847C112.219 65.3972 111.37 66.2455 110.258 66.8388L110.728 67.7212C112.016 67.0345 113.008 66.0428 113.694 64.7553L112.812 64.2847ZM110.258 66.8388C109.142 67.4339 107.826 67.74 106.293 67.74V68.74C107.961 68.74 109.444 68.4061 110.728 67.7212L110.258 66.8388ZM106.293 65.29C107.534 65.29 108.543 64.8731 109.237 63.9884L108.45 63.3716C107.983 63.9669 107.292 64.29 106.293 64.29V65.29ZM109.232 63.9949C109.935 63.1273 110.243 61.8727 110.243 60.32H109.243C109.243 61.7673 108.951 62.7527 108.455 63.3651L109.232 63.9949ZM110.243 60.32C110.243 58.7854 109.934 57.5417 109.232 56.6751L108.455 57.3049C108.952 57.9183 109.243 58.8946 109.243 60.32H110.243ZM109.241 56.6867C108.549 55.7805 107.539 55.35 106.293 55.35V56.35C107.287 56.35 107.977 56.6795 108.446 57.2933L109.241 56.6867ZM106.293 55.35C105.031 55.35 104.003 55.7781 103.291 56.6802L104.076 57.2998C104.563 56.6819 105.276 56.35 106.293 56.35V55.35ZM103.295 56.6751C102.592 57.5417 102.283 58.7854 102.283 60.32H103.283C103.283 58.8946 103.574 57.9183 104.072 57.3049L103.295 56.6751ZM102.283 60.32C102.283 61.8618 102.583 63.1104 103.267 63.9813C103.969 64.8752 105.01 65.29 106.293 65.29V64.29C105.237 64.29 104.522 63.9598 104.054 63.3637C103.568 62.7446 103.283 61.7582 103.283 60.32H102.283ZM141.716 52.79L142.179 52.9774L142.457 52.29H141.716V52.79ZM135.566 68V68.5H135.903L136.029 68.1874L135.566 68ZM131.756 68L131.29 68.1821L131.414 68.5H131.756V68ZM128.306 59.18L128.771 58.9979L128.295 57.7809L127.837 59.0048L128.306 59.18ZM125.006 68V68.5H125.352L125.474 68.1752L125.006 68ZM121.166 68L120.702 68.1874L120.828 68.5H121.166V68ZM115.016 52.79V52.29H114.274L114.552 52.9774L115.016 52.79ZM119.636 52.79L120.104 52.6152L119.983 52.29H119.636V52.79ZM123.296 62.6L122.827 62.7748L123.298 64.0356L123.765 62.7735L123.296 62.6ZM126.926 52.79V52.29H126.578L126.457 52.6165L126.926 52.79ZM130.016 52.79L130.485 52.6166L130.364 52.29H130.016V52.79ZM133.676 62.69L133.207 62.8634L133.676 64.1319L134.145 62.8634L133.676 62.69ZM137.336 52.79V52.29H136.987L136.867 52.6166L137.336 52.79ZM141.252 52.6026L135.102 67.8126L136.029 68.1874L142.179 52.9774L141.252 52.6026ZM135.566 67.5H131.756V68.5H135.566V67.5ZM132.221 67.8179L128.771 58.9979L127.84 59.3621L131.29 68.1821L132.221 67.8179ZM127.837 59.0048L124.537 67.8248L125.474 68.1752L128.774 59.3552L127.837 59.0048ZM125.006 67.5H121.166V68.5H125.006V67.5ZM121.629 67.8126L115.479 52.6026L114.552 52.9774L120.702 68.1874L121.629 67.8126ZM115.016 53.29H119.636V52.29H115.016V53.29ZM119.167 52.9648L122.827 62.7748L123.764 62.4252L120.104 52.6152L119.167 52.9648ZM123.765 62.7735L127.395 52.9635L126.457 52.6165L122.827 62.4265L123.765 62.7735ZM126.926 53.29H130.016V52.29H126.926V53.29ZM129.547 52.9634L133.207 62.8634L134.145 62.5166L130.485 52.6166L129.547 52.9634ZM134.145 62.8634L137.805 52.9634L136.867 52.6166L133.207 62.5166L134.145 62.8634ZM137.336 53.29H141.716V52.29H137.336V53.29ZM157.702 56.18V55.68H157.202V56.18H157.702ZM158.362 63.95L158.025 64.3201L158.035 64.3284L158.362 63.95ZM161.572 64.31H162.072V63.6696L161.451 63.8249L161.572 64.31ZM161.572 67.82L161.753 68.286L162.072 68.162V67.82H161.572ZM154.642 66.65L154.275 66.9894L154.278 66.9931L154.642 66.65ZM153.172 56.18H153.672V55.68H153.172V56.18ZM150.292 56.18H149.792V56.68H150.292V56.18ZM150.292 52.79V52.29H149.792V52.79H150.292ZM153.172 52.79V53.29H153.672V52.79H153.172ZM153.172 49.22L153.018 48.7444L152.672 48.8566V49.22H153.172ZM157.702 47.75H158.202V47.0621L157.548 47.2744L157.702 47.75ZM157.702 52.79H157.202V53.29H157.702V52.79ZM161.572 52.79H162.072V52.29H161.572V52.79ZM161.572 56.18V56.68H162.072V56.18H161.572ZM157.202 56.18V62.09H158.202V56.18H157.202ZM157.202 62.09C157.202 63.0112 157.444 63.7914 158.026 64.32L158.698 63.58C158.4 63.3086 158.202 62.8488 158.202 62.09H157.202ZM158.035 64.3284C158.584 64.8021 159.277 65.02 160.072 65.02V64.02C159.466 64.02 159.02 63.8579 158.689 63.5716L158.035 64.3284ZM160.072 65.02C160.563 65.02 161.105 64.9421 161.693 64.7951L161.451 63.8249C160.919 63.9579 160.461 64.02 160.072 64.02V65.02ZM161.072 64.31V67.82H162.072V64.31H161.072ZM161.391 67.354C160.744 67.6056 159.939 67.74 158.962 67.74V68.74C160.025 68.74 160.96 68.5944 161.753 68.286L161.391 67.354ZM158.962 67.74C157.177 67.74 155.886 67.2398 155.006 66.3069L154.278 66.9931C155.398 68.1802 156.986 68.74 158.962 68.74V67.74ZM155.009 66.3106C154.139 65.37 153.672 64.0166 153.672 62.18H152.672C152.672 64.1834 153.184 65.81 154.275 66.9894L155.009 66.3106ZM153.672 62.18V56.18H152.672V62.18H153.672ZM153.172 55.68H150.292V56.68H153.172V55.68ZM150.792 56.18V52.79H149.792V56.18H150.792ZM150.292 53.29H153.172V52.29H150.292V53.29ZM153.672 52.79V49.22H152.672V52.79H153.672ZM153.326 49.6956L157.856 48.2256L157.548 47.2744L153.018 48.7444L153.326 49.6956ZM157.202 47.75V52.79H158.202V47.75H157.202ZM157.702 53.29H161.572V52.29H157.702V53.29ZM161.072 52.79V56.18H162.072V52.79H161.072ZM161.572 55.68H157.702V56.68H161.572V55.68ZM166.896 67.28L166.661 67.7212L166.664 67.7228L166.896 67.28ZM164.106 64.52L163.665 64.7553L163.668 64.761L164.106 64.52ZM164.106 56.12L163.668 55.879L163.665 55.8847L164.106 56.12ZM166.896 53.36L166.664 52.9172L166.661 52.9188L166.896 53.36ZM178.116 56.12L177.675 56.3553L177.678 56.361L178.116 56.12ZM178.116 64.52L177.678 64.279L177.675 64.2847L178.116 64.52ZM175.356 67.28L175.592 67.7212L175.356 67.28ZM173.706 63.68L173.318 63.3651L173.313 63.3716L173.706 63.68ZM173.706 56.99L173.309 57.2933L173.313 57.2992L173.318 57.3049L173.706 56.99ZM168.546 56.99L168.935 57.3049L168.939 57.2998L168.546 56.99ZM171.156 67.74C169.603 67.74 168.265 67.4335 167.129 66.8372L166.664 67.7228C167.967 68.4065 169.47 68.74 171.156 68.74V67.74ZM167.132 66.8388C166.018 66.2448 165.158 65.3947 164.545 64.279L163.668 64.761C164.375 66.0453 165.375 67.0352 166.661 67.7212L167.132 66.8388ZM164.548 64.2847C163.952 63.1689 163.646 61.8524 163.646 60.32H162.646C162.646 61.9876 162.98 63.4711 163.665 64.7553L164.548 64.2847ZM163.646 60.32C163.646 58.7876 163.952 57.4711 164.548 56.3553L163.665 55.8847C162.98 57.1689 162.646 58.6524 162.646 60.32H163.646ZM164.545 56.361C165.158 55.2453 166.018 54.3952 167.132 53.8012L166.661 52.9188C165.375 53.6048 164.375 54.5947 163.668 55.879L164.545 56.361ZM167.129 53.8028C168.265 53.2065 169.603 52.9 171.156 52.9V51.9C169.47 51.9 167.967 52.2335 166.664 52.9172L167.129 53.8028ZM171.156 52.9C172.689 52.9 174.005 53.2061 175.121 53.8012L175.592 52.9188C174.307 52.2339 172.824 51.9 171.156 51.9V52.9ZM175.121 53.8012C176.234 54.3945 177.082 55.2428 177.675 56.3553L178.558 55.8847C177.871 54.5972 176.879 53.6055 175.592 52.9188L175.121 53.8012ZM177.678 56.361C178.291 57.4756 178.606 58.79 178.606 60.32H179.606C179.606 58.65 179.261 57.1644 178.555 55.879L177.678 56.361ZM178.606 60.32C178.606 61.85 178.291 63.1644 177.678 64.279L178.555 64.761C179.261 63.4756 179.606 61.99 179.606 60.32H178.606ZM177.675 64.2847C177.082 65.3972 176.234 66.2455 175.121 66.8388L175.592 67.7212C176.879 67.0345 177.871 66.0428 178.558 64.7553L177.675 64.2847ZM175.121 66.8388C174.005 67.4339 172.689 67.74 171.156 67.74V68.74C172.824 68.74 174.307 68.4061 175.592 67.7212L175.121 66.8388ZM171.156 65.29C172.397 65.29 173.407 64.8731 174.1 63.9884L173.313 63.3716C172.846 63.9669 172.156 64.29 171.156 64.29V65.29ZM174.095 63.9949C174.798 63.1273 175.106 61.8727 175.106 60.32H174.106C174.106 61.7673 173.815 62.7527 173.318 63.3651L174.095 63.9949ZM175.106 60.32C175.106 58.7854 174.797 57.5417 174.095 56.6751L173.318 57.3049C173.815 57.9183 174.106 58.8946 174.106 60.32H175.106ZM174.104 56.6867C173.412 55.7805 172.402 55.35 171.156 55.35V56.35C172.151 56.35 172.84 56.6795 173.309 57.2933L174.104 56.6867ZM171.156 55.35C169.894 55.35 168.866 55.7781 168.154 56.6802L168.939 57.2998C169.427 56.6819 170.139 56.35 171.156 56.35V55.35ZM168.158 56.6751C167.455 57.5417 167.146 58.7854 167.146 60.32H168.146C168.146 58.8946 168.437 57.9183 168.935 57.3049L168.158 56.6751ZM167.146 60.32C167.146 61.8618 167.447 63.1104 168.131 63.9813C168.833 64.8752 169.873 65.29 171.156 65.29V64.29C170.1 64.29 169.385 63.9598 168.917 63.3637C168.431 62.7446 168.146 61.7582 168.146 60.32H167.146ZM197.392 52.79H197.892V52.29H197.392V52.79ZM195.292 72.83L195.626 73.2016L195.626 73.2016L195.292 72.83ZM182.872 73.31L182.382 73.2094L182.307 73.5769L182.638 73.7521L182.872 73.31ZM183.562 69.95L183.785 69.5028L183.203 69.2116L183.072 69.8494L183.562 69.95ZM191.932 70.4L191.59 70.0352L191.584 70.0409L191.932 70.4ZM192.892 65H193.392V63.3104L192.472 64.7279L192.892 65ZM190.882 66.86L191.126 67.2967L191.133 67.2923L190.882 66.86ZM184.522 66.65L184.256 67.0736L184.262 67.0773L184.522 66.65ZM182.122 63.98L181.675 64.2036L181.676 64.2067L182.122 63.98ZM182.122 56.03L182.568 56.2567L182.569 56.2536L182.122 56.03ZM184.522 53.36L184.782 53.7873L184.788 53.7835L184.522 53.36ZM190.912 53.09L190.676 53.5309L190.676 53.5309L190.912 53.09ZM192.892 54.95L192.461 55.204L193.392 56.7821V54.95H192.892ZM192.892 52.79V52.29H192.392V52.79H192.892ZM191.932 63.05L191.554 62.7229L191.553 62.7237L191.932 63.05ZM191.962 56.99L191.579 57.3111L191.583 57.3163L191.962 56.99ZM186.712 56.99L187.086 57.3222L187.09 57.3171L186.712 56.99ZM186.712 63.02L187.09 62.6929L187.09 62.6929L186.712 63.02ZM196.892 52.79V67.31H197.892V52.79H196.892ZM196.892 67.31C196.892 69.6312 196.224 71.3186 194.957 72.4584L195.626 73.2016C197.16 71.8214 197.892 69.8288 197.892 67.31H196.892ZM194.957 72.4584C193.682 73.6066 191.78 74.22 189.172 74.22V75.22C191.924 75.22 194.102 74.5734 195.626 73.2016L194.957 72.4584ZM189.172 74.22C186.817 74.22 184.8 73.7629 183.105 72.8679L182.638 73.7521C184.504 74.7371 186.687 75.22 189.172 75.22V74.22ZM183.362 73.4106L184.052 70.0506L183.072 69.8494L182.382 73.2094L183.362 73.4106ZM183.338 70.3972C185.238 71.3469 187.134 71.83 189.022 71.83V70.83C187.31 70.83 185.566 70.3931 183.785 69.5028L183.338 70.3972ZM189.022 71.83C190.392 71.83 191.511 71.5037 192.28 70.7591L191.584 70.0409C191.073 70.5363 190.251 70.83 189.022 70.83V71.83ZM192.274 70.7648C193.051 70.0366 193.392 68.9598 193.392 67.64H192.392C192.392 68.8002 192.093 69.5634 191.59 70.0352L192.274 70.7648ZM193.392 67.64V65H192.392V67.64H193.392ZM192.472 64.7279C192.04 65.3941 191.431 65.9621 190.631 66.4277L191.133 67.2923C192.052 66.7579 192.783 66.0859 193.311 65.2721L192.472 64.7279ZM190.638 66.4234C189.857 66.8595 188.992 67.08 188.032 67.08V68.08C189.152 68.08 190.187 67.8205 191.126 67.2966L190.638 66.4234ZM188.032 67.08C186.793 67.08 185.715 66.7902 184.782 66.2227L184.262 67.0773C185.369 67.7498 186.63 68.08 188.032 68.08V67.08ZM184.788 66.2265C183.849 65.6376 183.109 64.8178 182.568 63.7533L181.676 64.2067C182.295 65.4222 183.155 66.3824 184.256 67.0735L184.788 66.2265ZM182.569 63.7564C182.029 62.6759 181.752 61.4245 181.752 59.99H180.752C180.752 61.5555 181.055 62.9641 181.675 64.2036L182.569 63.7564ZM181.752 59.99C181.752 58.5552 182.029 57.3153 182.568 56.2567L181.676 55.8033C181.055 57.0247 180.752 58.4248 180.752 59.99H181.752ZM182.569 56.2536C183.111 55.1702 183.849 54.3542 184.782 53.7873L184.262 52.9327C183.155 53.6058 182.293 54.5698 181.675 55.8064L182.569 56.2536ZM184.788 53.7835C185.72 53.1983 186.797 52.9 188.032 52.9V51.9C186.627 51.9 185.363 52.2417 184.256 52.9365L184.788 53.7835ZM188.032 52.9C189.017 52.9 189.895 53.113 190.676 53.5309L191.148 52.6491C190.209 52.147 189.167 51.9 188.032 51.9V52.9ZM190.676 53.5309C191.462 53.9511 192.051 54.5091 192.461 55.204L193.323 54.696C192.812 53.8309 192.082 53.1489 191.148 52.6491L190.676 53.5309ZM193.392 54.95V52.79H192.392V54.95H193.392ZM192.892 53.29H197.392V52.29H192.892V53.29ZM189.352 64.63C190.572 64.63 191.58 64.2245 192.311 63.3763L191.553 62.7237C191.043 63.3155 190.332 63.63 189.352 63.63V64.63ZM192.31 63.3771C193.051 62.52 193.392 61.3701 193.392 59.99H192.392C192.392 61.2099 192.092 62.1 191.554 62.7229L192.31 63.3771ZM193.392 59.99C193.392 58.6321 193.062 57.5018 192.341 56.6637L191.583 57.3163C192.101 57.9182 192.392 58.7879 192.392 59.99H193.392ZM192.345 56.6689C191.614 55.7967 190.593 55.38 189.352 55.38V56.38C190.35 56.38 191.069 56.7033 191.579 57.3111L192.345 56.6689ZM189.352 55.38C188.11 55.38 187.083 55.7966 186.334 56.6629L187.09 57.3171C187.621 56.7034 188.354 56.38 189.352 56.38V55.38ZM186.338 56.6578C185.593 57.4959 185.252 58.6285 185.252 59.99H186.252C186.252 58.7915 186.551 57.9241 187.086 57.3222L186.338 56.6578ZM185.252 59.99C185.252 61.3524 185.594 62.4913 186.334 63.3471L187.09 62.6929C186.55 62.0687 186.252 61.1876 186.252 59.99H185.252ZM186.334 63.3471C187.083 64.2134 188.11 64.63 189.352 64.63V63.63C188.354 63.63 187.621 63.3066 187.09 62.6929L186.334 63.3471ZM214.666 60.77V61.27H215.166V60.77H214.666ZM204.646 60.77V60.27H204.117L204.146 60.7981L204.646 60.77ZM205.756 63.89L205.402 64.2436L205.407 64.2489L205.756 63.89ZM213.196 63.32L213.661 63.1375L213.42 62.5227L212.894 62.9215L213.196 63.32ZM214.396 66.38L214.709 66.7694L214.995 66.5391L214.861 66.1975L214.396 66.38ZM211.696 67.76L211.84 68.2387L211.846 68.2369L211.696 67.76ZM202.456 66.14L202.107 66.4984L202.109 66.5009L202.456 66.14ZM201.196 56.24L200.753 56.0077L200.751 56.0105L201.196 56.24ZM203.866 53.42L204.116 53.8527L204.122 53.8494L203.866 53.42ZM212.806 54.5L212.431 54.8315L212.434 54.8342L212.806 54.5ZM205.756 56.33L205.416 55.9631L205.409 55.9696L205.756 56.33ZM204.736 58.52L204.242 58.4378L204.145 59.02H204.736V58.52ZM210.766 58.52V59.02H211.331L211.262 58.4592L210.766 58.52ZM214.666 60.27H204.646V61.27H214.666V60.27ZM204.146 60.7981C204.23 62.2787 204.619 63.461 205.402 64.2436L206.109 63.5364C205.572 62.999 205.221 62.1013 205.145 60.7419L204.146 60.7981ZM205.407 64.2489C206.194 65.0112 207.32 65.35 208.696 65.35V64.35C207.471 64.35 206.638 64.0488 206.104 63.531L205.407 64.2489ZM208.696 65.35C209.532 65.35 210.365 65.2104 211.194 64.9343L210.877 63.9857C210.146 64.2296 209.419 64.35 208.696 64.35V65.35ZM211.194 64.9343C212.026 64.657 212.794 64.2512 213.497 63.7185L212.894 62.9215C212.277 63.3887 211.605 63.743 210.877 63.9857L211.194 64.9343ZM212.73 63.5025L213.93 66.5625L214.861 66.1975L213.661 63.1375L212.73 63.5025ZM214.082 65.9906C213.42 66.5238 212.579 66.9577 211.545 67.2831L211.846 68.2369C212.972 67.8823 213.931 67.3962 214.709 66.7694L214.082 65.9906ZM211.551 67.2813C210.537 67.5875 209.515 67.74 208.486 67.74V68.74C209.616 68.74 210.734 68.5725 211.84 68.2387L211.551 67.2813ZM208.486 67.74C206.019 67.74 204.146 67.0678 202.802 65.7791L202.109 66.5009C203.686 68.0122 205.832 68.74 208.486 68.74V67.74ZM202.804 65.7816C201.46 64.474 200.766 62.6837 200.766 60.35H199.766C199.766 62.8963 200.531 64.966 202.107 66.4984L202.804 65.7816ZM200.766 60.35C200.766 58.8786 201.061 57.5892 201.64 56.4695L200.751 56.0105C200.09 57.2908 199.766 58.7414 199.766 60.35H200.766ZM201.638 56.4723C202.237 55.3319 203.062 54.4632 204.116 53.8527L203.615 52.9873C202.389 53.6968 201.435 54.7081 200.753 56.0077L201.638 56.4723ZM204.122 53.8494C205.178 53.2195 206.378 52.9 207.736 52.9V51.9C206.213 51.9 204.833 52.2605 203.609 52.9906L204.122 53.8494ZM207.736 52.9C209.755 52.9 211.3 53.5547 212.431 54.8315L213.18 54.1685C211.831 52.6453 209.996 51.9 207.736 51.9V52.9ZM212.434 54.8342C213.571 56.0995 214.166 57.8387 214.166 60.11H215.166C215.166 57.6613 214.52 55.6605 213.177 54.1658L212.434 54.8342ZM214.166 60.11V60.77H215.166V60.11H214.166ZM207.856 55.08C206.892 55.08 206.064 55.3633 205.416 55.9631L206.095 56.6969C206.527 56.2967 207.099 56.08 207.856 56.08V55.08ZM205.409 55.9696C204.788 56.5663 204.414 57.4083 204.242 58.4378L205.229 58.6022C205.377 57.7117 205.683 57.0937 206.102 56.6904L205.409 55.9696ZM204.736 59.02H210.766V58.02H204.736V59.02ZM211.262 58.4592C211.134 57.4154 210.804 56.5596 210.213 55.9633C209.614 55.3572 208.806 55.08 207.856 55.08V56.08C208.605 56.08 209.133 56.2928 209.503 56.6667C209.882 57.0504 210.157 57.6646 210.269 58.5808L211.262 58.4592ZM222.917 56.18V55.68H222.417V56.18H222.917ZM223.577 63.95L223.24 64.3201L223.25 64.3284L223.577 63.95ZM226.787 64.31H227.287V63.6696L226.665 63.8249L226.787 64.31ZM226.787 67.82L226.968 68.286L227.287 68.162V67.82H226.787ZM219.857 66.65L219.49 66.9894L219.493 66.9931L219.857 66.65ZM218.387 56.18H218.887V55.68H218.387V56.18ZM215.507 56.18H215.007V56.68H215.507V56.18ZM215.507 52.79V52.29H215.007V52.79H215.507ZM218.387 52.79V53.29H218.887V52.79H218.387ZM218.387 49.22L218.232 48.7444L217.887 48.8566V49.22H218.387ZM222.917 47.75H223.417V47.0621L222.762 47.2744L222.917 47.75ZM222.917 52.79H222.417V53.29H222.917V52.79ZM226.787 52.79H227.287V52.29H226.787V52.79ZM226.787 56.18V56.68H227.287V56.18H226.787ZM222.417 56.18V62.09H223.417V56.18H222.417ZM222.417 62.09C222.417 63.0112 222.659 63.7914 223.24 64.32L223.913 63.58C223.615 63.3086 223.417 62.8488 223.417 62.09H222.417ZM223.25 64.3284C223.798 64.8021 224.492 65.02 225.287 65.02V64.02C224.681 64.02 224.235 63.8579 223.904 63.5716L223.25 64.3284ZM225.287 65.02C225.778 65.02 226.32 64.9421 226.908 64.7951L226.665 63.8249C226.134 63.9579 225.675 64.02 225.287 64.02V65.02ZM226.287 64.31V67.82H227.287V64.31H226.287ZM226.605 67.354C225.959 67.6056 225.153 67.74 224.177 67.74V68.74C225.24 68.74 226.175 68.5944 226.968 68.286L226.605 67.354ZM224.177 67.74C222.392 67.74 221.1 67.2398 220.22 66.3069L219.493 66.9931C220.613 68.1802 222.201 68.74 224.177 68.74V67.74ZM220.224 66.3106C219.354 65.37 218.887 64.0166 218.887 62.18H217.887C217.887 64.1834 218.399 65.81 219.49 66.9894L220.224 66.3106ZM218.887 62.18V56.18H217.887V62.18H218.887ZM218.387 55.68H215.507V56.68H218.387V55.68ZM216.007 56.18V52.79H215.007V56.18H216.007ZM215.507 53.29H218.387V52.29H215.507V53.29ZM218.887 52.79V49.22H217.887V52.79H218.887ZM218.541 49.6956L223.071 48.2256L222.762 47.2744L218.232 48.7444L218.541 49.6956ZM222.417 47.75V52.79H223.417V47.75H222.417ZM222.917 53.29H226.787V52.29H222.917V53.29ZM226.287 52.79V56.18H227.287V52.79H226.287ZM226.787 55.68H222.917V56.68H226.787V55.68ZM243.901 68V68.5H244.401V68H243.901ZM239.371 68H238.871V68.5H239.371V68ZM238.771 56.69L238.373 56.9925L238.38 57.0015L238.387 57.0101L238.771 56.69ZM234.541 56.9L234.906 57.242L234.906 57.242L234.541 56.9ZM233.641 68V68.5H234.141V68H233.641ZM229.111 68H228.611V68.5H229.111V68ZM229.111 45.92V45.42H228.611V45.92H229.111ZM233.641 45.92H234.141V45.42H233.641V45.92ZM233.641 54.86H233.141V56.4944L234.056 55.1397L233.641 54.86ZM235.711 53.03L235.935 53.4772L235.935 53.4772L235.711 53.03ZM238.501 52.9C240.2 52.9 241.391 53.3986 242.169 54.3202C242.962 55.258 243.401 56.7184 243.401 58.79H244.401C244.401 56.6016 243.941 54.867 242.933 53.6748C241.912 52.4664 240.402 51.9 238.501 51.9V52.9ZM243.401 58.79V68H244.401V58.79H243.401ZM243.901 67.5H239.371V68.5H243.901V67.5ZM239.871 68V59H238.871V68H239.871ZM239.871 59C239.871 57.8976 239.667 56.9839 239.155 56.3699L238.387 57.0101C238.675 57.3561 238.871 57.9824 238.871 59H239.871ZM239.169 56.3875C238.665 55.7238 237.881 55.44 236.941 55.44V56.44C237.682 56.44 238.118 56.6562 238.373 56.9925L239.169 56.3875ZM236.941 55.44C235.824 55.44 234.885 55.8027 234.176 56.558L234.906 57.242C235.398 56.7173 236.058 56.44 236.941 56.44V55.44ZM234.176 56.558C233.471 57.311 233.141 58.3038 233.141 59.48H234.141C234.141 58.4962 234.412 57.769 234.906 57.242L234.176 56.558ZM233.141 59.48V68H234.141V59.48H233.141ZM233.641 67.5H229.111V68.5H233.641V67.5ZM229.611 68V45.92H228.611V68H229.611ZM229.111 46.42H233.641V45.42H229.111V46.42ZM233.141 45.92V54.86H234.141V45.92H233.141ZM234.056 55.1397C234.549 54.409 235.174 53.8576 235.935 53.4772L235.488 52.5828C234.568 53.0424 233.814 53.711 233.227 54.5803L234.056 55.1397ZM235.935 53.4772C236.7 53.0948 237.552 52.9 238.501 52.9V51.9C237.41 51.9 236.403 52.1251 235.488 52.5828L235.935 53.4772ZM261.16 60.77V61.27H261.66V60.77H261.16ZM251.14 60.77V60.27H250.611L250.64 60.7981L251.14 60.77ZM252.25 63.89L251.896 64.2436L251.902 64.2489L252.25 63.89ZM259.69 63.32L260.155 63.1375L259.914 62.5227L259.388 62.9215L259.69 63.32ZM260.89 66.38L261.203 66.7694L261.489 66.5391L261.355 66.1975L260.89 66.38ZM258.19 67.76L258.334 68.2387L258.34 68.2369L258.19 67.76ZM248.95 66.14L248.601 66.4984L248.604 66.5009L248.95 66.14ZM247.69 56.24L247.247 56.0077L247.245 56.0105L247.69 56.24ZM250.36 53.42L250.61 53.8527L250.616 53.8494L250.36 53.42ZM259.3 54.5L258.925 54.8315L258.928 54.8342L259.3 54.5ZM252.25 56.33L251.91 55.9631L251.903 55.9696L252.25 56.33ZM251.23 58.52L250.736 58.4378L250.639 59.02H251.23V58.52ZM257.26 58.52V59.02H257.825L257.756 58.4592L257.26 58.52ZM261.16 60.27H251.14V61.27H261.16V60.27ZM250.64 60.7981C250.724 62.2787 251.114 63.461 251.896 64.2436L252.603 63.5364C252.066 62.999 251.715 62.1013 251.639 60.7419L250.64 60.7981ZM251.902 64.2489C252.688 65.0112 253.814 65.35 255.19 65.35V64.35C253.965 64.35 253.132 64.0488 252.598 63.531L251.902 64.2489ZM255.19 65.35C256.026 65.35 256.86 65.2104 257.688 64.9343L257.372 63.9857C256.64 64.2296 255.913 64.35 255.19 64.35V65.35ZM257.688 64.9343C258.52 64.657 259.288 64.2512 259.992 63.7185L259.388 62.9215C258.771 63.3887 258.099 63.743 257.372 63.9857L257.688 64.9343ZM259.224 63.5025L260.424 66.5625L261.355 66.1975L260.155 63.1375L259.224 63.5025ZM260.576 65.9906C259.914 66.5238 259.073 66.9577 258.04 67.2831L258.34 68.2369C259.466 67.8823 260.425 67.3962 261.203 66.7694L260.576 65.9906ZM258.045 67.2813C257.031 67.5875 256.01 67.74 254.98 67.74V68.74C256.11 68.74 257.229 68.5725 258.334 68.2387L258.045 67.2813ZM254.98 67.74C252.513 67.74 250.64 67.0678 249.296 65.7791L248.604 66.5009C250.18 68.0122 252.327 68.74 254.98 68.74V67.74ZM249.298 65.7816C247.954 64.474 247.26 62.6837 247.26 60.35H246.26C246.26 62.8963 247.025 64.966 248.601 66.4984L249.298 65.7816ZM247.26 60.35C247.26 58.8786 247.555 57.5892 248.134 56.4695L247.245 56.0105C246.584 57.2908 246.26 58.7414 246.26 60.35H247.26ZM248.132 56.4723C248.731 55.3319 249.556 54.4632 250.61 53.8527L250.109 52.9873C248.884 53.6968 247.929 54.7081 247.247 56.0077L248.132 56.4723ZM250.616 53.8494C251.672 53.2195 252.872 52.9 254.23 52.9V51.9C252.707 51.9 251.328 52.2605 250.104 52.9906L250.616 53.8494ZM254.23 52.9C256.249 52.9 257.794 53.5547 258.925 54.8315L259.674 54.1685C258.325 52.6453 256.49 51.9 254.23 51.9V52.9ZM258.928 54.8342C260.065 56.0995 260.66 57.8387 260.66 60.11H261.66C261.66 57.6613 261.015 55.6605 259.672 54.1658L258.928 54.8342ZM260.66 60.11V60.77H261.66V60.11H260.66ZM254.35 55.08C253.386 55.08 252.558 55.3633 251.91 55.9631L252.589 56.6969C253.022 56.2967 253.593 56.08 254.35 56.08V55.08ZM251.903 55.9696C251.283 56.5663 250.908 57.4083 250.736 58.4378L251.723 58.6022C251.871 57.7117 252.177 57.0937 252.596 56.6904L251.903 55.9696ZM251.23 59.02H257.26V58.02H251.23V59.02ZM257.756 58.4592C257.628 57.4154 257.298 56.5596 256.708 55.9633C256.108 55.3572 255.3 55.08 254.35 55.08V56.08C255.099 56.08 255.627 56.2928 255.997 56.6667C256.377 57.0504 256.651 57.6646 256.763 58.5808L257.756 58.4592ZM274.474 52.73L274.974 52.7336L274.976 52.4091L274.681 52.2748L274.474 52.73ZM274.444 56.87L274.235 57.3243L274.938 57.6474L274.944 56.8736L274.444 56.87ZM269.464 57.35L269.105 57.0019L269.105 57.0021L269.464 57.35ZM268.534 68V68.5H269.034V68H268.534ZM264.004 68H263.504V68.5H264.004V68ZM263.764 52.79V52.29H263.197L263.268 52.852L263.764 52.79ZM268.024 52.79L268.521 52.7329L268.47 52.29H268.024V52.79ZM268.324 55.4L267.827 55.4571L268.789 55.584L268.324 55.4ZM270.094 53.21L270.359 53.634L270.362 53.6323L270.094 53.21ZM272.854 52.93C273.444 52.93 273.909 53.0226 274.267 53.1852L274.681 52.2748C274.158 52.0374 273.543 51.93 272.854 51.93V52.93ZM273.974 52.7264L273.944 56.8664L274.944 56.8736L274.974 52.7336L273.974 52.7264ZM274.653 56.4157C273.854 56.0486 273.043 55.86 272.224 55.86V56.86C272.885 56.86 273.554 57.0114 274.235 57.3243L274.653 56.4157ZM272.224 55.86C270.932 55.86 269.865 56.2177 269.105 57.0019L269.823 57.6981C270.342 57.1623 271.116 56.86 272.224 56.86V55.86ZM269.105 57.0021C268.37 57.761 268.034 58.8008 268.034 60.05H269.034C269.034 58.9792 269.318 58.219 269.823 57.6979L269.105 57.0021ZM268.034 60.05V68H269.034V60.05H268.034ZM268.534 67.5H264.004V68.5H268.534V67.5ZM264.504 68V57.14H263.504V68H264.504ZM264.504 57.14C264.504 55.5043 264.423 54.033 264.26 52.728L263.268 52.852C263.425 54.107 263.504 55.5357 263.504 57.14H264.504ZM263.764 53.29H268.024V52.29H263.764V53.29ZM267.527 52.8471L267.827 55.4571L268.821 55.3429L268.521 52.7329L267.527 52.8471ZM268.789 55.584C269.133 54.7134 269.658 54.072 270.359 53.634L269.829 52.786C268.93 53.348 268.274 54.1666 267.859 55.216L268.789 55.584ZM270.362 53.6323C271.097 53.1657 271.924 52.93 272.854 52.93V51.93C271.744 51.93 270.73 52.2143 269.826 52.7877L270.362 53.6323Z" fill="#455B57"/>
<path d="M20.21 1.64V23H15.62V14.03H5.72V23H1.13V1.64H5.72V10.28H15.62V1.64H20.21ZM37.8589 15.77H27.8389C27.9189 17.19 28.2889 18.23 28.9489 18.89C29.6089 19.53 30.5889 19.85 31.8889 19.85C32.6689 19.85 33.4489 19.72 34.2289 19.46C35.0089 19.2 35.7289 18.82 36.3889 18.32L37.5889 21.38C36.8689 21.96 35.9689 22.42 34.8889 22.76C33.8289 23.08 32.7589 23.24 31.6789 23.24C29.1189 23.24 27.1089 22.54 25.6489 21.14C24.1889 19.72 23.4589 17.79 23.4589 15.35C23.4589 13.81 23.7689 12.44 24.3889 11.24C25.0289 10.02 25.9189 9.08 27.0589 8.42C28.1989 7.74 29.4889 7.4 30.9289 7.4C33.0689 7.4 34.7589 8.1 35.9989 9.5C37.2389 10.88 37.8589 12.75 37.8589 15.11V15.77ZM31.0489 10.58C30.1889 10.58 29.4889 10.83 28.9489 11.33C28.4289 11.83 28.0889 12.56 27.9289 13.52H33.9589C33.7189 11.56 32.7489 10.58 31.0489 10.58ZM40.703 0.919998H45.233V23H40.703V0.919998ZM48.9355 0.919998H53.4655V23H48.9355V0.919998ZM64.4279 23.24C62.8079 23.24 61.3879 22.92 60.1679 22.28C58.9679 21.64 58.0379 20.72 57.3779 19.52C56.7379 18.32 56.4179 16.92 56.4179 15.32C56.4179 13.72 56.7379 12.32 57.3779 11.12C58.0379 9.92 58.9679 9 60.1679 8.36C61.3879 7.72 62.8079 7.4 64.4279 7.4C66.0279 7.4 67.4279 7.72 68.6279 8.36C69.8279 9 70.7479 9.92 71.3879 11.12C72.0479 12.32 72.3779 13.72 72.3779 15.32C72.3779 16.92 72.0479 18.32 71.3879 19.52C70.7479 20.72 69.8279 21.64 68.6279 22.28C67.4279 22.92 66.0279 23.24 64.4279 23.24ZM64.4279 19.79C65.5479 19.79 66.3979 19.42 66.9779 18.68C67.5779 17.94 67.8779 16.82 67.8779 15.32C67.8779 13.84 67.5779 12.73 66.9779 11.99C66.3979 11.23 65.5479 10.85 64.4279 10.85C63.2879 10.85 62.4179 11.23 61.8179 11.99C61.2179 12.73 60.9179 13.84 60.9179 15.32C60.9179 18.3 62.0879 19.79 64.4279 19.79ZM91.6909 4.49C90.9909 4.49 90.4309 4.69 90.0109 5.09C89.5909 5.47 89.3809 6.09 89.3809 6.95V7.79H92.5609V11.18H89.3809V23H84.8509V11.18H82.0009V7.79H84.8509V6.83C84.8509 4.91 85.3409 3.42 86.3209 2.36C87.3009 1.3 88.7209 0.769998 90.5809 0.769998C91.6209 0.769998 92.4809 0.899998 93.1609 1.16V4.7C92.5809 4.56 92.0909 4.49 91.6909 4.49ZM104.104 7.43C104.744 7.43 105.284 7.53 105.724 7.73L105.694 11.87C104.954 11.53 104.214 11.36 103.474 11.36C102.274 11.36 101.354 11.69 100.714 12.35C100.094 12.99 99.7838 13.89 99.7838 15.05V23H95.2538V12.14C95.2538 10.52 95.1738 9.07 95.0138 7.79H99.2738L99.5738 10.4C99.9538 9.44 100.544 8.71 101.344 8.21C102.164 7.69 103.084 7.43 104.104 7.43ZM107.559 7.79H112.089V23H107.559V7.79ZM112.239 0.649998V4.91H107.409V0.649998H112.239ZM129.441 15.77H119.421C119.501 17.19 119.871 18.23 120.531 18.89C121.191 19.53 122.171 19.85 123.471 19.85C124.251 19.85 125.031 19.72 125.811 19.46C126.591 19.2 127.311 18.82 127.971 18.32L129.171 21.38C128.451 21.96 127.551 22.42 126.471 22.76C125.411 23.08 124.341 23.24 123.261 23.24C120.701 23.24 118.691 22.54 117.231 21.14C115.771 19.72 115.041 17.79 115.041 15.35C115.041 13.81 115.351 12.44 115.971 11.24C116.611 10.02 117.501 9.08 118.641 8.42C119.781 7.74 121.071 7.4 122.511 7.4C124.651 7.4 126.341 8.1 127.581 9.5C128.821 10.88 129.441 12.75 129.441 15.11V15.77ZM122.631 10.58C121.771 10.58 121.071 10.83 120.531 11.33C120.011 11.83 119.671 12.56 119.511 13.52H125.541C125.301 11.56 124.331 10.58 122.631 10.58ZM141.675 7.4C145.275 7.4 147.075 9.53 147.075 13.79V23H142.545V14C142.545 12.94 142.345 12.17 141.945 11.69C141.565 11.19 140.955 10.94 140.115 10.94C139.115 10.94 138.315 11.26 137.715 11.9C137.115 12.54 136.815 13.4 136.815 14.48V23H132.285V12.14C132.285 10.52 132.205 9.07 132.045 7.79H136.305L136.605 10.19C137.145 9.29 137.845 8.6 138.705 8.12C139.585 7.64 140.575 7.4 141.675 7.4ZM165.924 0.919998V23H161.454V20.75C160.994 21.53 160.344 22.14 159.504 22.58C158.664 23.02 157.714 23.24 156.654 23.24C155.354 23.24 154.194 22.91 153.174 22.25C152.154 21.57 151.354 20.63 150.774 19.43C150.214 18.21 149.934 16.82 149.934 15.26C149.934 13.7 150.214 12.33 150.774 11.15C151.354 9.95 152.144 9.03 153.144 8.39C154.164 7.73 155.334 7.4 156.654 7.4C157.674 7.4 158.604 7.62 159.444 8.06C160.284 8.48 160.934 9.07 161.394 9.83V0.919998H165.924ZM157.974 19.79C159.094 19.79 159.954 19.41 160.554 18.65C161.154 17.87 161.454 16.76 161.454 15.32C161.454 13.9 161.144 12.81 160.524 12.05C159.924 11.27 159.074 10.88 157.974 10.88C156.854 10.88 155.984 11.26 155.364 12.02C154.744 12.78 154.434 13.86 154.434 15.26C154.434 16.7 154.744 17.82 155.364 18.62C155.984 19.4 156.854 19.79 157.974 19.79ZM168.86 1.61L174.47 1.64L173.06 16.13H170.3L168.86 1.61ZM174.11 18.17V23H169.22V18.17H174.11Z" fill="#455B57"/>
</svg>
