<svg width="424" height="100" viewBox="0 0 424 100" fill="none" xmlns="http://www.w3.org/2000/svg">
<path d="M16.44 90L16.064 90.3296L16.2134 90.5H16.44V90ZM8.48 80.92L8.85598 80.5904L7.98 79.5912V80.92H8.48ZM8.48 90V90.5H8.98V90H8.48ZM2.44 90H1.94V90.5H2.44V90ZM2.44 60.56V60.06H1.94V60.56H2.44ZM8.48 60.56H8.98V60.06H8.48V60.56ZM8.48 78.44H7.98V79.7701L8.85618 78.7694L8.48 78.44ZM16.08 69.76V69.26H15.8532L15.7038 69.4306L16.08 69.76ZM23.32 69.76L23.6945 70.0913L24.43 69.26H23.32V69.76ZM14.72 79.48L14.3455 79.1487L14.0554 79.4766L14.3422 79.8075L14.72 79.48ZM23.84 90V90.5H24.9352L24.2178 89.6725L23.84 90ZM16.816 89.6704L8.85598 80.5904L8.10402 81.2496L16.064 90.3296L16.816 89.6704ZM7.98 80.92V90H8.98V80.92H7.98ZM8.48 89.5H2.44V90.5H8.48V89.5ZM2.94 90V60.56H1.94V90H2.94ZM2.44 61.06H8.48V60.06H2.44V61.06ZM7.98 60.56V78.44H8.98V60.56H7.98ZM8.85618 78.7694L16.4562 70.0894L15.7038 69.4306L8.10382 78.1106L8.85618 78.7694ZM16.08 70.26H23.32V69.26H16.08V70.26ZM22.9455 69.4287L14.3455 79.1487L15.0945 79.8113L23.6945 70.0913L22.9455 69.4287ZM14.3422 79.8075L23.4622 90.3275L24.2178 89.6725L15.0978 79.1525L14.3422 79.8075ZM23.84 89.5H16.44V90.5H23.84V89.5ZM43.3744 80.36V80.86H43.8744V80.36H43.3744ZM30.0144 80.36V79.86H29.4854L29.5152 80.3881L30.0144 80.36ZM31.4944 84.52L31.1408 84.8736L31.1463 84.8789L31.4944 84.52ZM41.4144 83.76L41.8799 83.5775L41.6388 82.9627L41.1124 83.3615L41.4144 83.76ZM43.0144 87.84L43.328 88.2294L43.6139 87.9991L43.4799 87.6575L43.0144 87.84ZM39.4144 89.68L39.5589 90.1587L39.5645 90.1569L39.4144 89.68ZM27.0944 87.52L26.7458 87.8784L26.7483 87.8809L27.0944 87.52ZM25.4144 74.32L24.9716 74.0877L24.9702 74.0905L25.4144 74.32ZM28.9744 70.56L29.2249 70.9927L29.2305 70.9894L28.9744 70.56ZM40.8944 72L40.5201 72.3315L40.5225 72.3342L40.8944 72ZM31.4944 74.44L31.1546 74.0731L31.1478 74.0796L31.4944 74.44ZM30.1344 77.36L29.6412 77.2778L29.5441 77.86H30.1344V77.36ZM38.1744 77.36V77.86H38.7393L38.6707 77.2992L38.1744 77.36ZM43.3744 79.86H30.0144V80.86H43.3744V79.86ZM29.5152 80.3881C29.6252 82.3421 30.1382 83.871 31.1408 84.8736L31.8479 84.1664C31.0905 83.409 30.6168 82.1646 30.5136 80.3319L29.5152 80.3881ZM31.1463 84.8789C32.1523 85.8545 33.6052 86.3 35.4144 86.3V85.3C33.7568 85.3 32.5964 84.8922 31.8424 84.161L31.1463 84.8789ZM35.4144 86.3C36.511 86.3 37.6043 86.1171 38.6925 85.7543L38.3763 84.8057C37.3845 85.1363 36.3978 85.3 35.4144 85.3V86.3ZM38.6925 85.7543C39.7846 85.3903 40.7931 84.8579 41.7163 84.1585L41.1124 83.3615C40.2756 83.9954 39.3641 84.4764 38.3763 84.8057L38.6925 85.7543ZM40.9489 83.9425L42.5489 88.0225L43.4799 87.6575L41.8799 83.5775L40.9489 83.9425ZM42.7007 87.4506C41.7988 88.1771 40.6577 88.7644 39.2642 89.2031L39.5645 90.1569C41.0511 89.6889 42.3099 89.0495 43.328 88.2294L42.7007 87.4506ZM39.2699 89.2013C37.9022 89.6142 36.5242 89.82 35.1344 89.82V90.82C36.6246 90.82 38.0999 90.5991 39.5589 90.1587L39.2699 89.2013ZM35.1344 89.82C31.8142 89.82 29.271 88.9145 27.4404 87.1591L26.7483 87.8809C28.8111 89.8589 31.6279 90.82 35.1344 90.82V89.82ZM27.443 87.1616C25.6119 85.3807 24.6744 82.9471 24.6744 79.8H23.6744C23.6744 83.1596 24.6835 85.8726 26.7458 87.8784L27.443 87.1616ZM24.6744 79.8C24.6744 77.8152 25.0734 76.0692 25.8586 74.5495L24.9702 74.0905C24.102 75.7708 23.6744 77.6781 23.6744 79.8H24.6744ZM25.8571 74.5523C26.6687 73.0052 27.7905 71.8232 29.2249 70.9927L28.7239 70.1273C27.1183 71.0568 25.8667 72.3815 24.9716 74.0877L25.8571 74.5523ZM29.2305 70.9894C30.6665 70.1328 32.2966 69.7 34.1344 69.7V68.7C32.1321 68.7 30.3222 69.1738 28.7182 70.1306L29.2305 70.9894ZM34.1344 69.7C36.8675 69.7 38.9758 70.588 40.5201 72.3315L41.2687 71.6685C39.5063 69.6787 37.108 68.7 34.1344 68.7V69.7ZM40.5225 72.3342C42.0728 74.0595 42.8744 76.422 42.8744 79.48H43.8744C43.8744 76.2446 43.0227 73.6205 41.2663 71.6658L40.5225 72.3342ZM42.8744 79.48V80.36H43.8744V79.48H42.8744ZM34.2944 72.94C33.0444 72.94 31.9825 73.3066 31.1547 74.0731L31.8341 74.8069C32.4463 74.24 33.251 73.94 34.2944 73.94V72.94ZM31.1478 74.0796C30.3539 74.843 29.8661 75.9283 29.6412 77.2778L30.6276 77.4422C30.8293 76.2317 31.2482 75.3704 31.8409 74.8004L31.1478 74.0796ZM30.1344 77.86H38.1744V76.86H30.1344V77.86ZM38.6707 77.2992C38.5029 75.9288 38.0717 74.8279 37.3197 74.0683C36.5582 73.2989 35.5282 72.94 34.2944 72.94V73.94C35.3273 73.94 36.0772 74.2344 36.609 74.7717C37.1504 75.3187 37.5259 76.1779 37.6781 77.4208L38.6707 77.2992ZM65.3666 80.36V80.86H65.8666V80.36H65.3666ZM52.0066 80.36V79.86H51.4776L51.5074 80.3881L52.0066 80.36ZM53.4866 84.52L53.133 84.8736L53.1385 84.8789L53.4866 84.52ZM63.4066 83.76L63.872 83.5775L63.631 82.9627L63.1046 83.3615L63.4066 83.76ZM65.0066 87.84L65.3202 88.2294L65.606 87.9991L65.4721 87.6575L65.0066 87.84ZM61.4066 89.68L61.5511 90.1587L61.5567 90.1569L61.4066 89.68ZM49.0866 87.52L48.7379 87.8784L48.7405 87.8809L49.0866 87.52ZM47.4066 74.32L46.9638 74.0877L46.9623 74.0905L47.4066 74.32ZM50.9666 70.56L51.2171 70.9927L51.2227 70.9894L50.9666 70.56ZM62.8866 72L62.5123 72.3315L62.5146 72.3342L62.8866 72ZM53.4866 74.44L53.1468 74.0731L53.14 74.0796L53.4866 74.44ZM52.1266 77.36L51.6334 77.2778L51.5363 77.86H52.1266V77.36ZM60.1666 77.36V77.86H60.7315L60.6629 77.2992L60.1666 77.36ZM65.3666 79.86H52.0066V80.86H65.3666V79.86ZM51.5074 80.3881C51.6174 82.3421 52.1304 83.871 53.133 84.8736L53.8401 84.1664C53.0827 83.409 52.609 82.1646 52.5058 80.3319L51.5074 80.3881ZM53.1385 84.8789C54.1445 85.8545 55.5974 86.3 57.4066 86.3V85.3C55.749 85.3 54.5886 84.8922 53.8346 84.161L53.1385 84.8789ZM57.4066 86.3C58.5032 86.3 59.5965 86.1171 60.6847 85.7543L60.3684 84.8057C59.3767 85.1363 58.39 85.3 57.4066 85.3V86.3ZM60.6847 85.7543C61.7768 85.3903 62.7853 84.8579 63.7085 84.1585L63.1046 83.3615C62.2678 83.9954 61.3563 84.4764 60.3684 84.8057L60.6847 85.7543ZM62.9411 83.9425L64.5411 88.0225L65.4721 87.6575L63.872 83.5775L62.9411 83.9425ZM64.6929 87.4506C63.791 88.1771 62.6499 88.7644 61.2564 89.2031L61.5567 90.1569C63.0432 89.6889 64.3021 89.0495 65.3202 88.2294L64.6929 87.4506ZM61.2621 89.2013C59.8944 89.6142 58.5164 89.82 57.1266 89.82V90.82C58.6167 90.82 60.0921 90.5991 61.5511 90.1587L61.2621 89.2013ZM57.1266 89.82C53.8064 89.82 51.2632 88.9145 49.4326 87.1591L48.7405 87.8809C50.8032 89.8589 53.6201 90.82 57.1266 90.82V89.82ZM49.4352 87.1616C47.6041 85.3807 46.6666 82.9471 46.6666 79.8H45.6666C45.6666 83.1596 46.6757 85.8726 48.738 87.8784L49.4352 87.1616ZM46.6666 79.8C46.6666 77.8152 47.0656 76.0692 47.8508 74.5495L46.9623 74.0905C46.0942 75.7708 45.6666 77.6781 45.6666 79.8H46.6666ZM47.8493 74.5523C48.6609 73.0052 49.7827 71.8232 51.2171 70.9927L50.716 70.1273C49.1105 71.0568 47.8589 72.3815 46.9638 74.0877L47.8493 74.5523ZM51.2227 70.9894C52.6587 70.1328 54.2888 69.7 56.1266 69.7V68.7C54.1243 68.7 52.3144 69.1738 50.7104 70.1306L51.2227 70.9894ZM56.1266 69.7C58.8596 69.7 60.968 70.588 62.5123 72.3315L63.2609 71.6685C61.4984 69.6787 59.1001 68.7 56.1266 68.7V69.7ZM62.5146 72.3342C64.0649 74.0595 64.8666 76.422 64.8666 79.48H65.8666C65.8666 76.2446 65.0148 73.6205 63.2585 71.6658L62.5146 72.3342ZM64.8666 79.48V80.36H65.8666V79.48H64.8666ZM56.2866 72.94C55.0366 72.94 53.9747 73.3066 53.1469 74.0731L53.8263 74.8069C54.4385 74.24 55.2432 73.94 56.2866 73.94V72.94ZM53.14 74.0796C52.3461 74.843 51.8583 75.9283 51.6334 77.2778L52.6198 77.4422C52.8215 76.2317 53.2404 75.3704 53.8331 74.8004L53.14 74.0796ZM52.1266 77.86H60.1666V76.86H52.1266V77.86ZM60.6629 77.2992C60.495 75.9288 60.0639 74.8279 59.3119 74.0683C58.5504 73.2989 57.5204 72.94 56.2866 72.94V73.94C57.3194 73.94 58.0694 74.2344 58.6012 74.7717C59.1426 75.3187 59.5181 76.1779 59.6703 77.4208L60.6629 77.2992ZM86.1988 70.56L85.9214 70.9761L85.9271 70.9798L86.1988 70.56ZM89.3588 74.32L88.9043 74.5286L88.9072 74.5347L89.3588 74.32ZM89.3988 85.4L89.8505 85.6144L89.8518 85.6114L89.3988 85.4ZM86.2388 89.04L86.5045 89.4635L86.5045 89.4635L86.2388 89.04ZM77.7588 89.44L77.9908 88.9971L77.9908 88.9971L77.7588 89.44ZM75.1988 87L75.6342 86.7543L74.6988 85.096V87H75.1988ZM75.1988 98.64V99.14H75.6988V98.64H75.1988ZM69.1588 98.64H68.6588V99.14H69.1588V98.64ZM68.8388 69.72V69.22H68.2724L68.3426 69.782L68.8388 69.72ZM74.5188 69.72L75.0152 69.6609L74.9628 69.22H74.5188V69.72ZM74.9188 73.08L74.4223 73.1391L74.6372 74.9446L75.3757 73.2831L74.9188 73.08ZM77.4788 70.24L77.2286 69.807L77.2244 69.8095L77.4788 70.24ZM83.2788 84.24L83.6672 84.5549L83.6712 84.5498L83.2788 84.24ZM83.2388 75.44L82.8387 75.74L82.8435 75.7463L83.2388 75.44ZM76.3588 75.4L75.9673 75.0889L75.9663 75.0902L76.3588 75.4ZM76.3588 84.2L75.9663 84.5099L75.9713 84.5161L76.3588 84.2ZM81.5588 69.7C83.1997 69.7 84.6486 70.1275 85.9214 70.976L86.4761 70.144C85.0289 69.1792 83.3845 68.7 81.5588 68.7V69.7ZM85.9271 70.9798C87.1991 71.8028 88.193 72.9789 88.9043 74.5286L89.8132 74.1114C89.0312 72.4078 87.9184 71.0772 86.4704 70.1402L85.9271 70.9798ZM88.9072 74.5347C89.644 76.0846 90.0188 77.8628 90.0188 79.88H91.0188C91.0188 77.7372 90.6201 75.8087 89.8103 74.1053L88.9072 74.5347ZM90.0188 79.88C90.0188 81.8998 89.6564 83.6655 88.9457 85.1886L89.8518 85.6114C90.6344 83.9345 91.0188 82.0202 91.0188 79.88H90.0188ZM88.947 85.1856C88.2376 86.6805 87.2455 87.818 85.973 88.6165L86.5045 89.4635C87.952 88.5553 89.0666 87.2661 89.8505 85.6144L88.947 85.1856ZM85.973 88.6165C84.7002 89.4151 83.2341 89.82 81.5588 89.82V90.82C83.4034 90.82 85.0573 90.3716 86.5045 89.4635L85.973 88.6165ZM81.5588 89.82C80.2166 89.82 79.0311 89.542 77.9908 88.9971L77.5267 89.8829C78.7264 90.5113 80.0743 90.82 81.5588 90.82V89.82ZM77.9908 88.9971C76.9509 88.4524 76.1707 87.7053 75.6342 86.7543L74.7633 87.2457C75.4002 88.3747 76.3266 89.2543 77.5267 89.8829L77.9908 88.9971ZM74.6988 87V98.64H75.6988V87H74.6988ZM75.1988 98.14H69.1588V99.14H75.1988V98.14ZM69.6588 98.64V75.52H68.6588V98.64H69.6588ZM69.6588 75.52C69.6588 73.3443 69.5513 71.3896 69.3349 69.658L68.3426 69.782C68.5528 71.4637 68.6588 73.3757 68.6588 75.52H69.6588ZM68.8388 70.22H74.5188V69.22H68.8388V70.22ZM74.0223 69.7791L74.4223 73.1391L75.4152 73.0209L75.0152 69.6609L74.0223 69.7791ZM75.3757 73.2831C75.8651 72.1818 76.6457 71.313 77.7331 70.6705L77.2244 69.8095C75.9651 70.5536 75.0391 71.5782 74.4618 72.8769L75.3757 73.2831ZM77.7289 70.6729C78.8456 70.0277 80.1178 69.7 81.5588 69.7V68.7C79.9597 68.7 78.5119 69.0656 77.2286 69.8071L77.7289 70.6729ZM79.8388 86.22C81.4533 86.22 82.755 85.6798 83.6671 84.5549L82.8904 83.9251C82.2025 84.7735 81.2109 85.22 79.8388 85.22V86.22ZM83.6712 84.5498C84.5668 83.4154 84.9788 81.8352 84.9788 79.88H83.9788C83.9788 81.7115 83.5907 83.038 82.8863 83.9302L83.6712 84.5498ZM84.9788 79.88C84.9788 77.9195 84.5512 76.3173 83.634 75.1337L82.8435 75.7463C83.5796 76.6961 83.9788 78.0538 83.9788 79.88H84.9788ZM83.6388 75.14C82.7339 73.9336 81.4446 73.34 79.8388 73.34V74.34C81.1662 74.34 82.1436 74.8131 82.8388 75.74L83.6388 75.14ZM79.8388 73.34C78.2144 73.34 76.9015 73.9137 75.9673 75.0889L76.7502 75.7111C77.4694 74.8063 78.4764 74.34 79.8388 74.34V73.34ZM75.9663 75.0902C75.0699 76.2257 74.6588 77.8201 74.6588 79.8H75.6588C75.6588 77.9399 76.0476 76.601 76.7512 75.7098L75.9663 75.0902ZM74.6588 79.8C74.6588 81.7799 75.0699 83.3743 75.9663 84.5098L76.7512 83.8902C76.0476 82.999 75.6588 81.6601 75.6588 79.8H74.6588ZM75.9713 84.5161C76.9071 85.6632 78.2192 86.22 79.8388 86.22V85.22C78.4717 85.22 77.4637 84.7635 76.7462 83.8839L75.9713 84.5161ZM125.643 69.72L126.101 69.9207L126.408 69.22H125.643V69.72ZM116.283 91.08L116.74 91.2826L116.741 91.2807L116.283 91.08ZM111.923 96.76L111.641 96.3468L111.634 96.3519L111.923 96.76ZM105.523 99.12L105.044 99.2644L105.168 99.6733L105.591 99.6154L105.523 99.12ZM104.123 94.48L104.018 93.9911L103.488 94.1048L103.644 94.6244L104.123 94.48ZM108.323 92.96L108.054 92.5386L108.049 92.5421L108.323 92.96ZM110.563 90.28L111.018 90.4869L111.018 90.4869L110.563 90.28ZM111.163 88.96L111.618 89.1669L111.71 88.9646L111.622 88.7607L111.163 88.96ZM102.803 69.72V69.22H102.041L102.345 69.9193L102.803 69.72ZM109.123 69.72L109.588 69.5363L109.463 69.22H109.123V69.72ZM114.323 82.88L113.858 83.0637L114.316 84.2228L114.786 83.0686L114.323 82.88ZM119.683 69.72V69.22H119.347L119.22 69.5314L119.683 69.72ZM125.185 69.5193L115.825 90.8793L116.741 91.2807L126.101 69.9207L125.185 69.5193ZM115.826 90.8774C114.705 93.4061 113.303 95.2139 111.641 96.3469L112.205 97.1731C114.063 95.9061 115.568 93.9272 116.74 91.2826L115.826 90.8774ZM111.634 96.3519C109.979 97.5235 107.925 98.2866 105.455 98.6246L105.591 99.6154C108.188 99.26 110.401 98.4498 112.212 97.1681L111.634 96.3519ZM106.002 98.9756L104.602 94.3356L103.644 94.6244L105.044 99.2644L106.002 98.9756ZM104.228 94.9689C106.118 94.5638 107.589 94.041 108.598 93.3779L108.049 92.5421C107.191 93.1056 105.861 93.5962 104.018 93.9911L104.228 94.9689ZM108.592 93.3813C109.644 92.7094 110.45 91.7363 111.018 90.4869L110.108 90.0731C109.609 91.1704 108.922 91.984 108.054 92.5387L108.592 93.3813ZM111.018 90.4869L111.618 89.1669L110.708 88.7531L110.108 90.0731L111.018 90.4869ZM111.622 88.7607L103.262 69.5207L102.345 69.9193L110.705 89.1593L111.622 88.7607ZM102.803 70.22H109.123V69.22H102.803V70.22ZM108.658 69.9037L113.858 83.0637L114.788 82.6963L109.588 69.5363L108.658 69.9037ZM114.786 83.0686L120.146 69.9086L119.22 69.5314L113.86 82.6914L114.786 83.0686ZM119.683 70.22H125.643V69.22H119.683V70.22ZM131.245 89.04L131.009 89.4812L131.012 89.4828L131.245 89.04ZM127.525 85.36L127.083 85.5953L127.087 85.601L127.525 85.36ZM127.525 74.16L127.087 73.919L127.084 73.9247L127.525 74.16ZM131.245 70.48L131.012 70.0372L131.009 70.0388L131.245 70.48ZM146.205 74.16L145.763 74.3953L145.767 74.401L146.205 74.16ZM146.205 85.36L145.767 85.119L145.764 85.1247L146.205 85.36ZM142.525 89.04L142.76 89.4812L142.525 89.04ZM140.325 84.24L139.936 83.9251L139.931 83.9316L140.325 84.24ZM140.325 75.32L139.927 75.6233L139.932 75.6292L139.936 75.6349L140.325 75.32ZM133.445 75.32L133.833 75.6349L133.837 75.6298L133.445 75.32ZM136.925 89.82C134.831 89.82 133.02 89.4069 131.477 88.5972L131.012 89.4828C132.722 90.3798 134.698 90.82 136.925 90.82V89.82ZM131.48 88.5988C129.966 87.7915 128.796 86.6347 127.963 85.119L127.087 85.601C128.013 87.2853 129.323 88.5819 131.009 89.4812L131.48 88.5988ZM127.966 85.1247C127.157 83.6089 126.745 81.8258 126.745 79.76H125.745C125.745 81.9609 126.185 83.9111 127.084 85.5953L127.966 85.1247ZM126.745 79.76C126.745 77.6942 127.157 75.9111 127.966 74.3953L127.084 73.9247C126.185 75.6089 125.745 77.5591 125.745 79.76H126.745ZM127.963 74.401C128.796 72.8853 129.966 71.7285 131.48 70.9212L131.009 70.0388C129.323 70.9381 128.013 72.2347 127.087 73.919L127.963 74.401ZM131.477 70.9228C133.02 70.1131 134.831 69.7 136.925 69.7V68.7C134.698 68.7 132.722 69.1402 131.012 70.0372L131.477 70.9228ZM136.925 69.7C138.99 69.7 140.774 70.1128 142.289 70.9212L142.76 70.0388C141.076 69.1406 139.126 68.7 136.925 68.7V69.7ZM142.289 70.9212C143.802 71.7278 144.957 72.8828 145.764 74.3953L146.646 73.9247C145.746 72.2372 144.448 70.9388 142.76 70.0388L142.289 70.9212ZM145.767 74.401C146.6 75.9156 147.025 77.6967 147.025 79.76H148.025C148.025 77.5567 147.57 75.6044 146.643 73.919L145.767 74.401ZM147.025 79.76C147.025 81.8233 146.6 83.6044 145.767 85.119L146.643 85.601C147.57 83.9156 148.025 81.9633 148.025 79.76H147.025ZM145.764 85.1247C144.957 86.6372 143.802 87.7922 142.289 88.5988L142.76 89.4812C144.448 88.5812 145.746 87.2828 146.646 85.5953L145.764 85.1247ZM142.289 88.5988C140.774 89.4072 138.99 89.82 136.925 89.82V90.82C139.126 90.82 141.076 90.3794 142.76 89.4812L142.289 88.5988ZM136.925 86.22C138.539 86.22 139.832 85.6797 140.718 84.5484L139.931 83.9316C139.271 84.7736 138.297 85.22 136.925 85.22V86.22ZM140.713 84.5549C141.616 83.4407 142.025 81.8127 142.025 79.76H141.025C141.025 81.7073 140.633 83.066 139.936 83.9251L140.713 84.5549ZM142.025 79.76C142.025 77.7321 141.616 76.1184 140.713 75.0051L139.936 75.6349C140.634 76.495 141.025 77.8413 141.025 79.76H142.025ZM140.722 75.0167C139.837 73.8572 138.544 73.3 136.925 73.3V74.3C138.292 74.3 139.265 74.7561 139.927 75.6233L140.722 75.0167ZM136.925 73.3C135.282 73.3 133.964 73.8547 133.052 75.0102L133.837 75.6298C134.525 74.7586 135.527 74.3 136.925 74.3V73.3ZM133.056 75.0051C132.154 76.1184 131.745 77.7321 131.745 79.76H132.745C132.745 77.8413 133.136 76.495 133.833 75.6349L133.056 75.0051ZM131.745 79.76C131.745 81.7985 132.143 83.4195 133.021 84.5388C133.918 85.6811 135.251 86.22 136.925 86.22V85.22C135.478 85.22 134.471 84.7656 133.808 83.9212C133.127 83.0538 132.745 81.6948 132.745 79.76H131.745ZM170.745 69.72H171.245V69.22H170.745V69.72ZM170.745 90V90.5H171.245V90H170.745ZM164.865 90H164.365V90.5H164.865V90ZM164.865 87.04H165.365V85.2348L164.437 86.7828L164.865 87.04ZM162.345 89.48L162.582 89.9202L162.345 89.48ZM153.145 88.2L152.771 88.5317L152.771 88.5317L153.145 88.2ZM151.265 69.72V69.22H150.765V69.72H151.265ZM157.305 69.72H157.805V69.22H157.305V69.72ZM163.505 84.32L163.876 84.6558L163.876 84.6558L163.505 84.32ZM164.665 69.72V69.22H164.165V69.72H164.665ZM170.245 69.72V90H171.245V69.72H170.245ZM170.745 89.5H164.865V90.5H170.745V89.5ZM165.365 90V87.04H164.365V90H165.365ZM164.437 86.7828C163.84 87.7766 163.065 88.5247 162.108 89.0398L162.582 89.9202C163.706 89.3153 164.61 88.4368 165.294 87.2972L164.437 86.7828ZM162.108 89.0398C161.149 89.5565 160.058 89.82 158.825 89.82V90.82C160.206 90.82 161.462 90.5235 162.582 89.9202L162.108 89.0398ZM158.825 89.82C156.384 89.82 154.648 89.1414 153.519 87.8683L152.771 88.5317C154.149 90.0852 156.2 90.82 158.825 90.82V89.82ZM153.519 87.8683C152.38 86.5833 151.765 84.5915 151.765 81.8H150.765C150.765 84.7152 151.404 86.9901 152.771 88.5317L153.519 87.8683ZM151.765 81.8V69.72H150.765V81.8H151.765ZM151.265 70.22H157.305V69.22H151.265V70.22ZM156.805 69.72V81.92H157.805V69.72H156.805ZM156.805 81.92C156.805 83.2067 157.08 84.265 157.716 85.0057C158.365 85.7611 159.313 86.1 160.465 86.1V85.1C159.511 85.1 158.879 84.8256 158.475 84.3543C158.057 83.8683 157.805 83.0867 157.805 81.92H156.805ZM160.465 86.1C161.846 86.1 162.999 85.6236 163.876 84.6558L163.135 83.9842C162.465 84.7231 161.591 85.1 160.465 85.1V86.1ZM163.876 84.6558C164.749 83.6924 165.165 82.4441 165.165 80.96H164.165C164.165 82.2492 163.808 83.2409 163.135 83.9842L163.876 84.6558ZM165.165 80.96V69.72H164.165V80.96H165.165ZM164.665 70.22H170.745V69.22H164.665V70.22ZM189.603 69.64L190.103 69.6436L190.105 69.3191L189.81 69.1848L189.603 69.64ZM189.563 75.16L189.354 75.6143L190.058 75.9374L190.063 75.1636L189.563 75.16ZM182.923 75.8L182.564 75.4519L182.564 75.4521L182.923 75.8ZM181.683 90V90.5H182.183V90H181.683ZM175.643 90H175.143V90.5H175.643V90ZM175.323 69.72V69.22H174.757L174.827 69.782L175.323 69.72ZM181.003 69.72L181.5 69.6629L181.449 69.22H181.003V69.72ZM181.403 73.2L180.906 73.2571L181.868 73.384L181.403 73.2ZM183.763 70.28L184.028 70.704L184.031 70.7023L183.763 70.28ZM187.443 69.74C188.247 69.74 188.892 69.866 189.396 70.0952L189.81 69.1848C189.141 68.8807 188.346 68.74 187.443 68.74V69.74ZM189.103 69.6364L189.063 75.1564L190.063 75.1636L190.103 69.6436L189.103 69.6364ZM189.772 74.7057C188.726 74.2253 187.669 73.98 186.603 73.98V74.98C187.511 74.98 188.427 75.188 189.354 75.6143L189.772 74.7057ZM186.603 73.98C184.911 73.98 183.538 74.4477 182.564 75.4519L183.282 76.1481C184.015 75.3923 185.095 74.98 186.603 74.98V73.98ZM182.564 75.4521C181.622 76.4243 181.183 77.7641 181.183 79.4H182.183C182.183 77.9426 182.571 76.8824 183.282 76.1479L182.564 75.4521ZM181.183 79.4V90H182.183V79.4H181.183ZM181.683 89.5H175.643V90.5H181.683V89.5ZM176.143 90V75.52H175.143V90H176.143ZM176.143 75.52C176.143 73.3443 176.036 71.3896 175.819 69.658L174.827 69.782C175.037 71.4637 175.143 73.3757 175.143 75.52H176.143ZM175.323 70.22H181.003V69.22H175.323V70.22ZM180.506 69.7771L180.906 73.2571L181.9 73.1429L181.5 69.6629L180.506 69.7771ZM181.868 73.384C182.339 72.1934 183.061 71.3087 184.028 70.704L183.498 69.856C182.332 70.5846 181.48 71.6466 180.938 73.016L181.868 73.384ZM184.031 70.7023C185.04 70.0623 186.173 69.74 187.443 69.74V68.74C185.993 68.74 184.673 69.111 183.495 69.8577L184.031 70.7023ZM220.339 70.56L220.062 70.9761L220.068 70.9798L220.339 70.56ZM223.499 74.32L223.045 74.5286L223.048 74.5347L223.499 74.32ZM223.539 85.4L223.991 85.6144L223.992 85.6114L223.539 85.4ZM220.379 89.04L220.645 89.4635L220.645 89.4635L220.379 89.04ZM211.899 89.44L212.131 88.9971L212.131 88.9971L211.899 89.44ZM209.339 87L209.775 86.7543L208.839 85.096V87H209.339ZM209.339 98.64V99.14H209.839V98.64H209.339ZM203.299 98.64H202.799V99.14H203.299V98.64ZM202.979 69.72V69.22H202.413L202.483 69.782L202.979 69.72ZM208.659 69.72L209.156 69.6609L209.103 69.22H208.659V69.72ZM209.059 73.08L208.563 73.1391L208.778 74.9446L209.516 73.2831L209.059 73.08ZM211.619 70.24L211.369 69.807L211.365 69.8095L211.619 70.24ZM217.419 84.24L217.808 84.5549L217.812 84.5498L217.419 84.24ZM217.379 75.44L216.979 75.74L216.984 75.7463L217.379 75.44ZM210.499 75.4L210.108 75.0889L210.107 75.0902L210.499 75.4ZM210.499 84.2L210.107 84.5099L210.112 84.5161L210.499 84.2ZM215.699 69.7C217.34 69.7 218.789 70.1275 220.062 70.976L220.617 70.144C219.17 69.1792 217.525 68.7 215.699 68.7V69.7ZM220.068 70.9798C221.34 71.8028 222.334 72.9789 223.045 74.5286L223.954 74.1114C223.172 72.4078 222.059 71.0772 220.611 70.1402L220.068 70.9798ZM223.048 74.5347C223.785 76.0846 224.159 77.8628 224.159 79.88H225.159C225.159 77.7372 224.761 75.8087 223.951 74.1053L223.048 74.5347ZM224.159 79.88C224.159 81.8998 223.797 83.6655 223.086 85.1886L223.992 85.6114C224.775 83.9345 225.159 82.0202 225.159 79.88H224.159ZM223.088 85.1856C222.378 86.6805 221.386 87.818 220.114 88.6165L220.645 89.4635C222.093 88.5553 223.207 87.2661 223.991 85.6144L223.088 85.1856ZM220.114 88.6165C218.841 89.4151 217.375 89.82 215.699 89.82V90.82C217.544 90.82 219.198 90.3716 220.645 89.4635L220.114 88.6165ZM215.699 89.82C214.357 89.82 213.172 89.542 212.131 88.9971L211.667 89.8829C212.867 90.5113 214.215 90.82 215.699 90.82V89.82ZM212.131 88.9971C211.092 88.4524 210.311 87.7053 209.775 86.7543L208.904 87.2457C209.541 88.3747 210.467 89.2543 211.667 89.8829L212.131 88.9971ZM208.839 87V98.64H209.839V87H208.839ZM209.339 98.14H203.299V99.14H209.339V98.14ZM203.799 98.64V75.52H202.799V98.64H203.799ZM203.799 75.52C203.799 73.3443 203.692 71.3896 203.476 69.658L202.483 69.782C202.693 71.4637 202.799 73.3757 202.799 75.52H203.799ZM202.979 70.22H208.659V69.22H202.979V70.22ZM208.163 69.7791L208.563 73.1391L209.556 73.0209L209.156 69.6609L208.163 69.7791ZM209.516 73.2831C210.006 72.1818 210.786 71.313 211.874 70.6705L211.365 69.8095C210.106 70.5536 209.18 71.5782 208.602 72.8769L209.516 73.2831ZM211.87 70.6729C212.986 70.0277 214.258 69.7 215.699 69.7V68.7C214.1 68.7 212.653 69.0656 211.369 69.8071L211.87 70.6729ZM213.979 86.22C215.594 86.22 216.896 85.6798 217.808 84.5549L217.031 83.9251C216.343 84.7735 215.352 85.22 213.979 85.22V86.22ZM217.812 84.5498C218.707 83.4154 219.119 81.8352 219.119 79.88H218.119C218.119 81.7115 217.731 83.038 217.027 83.9302L217.812 84.5498ZM219.119 79.88C219.119 77.9195 218.692 76.3173 217.775 75.1337L216.984 75.7463C217.72 76.6961 218.119 78.0538 218.119 79.88H219.119ZM217.779 75.14C216.875 73.9336 215.585 73.34 213.979 73.34V74.34C215.307 74.34 216.284 74.8131 216.979 75.74L217.779 75.14ZM213.979 73.34C212.355 73.34 211.042 73.9137 210.108 75.0889L210.891 75.7111C211.61 74.8063 212.617 74.34 213.979 74.34V73.34ZM210.107 75.0902C209.211 76.2257 208.799 77.8201 208.799 79.8H209.799C209.799 77.9399 210.188 76.601 210.892 75.7098L210.107 75.0902ZM208.799 79.8C208.799 81.7799 209.211 83.3743 210.107 84.5098L210.892 83.8902C210.188 82.999 209.799 81.6601 209.799 79.8H208.799ZM210.112 84.5161C211.048 85.6632 212.36 86.22 213.979 86.22V85.22C212.612 85.22 211.604 84.7635 210.887 83.8839L210.112 84.5161ZM228.534 60.56V60.06H228.034V60.56H228.534ZM234.574 60.56H235.074V60.06H234.574V60.56ZM234.574 90V90.5H235.074V90H234.574ZM228.534 90H228.034V90.5H228.534V90ZM228.534 61.06H234.574V60.06H228.534V61.06ZM234.074 60.56V90H235.074V60.56H234.074ZM234.574 89.5H228.534V90.5H234.574V89.5ZM229.034 90V60.56H228.034V90H229.034ZM259.83 69.72H260.33V69.22H259.83V69.72ZM259.83 90V90.5H260.33V90H259.83ZM253.87 90H253.37V90.5H253.87V90ZM253.87 87H254.37V85.1679L253.44 86.746L253.87 87ZM251.27 89.44L251.502 89.8829L251.502 89.8829L251.27 89.44ZM242.79 89.04L242.521 89.4612L242.525 89.4635L242.79 89.04ZM239.63 85.4L239.177 85.6115L239.182 85.6206L239.63 85.4ZM239.63 74.32L239.179 74.1053L239.176 74.1114L239.63 74.32ZM242.83 70.56L243.102 70.9798L243.108 70.976L242.83 70.56ZM251.27 70.12L251.03 70.5585L251.03 70.5585L251.27 70.12ZM253.87 72.6L253.44 72.854L254.37 74.4321V72.6H253.87ZM253.87 69.72V69.22H253.37V69.72H253.87ZM252.67 75.4L252.274 75.7049L252.278 75.7098L252.67 75.4ZM245.75 75.44L245.355 75.1337L245.355 75.1337L245.75 75.44ZM245.71 84.24L245.318 84.5498L245.322 84.5555L245.327 84.5611L245.71 84.24ZM259.33 69.72V90H260.33V69.72H259.33ZM259.83 89.5H253.87V90.5H259.83V89.5ZM254.37 90V87H253.37V90H254.37ZM253.44 86.746C252.876 87.7019 252.08 88.4515 251.038 88.9971L251.502 89.8829C252.701 89.2552 253.638 88.3781 254.301 87.254L253.44 86.746ZM251.038 88.9971C249.998 89.542 248.812 89.82 247.47 89.82V90.82C248.955 90.82 250.303 90.5113 251.502 89.8829L251.038 88.9971ZM247.47 89.82C245.795 89.82 244.329 89.4151 243.056 88.6165L242.525 89.4635C243.972 90.3716 245.626 90.82 247.47 90.82V89.82ZM243.06 88.6189C241.812 87.8199 240.817 86.6799 240.079 85.1794L239.182 85.6206C239.991 87.2668 241.102 88.5534 242.521 89.4611L243.06 88.6189ZM240.083 85.1886C239.373 83.6655 239.01 81.8998 239.01 79.88H238.01C238.01 82.0202 238.395 83.9345 239.177 85.6114L240.083 85.1886ZM239.01 79.88C239.01 77.8604 239.373 76.08 240.085 74.5286L239.176 74.1114C238.395 75.8133 238.01 77.7396 238.01 79.88H239.01ZM240.082 74.5347C240.82 72.9821 241.828 71.8039 243.102 70.9798L242.559 70.1402C241.112 71.0761 239.987 72.4046 239.179 74.1053L240.082 74.5347ZM243.108 70.976C244.38 70.1275 245.829 69.7 247.47 69.7V68.7C245.645 68.7 244 69.1792 242.553 70.144L243.108 70.976ZM247.47 69.7C248.809 69.7 249.991 69.9897 251.03 70.5585L251.51 69.6815C250.309 69.0236 248.958 68.7 247.47 68.7V69.7ZM251.03 70.5585C252.076 71.1312 252.875 71.8961 253.44 72.854L254.301 72.346C253.639 71.2239 252.705 70.3354 251.51 69.6815L251.03 70.5585ZM254.37 72.6V69.72H253.37V72.6H254.37ZM253.87 70.22H259.83V69.22H253.87V70.22ZM249.23 86.22C250.85 86.22 252.152 85.663 253.063 84.5098L252.278 83.8902C251.588 84.7637 250.598 85.22 249.23 85.22V86.22ZM253.063 84.5098C253.959 83.3743 254.37 81.7799 254.37 79.8H253.37C253.37 81.6601 252.981 82.999 252.278 83.8902L253.063 84.5098ZM254.37 79.8C254.37 77.8201 253.959 76.2257 253.063 75.0902L252.278 75.7098C252.981 76.601 253.37 77.9399 253.37 79.8H254.37ZM253.067 75.0951C252.158 73.914 250.854 73.34 249.23 73.34V74.34C250.593 74.34 251.583 74.806 252.274 75.7049L253.067 75.0951ZM249.23 73.34C247.601 73.34 246.287 73.9307 245.355 75.1337L246.146 75.7463C246.866 74.816 247.873 74.34 249.23 74.34V73.34ZM245.355 75.1337C244.438 76.3173 244.01 77.9195 244.01 79.88H245.01C245.01 78.0538 245.409 76.6961 246.146 75.7463L245.355 75.1337ZM244.01 79.88C244.01 81.8352 244.422 83.4154 245.318 84.5498L246.103 83.9302C245.398 83.038 245.01 81.7115 245.01 79.88H244.01ZM245.327 84.5611C246.266 85.6821 247.592 86.22 249.23 86.22V85.22C247.829 85.22 246.808 84.7713 246.094 83.9189L245.327 84.5611ZM284.426 90V90.5H284.926V90H284.426ZM278.386 90H277.886V90.5H278.386V90ZM277.586 74.92L277.188 75.2225L277.194 75.2315L277.202 75.2401L277.586 74.92ZM271.946 75.2L272.31 75.542L272.31 75.542L271.946 75.2ZM270.746 90V90.5H271.246V90H270.746ZM264.706 90H264.206V90.5H264.706V90ZM264.386 69.72V69.22H263.819L263.889 69.782L264.386 69.72ZM270.066 69.72L270.562 69.658L270.507 69.22H270.066V69.72ZM270.466 72.92L269.969 72.982L270.149 74.4193L270.894 73.1772L270.466 72.92ZM273.266 70.16L273.026 69.721L273.022 69.7234L273.266 70.16ZM277.226 69.7C279.524 69.7 281.165 70.3761 282.244 71.6527C283.336 72.9455 283.926 74.9384 283.926 77.72H284.926C284.926 74.8216 284.315 72.5545 283.008 71.0073C281.686 69.4439 279.727 68.7 277.226 68.7V69.7ZM283.926 77.72V90H284.926V77.72H283.926ZM284.426 89.5H278.386V90.5H284.426V89.5ZM278.886 90V78H277.886V90H278.886ZM278.886 78C278.886 76.5442 278.615 75.3739 277.97 74.5999L277.202 75.2401C277.623 75.7461 277.886 76.6291 277.886 78H278.886ZM277.984 74.6175C277.353 73.7871 276.365 73.42 275.146 73.42V74.42C276.166 74.42 276.805 74.7196 277.188 75.2225L277.984 74.6175ZM275.146 73.42C273.695 73.42 272.489 73.8894 271.581 74.858L272.31 75.542C273.002 74.804 273.929 74.42 275.146 74.42V73.42ZM271.581 74.858C270.675 75.8243 270.246 77.1038 270.246 78.64H271.246C271.246 77.2962 271.616 76.2823 272.31 75.542L271.581 74.858ZM270.246 78.64V90H271.246V78.64H270.246ZM270.746 89.5H264.706V90.5H270.746V89.5ZM265.206 90V75.52H264.206V90H265.206ZM265.206 75.52C265.206 73.3443 265.098 71.3896 264.882 69.658L263.889 69.782C264.1 71.4637 264.206 73.3757 264.206 75.52H265.206ZM264.386 70.22H270.066V69.22H264.386V70.22ZM269.569 69.782L269.969 72.982L270.962 72.858L270.562 69.658L269.569 69.782ZM270.894 73.1772C271.572 72.0471 272.444 71.1912 273.509 70.5966L273.022 69.7234C271.794 70.4088 270.799 71.3929 270.037 72.6628L270.894 73.1772ZM273.505 70.5989C274.598 70.0028 275.834 69.7 277.226 69.7V68.7C275.684 68.7 274.28 69.0372 273.026 69.7211L273.505 70.5989ZM296.837 74.24V73.74H296.337V74.24H296.837ZM297.717 84.6L297.38 84.9701L297.39 84.9784L297.717 84.6ZM301.997 85.08H302.497V84.4396L301.876 84.5949L301.997 85.08ZM301.997 89.76L302.178 90.226L302.497 90.102V89.76H301.997ZM292.757 88.2L292.39 88.5394L292.393 88.5431L292.757 88.2ZM290.797 74.24H291.297V73.74H290.797V74.24ZM286.957 74.24H286.457V74.74H286.957V74.24ZM286.957 69.72V69.22H286.457V69.72H286.957ZM290.797 69.72V70.22H291.297V69.72H290.797ZM290.797 64.96L290.643 64.4844L290.297 64.5966V64.96H290.797ZM296.837 63H297.337V62.3121L296.683 62.5244L296.837 63ZM296.837 69.72H296.337V70.22H296.837V69.72ZM301.997 69.72H302.497V69.22H301.997V69.72ZM301.997 74.24V74.74H302.497V74.24H301.997ZM296.337 74.24V82.12H297.337V74.24H296.337ZM296.337 82.12C296.337 83.3212 296.652 84.308 297.381 84.97L298.053 84.23C297.608 83.8253 297.337 83.1588 297.337 82.12H296.337ZM297.39 84.9784C298.085 85.5788 298.969 85.86 299.997 85.86V84.86C299.158 84.86 298.522 84.6346 298.044 84.2216L297.39 84.9784ZM299.997 85.86C300.635 85.86 301.343 85.7588 302.118 85.5651L301.876 84.5949C301.157 84.7746 300.532 84.86 299.997 84.86V85.86ZM301.497 85.08V89.76H302.497V85.08H301.497ZM301.816 89.294C300.929 89.6389 299.834 89.82 298.517 89.82V90.82C299.92 90.82 301.145 90.6277 302.178 90.226L301.816 89.294ZM298.517 89.82C296.106 89.82 294.334 89.1431 293.121 87.8569L292.393 88.5431C293.846 90.0836 295.915 90.82 298.517 90.82V89.82ZM293.124 87.8606C291.928 86.5667 291.297 84.7166 291.297 82.24H290.297C290.297 84.8834 290.973 87.0067 292.39 88.5394L293.124 87.8606ZM291.297 82.24V74.24H290.297V82.24H291.297ZM290.797 73.74H286.957V74.74H290.797V73.74ZM287.457 74.24V69.72H286.457V74.24H287.457ZM286.957 70.22H290.797V69.22H286.957V70.22ZM291.297 69.72V64.96H290.297V69.72H291.297ZM290.951 65.4356L296.991 63.4756L296.683 62.5244L290.643 64.4844L290.951 65.4356ZM296.337 63V69.72H297.337V63H296.337ZM296.837 70.22H301.997V69.22H296.837V70.22ZM301.497 69.72V74.24H302.497V69.72H301.497ZM301.997 73.74H296.837V74.74H301.997V73.74ZM303.776 87.84L303.309 87.662L303.175 88.0147L303.477 88.2406L303.776 87.84ZM305.376 83.64L305.67 83.2352L305.141 82.8521L304.909 83.462L305.376 83.64ZM308.936 85.44L308.781 85.9154L308.79 85.9181L308.936 85.44ZM315.336 85.56L315.088 85.1259L315.088 85.1259L315.336 85.56ZM315.576 82.96L315.281 83.3632L315.281 83.3632L315.576 82.96ZM313.456 82.2L313.345 82.6875L313.353 82.6893L313.456 82.2ZM310.136 81.44L310.248 80.9526L310.243 80.9516L310.136 81.44ZM305.816 79.4L305.458 79.7484L305.463 79.7536L305.816 79.4ZM305.536 72.32L305.137 72.0182L305.132 72.0253L305.536 72.32ZM308.616 70.04L308.805 70.503L308.813 70.4996L308.616 70.04ZM317.376 69.88L317.221 70.3553L317.229 70.3579L317.376 69.88ZM321.096 71.72L321.558 71.912L321.709 71.5488L321.392 71.3165L321.096 71.72ZM319.416 75.76L319.132 76.1711L319.64 76.5233L319.878 75.952L319.416 75.76ZM316.216 74.12L316.051 74.5919L316.055 74.5932L316.216 74.12ZM310.776 74.08L310.513 73.6549L310.513 73.6549L310.776 74.08ZM310.416 76.64L310.078 77.0086L310.094 77.0232L310.111 77.0363L310.416 76.64ZM312.216 77.32L312.325 76.832L312.323 76.8315L312.216 77.32ZM315.616 78.08L315.729 77.5928L315.725 77.592L315.616 78.08ZM320.136 80.24L319.778 80.5885L320.136 80.24ZM319.216 88.64L319.51 89.045L319.51 89.045L319.216 88.64ZM312.856 89.82C309.083 89.82 306.174 89.0073 304.075 87.4394L303.477 88.2406C305.805 89.9794 308.95 90.82 312.856 90.82V89.82ZM304.243 88.018L305.843 83.818L304.909 83.462L303.309 87.662L304.243 88.018ZM305.083 84.0448C306.193 84.85 307.427 85.4732 308.781 85.9153L309.091 84.9647C307.832 84.5535 306.692 83.9767 305.67 83.2352L305.083 84.0448ZM308.79 85.9181C310.144 86.3325 311.526 86.54 312.936 86.54V85.54C311.626 85.54 310.342 85.3475 309.083 84.9619L308.79 85.9181ZM312.936 86.54C314.015 86.54 314.916 86.3761 315.584 85.9941L315.088 85.1259C314.637 85.3839 313.937 85.54 312.936 85.54V86.54ZM315.584 85.9941C316.29 85.5908 316.676 84.9639 316.676 84.16H315.676C315.676 84.5828 315.502 84.8892 315.088 85.1259L315.584 85.9941ZM316.676 84.16C316.676 83.4981 316.404 82.9467 315.872 82.5568L315.281 83.3632C315.549 83.56 315.676 83.8086 315.676 84.16H316.676ZM315.872 82.5568C315.38 82.1962 314.583 81.9262 313.559 81.7107L313.353 82.6893C314.356 82.9005 314.972 83.1371 315.281 83.3632L315.872 82.5568ZM313.568 81.7126L310.248 80.9526L310.025 81.9274L313.345 82.6874L313.568 81.7126ZM310.243 80.9516C308.346 80.5357 307.009 79.886 306.17 79.0464L305.463 79.7536C306.49 80.7807 308.034 81.491 310.029 81.9284L310.243 80.9516ZM306.175 79.0516C305.376 78.2288 304.956 77.1228 304.956 75.68H303.956C303.956 77.3305 304.444 78.7045 305.458 79.7484L306.175 79.0516ZM304.956 75.68C304.956 74.5296 305.284 73.5135 305.94 72.6147L305.132 72.0253C304.348 73.0999 303.956 74.3237 303.956 75.68H304.956ZM305.935 72.6217C306.62 71.7162 307.57 71.0072 308.805 70.5029L308.427 69.5771C307.049 70.1395 305.946 70.9504 305.138 72.0183L305.935 72.6217ZM308.813 70.4996C310.046 69.971 311.484 69.7 313.136 69.7V68.7C311.375 68.7 309.799 68.989 308.419 69.5804L308.813 70.4996ZM313.136 69.7C314.523 69.7 315.884 69.9181 317.221 70.3552L317.532 69.4048C316.095 68.9352 314.63 68.7 313.136 68.7V69.7ZM317.229 70.3579C318.566 70.7694 319.756 71.3586 320.801 72.1235L321.392 71.3165C320.25 70.4814 318.959 69.844 317.523 69.4021L317.229 70.3579ZM320.635 71.528L318.955 75.568L319.878 75.952L321.558 71.912L320.635 71.528ZM319.701 75.3489C318.626 74.6051 317.519 74.0364 316.378 73.6468L316.055 74.5932C317.1 74.9503 318.126 75.4749 319.132 76.1711L319.701 75.3489ZM316.381 73.6481C315.268 73.2583 314.172 73.06 313.096 73.06V74.06C314.047 74.06 315.031 74.2351 316.051 74.5919L316.381 73.6481ZM313.096 73.06C312.06 73.06 311.182 73.2407 310.513 73.6549L311.039 74.5051C311.49 74.226 312.159 74.06 313.096 74.06V73.06ZM310.513 73.6549C309.819 74.0846 309.436 74.7186 309.436 75.52H310.436C310.436 75.0947 310.614 74.7688 311.039 74.5051L310.513 73.6549ZM309.436 75.52C309.436 76.1065 309.65 76.6159 310.078 77.0086L310.754 76.2714C310.542 76.0774 310.436 75.8402 310.436 75.52H309.436ZM310.111 77.0363C310.55 77.3737 311.242 77.6187 312.109 77.8084L312.323 76.8315C311.484 76.648 310.976 76.4396 310.721 76.2437L310.111 77.0363ZM312.107 77.808L315.507 78.568L315.725 77.592L312.325 76.832L312.107 77.808ZM315.504 78.5672C317.541 79.0373 318.94 79.7271 319.778 80.5885L320.495 79.8915C319.466 78.8329 317.852 78.0827 315.729 77.5928L315.504 78.5672ZM319.778 80.5885C320.603 81.4374 321.036 82.5831 321.036 84.08H322.036C322.036 82.3769 321.536 80.9626 320.495 79.8915L319.778 80.5885ZM321.036 84.08C321.036 85.8407 320.339 87.2097 318.923 88.235L319.51 89.045C321.187 87.8303 322.036 86.1593 322.036 84.08H321.036ZM318.923 88.235C317.49 89.2725 315.486 89.82 312.856 89.82V90.82C315.613 90.82 317.849 90.2475 319.51 89.045L318.923 88.235ZM356.783 69.72H357.283V69.22H356.783V69.72ZM356.783 90V90.5H357.283V90H356.783ZM350.823 90H350.323V90.5H350.823V90ZM350.823 87H351.323V85.1679L350.393 86.746L350.823 87ZM348.223 89.44L348.455 89.8829L348.455 89.8829L348.223 89.44ZM339.743 89.04L339.474 89.4612L339.478 89.4635L339.743 89.04ZM336.583 85.4L336.13 85.6115L336.135 85.6206L336.583 85.4ZM336.583 74.32L336.132 74.1053L336.129 74.1114L336.583 74.32ZM339.783 70.56L340.055 70.9798L340.061 70.976L339.783 70.56ZM348.223 70.12L347.983 70.5585L347.983 70.5585L348.223 70.12ZM350.823 72.6L350.393 72.854L351.323 74.4321V72.6H350.823ZM350.823 69.72V69.22H350.323V69.72H350.823ZM349.623 75.4L349.227 75.7049L349.231 75.7098L349.623 75.4ZM342.703 75.44L342.308 75.1337L342.308 75.1337L342.703 75.44ZM342.663 84.24L342.271 84.5498L342.276 84.5555L342.28 84.5611L342.663 84.24ZM356.283 69.72V90H357.283V69.72H356.283ZM356.783 89.5H350.823V90.5H356.783V89.5ZM351.323 90V87H350.323V90H351.323ZM350.393 86.746C349.829 87.7019 349.033 88.4515 347.991 88.9971L348.455 89.8829C349.654 89.2552 350.591 88.3781 351.254 87.254L350.393 86.746ZM347.991 88.9971C346.951 89.542 345.766 89.82 344.423 89.82V90.82C345.908 90.82 347.256 90.5113 348.455 89.8829L347.991 88.9971ZM344.423 89.82C342.748 89.82 341.282 89.4151 340.009 88.6165L339.478 89.4635C340.925 90.3716 342.579 90.82 344.423 90.82V89.82ZM340.013 88.6189C338.765 87.8199 337.77 86.6799 337.032 85.1794L336.135 85.6206C336.944 87.2668 338.056 88.5534 339.474 89.4611L340.013 88.6189ZM337.037 85.1886C336.326 83.6655 335.963 81.8998 335.963 79.88H334.963C334.963 82.0202 335.348 83.9345 336.13 85.6114L337.037 85.1886ZM335.963 79.88C335.963 77.8604 336.326 76.08 337.038 74.5286L336.129 74.1114C335.348 75.8133 334.963 77.7396 334.963 79.88H335.963ZM337.035 74.5347C337.773 72.9821 338.781 71.8039 340.055 70.9798L339.512 70.1402C338.065 71.0761 336.94 72.4046 336.132 74.1053L337.035 74.5347ZM340.061 70.976C341.334 70.1275 342.783 69.7 344.423 69.7V68.7C342.598 68.7 340.953 69.1792 339.506 70.144L340.061 70.976ZM344.423 69.7C345.762 69.7 346.945 69.9897 347.983 70.5585L348.464 69.6815C347.262 69.0236 345.912 68.7 344.423 68.7V69.7ZM347.983 70.5585C349.029 71.1312 349.828 71.8961 350.393 72.854L351.254 72.346C350.592 71.2239 349.658 70.3354 348.464 69.6815L347.983 70.5585ZM351.323 72.6V69.72H350.323V72.6H351.323ZM350.823 70.22H356.783V69.22H350.823V70.22ZM346.183 86.22C347.803 86.22 349.105 85.663 350.016 84.5098L349.231 83.8902C348.541 84.7637 347.551 85.22 346.183 85.22V86.22ZM350.016 84.5098C350.912 83.3743 351.323 81.7799 351.323 79.8H350.323C350.323 81.6601 349.935 82.999 349.231 83.8902L350.016 84.5098ZM351.323 79.8C351.323 77.8201 350.912 76.2257 350.016 75.0902L349.231 75.7098C349.935 76.601 350.323 77.9399 350.323 79.8H351.323ZM350.02 75.0951C349.111 73.914 347.808 73.34 346.183 73.34V74.34C347.546 74.34 348.536 74.806 349.227 75.7049L350.02 75.0951ZM346.183 73.34C344.554 73.34 343.241 73.9307 342.308 75.1337L343.099 75.7463C343.82 74.816 344.826 74.34 346.183 74.34V73.34ZM342.308 75.1337C341.391 76.3173 340.963 77.9195 340.963 79.88H341.963C341.963 78.0538 342.363 76.6961 343.099 75.7463L342.308 75.1337ZM340.963 79.88C340.963 81.8352 341.375 83.4154 342.271 84.5498L343.056 83.9302C342.351 83.038 341.963 81.7115 341.963 79.88H340.963ZM342.28 84.5611C343.219 85.6821 344.545 86.22 346.183 86.22V85.22C344.782 85.22 343.761 84.7713 343.047 83.9189L342.28 84.5611ZM361.659 60.56V60.06H361.159V60.56H361.659ZM367.699 60.56H368.199V60.06H367.699V60.56ZM367.699 90V90.5H368.199V90H367.699ZM361.659 90H361.159V90.5H361.659V90ZM361.659 61.06H367.699V60.06H361.659V61.06ZM367.199 60.56V90H368.199V60.56H367.199ZM367.699 89.5H361.659V90.5H367.699V89.5ZM362.159 90V60.56H361.159V90H362.159ZM372.635 69.72V69.22H372.135V69.72H372.635ZM378.675 69.72H379.175V69.22H378.675V69.72ZM378.675 90V90.5H379.175V90H378.675ZM372.635 90H372.135V90.5H372.635V90ZM378.875 60.2H379.375V59.7H378.875V60.2ZM378.875 65.88V66.38H379.375V65.88H378.875ZM372.435 65.88H371.935V66.38H372.435V65.88ZM372.435 60.2V59.7H371.935V60.2H372.435ZM372.635 70.22H378.675V69.22H372.635V70.22ZM378.175 69.72V90H379.175V69.72H378.175ZM378.675 89.5H372.635V90.5H378.675V89.5ZM373.135 90V69.72H372.135V90H373.135ZM378.375 60.2V65.88H379.375V60.2H378.375ZM378.875 65.38H372.435V66.38H378.875V65.38ZM372.935 65.88V60.2H371.935V65.88H372.935ZM372.435 60.7H378.875V59.7H372.435V60.7ZM403.612 69.76L404.069 69.9616L404.379 69.26H403.612V69.76ZM394.692 90V90.5H395.018L395.149 90.2016L394.692 90ZM389.572 90L389.113 90.1994L389.244 90.5H389.572V90ZM380.772 69.76V69.26H380.009L380.313 69.9594L380.772 69.76ZM387.092 69.76L387.557 69.5758L387.432 69.26H387.092V69.76ZM392.292 82.88L391.827 83.0642L392.285 84.2193L392.755 83.0691L392.292 82.88ZM397.652 69.76V69.26H397.316L397.189 69.5709L397.652 69.76ZM403.154 69.5584L394.234 89.7984L395.149 90.2016L404.069 69.9616L403.154 69.5584ZM394.692 89.5H389.572V90.5H394.692V89.5ZM390.03 89.8006L381.23 69.5606L380.313 69.9594L389.113 90.1994L390.03 89.8006ZM380.772 70.26H387.092V69.26H380.772V70.26ZM386.627 69.9442L391.827 83.0642L392.757 82.6958L387.557 69.5758L386.627 69.9442ZM392.755 83.0691L398.115 69.9491L397.189 69.5709L391.829 82.6909L392.755 83.0691ZM397.652 70.26H403.612V69.26H397.652V70.26ZM423.413 80.36V80.86H423.913V80.36H423.413ZM410.053 80.36V79.86H409.524L409.554 80.3881L410.053 80.36ZM411.533 84.52L411.18 84.8736L411.185 84.8789L411.533 84.52ZM421.453 83.76L421.919 83.5775L421.678 82.9627L421.152 83.3615L421.453 83.76ZM423.053 87.84L423.367 88.2294L423.653 87.9991L423.519 87.6575L423.053 87.84ZM419.453 89.68L419.598 90.1587L419.604 90.1569L419.453 89.68ZM407.133 87.52L406.785 87.8784L406.787 87.8809L407.133 87.52ZM405.453 74.32L405.011 74.0877L405.009 74.0905L405.453 74.32ZM409.013 70.56L409.264 70.9927L409.27 70.9894L409.013 70.56ZM420.933 72L420.559 72.3315L420.562 72.3342L420.933 72ZM411.533 74.44L411.194 74.0731L411.187 74.0796L411.533 74.44ZM410.173 77.36L409.68 77.2778L409.583 77.86H410.173V77.36ZM418.213 77.36V77.86H418.778L418.71 77.2992L418.213 77.36ZM423.413 79.86H410.053V80.86H423.413V79.86ZM409.554 80.3881C409.664 82.3421 410.177 83.871 411.18 84.8736L411.887 84.1664C411.13 83.409 410.656 82.1646 410.553 80.3319L409.554 80.3881ZM411.185 84.8789C412.191 85.8545 413.644 86.3 415.453 86.3V85.3C413.796 85.3 412.635 84.8922 411.882 84.161L411.185 84.8789ZM415.453 86.3C416.55 86.3 417.643 86.1171 418.732 85.7543L418.415 84.8057C417.424 85.1363 416.437 85.3 415.453 85.3V86.3ZM418.732 85.7543C419.824 85.3903 420.832 84.8579 421.755 84.1585L421.152 83.3615C420.315 83.9954 419.403 84.4764 418.415 84.8057L418.732 85.7543ZM420.988 83.9425L422.588 88.0225L423.519 87.6575L421.919 83.5775L420.988 83.9425ZM422.74 87.4506C421.838 88.1771 420.697 88.7644 419.303 89.2031L419.604 90.1569C421.09 89.6889 422.349 89.0495 423.367 88.2294L422.74 87.4506ZM419.309 89.2013C417.941 89.6142 416.563 89.82 415.173 89.82V90.82C416.664 90.82 418.139 90.5991 419.598 90.1587L419.309 89.2013ZM415.173 89.82C411.853 89.82 409.31 88.9145 407.479 87.1591L406.787 87.8809C408.85 89.8589 411.667 90.82 415.173 90.82V89.82ZM407.482 87.1616C405.651 85.3807 404.713 82.9471 404.713 79.8H403.713C403.713 83.1596 404.723 85.8726 406.785 87.8784L407.482 87.1616ZM404.713 79.8C404.713 77.8152 405.112 76.0692 405.898 74.5495L405.009 74.0905C404.141 75.7708 403.713 77.6781 403.713 79.8H404.713ZM405.896 74.5523C406.708 73.0052 407.83 71.8232 409.264 70.9927L408.763 70.1273C407.157 71.0568 405.906 72.3815 405.011 74.0877L405.896 74.5523ZM409.27 70.9894C410.706 70.1328 412.336 69.7 414.173 69.7V68.7C412.171 68.7 410.361 69.1738 408.757 70.1306L409.27 70.9894ZM414.173 69.7C416.907 69.7 419.015 70.588 420.559 72.3315L421.308 71.6685C419.545 69.6787 417.147 68.7 414.173 68.7V69.7ZM420.562 72.3342C422.112 74.0595 422.913 76.422 422.913 79.48H423.913C423.913 76.2446 423.062 73.6205 421.305 71.6658L420.562 72.3342ZM422.913 79.48V80.36H423.913V79.48H422.913ZM414.333 72.94C413.083 72.94 412.022 73.3066 411.194 74.0731L411.873 74.8069C412.485 74.24 413.29 73.94 414.333 73.94V72.94ZM411.187 74.0796C410.393 74.843 409.905 75.9283 409.68 77.2778L410.667 77.4422C410.868 76.2317 411.287 75.3704 411.88 74.8004L411.187 74.0796ZM410.173 77.86H418.213V76.86H410.173V77.86ZM418.71 77.2992C418.542 75.9288 418.111 74.8279 417.359 74.0683C416.597 73.2989 415.567 72.94 414.333 72.94V73.94C415.366 73.94 416.116 74.2344 416.648 74.7717C417.189 75.3187 417.565 76.1779 417.717 77.4208L418.71 77.2992Z" fill="#455B57"/>
<path d="M55.35 1.4L42.7 37H36.45L28.15 13.45L19.8 37H13.55L0.9 1.4H8.85L17.05 26L25.65 1.4H31.1L39.5 26.35L47.9 1.4H55.35ZM79.1203 24.95H62.4203C62.5536 27.3167 63.1703 29.05 64.2703 30.15C65.3703 31.2167 67.0036 31.75 69.1703 31.75C70.4703 31.75 71.7703 31.5333 73.0703 31.1C74.3703 30.6667 75.5703 30.0333 76.6703 29.2L78.6703 34.3C77.4703 35.2667 75.9703 36.0333 74.1703 36.6C72.4036 37.1333 70.6203 37.4 68.8203 37.4C64.5536 37.4 61.2036 36.2333 58.7703 33.9C56.337 31.5333 55.1203 28.3167 55.1203 24.25C55.1203 21.6833 55.637 19.4 56.6703 17.4C57.737 15.3667 59.2203 13.8 61.1203 12.7C63.0203 11.5667 65.1703 11 67.5703 11C71.137 11 73.9536 12.1667 76.0203 14.5C78.087 16.8 79.1203 19.9167 79.1203 23.85V24.95ZM67.7703 16.3C66.337 16.3 65.1703 16.7167 64.2703 17.55C63.4036 18.3833 62.837 19.6 62.5703 21.2H72.6203C72.2203 17.9333 70.6036 16.3 67.7703 16.3ZM83.8605 0.199997H91.4105V37H83.8605V0.199997ZM109.581 37.4C105.448 37.4 102.198 36.2333 99.8313 33.9C97.4979 31.5667 96.3313 28.3833 96.3313 24.35C96.3313 21.7167 96.8979 19.4 98.0313 17.4C99.1646 15.3667 100.748 13.8 102.781 12.7C104.848 11.5667 107.231 11 109.931 11C111.765 11 113.548 11.2833 115.281 11.85C117.015 12.4167 118.398 13.1833 119.431 14.15L117.431 19.4C116.431 18.6 115.331 17.9833 114.131 17.55C112.931 17.0833 111.765 16.85 110.631 16.85C108.565 16.85 106.948 17.4833 105.781 18.75C104.648 19.9833 104.081 21.8 104.081 24.2C104.081 26.6333 104.648 28.4833 105.781 29.75C106.915 30.9833 108.531 31.6 110.631 31.6C111.765 31.6 112.931 31.3833 114.131 30.95C115.331 30.4833 116.431 29.85 117.431 29.05L119.431 34.3C118.331 35.2667 116.898 36.0333 115.131 36.6C113.365 37.1333 111.515 37.4 109.581 37.4ZM135.121 37.4C132.421 37.4 130.054 36.8667 128.021 35.8C126.021 34.7333 124.471 33.2 123.371 31.2C122.304 29.2 121.771 26.8667 121.771 24.2C121.771 21.5333 122.304 19.2 123.371 17.2C124.471 15.2 126.021 13.6667 128.021 12.6C130.054 11.5333 132.421 11 135.121 11C137.787 11 140.121 11.5333 142.121 12.6C144.121 13.6667 145.654 15.2 146.721 17.2C147.821 19.2 148.371 21.5333 148.371 24.2C148.371 26.8667 147.821 29.2 146.721 31.2C145.654 33.2 144.121 34.7333 142.121 35.8C140.121 36.8667 137.787 37.4 135.121 37.4ZM135.121 31.65C136.987 31.65 138.404 31.0333 139.371 29.8C140.371 28.5667 140.871 26.7 140.871 24.2C140.871 21.7333 140.371 19.8833 139.371 18.65C138.404 17.3833 136.987 16.75 135.121 16.75C133.221 16.75 131.771 17.3833 130.771 18.65C129.771 19.8833 129.271 21.7333 129.271 24.2C129.271 29.1667 131.221 31.65 135.121 31.65ZM184.196 11C187.096 11 189.246 11.8833 190.646 13.65C192.08 15.3833 192.796 18.05 192.796 21.65V37H185.246V21.9C185.246 20.1333 184.963 18.8667 184.396 18.1C183.83 17.3 182.896 16.9 181.596 16.9C180.063 16.9 178.88 17.4333 178.046 18.5C177.213 19.5667 176.796 21.0667 176.796 23V37H169.246V21.9C169.246 20.1667 168.946 18.9 168.346 18.1C167.78 17.3 166.863 16.9 165.596 16.9C164.063 16.9 162.863 17.4333 161.996 18.5C161.163 19.5667 160.746 21.0667 160.746 23V37H153.196V18.9C153.196 16.2 153.063 13.7833 152.796 11.65H159.896L160.346 15.45C161.113 14.0167 162.18 12.9167 163.546 12.15C164.946 11.3833 166.546 11 168.346 11C172.113 11 174.613 12.5667 175.846 15.7C176.68 14.2667 177.83 13.1333 179.296 12.3C180.796 11.4333 182.43 11 184.196 11ZM221.503 24.95H204.803C204.936 27.3167 205.553 29.05 206.653 30.15C207.753 31.2167 209.386 31.75 211.553 31.75C212.853 31.75 214.153 31.5333 215.453 31.1C216.753 30.6667 217.953 30.0333 219.053 29.2L221.053 34.3C219.853 35.2667 218.353 36.0333 216.553 36.6C214.786 37.1333 213.003 37.4 211.203 37.4C206.936 37.4 203.586 36.2333 201.153 33.9C198.72 31.5333 197.503 28.3167 197.503 24.25C197.503 21.6833 198.02 19.4 199.053 17.4C200.12 15.3667 201.603 13.8 203.503 12.7C205.403 11.5667 207.553 11 209.953 11C213.52 11 216.336 12.1667 218.403 14.5C220.47 16.8 221.503 19.9167 221.503 23.85V24.95ZM210.153 16.3C208.72 16.3 207.553 16.7167 206.653 17.55C205.786 18.3833 205.22 19.6 204.953 21.2H215.003C214.603 17.9333 212.986 16.3 210.153 16.3Z" fill="#455B57"/>
</svg>
